<?xml version="1.0" encoding="UTF-8"?>
<svg xmlns="http://www.w3.org/2000/svg" xmlns:xlink="http://www.w3.org/1999/xlink" width="576pt" height="576pt" viewBox="0 0 576 576" version="1.1">
<g id="surface17767">
<rect x="0" y="0" width="576" height="576" style="fill:rgb(100%,100%,100%);fill-opacity:1;stroke:none;"/>
<path style="fill-rule:nonzero;fill:rgb(0%,61.960784%,45.098039%);fill-opacity:1;stroke-width:0.75;stroke-linecap:round;stroke-linejoin:round;stroke:rgb(20%,20%,20%);stroke-opacity:1;stroke-miterlimit:10;" d="M 33.550781 248.015625 L 42.835938 247.566406 L 52.121094 248.015625 L 80.539062 248.015625 L 89.824219 247.566406 L 127.710938 247.566406 L 136.996094 247.117188 L 184.351562 247.117188 L 221.492188 248.914062 L 230.78125 249.363281 L 258.636719 250.710938 L 268.109375 250.710938 L 277.394531 251.160156 L 286.863281 251.160156 L 296.148438 251.609375 L 305.25 252.507812 L 314.535156 252.957031 L 323.632812 253.855469 L 332.917969 254.304688 L 342.390625 254.304688 L 351.492188 255.203125 L 379.347656 256.550781 L 388.445312 257.449219 L 397.546875 258.347656 L 406.644531 259.246094 L 425.214844 260.144531 L 443.042969 262.839844 L 452.140625 263.738281 L 461.242188 264.636719 L 470.527344 265.085938 L 479.90625 265.304688 L 488.726562 266.882812 L 497.824219 267.78125 L 516.394531 268.679688 L 525.367188 269.882812 L 534.222656 271.375 L 542.449219 274.382812 L 539.261719 281.261719 L 530.640625 283.320312 L 521.804688 284.855469 L 513.265625 287.101562 L 504.628906 289.117188 L 495.625 290.246094 L 478.171875 293.839844 L 469.441406 295.636719 L 451.988281 299.230469 L 442.890625 300.128906 L 433.789062 301.027344 L 424.503906 301.476562 L 415.40625 302.378906 L 406.121094 302.828125 L 397.207031 304.175781 L 388.105469 305.074219 L 378.636719 305.074219 L 369.535156 305.972656 L 360.230469 306.371094 L 350.964844 306.871094 L 341.867188 307.769531 L 332.582031 308.21875 L 323.109375 308.21875 L 313.824219 308.667969 L 304.722656 309.566406 L 286.152344 310.464844 L 276.925781 311.050781 L 267.582031 311.363281 L 258.855469 312.261719 L 249.757812 313.160156 L 240.65625 314.058594 L 231.371094 314.507812 L 222.132812 315.074219 L 212.988281 315.855469 L 203.886719 316.753906 L 194.601562 317.203125 L 185.503906 318.101562 L 176.21875 318.550781 L 167.117188 319.449219 L 158.011719 320.335938 L 148.734375 320.796875 L 139.261719 320.796875 L 130.15625 321.6875 L 121.0625 322.59375 L 102.492188 323.492188 L 93.390625 324.390625 L 75.195312 326.1875 L 65.90625 326.636719 L 56.621094 327.085938 L 47.972656 328.433594 L 38.6875 328.882812 L 33.550781 324.285156 Z M 33.550781 248.015625 "/>
</g>
</svg>
