<?xml version="1.0" encoding="UTF-8"?>
<svg xmlns="http://www.w3.org/2000/svg" xmlns:xlink="http://www.w3.org/1999/xlink" width="576pt" height="576pt" viewBox="0 0 576 576" version="1.1">
<g id="surface12445">
<rect x="0" y="0" width="576" height="576" style="fill:rgb(100%,100%,100%);fill-opacity:1;stroke:none;"/>
<path style="fill-rule:nonzero;fill:rgb(90.196078%,62.352941%,0%);fill-opacity:1;stroke-width:0.75;stroke-linecap:round;stroke-linejoin:round;stroke:rgb(20%,20%,20%);stroke-opacity:1;stroke-miterlimit:10;" d="M 33.550781 173.683594 L 45.640625 167.890625 L 60.066406 167.738281 L 74.382812 168.144531 L 88.105469 169.996094 L 102.125 171.128906 L 116.183594 172.164062 L 130.277344 173.117188 L 144.257812 173.949219 L 158.15625 175.371094 L 172.164062 176.527344 L 186.003906 178.09375 L 199.570312 179.769531 L 213.5 181.113281 L 227.492188 182.3125 L 240.707031 185.378906 L 254.34375 187.433594 L 268.511719 188.210938 L 282.289062 189.925781 L 295.820312 192.238281 L 309.867188 193.304688 L 323.4375 195.523438 L 336.804688 198.222656 L 350.777344 199.472656 L 364.3125 201.773438 L 377.65625 204.535156 L 390.769531 207.847656 L 404.582031 209.484375 L 418.1875 211.617188 L 430.503906 216.605469 L 443.492188 219.269531 L 455.914062 222.546875 L 467.9375 226.304688 L 479.179688 231.949219 L 490.285156 236.457031 L 500.949219 240.414062 L 510.152344 246.332031 L 519.164062 250.195312 L 527.523438 254.710938 L 534.613281 260.554688 L 541.113281 267.992188 L 542.449219 278.683594 L 539.148438 289.738281 L 532.71875 299.707031 L 524.136719 309.253906 L 512.5625 315.433594 L 500.636719 321.621094 L 487.847656 325.726562 L 475.457031 330.78125 L 462.328125 334.066406 L 449.925781 339.101562 L 436.480469 341.621094 L 423.492188 345.242188 L 411.042969 350.160156 L 397.605469 352.699219 L 385.085938 357.453125 L 371.445312 359.496094 L 358.832031 364.027344 L 345.957031 367.921875 L 332.273438 369.859375 L 319.386719 373.730469 L 306.238281 376.960938 L 293.421875 381 L 280.15625 383.953125 L 267.179688 386.757812 L 254.496094 390.246094 L 241.371094 393.542969 L 228.714844 397.964844 L 216.132812 400.925781 L 203.785156 402.890625 L 192.136719 403.292969 L 180.867188 405.394531 L 169.003906 406.445312 L 157.230469 407.710938 L 145.351562 407.394531 L 133.402344 407.96875 L 122.023438 408.261719 L 111.519531 406.863281 L 100.601562 404.453125 L 90.21875 403.335938 L 79.554688 401.542969 L 68.75 399.410156 L 58.53125 394.890625 L 49.878906 390.882812 L 43.679688 382.441406 L 38.425781 372.765625 L 34.855469 361.398438 L 33.550781 347.542969 Z M 33.550781 173.683594 "/>
</g>
</svg>
