<?xml version="1.0" encoding="UTF-8"?>
<svg xmlns="http://www.w3.org/2000/svg" xmlns:xlink="http://www.w3.org/1999/xlink" width="576pt" height="576pt" viewBox="0 0 576 576" version="1.1">
<g id="surface17773">
<rect x="0" y="0" width="576" height="576" style="fill:rgb(100%,100%,100%);fill-opacity:1;stroke:none;"/>
<path style="fill-rule:nonzero;fill:rgb(100%,38.823529%,27.843137%);fill-opacity:1;stroke-width:0.75;stroke-linecap:round;stroke-linejoin:round;stroke:rgb(20%,20%,20%);stroke-opacity:1;stroke-miterlimit:10;" d="M 33.550781 241.515625 L 42.996094 240.449219 L 52.742188 240.488281 L 62.625 240.488281 L 72.175781 241.296875 L 81.816406 241.660156 L 90.199219 241.808594 L 100.007812 241.992188 L 109.863281 242.0625 L 119.699219 242.175781 L 129.367188 242.707031 L 139.117188 243.027344 L 148.773438 243.582031 L 158.539062 243.867188 L 168.320312 244.117188 L 178.199219 244.125 L 187.800781 244.480469 L 197.546875 244.472656 L 207.265625 244.875 L 215.597656 244.890625 L 225.214844 245.1875 L 234.800781 244.855469 L 244.464844 245.003906 L 254.351562 245.003906 L 263.941406 245.335938 L 273.691406 245.363281 L 283.417969 245.65625 L 293.246094 245.519531 L 302.910156 245.753906 L 312.558594 246.320312 L 320.757812 246.683594 L 330.335938 247.011719 L 340.089844 247.066406 L 349.542969 247.8125 L 359.34375 248.019531 L 369.074219 248.015625 L 378.730469 248.183594 L 388.199219 248.898438 L 397.941406 249.238281 L 407.609375 249.46875 L 417.433594 249.320312 L 427.109375 249.820312 L 436.78125 250.132812 L 445.039062 250.554688 L 454.707031 251.078125 L 464.320312 251.441406 L 473.992188 251.953125 L 483.5625 252.714844 L 493.121094 253.207031 L 502.683594 253.984375 L 512.128906 255.042969 L 521.21875 256.667969 L 529.628906 259.636719 L 536.507812 263.421875 L 540.785156 267.007812 L 542.449219 272.421875 L 539.011719 277.8125 L 530.902344 281.359375 L 522.292969 284.175781 L 513.507812 286.5625 L 504.472656 288.613281 L 495.410156 290.597656 L 486.375 292.644531 L 477.199219 294.355469 L 467.957031 295.910156 L 458.511719 296.96875 L 449.355469 298.722656 L 441.296875 299.730469 L 431.96875 301.066406 L 422.699219 302.320312 L 413.316406 303.535156 L 403.957031 304.800781 L 394.421875 305.640625 L 385.042969 306.867188 L 375.519531 307.738281 L 365.941406 308.476562 L 356.511719 309.574219 L 346.832031 310.066406 L 338.652344 310.777344 L 329.222656 311.878906 L 319.757812 312.890625 L 310.359375 314.066406 L 301.066406 315.355469 L 291.652344 316.296875 L 282.191406 317.324219 L 272.648438 318.144531 L 263.269531 319.074219 L 253.710938 319.488281 L 244.515625 320.421875 L 234.902344 321.082031 L 225.347656 321.878906 L 217.332031 322.980469 L 207.882812 324.039062 L 198.46875 325.171875 L 188.894531 325.917969 L 179.285156 326.582031 L 169.746094 327.417969 L 160.089844 327.96875 L 150.566406 328.835938 L 141.101562 329.625 L 131.488281 330.277344 L 121.933594 331.074219 L 113.742188 331.753906 L 104.246094 332.691406 L 94.875 333.933594 L 85.234375 334.519531 L 75.703125 335.371094 L 66.6875 335.550781 L 58.625 334.195312 L 51.902344 331.8125 L 45.515625 328.808594 L 38.984375 325.453125 L 35.542969 318.714844 L 33.9375 310.433594 L 33.550781 300.824219 Z M 33.550781 241.515625 "/>
</g>
</svg>
