<?xml version="1.0" encoding="UTF-8"?>
<svg xmlns="http://www.w3.org/2000/svg" xmlns:xlink="http://www.w3.org/1999/xlink" width="576pt" height="576pt" viewBox="0 0 576 576" version="1.1">
<g id="surface12475">
<rect x="0" y="0" width="576" height="576" style="fill:rgb(100%,100%,100%);fill-opacity:1;stroke:none;"/>
<path style="fill-rule:nonzero;fill:rgb(83.529412%,36.862745%,0%);fill-opacity:1;stroke-width:0.75;stroke-linecap:round;stroke-linejoin:round;stroke:rgb(20%,20%,20%);stroke-opacity:1;stroke-miterlimit:10;" d="M 33.550781 189.945312 L 44.9375 189.386719 L 417.332031 189.386719 L 427.339844 192.457031 L 436.21875 195.6875 L 470.097656 195.6875 L 480.265625 198.375 L 488.984375 201.988281 L 500.113281 202.597656 L 508.691406 206.066406 L 518.738281 208.734375 L 527.421875 213.953125 L 533.792969 220.945312 L 539 227.355469 L 542.449219 236.453125 L 541.585938 245.214844 L 538.066406 254.140625 L 530.507812 260.96875 L 522.078125 264.796875 L 513.113281 269.175781 L 505.132812 275.617188 L 494.699219 275.601562 L 485.523438 279.960938 L 477.1875 284.179688 L 466.691406 286.257812 L 456.691406 287.445312 L 447.015625 290.585938 L 435.636719 290.585938 L 427.09375 294.058594 L 419.03125 300.222656 L 409.035156 301.480469 L 397.761719 301.226562 L 389.183594 305.035156 L 381.433594 311.78125 L 370.078125 311.867188 L 359.1875 311.867188 L 347.78125 311.792969 L 340.511719 317.75 L 331.460938 322.78125 L 320.683594 323.046875 L 309.355469 322.59375 L 300.347656 325.914062 L 290.546875 329.078125 L 279.269531 328.808594 L 270.445312 332.144531 L 259.8125 333.132812 L 250.6875 336.175781 L 241.042969 339.722656 L 230.859375 340.496094 L 221.367188 344.046875 L 211.910156 347.09375 L 202.707031 350.363281 L 191.210938 350.074219 L 182.664062 353.804688 L 173.316406 358.0625 L 164.222656 361.179688 L 153.226562 361.558594 L 143.96875 365.328125 L 135.117188 368.710938 L 125.199219 371.914062 L 114.570312 371.425781 L 105.25 374.863281 L 97.1875 379.136719 L 87.207031 382.269531 L 76.054688 382.8125 L 67.53125 386.613281 L 56.378906 386.613281 L 49.578125 382.355469 L 44.949219 378.4375 L 41.113281 375.636719 L 35.347656 369.789062 L 33.550781 359.808594 Z M 33.550781 189.945312 "/>
</g>
</svg>
