<?xml version="1.0" encoding="UTF-8"?>
<svg xmlns="http://www.w3.org/2000/svg" xmlns:xlink="http://www.w3.org/1999/xlink" width="576pt" height="576pt" viewBox="0 0 576 576" version="1.1">
<g id="surface12451">
<rect x="0" y="0" width="576" height="576" style="fill:rgb(100%,100%,100%);fill-opacity:1;stroke:none;"/>
<path style="fill-rule:nonzero;fill:rgb(33.72549%,70.588235%,91.372549%);fill-opacity:1;stroke-width:0.75;stroke-linecap:round;stroke-linejoin:round;stroke:rgb(20%,20%,20%);stroke-opacity:1;stroke-miterlimit:10;" d="M 33.550781 220.132812 L 42.570312 217.976562 L 52.300781 217.859375 L 61.984375 218.402344 L 74.8125 219.332031 L 84.566406 219.710938 L 94.28125 220.1875 L 103.671875 221.433594 L 113.433594 221.792969 L 123 222.621094 L 132.785156 222.925781 L 142.429688 223.5625 L 152.019531 224.339844 L 165.046875 224.789062 L 174.71875 225.371094 L 184.019531 226.835938 L 193.742188 227.292969 L 203.285156 228.171875 L 212.886719 228.921875 L 222.539062 229.539062 L 235.316406 230.597656 L 245.027344 231.074219 L 254.71875 231.601562 L 264.160156 232.738281 L 273.460938 234.203125 L 283.203125 234.613281 L 292.734375 235.53125 L 302.226562 236.535156 L 311.75 237.476562 L 324.5625 238.4375 L 333.949219 239.699219 L 343.523438 240.515625 L 353.082031 241.367188 L 362.628906 242.242188 L 372.105469 243.289062 L 381.601562 244.28125 L 394.125 245.683594 L 403.734375 246.414062 L 413.394531 247.015625 L 422.785156 248.273438 L 432.3125 249.191406 L 441.824219 250.15625 L 451.082031 251.726562 L 460.632812 252.59375 L 470.015625 253.871094 L 482.5625 255.484375 L 491.882812 256.910156 L 501.355469 257.964844 L 510.683594 259.371094 L 519.722656 261.46875 L 528.382812 264.226562 L 536.183594 267.800781 L 541.769531 274.839844 L 542.449219 278.902344 L 540.757812 283.640625 L 534.832031 288.527344 L 526.921875 292.015625 L 518.824219 295.535156 L 509.742188 297.535156 L 500.785156 299.839844 L 491.691406 301.808594 L 479.558594 304.417969 L 470.253906 305.882812 L 460.996094 307.453125 L 451.816406 309.222656 L 442.511719 310.679688 L 433.261719 312.273438 L 423.90625 313.613281 L 411.535156 315.648438 L 402.308594 317.292969 L 392.9375 318.59375 L 383.828125 320.535156 L 374.511719 321.964844 L 365.097656 323.160156 L 355.691406 324.378906 L 346.453125 326 L 337.179688 327.535156 L 324.730469 329.386719 L 315.582031 331.21875 L 306.101562 331.628906 L 296.546875 332.480469 L 287.308594 334.105469 L 278.144531 335.65625 L 268.902344 336.863281 L 256.160156 337.550781 L 247.160156 339.199219 L 237.648438 340.164062 L 228.351562 341.644531 L 219.101562 342.742188 L 209.710938 344 L 200.238281 345.054688 L 190.839844 346.285156 L 181.324219 347.242188 L 168.753906 348.789062 L 159.285156 349.855469 L 149.664062 350.554688 L 140.363281 352.023438 L 131.027344 353.417969 L 121.753906 354.949219 L 112.171875 355.746094 L 99.734375 357.617188 L 90.398438 358.140625 L 81.777344 357.765625 L 73.402344 357.988281 L 64.921875 356.914062 L 58.175781 354.457031 L 53.027344 349.675781 L 48.25 344.820312 L 43.390625 339.765625 L 37.894531 331.90625 L 36.324219 323.226562 L 34.433594 305.296875 L 33.589844 296.09375 L 33.550781 286.199219 Z M 33.550781 220.132812 "/>
</g>
</svg>
