<?xml version="1.0" encoding="UTF-8"?>
<svg xmlns="http://www.w3.org/2000/svg" xmlns:xlink="http://www.w3.org/1999/xlink" width="576pt" height="576pt" viewBox="0 0 576 576" version="1.1">
<g id="surface17791">
<rect x="0" y="0" width="576" height="576" style="fill:rgb(100%,100%,100%);fill-opacity:1;stroke:none;"/>
<path style="fill-rule:nonzero;fill:rgb(80%,47.45098%,65.490196%);fill-opacity:1;stroke-width:0.75;stroke-linecap:round;stroke-linejoin:round;stroke:rgb(20%,20%,20%);stroke-opacity:1;stroke-miterlimit:10;" d="M 33.550781 248.535156 L 42.996094 248.347656 L 157.683594 248.347656 L 166.707031 249.289062 L 243.300781 249.289062 L 252.324219 250.226562 L 261.347656 251.167969 L 270.292969 251.917969 L 280.023438 251.917969 L 288.933594 252.859375 L 307.980469 252.859375 L 317.003906 253.796875 L 326.007812 254.691406 L 335.179688 255.488281 L 344.09375 256.429688 L 353.117188 257.367188 L 362.105469 258.121094 L 370.976562 259.058594 L 409.273438 259.058594 L 418.183594 260 L 466.003906 260 L 475.027344 260.9375 L 484.550781 260.9375 L 492.9375 262.628906 L 501.960938 263.570312 L 510.984375 264.507812 L 519.867188 265.417969 L 528.453125 267.140625 L 536.820312 269.027344 L 542.449219 274.554688 L 535.886719 278.792969 L 527.9375 281.421875 L 519.523438 283.300781 L 511.253906 285.386719 L 503.066406 287.8125 L 494.839844 289.503906 L 485.816406 290.441406 L 477.59375 292.132812 L 469.066406 294.011719 L 460.121094 294.765625 L 451.5 296.644531 L 442.476562 297.585938 L 433.644531 298.335938 L 424.621094 299.277344 L 415.597656 300.214844 L 406.652344 300.964844 L 398.03125 302.847656 L 389.007812 303.785156 L 380.214844 304.539062 L 371.195312 305.476562 L 362.667969 307.355469 L 353.722656 308.109375 L 344.492188 309.046875 L 335.273438 309.507812 L 326.523438 310.738281 L 317.003906 310.738281 L 308.089844 311.679688 L 298.96875 312.617188 L 289.945312 313.558594 L 281.15625 314.308594 L 272.132812 315.25 L 262.617188 315.261719 L 253.585938 316.1875 L 244.355469 317.128906 L 235.410156 317.878906 L 226.386719 318.820312 L 216.863281 318.820312 L 207.839844 319.757812 L 199.007812 320.511719 L 189.277344 320.511719 L 180.253906 321.449219 L 171.230469 322.390625 L 152.183594 322.390625 L 143.160156 323.328125 L 133.429688 323.328125 L 124.519531 324.269531 L 115.074219 324.082031 L 106.050781 325.019531 L 97.007812 325.648438 L 87.40625 325.960938 L 77.886719 325.960938 L 68.863281 326.898438 L 59.339844 326.898438 L 50.394531 327.652344 L 40.871094 327.652344 L 33.550781 325.132812 Z M 33.550781 248.535156 "/>
</g>
</svg>
