<?xml version="1.0" encoding="UTF-8"?>
<svg xmlns="http://www.w3.org/2000/svg" xmlns:xlink="http://www.w3.org/1999/xlink" width="576pt" height="576pt" viewBox="0 0 576 576" version="1.1">
<g id="surface17779">
<rect x="0" y="0" width="576" height="576" style="fill:rgb(100%,100%,100%);fill-opacity:1;stroke:none;"/>
<path style="fill-rule:nonzero;fill:rgb(0%,44.705882%,69.803922%);fill-opacity:1;stroke-width:0.75;stroke-linecap:round;stroke-linejoin:round;stroke:rgb(20%,20%,20%);stroke-opacity:1;stroke-miterlimit:10;" d="M 169.835938 34.375 L 180.433594 33.550781 L 190.855469 34.808594 L 198.65625 41.554688 L 206.125 48.433594 L 212.574219 55.785156 L 223.851562 57.101562 L 237.476562 72.375 L 244.53125 79.425781 L 252.75 86 L 259.75 92.015625 L 269.367188 93.5625 L 276.230469 101.074219 L 282.996094 108.832031 L 291.152344 116.992188 L 298.292969 124.011719 L 306.425781 130.617188 L 313.480469 137.671875 L 320.195312 145.542969 L 326.523438 153.1875 L 336.878906 154.601562 L 344.207031 160.988281 L 359.480469 174.613281 L 366.292969 182.25 L 374.277344 190.832031 L 379.816406 198.648438 L 381.773438 207.613281 L 388.828125 214.664062 L 389.09375 224.8125 L 397.109375 230.988281 L 397.238281 241.191406 L 405.113281 247.421875 L 406.164062 257.246094 L 406.164062 324.453125 L 403.996094 333.8125 L 397.109375 340.933594 L 397.441406 351.738281 L 394.761719 361.164062 L 388.050781 367.875 L 386.097656 378.886719 L 378.992188 385.921875 L 370.757812 392.003906 L 370.757812 402.261719 L 363.226562 409.046875 L 356.789062 416.429688 L 350.316406 423.722656 L 343.023438 430.195312 L 335.347656 436.507812 L 327.570312 444.824219 L 314.625 459.417969 L 304.652344 461.75 L 297.46875 467.4375 L 289.304688 474.03125 L 282.085938 480.6875 L 275.777344 488.382812 L 269.308594 495.675781 L 259.664062 497.15625 L 252.179688 503.027344 L 243.945312 510.671875 L 236.015625 516.097656 L 227.085938 518.136719 L 220.03125 525.1875 L 213.453125 533.390625 L 202.585938 533.574219 L 196.355469 541.453125 L 185.828125 542.449219 L 174.890625 542.449219 L 169.835938 534.515625 Z M 169.835938 34.375 "/>
</g>
</svg>
