<?xml version="1.0" encoding="UTF-8"?>
<svg xmlns="http://www.w3.org/2000/svg" xmlns:xlink="http://www.w3.org/1999/xlink" width="576pt" height="576pt" viewBox="0 0 576 576" version="1.1">
<g id="surface118072">
<rect x="0" y="0" width="576" height="576" style="fill:rgb(100%,100%,100%);fill-opacity:1;stroke:none;"/>
<path style="fill-rule:nonzero;fill:rgb(0%,61.960784%,45.098039%);fill-opacity:1;stroke-width:0.75;stroke-linecap:round;stroke-linejoin:round;stroke:rgb(20%,20%,20%);stroke-opacity:1;stroke-miterlimit:10;" d="M 33.550781 276.789062 L 42.714844 276.789062 L 50.683594 275.121094 L 59.609375 274.84375 L 67.449219 273.03125 L 75.417969 271.371094 L 82.382812 268.78125 L 91.136719 268.273438 L 100.160156 268.074219 L 109.320312 268.074219 L 118.273438 267.742188 L 127.332031 267.59375 L 136.058594 267.769531 L 154.386719 267.769531 L 163.253906 268.210938 L 181.578125 268.210938 L 190.582031 268.007812 L 199.59375 267.882812 L 208.757812 267.882812 L 217.773438 267.753906 L 226.691406 268.132812 L 245.019531 268.132812 L 253.945312 267.78125 L 262.871094 267.449219 L 271.875 267.25 L 280.753906 267.625 L 289.820312 267.5 L 298.859375 267.625 L 307.921875 267.828125 L 317.085938 267.828125 L 325.960938 268.105469 L 334.847656 268.480469 L 344.007812 268.480469 L 352.902344 268.988281 L 361.707031 269.566406 L 370.765625 269.789062 L 379.417969 269.667969 L 406.910156 269.667969 L 415.542969 270.375 L 424.644531 270.527344 L 433.289062 270.972656 L 442.195312 271.300781 L 450.730469 272.332031 L 459.765625 272.535156 L 468.371094 273.316406 L 477.328125 273.585938 L 485.675781 274.640625 L 494.394531 275.019531 L 502.96875 275.648438 L 511.75 276.078125 L 520.234375 277.0625 L 529.011719 277.664062 L 536.796875 279.519531 L 541.742188 283.554688 L 542.449219 286.828125 L 536.730469 289.828125 L 528.234375 290.820312 L 519.304688 291.320312 L 511.019531 292.464844 L 503.375 294.5 L 494.339844 294.703125 L 485.289062 294.828125 L 476.257812 294.976562 L 467.265625 295.183594 L 458.535156 295.585938 L 449.953125 296.542969 L 441.125 297.160156 L 432.375 297.816406 L 424.226562 298.738281 L 415.164062 298.628906 L 406.269531 298.988281 L 397.296875 298.722656 L 388.179688 298.609375 L 379.089844 298.609375 L 370.203125 298.988281 L 361.257812 299.320312 L 352.113281 299.367188 L 343.117188 299.566406 L 334.292969 300.019531 L 325.5625 300.597656 L 316.617188 300.976562 L 307.6875 301.34375 L 298.636719 301.546875 L 289.578125 301.699219 L 280.714844 302.074219 L 272.265625 303.113281 L 263.238281 303.261719 L 254.230469 303.539062 L 245.578125 304.402344 L 236.859375 304.953125 L 227.886719 305.304688 L 219.300781 305.875 L 210.445312 306.253906 L 201.28125 306.253906 L 192.398438 306.632812 L 183.234375 306.632812 L 174.289062 307.007812 L 165.195312 307.007812 L 156.414062 307.25 L 147.253906 307.25 L 138.359375 307.664062 L 129.382812 308.039062 L 101.894531 308.039062 L 93.15625 308.660156 L 83.992188 308.660156 L 74.910156 308.75 L 47.492188 308.75 L 40.839844 306.242188 L 36.359375 301.542969 L 33.550781 295.1875 Z M 33.550781 276.789062 "/>
</g>
</svg>
