<?xml version="1.0" encoding="UTF-8"?>
<svg xmlns="http://www.w3.org/2000/svg" xmlns:xlink="http://www.w3.org/1999/xlink" width="576pt" height="576pt" viewBox="0 0 576 576" version="1.1">
<g id="surface26731">
<rect x="0" y="0" width="576" height="576" style="fill:rgb(100%,100%,100%);fill-opacity:1;stroke:none;"/>
<path style="fill-rule:nonzero;fill:rgb(90.196078%,62.352941%,0%);fill-opacity:1;stroke-width:0.75;stroke-linecap:round;stroke-linejoin:round;stroke:rgb(20%,20%,20%);stroke-opacity:1;stroke-miterlimit:10;" d="M 33.550781 255.453125 L 44.390625 254.351562 L 66.976562 254.351562 L 78.109375 254.746094 L 87.953125 252.363281 L 98.597656 251.589844 L 108.660156 249.730469 L 119.414062 248.429688 L 129.765625 246.707031 L 139.886719 244.4375 L 147.703125 240.75 L 158.859375 238.042969 L 166.316406 234.535156 L 174.304688 230.917969 L 183.507812 227.378906 L 190.976562 222.777344 L 198.328125 217.152344 L 206.90625 212.574219 L 213.628906 206.824219 L 222.59375 204.21875 L 232.1875 201.703125 L 240.753906 198.84375 L 249.953125 195.363281 L 258.410156 190.570312 L 265.105469 188.753906 L 272.804688 187.523438 L 281.167969 186.542969 L 287.601562 188.078125 L 296.554688 188.089844 L 306.238281 190.445312 L 315.992188 193.046875 L 325.695312 195.773438 L 335.445312 198.429688 L 344.640625 202.253906 L 353.496094 206.453125 L 361.546875 209.769531 L 371.105469 213.832031 L 380.414062 216.71875 L 388.742188 221.878906 L 397.175781 226.949219 L 406.71875 229.894531 L 414.4375 235.96875 L 424.609375 237.609375 L 434.148438 240.6875 L 443.628906 243.949219 L 452.269531 248.355469 L 462.136719 250.6875 L 472.507812 252.46875 L 482.160156 255.320312 L 492.949219 256.539062 L 502.039062 260.308594 L 511.179688 264.503906 L 520.242188 268.933594 L 529.484375 272.851562 L 534.019531 281.675781 L 538.203125 290.75 L 540.867188 300.476562 L 541.652344 309.058594 L 542.449219 318.015625 L 539.210938 326.402344 L 532.386719 334.058594 L 527.75 342.796875 L 519.136719 348.382812 L 509.742188 351.511719 L 500.878906 355.726562 L 492.507812 359.992188 L 483.214844 362.914062 L 474.9375 368.195312 L 466.371094 372.714844 L 456.996094 376.304688 L 446.957031 378.441406 L 437.394531 380.945312 L 426.261719 381.34375 L 416.113281 383.21875 L 404.820312 383.21875 L 394.613281 384.964844 L 383.375 385.097656 L 372.082031 385.097656 L 361.746094 386.976562 L 327.863281 386.976562 L 317.855469 388.074219 L 308.003906 385.703125 L 284.003906 385.703125 L 272.808594 385.9375 L 262.558594 387.582031 L 127.941406 387.582031 L 117.347656 388.828125 L 106.3125 389.457031 L 49.84375 389.457031 L 40.710938 387.0625 L 33.550781 381.101562 Z M 33.550781 255.453125 "/>
</g>
</svg>
