<?xml version="1.0" encoding="UTF-8"?>
<svg xmlns="http://www.w3.org/2000/svg" xmlns:xlink="http://www.w3.org/1999/xlink" width="576pt" height="576pt" viewBox="0 0 576 576" version="1.1">
<g id="surface19372">
<rect x="0" y="0" width="576" height="576" style="fill:rgb(100%,100%,100%);fill-opacity:1;stroke:none;"/>
<path style="fill-rule:nonzero;fill:rgb(0%,61.960784%,45.098039%);fill-opacity:1;stroke-width:0.75;stroke-linecap:round;stroke-linejoin:round;stroke:rgb(20%,20%,20%);stroke-opacity:1;stroke-miterlimit:10;" d="M 33.550781 238.320312 L 43.855469 237.132812 L 53.261719 235.726562 L 62.964844 233.851562 L 72.015625 231.335938 L 80.144531 228.871094 L 89.367188 226.027344 L 98.621094 223.554688 L 108.148438 221.351562 L 116.847656 220.078125 L 126.636719 218.925781 L 136.1875 219.101562 L 144.847656 218.976562 L 155.007812 219.640625 L 165.140625 219.863281 L 174.285156 220.308594 L 184.894531 220.53125 L 195.125 220.789062 L 203.667969 220.488281 L 213.203125 220.515625 L 223.308594 221.035156 L 233.621094 221.644531 L 243.09375 221.921875 L 253.308594 222.175781 L 263.722656 222.164062 L 273.230469 222.117188 L 283.492188 222.625 L 293.710938 223.046875 L 301.945312 222.25 L 311.21875 221.148438 L 320.839844 221.691406 L 330.148438 222.136719 L 340.34375 222.339844 L 350.539062 222.902344 L 360.882812 223.324219 L 370.722656 223.882812 L 381.109375 224.871094 L 391.214844 226.570312 L 400.671875 227.816406 L 410.609375 229.636719 L 420.664062 231.3125 L 429.574219 233.125 L 439.609375 234.550781 L 449.417969 236.585938 L 458.535156 238.355469 L 468.410156 240.257812 L 478.117188 242.605469 L 487.722656 244.96875 L 495.863281 248.210938 L 504.683594 251.707031 L 513.109375 256.0625 L 520.371094 260.296875 L 527.148438 265.722656 L 533.28125 271.523438 L 538.015625 278.242188 L 541.480469 286.402344 L 542.449219 294.609375 L 539.992188 301.042969 L 534.644531 306.617188 L 528.402344 311.855469 L 521.160156 316.023438 L 512.453125 319.660156 L 503.066406 322.347656 L 493.457031 324.902344 L 484.582031 327.296875 L 474.785156 329.554688 L 465.121094 331.988281 L 456.199219 334.171875 L 446.460938 336.371094 L 436.464844 337.875 L 427.328125 339.609375 L 417.167969 340.800781 L 407.246094 342.464844 L 398.042969 343.78125 L 387.824219 345.019531 L 377.492188 346.179688 L 367.414062 347.640625 L 357.976562 348.890625 L 347.75 350.027344 L 337.441406 350.957031 L 328.003906 351.683594 L 317.703125 352.765625 L 307.316406 353.667969 L 297.664062 354.449219 L 287.214844 354.765625 L 276.640625 354.738281 L 267.308594 354.132812 L 258.179688 352.671875 L 249.320312 351.269531 L 240.382812 350.523438 L 230.726562 350.1875 L 220.40625 350.441406 L 210.277344 351.433594 L 200.777344 352.273438 L 190.292969 352.867188 L 180 353.949219 L 170.09375 354.394531 L 159.632812 355.128906 L 149.210938 356.089844 L 139.5625 357 L 128.671875 356.96875 L 118.078125 357.074219 L 107.753906 356.691406 L 98.804688 355.53125 L 89.375 354.769531 L 79.816406 353.664062 L 70.835938 352.378906 L 62.089844 350.375 L 53.304688 348.277344 L 46.800781 344.535156 L 41.757812 338.546875 L 37.914062 331.324219 L 35.988281 323.078125 L 34.792969 313.246094 L 33.816406 303.226562 L 33.550781 292.460938 Z M 33.550781 238.320312 "/>
</g>
</svg>
