<?xml version="1.0" encoding="UTF-8"?>
<svg xmlns="http://www.w3.org/2000/svg" xmlns:xlink="http://www.w3.org/1999/xlink" width="576pt" height="576pt" viewBox="0 0 576 576" version="1.1">
<g id="surface118060">
<rect x="0" y="0" width="576" height="576" style="fill:rgb(100%,100%,100%);fill-opacity:1;stroke:none;"/>
<path style="fill-rule:nonzero;fill:rgb(90.196078%,62.352941%,0%);fill-opacity:1;stroke-width:0.75;stroke-linecap:round;stroke-linejoin:round;stroke:rgb(20%,20%,20%);stroke-opacity:1;stroke-miterlimit:10;" d="M 33.550781 229.34375 L 43.847656 228.324219 L 55.957031 227.261719 L 65.902344 226.230469 L 75.292969 225.007812 L 86.070312 222.917969 L 95.660156 221.214844 L 106.574219 219.238281 L 116.386719 217.929688 L 126.035156 216.648438 L 137.398438 215.554688 L 146.5625 214.789062 L 155.988281 214.625 L 166.976562 214.386719 L 176.625 213.851562 L 186.25 213.699219 L 197.398438 213.175781 L 206.535156 212.101562 L 215.070312 211.046875 L 224.539062 208.863281 L 233.09375 208.296875 L 243.328125 206.914062 L 252.039062 206.078125 L 260.519531 204.917969 L 270.886719 202.980469 L 278.996094 201.972656 L 288.054688 201.277344 L 298.6875 200.5625 L 306.785156 200.226562 L 315.945312 199.980469 L 327.046875 201.1875 L 336.53125 202.765625 L 346.011719 204.253906 L 357.238281 206.300781 L 366.457031 208.6875 L 377.710938 211.199219 L 386.855469 213.859375 L 395.898438 216.867188 L 406.699219 220.042969 L 415.355469 223.726562 L 424.316406 226.921875 L 434.339844 230.691406 L 442.957031 233.972656 L 451.75 236.988281 L 462.238281 240.285156 L 471.015625 243.289062 L 479.171875 246.839844 L 488.621094 250.753906 L 496.429688 254.308594 L 505.085938 258.480469 L 512.171875 262.496094 L 519.238281 267.234375 L 526.164062 273.007812 L 531.753906 278.625 L 536.902344 284.386719 L 541.054688 292.824219 L 542.449219 300.078125 L 541.859375 306.707031 L 538.582031 313.5625 L 535.027344 319.363281 L 529.402344 324.601562 L 522.332031 330.46875 L 514.816406 334.921875 L 505.46875 339.902344 L 496.347656 342.671875 L 487.015625 345.269531 L 476.664062 349 L 467.710938 351.972656 L 458.40625 354.652344 L 447.117188 356.933594 L 437.476562 358.945312 L 427.738281 360.691406 L 416.300781 362.503906 L 406.488281 364.03125 L 394.921875 365.683594 L 384.644531 366.554688 L 374.746094 368.058594 L 362.898438 369.441406 L 352.769531 370.546875 L 342.496094 371.4375 L 330.585938 372.390625 L 320.539062 373.617188 L 310.097656 374.265625 L 298.382812 375.574219 L 288.25 375.625 L 277.894531 376.019531 L 266.117188 375.808594 L 256.484375 374.722656 L 245.539062 374.042969 L 236.222656 373.09375 L 226.484375 372.617188 L 215.109375 371.792969 L 205.773438 372.054688 L 196.140625 371.671875 L 185.265625 370.800781 L 176.050781 370.316406 L 166.613281 369.578125 L 155.714844 368.730469 L 146.515625 368.246094 L 137.214844 367.753906 L 126.0625 366.328125 L 116.75 365.445312 L 105.972656 363.9375 L 97.070312 362.003906 L 88.40625 360.472656 L 78.171875 358.449219 L 69.25 356.425781 L 60.9375 354.023438 L 51.625 350.761719 L 44.929688 346.480469 L 40.597656 339.9375 L 36.933594 330.882812 L 35.207031 321.742188 L 34.445312 311.640625 L 33.761719 299.667969 L 33.550781 289.007812 Z M 33.550781 229.34375 "/>
</g>
</svg>
