<?xml version="1.0" encoding="UTF-8"?>
<svg xmlns="http://www.w3.org/2000/svg" xmlns:xlink="http://www.w3.org/1999/xlink" width="576pt" height="576pt" viewBox="0 0 576 576" version="1.1">
<g id="surface19396">
<rect x="0" y="0" width="576" height="576" style="fill:rgb(100%,100%,100%);fill-opacity:1;stroke:none;"/>
<path style="fill-rule:nonzero;fill:rgb(80%,47.45098%,65.490196%);fill-opacity:1;stroke-width:0.75;stroke-linecap:round;stroke-linejoin:round;stroke:rgb(20%,20%,20%);stroke-opacity:1;stroke-miterlimit:10;" d="M 33.550781 282.464844 L 42.492188 282.464844 L 49.070312 279.160156 L 57.542969 278.609375 L 65.695312 277.558594 L 74.140625 276.90625 L 82.898438 276.605469 L 91.464844 276.355469 L 100.125 275.957031 L 109.066406 275.957031 L 117.589844 275.304688 L 126.320312 275.003906 L 135.007812 274.601562 L 152.839844 274.601562 L 161.527344 275.003906 L 179.414062 275.003906 L 188.042969 274.601562 L 196.820312 274.351562 L 205.765625 274.351562 L 214.417969 274.101562 L 241.191406 274.101562 L 249.667969 273.402344 L 258.136719 272.75 L 266.765625 272.347656 L 275.707031 272.347656 L 284.457031 272.097656 L 293.292969 272.347656 L 302.042969 272.75 L 337.757812 272.75 L 346.59375 273 L 355.253906 273.402344 L 363.992188 273.839844 L 372.472656 274.351562 L 399.246094 274.351562 L 407.714844 275.003906 L 416.53125 275.304688 L 425.191406 275.703125 L 433.628906 276.355469 L 442.15625 276.90625 L 450.847656 277.308594 L 459.597656 277.558594 L 468.226562 277.957031 L 476.953125 278.207031 L 485.570312 278.207031 L 494.074219 278.910156 L 502.9375 279.027344 L 511.058594 280.210938 L 519.375 281.164062 L 527.308594 282.691406 L 535.160156 284.367188 L 542.449219 286.785156 L 539.742188 291.882812 L 532.117188 293.835938 L 523.644531 294.835938 L 515.390625 295.488281 L 507.167969 296.4375 L 498.480469 296.839844 L 489.757812 297.089844 L 480.953125 297.421875 L 472.335938 297.792969 L 463.554688 298.042969 L 454.917969 298.441406 L 437.035156 298.441406 L 428.40625 298.042969 L 339.039062 298.042969 L 330.351562 298.441406 L 321.410156 298.441406 L 312.6875 298.691406 L 303.914062 299.09375 L 295.234375 299.394531 L 286.335938 299.394531 L 278.378906 300.695312 L 269.5625 300.996094 L 260.621094 300.996094 L 252.175781 301.984375 L 243.574219 302.296875 L 235.011719 303 L 226.515625 303.652344 L 92.492188 303.652344 L 83.679688 303.902344 L 47.964844 303.902344 L 39.09375 303.800781 L 33.550781 300.402344 Z M 33.550781 282.464844 "/>
</g>
</svg>
