<?xml version="1.0" encoding="UTF-8"?>
<svg xmlns="http://www.w3.org/2000/svg" xmlns:xlink="http://www.w3.org/1999/xlink" width="576pt" height="576pt" viewBox="0 0 576 576" version="1.1">
<g id="surface26761">
<rect x="0" y="0" width="576" height="576" style="fill:rgb(100%,100%,100%);fill-opacity:1;stroke:none;"/>
<path style="fill-rule:nonzero;fill:rgb(83.529412%,36.862745%,0%);fill-opacity:1;stroke-width:0.75;stroke-linecap:round;stroke-linejoin:round;stroke:rgb(20%,20%,20%);stroke-opacity:1;stroke-miterlimit:10;" d="M 33.550781 297.347656 L 44.882812 297.023438 L 67.8125 297.023438 L 78.277344 295.714844 L 101.207031 295.714844 L 111.640625 294.140625 L 123.082031 294.085938 L 133.738281 292.597656 L 144.53125 292.082031 L 154.550781 289.515625 L 165.867188 288.421875 L 176.378906 286.582031 L 186.835938 285.070312 L 196.785156 282.339844 L 206.992188 281 L 214.5625 274.21875 L 221.21875 267.609375 L 222.917969 257.328125 L 225.347656 247.210938 L 225.5625 236.078125 L 228.496094 226.171875 L 228.203125 214.828125 L 231.117188 204.914062 L 231.136719 193.699219 L 236.199219 185.835938 L 241.617188 177.71875 L 250.171875 172.140625 L 272.617188 172.140625 L 281.605469 176.414062 L 289.355469 182.75 L 297.453125 189.128906 L 304.429688 196.921875 L 312.441406 203.511719 L 320.25 210.585938 L 328.25 218.625 L 336.085938 225.332031 L 343.828125 232.832031 L 352.382812 238.101562 L 360.640625 243.679688 L 369.480469 247.65625 L 379.226562 250.886719 L 388.066406 255.535156 L 397.78125 258.757812 L 408.0625 260.707031 L 416.398438 266.09375 L 426.699219 267.855469 L 437.054688 270.074219 L 446.15625 273.496094 L 455.835938 276.90625 L 465.757812 279.191406 L 474.574219 283.636719 L 486.011719 283.710938 L 496.390625 285.285156 L 505.359375 288.953125 L 515.71875 290.570312 L 523.84375 296.886719 L 531.144531 302.925781 L 536.921875 311.632812 L 542.449219 320.089844 L 542.449219 331.558594 L 541.398438 342.492188 L 535.265625 348.824219 L 527.914062 354.457031 L 520.78125 360.957031 L 513.972656 366.894531 L 504.019531 369.441406 L 494.417969 373.007812 L 484.613281 375.054688 L 475.746094 379.621094 L 464.28125 379.621094 L 453.8125 380.9375 L 442.351562 380.925781 L 431.945312 382.558594 L 421.542969 384.292969 L 410.625 385.199219 L 400.214844 386.832031 L 377.554688 386.832031 L 366.820312 388.136719 L 355.355469 388.136719 L 344.578125 389.335938 L 333.292969 389.765625 L 321.792969 391.070312 L 311.9375 393.714844 L 289.007812 393.714844 L 277.839844 394.203125 L 267.1875 395.34375 L 255.722656 395.34375 L 246.789062 399.292969 L 223.855469 399.292969 L 212.804688 399.894531 L 201.792969 400.921875 L 190.328125 400.921875 L 179.863281 402.230469 L 168.597656 402.398438 L 157.203125 402.230469 L 122.808594 402.230469 L 112 403.355469 L 100.742188 403.859375 L 54.117188 403.859375 L 42.730469 403.667969 L 36.886719 397.96875 L 33.550781 389.835938 Z M 33.550781 297.347656 "/>
</g>
</svg>
