<?xml version="1.0" encoding="UTF-8"?>
<svg xmlns="http://www.w3.org/2000/svg" xmlns:xlink="http://www.w3.org/1999/xlink" width="576pt" height="576pt" viewBox="0 0 576 576" version="1.1">
<g id="surface26749">
<rect x="0" y="0" width="576" height="576" style="fill:rgb(100%,100%,100%);fill-opacity:1;stroke:none;"/>
<path style="fill-rule:nonzero;fill:rgb(100%,38.823529%,27.843137%);fill-opacity:1;stroke-width:0.75;stroke-linecap:round;stroke-linejoin:round;stroke:rgb(20%,20%,20%);stroke-opacity:1;stroke-miterlimit:10;" d="M 33.550781 272.289062 L 61.386719 272.289062 L 68.820312 269.734375 L 76.160156 267.074219 L 81.304688 262.203125 L 90.152344 261.445312 L 127.265625 261.445312 L 135.933594 262.203125 L 154.492188 262.203125 L 163.433594 262.683594 L 219.03125 262.683594 L 227.820312 263.4375 L 274.210938 263.4375 L 282.921875 264.191406 L 319.960938 264.191406 L 328.664062 264.742188 L 337.390625 265.496094 L 346.667969 265.496094 L 355.515625 266.25 L 364.359375 267.003906 L 373.636719 267.003906 L 382.363281 266.25 L 410.199219 266.25 L 418.972656 267.003906 L 428.25 267.003906 L 436.78125 267.484375 L 446.058594 267.484375 L 454.496094 268.996094 L 463.773438 268.996094 L 472.132812 270.296875 L 481.316406 270.4375 L 489.125 272.289062 L 497.851562 273.042969 L 506.394531 273.589844 L 515.046875 274.347656 L 523.8125 275.101562 L 532.949219 275.34375 L 540.457031 277.546875 L 542.449219 283.871094 L 536.503906 288 L 527.804688 288.824219 L 509.25 288.824219 L 501.023438 290.453125 L 494.054688 293.558594 L 457.015625 293.558594 L 448.429688 294.105469 L 440.058594 295.617188 L 431.453125 296.851562 L 422.996094 298.15625 L 415.425781 300.398438 L 406.351562 300.183594 L 397.609375 300.898438 L 388.710938 300.371094 L 379.527344 300.144531 L 370.320312 300.144531 L 361.59375 300.898438 L 352.753906 301.566406 L 343.511719 301.652344 L 334.5625 302.058594 L 325.960938 302.957031 L 317.292969 303.710938 L 308.449219 304.46875 L 299.410156 304.945312 L 280.910156 304.945312 L 272.183594 305.703125 L 263.339844 306.457031 L 254.132812 306.457031 L 245.164062 307.003906 L 236.414062 307.761719 L 227.667969 308.515625 L 218.386719 308.515625 L 209.816406 308.996094 L 201.148438 309.75 L 191.871094 309.75 L 183.144531 310.503906 L 173.867188 310.503906 L 165.019531 311.257812 L 155.816406 311.257812 L 147.300781 311.738281 L 138.023438 311.738281 L 129.285156 312.5625 L 120.378906 313.316406 L 92.542969 313.316406 L 84.113281 314.554688 L 74.835938 314.554688 L 65.582031 314.484375 L 37.820312 314.484375 L 33.550781 309.472656 Z M 33.550781 272.289062 "/>
</g>
</svg>
