<?xml version="1.0" encoding="UTF-8"?>
<svg xmlns="http://www.w3.org/2000/svg" xmlns:xlink="http://www.w3.org/1999/xlink" width="576pt" height="576pt" viewBox="0 0 576 576" version="1.1">
<g id="surface26755">
<rect x="0" y="0" width="576" height="576" style="fill:rgb(100%,100%,100%);fill-opacity:1;stroke:none;"/>
<path style="fill-rule:nonzero;fill:rgb(0%,44.705882%,69.803922%);fill-opacity:1;stroke-width:0.75;stroke-linecap:round;stroke-linejoin:round;stroke:rgb(20%,20%,20%);stroke-opacity:1;stroke-miterlimit:10;" d="M 33.550781 63.828125 L 46.933594 62.386719 L 63.238281 62.386719 L 76.152344 63.917969 L 88.140625 67.515625 L 103.148438 69.734375 L 115.980469 71.808594 L 130.285156 76.207031 L 143.253906 77.726562 L 157.230469 77.726562 L 171.707031 80.316406 L 185.027344 80.316406 L 196.433594 84.28125 L 210.363281 87.519531 L 224.113281 88.070312 L 235.871094 92.300781 L 249.226562 97.769531 L 261.011719 102.285156 L 271.164062 109.820312 L 285.746094 111.835938 L 294.785156 119.476562 L 309.867188 120.84375 L 320.019531 126.925781 L 330.410156 132.242188 L 344.90625 135.503906 L 355.234375 142.269531 L 368.316406 143.140625 L 383.183594 145.699219 L 392.621094 152.203125 L 403.785156 157.464844 L 416.886719 162.664062 L 427.558594 167.097656 L 439.304688 169.992188 L 453.75 173.5625 L 462.382812 182.398438 L 476.007812 187.792969 L 486.121094 195.242188 L 495.882812 202.261719 L 506.058594 211.671875 L 512.789062 221.929688 L 519.96875 231.757812 L 525.039062 245.585938 L 529.472656 256.96875 L 533.0625 268.359375 L 539.589844 280.300781 L 542.449219 292.714844 L 541.199219 305.859375 L 538.070312 320.40625 L 534.773438 332.304688 L 526.703125 343.378906 L 518.539062 352.667969 L 516.460938 364.746094 L 506.445312 375.683594 L 500.183594 386.6875 L 492.285156 396.546875 L 485.804688 407.375 L 474.367188 412.597656 L 466.449219 420.253906 L 456.378906 426.886719 L 446.921875 433.1875 L 435.015625 437.269531 L 426.804688 447.324219 L 414.265625 450.605469 L 401.683594 457.554688 L 387.820312 457.828125 L 373.839844 457.828125 L 360.039062 461.839844 L 349.253906 467.503906 L 335.652344 468.414062 L 319.34375 468.414062 L 305.441406 468.589844 L 292.84375 471.003906 L 278.585938 473.445312 L 267.773438 477.851562 L 255.472656 483.8125 L 242.246094 484.03125 L 230.097656 486.621094 L 215.261719 489.25 L 202.851562 492.117188 L 189.035156 492.507812 L 174.867188 496.753906 L 164.171875 501.578125 L 150.890625 503.03125 L 137.46875 507.957031 L 125.347656 510.730469 L 113.238281 513.613281 L 97.789062 511.539062 L 85.390625 508.855469 L 69.082031 508.855469 L 58.515625 503.574219 L 50.085938 497.644531 L 43.609375 486.296875 L 38.445312 477.054688 L 33.550781 466.835938 Z M 33.550781 63.828125 "/>
</g>
</svg>
