<?xml version="1.0" encoding="UTF-8"?>
<svg xmlns="http://www.w3.org/2000/svg" xmlns:xlink="http://www.w3.org/1999/xlink" width="576pt" height="576pt" viewBox="0 0 576 576" version="1.1">
<g id="surface26737">
<rect x="0" y="0" width="576" height="576" style="fill:rgb(100%,100%,100%);fill-opacity:1;stroke:none;"/>
<path style="fill-rule:nonzero;fill:rgb(33.72549%,70.588235%,91.372549%);fill-opacity:1;stroke-width:0.75;stroke-linecap:round;stroke-linejoin:round;stroke:rgb(20%,20%,20%);stroke-opacity:1;stroke-miterlimit:10;" d="M 33.550781 273.804688 L 42.90625 273.515625 L 51.566406 272.859375 L 60.195312 271.40625 L 68.015625 269.015625 L 76.015625 265.917969 L 84.648438 265.089844 L 93.707031 264.3125 L 102.511719 263.777344 L 111.988281 263.777344 L 120.074219 262.300781 L 128.085938 260.542969 L 137.328125 260.925781 L 145.851562 259.929688 L 154.914062 259.699219 L 163.808594 260.082031 L 173.285156 260.082031 L 181.75 259.804688 L 190.644531 259.398438 L 199.335938 258.785156 L 208.585938 259.125 L 217.273438 258.300781 L 226.75 258.300781 L 235.699219 258.117188 L 244.507812 256.964844 L 253.699219 257.367188 L 262.390625 256.546875 L 271.863281 256.546875 L 280.832031 256.929688 L 299.433594 256.929688 L 308.1875 258.003906 L 316.808594 258.660156 L 325.828125 259.578125 L 334.496094 260.457031 L 343.535156 261.277344 L 352.480469 261.53125 L 361.800781 261.910156 L 371.273438 261.910156 L 380.074219 262.144531 L 389.109375 261.933594 L 398.234375 261.933594 L 407.339844 262.589844 L 416.464844 262.589844 L 425.835938 262.84375 L 434.574219 263.601562 L 443.816406 263.984375 L 452.65625 264.238281 L 461.300781 265.800781 L 470.089844 266.757812 L 478.804688 267.488281 L 488.28125 267.488281 L 497.039062 268.121094 L 505.464844 269.867188 L 513.417969 272.050781 L 522.390625 272.710938 L 531.152344 273.335938 L 539.367188 275.570312 L 542.449219 282.953125 L 538.203125 289.667969 L 529.945312 291.785156 L 521.5625 292.957031 L 513.027344 294.496094 L 504.625 295.578125 L 495.515625 296.277344 L 487.042969 297.1875 L 478.070312 297.84375 L 468.945312 297.84375 L 460.0625 299.046875 L 451.167969 299.425781 L 441.957031 300.058594 L 433.527344 301.09375 L 424.515625 301.855469 L 415.878906 303.144531 L 397.277344 303.144531 L 388.3125 302.765625 L 369.710938 302.765625 L 361.210938 304.476562 L 353.175781 306.460938 L 343.707031 306.480469 L 334.738281 306.859375 L 325.9375 307.769531 L 317.277344 308.429688 L 308.46875 309.628906 L 299.539062 310.539062 L 290.835938 311.320312 L 281.644531 311.574219 L 273.1875 312.777344 L 263.847656 312.777344 L 255.5625 313.8125 L 246.613281 314.851562 L 237.488281 314.851562 L 228.554688 315.925781 L 219.933594 316.582031 L 210.613281 316.960938 L 201.371094 317.339844 L 182.769531 317.339844 L 173.800781 317.722656 L 164.695312 318.378906 L 156.007812 319.199219 L 127.929688 319.199219 L 118.984375 319.453125 L 35.105469 319.453125 L 33.550781 311.359375 Z M 33.550781 273.804688 "/>
</g>
</svg>
