<?xml version="1.0" encoding="UTF-8"?>
<svg xmlns="http://www.w3.org/2000/svg" xmlns:xlink="http://www.w3.org/1999/xlink" width="576pt" height="576pt" viewBox="0 0 576 576" version="1.1">
<g id="surface31798">
<rect x="0" y="0" width="576" height="576" style="fill:rgb(100%,100%,100%);fill-opacity:1;stroke:none;"/>
<path style="fill-rule:nonzero;fill:rgb(80%,47.45098%,65.490196%);fill-opacity:1;stroke-width:0.75;stroke-linecap:round;stroke-linejoin:round;stroke:rgb(20%,20%,20%);stroke-opacity:1;stroke-miterlimit:10;" d="M 182.578125 34.113281 L 193.8125 33.550781 L 204.753906 35.65625 L 211.710938 37.792969 L 221.675781 41.734375 L 231.199219 46.550781 L 240.589844 51.445312 L 246.988281 54.523438 L 256.175781 59.542969 L 264.984375 65.058594 L 273.816406 70.632812 L 279.6875 74.171875 L 288.5 79.441406 L 296.9375 85.445312 L 305.09375 91.949219 L 310.222656 96.527344 L 317.292969 104.070312 L 324.128906 111.730469 L 331.347656 119.152344 L 335.894531 124.21875 L 343.179688 131.523438 L 349.90625 139.609375 L 355.875 148.152344 L 359.65625 153.96875 L 364.753906 163.140625 L 369.300781 172.730469 L 373.691406 182.339844 L 376.636719 188.738281 L 380.609375 198.519531 L 383.59375 208.992188 L 385.605469 220.144531 L 387.328125 231.292969 L 388.6875 238.605469 L 390.398438 249.816406 L 391.632812 261.402344 L 392.433594 273.242188 L 392.78125 281.234375 L 393.265625 293.171875 L 393.421875 305.210938 L 393.316406 317.320312 L 393.355469 325.496094 L 393.265625 337.753906 L 393.125 349.972656 L 392.910156 362.148438 L 392.757812 370.128906 L 392.023438 381.804688 L 390.382812 392.921875 L 387.972656 403.679688 L 386.347656 410.921875 L 383.597656 421.410156 L 379.863281 431.609375 L 375.46875 441.4375 L 371.925781 447.640625 L 365.214844 456.054688 L 358.171875 464.015625 L 351.160156 471.914062 L 346.40625 477.246094 L 338.464844 484.410156 L 330.035156 490.878906 L 321.777344 497.523438 L 316.265625 501.957031 L 307.730469 508.183594 L 298.832031 513.789062 L 289.605469 519.300781 L 280.433594 524.605469 L 274.167969 528.015625 L 265.058594 532.921875 L 256.359375 537.886719 L 247.546875 540.957031 L 241.472656 541.878906 L 232.984375 542.449219 L 224.980469 542.007812 L 217.523438 540.015625 L 213.0625 537.894531 L 206.902344 533.359375 L 201.464844 527.511719 L 196.949219 520.53125 L 194.394531 515.199219 L 191.621094 505.816406 L 189.652344 495.527344 L 188.0625 484.800781 L 187.128906 477.539062 L 186.042969 466.253906 L 185.265625 454.683594 L 184.628906 442.992188 L 184.214844 435.21875 L 183.710938 423.359375 L 183.386719 411.355469 L 183.066406 399.351562 L 182.851562 391.351562 L 182.589844 379.257812 L 182.578125 366.9375 Z M 182.578125 34.113281 "/>
</g>
</svg>
