<?xml version="1.0" encoding="UTF-8"?>
<svg xmlns="http://www.w3.org/2000/svg" xmlns:xlink="http://www.w3.org/1999/xlink" width="576pt" height="576pt" viewBox="0 0 576 576" version="1.1">
<g id="surface31762">
<rect x="0" y="0" width="576" height="576" style="fill:rgb(100%,100%,100%);fill-opacity:1;stroke:none;"/>
<path style="fill-rule:nonzero;fill:rgb(90.196078%,62.352941%,0%);fill-opacity:1;stroke-width:0.75;stroke-linecap:round;stroke-linejoin:round;stroke:rgb(20%,20%,20%);stroke-opacity:1;stroke-miterlimit:10;" d="M 177.09375 34.414062 L 186.738281 33.550781 L 196.09375 36.96875 L 205.125 40.703125 L 213.882812 45.148438 L 221.09375 51.414062 L 227.675781 58.417969 L 233.585938 66.015625 L 237.832031 70.707031 L 244.773438 77.984375 L 252.417969 84.78125 L 258.761719 92.324219 L 265.503906 99.324219 L 272.507812 106.542969 L 280.25 113.546875 L 287.621094 120.761719 L 295.210938 127.515625 L 303.316406 133.167969 L 310.003906 140.367188 L 316.457031 148.332031 L 322.851562 155.414062 L 329.996094 162.605469 L 336.6875 169.851562 L 339.917969 175.644531 L 347.53125 182.761719 L 353.207031 190.992188 L 359.792969 198.503906 L 365.277344 207.128906 L 370.066406 215.960938 L 373.078125 225.472656 L 376.082031 234.785156 L 379.082031 244.058594 L 381.921875 253.765625 L 384.210938 263.496094 L 386.5625 273.015625 L 387.605469 283.285156 L 389.046875 293.757812 L 389.390625 305 L 389.410156 312.484375 L 389.789062 323.511719 L 390.15625 334.699219 L 390.988281 345.738281 L 392.394531 356.308594 L 393.914062 366.753906 L 395.261719 377.339844 L 396.382812 388.253906 L 397.496094 398.980469 L 398.425781 409.785156 L 398.890625 420.980469 L 398.90625 432.261719 L 398.773438 443.59375 L 398.207031 454.632812 L 397.816406 465.746094 L 397.816406 473.335938 L 397.347656 484.527344 L 396.804688 495.46875 L 396.921875 506.804688 L 395.851562 517.636719 L 393.023438 527.46875 L 388.9375 536.445312 L 381.972656 542.449219 L 372.648438 542.101562 L 364.46875 538.773438 L 356.636719 533.082031 L 349.945312 526.121094 L 342.601562 520.148438 L 336.949219 513.171875 L 330.019531 506.304688 L 325.855469 501.382812 L 319.910156 494.125 L 314.085938 486.628906 L 307.738281 479.261719 L 300.613281 472.847656 L 295.296875 465.199219 L 289.519531 458.597656 L 282.890625 452.25 L 275.179688 446.75 L 267.042969 441.535156 L 259.71875 435.957031 L 252.160156 430.078125 L 244.367188 424.660156 L 236.992188 419.410156 L 228.96875 414.148438 L 224.035156 410.089844 L 216.53125 404.585938 L 210.136719 399 L 203.152344 393.71875 L 196.144531 389.117188 L 189.402344 383.703125 L 184.867188 376.363281 L 182.53125 366.953125 L 180.578125 357.519531 L 178.863281 347.75 L 177.851562 337.375 L 177.09375 326.667969 Z M 177.09375 34.414062 "/>
</g>
</svg>
