<?xml version="1.0" encoding="UTF-8"?>
<svg xmlns="http://www.w3.org/2000/svg" xmlns:xlink="http://www.w3.org/1999/xlink" width="576pt" height="576pt" viewBox="0 0 576 576" version="1.1">
<g id="surface31822">
<rect x="0" y="0" width="576" height="576" style="fill:rgb(100%,100%,100%);fill-opacity:1;stroke:none;"/>
<path style="fill-rule:nonzero;fill:rgb(68.627451%,21.960784%,92.156863%);fill-opacity:1;stroke-width:0.75;stroke-linecap:round;stroke-linejoin:round;stroke:rgb(20%,20%,20%);stroke-opacity:1;stroke-miterlimit:10;" d="M 174.046875 33.910156 L 184 33.550781 L 194.535156 36.289062 L 203.949219 38.699219 L 213.6875 42.472656 L 221.804688 46.707031 L 230.285156 51.949219 L 237.691406 57.203125 L 244.507812 63.292969 L 251.859375 70.621094 L 258.535156 77.167969 L 266.003906 84.488281 L 273.199219 90.347656 L 279.703125 98.210938 L 285.398438 105.160156 L 292.820312 110.414062 L 299.703125 117.957031 L 305.855469 124.429688 L 313.0625 132.320312 L 320.214844 138.511719 L 326.902344 146.054688 L 332.980469 152.652344 L 338.730469 159.542969 L 345.609375 167.140625 L 350.289062 175.039062 L 356.699219 183.527344 L 361.039062 191.761719 L 365.578125 199.777344 L 370.246094 209.230469 L 373.46875 218.117188 L 376.164062 228.855469 L 378.875 237.996094 L 381.429688 248.785156 L 383.128906 258.515625 L 385.683594 267.765625 L 387.738281 278.773438 L 389.25 288.542969 L 390.902344 299.871094 L 392.339844 309.753906 L 394.15625 320.957031 L 395.246094 331.089844 L 396.605469 341.042969 L 397.714844 352.605469 L 399.15625 362.433594 L 400.082031 374.15625 L 400.664062 384.558594 L 400.707031 396.785156 L 401.164062 407.28125 L 401.707031 417.6875 L 401.847656 429.839844 L 401.953125 440.515625 L 401.953125 452.789062 L 401.625 463.347656 L 401.523438 475.53125 L 401.710938 486.101562 L 401.214844 496.382812 L 401.199219 508.503906 L 400.023438 518.507812 L 396.328125 528.480469 L 391.03125 535.480469 L 385.40625 540.996094 L 376.449219 542.449219 L 367.875 542.046875 L 357.929688 539.332031 L 349.105469 536.089844 L 340.378906 530.347656 L 333.378906 524.671875 L 326.132812 518.796875 L 317.503906 512.859375 L 311.222656 506.464844 L 304.394531 499.058594 L 297.835938 493.015625 L 289.023438 487.097656 L 282.359375 481.054688 L 274.710938 476.15625 L 266.671875 469.769531 L 259.503906 464.0625 L 250.46875 458.636719 L 243.117188 453.660156 L 233.84375 449.476562 L 225.257812 446.132812 L 217.472656 441.535156 L 207.949219 438.238281 L 199.898438 434.574219 L 192.015625 429.269531 L 186.292969 423.578125 L 182.480469 414.351562 L 179.863281 405.738281 L 177.429688 397.320312 L 175.96875 386.378906 L 175.121094 376.519531 L 174.585938 364.78125 L 174.113281 354.511719 L 174.046875 342.277344 Z M 174.046875 33.910156 "/>
</g>
</svg>
