<?xml version="1.0" encoding="UTF-8"?>
<svg xmlns="http://www.w3.org/2000/svg" xmlns:xlink="http://www.w3.org/1999/xlink" width="576pt" height="576pt" viewBox="0 0 576 576" version="1.1">
<g id="surface31786">
<rect x="0" y="0" width="576" height="576" style="fill:rgb(100%,100%,100%);fill-opacity:1;stroke:none;"/>
<path style="fill-rule:nonzero;fill:rgb(0%,44.705882%,69.803922%);fill-opacity:1;stroke-width:0.75;stroke-linecap:round;stroke-linejoin:round;stroke:rgb(20%,20%,20%);stroke-opacity:1;stroke-miterlimit:10;" d="M 199.023438 33.550781 L 209 34.179688 L 218.351562 37.296875 L 226.335938 41.9375 L 232.664062 46.988281 L 239.632812 53.222656 L 245.882812 60.191406 L 251.550781 67.378906 L 257.398438 74.65625 L 262.894531 82.027344 L 268.523438 89.222656 L 274.078125 96.582031 L 278.542969 103.203125 L 283.75 110.707031 L 289.128906 118.34375 L 294.726562 125.976562 L 299.617188 133.859375 L 304.351562 141.964844 L 309.902344 149.507812 L 314.519531 156.417969 L 319.339844 164.515625 L 323.957031 172.808594 L 328.101562 181.363281 L 331.996094 189.945312 L 335.4375 198.914062 L 339.351562 207.589844 L 342.363281 216.898438 L 345.515625 224.738281 L 347.773438 234.371094 L 350.183594 243.964844 L 352.957031 253.355469 L 354.609375 263.515625 L 357.351562 272.957031 L 359.066406 283.074219 L 360.484375 291.960938 L 362.457031 301.835938 L 364.074219 311.941406 L 364.980469 322.546875 L 366.597656 332.675781 L 368.070312 342.945312 L 369.398438 353.246094 L 370.472656 363.667969 L 371.59375 372.746094 L 372.5 383.277344 L 373.105469 394.070312 L 374.03125 404.460938 L 374.8125 415.03125 L 375.628906 425.578125 L 376.527344 436.179688 L 376.574219 445.523438 L 376.882812 456.160156 L 376.976562 466.851562 L 376.863281 477.332031 L 376.019531 487.570312 L 374.824219 497.777344 L 373.335938 507.890625 L 370.605469 517.003906 L 367.527344 524.246094 L 362.761719 531.671875 L 356.992188 538.027344 L 349.160156 541.429688 L 340.46875 542.40625 L 331.382812 542.449219 L 322.941406 540.875 L 315.824219 538.644531 L 307.511719 535.914062 L 299.074219 533.003906 L 290.972656 530.167969 L 282.5 527.410156 L 274.1875 524.441406 L 266.050781 522.378906 L 257.523438 519.875 L 249.921875 517.476562 L 241.234375 514.515625 L 233.015625 511.296875 L 225.53125 506.945312 L 219.261719 501.488281 L 213.921875 494.816406 L 209.1875 487.761719 L 205.195312 481.492188 L 202.160156 472.863281 L 200.515625 463.074219 L 199.550781 452.816406 L 199.167969 441.894531 L 199.023438 430.816406 Z M 199.023438 33.550781 "/>
</g>
</svg>
