<?xml version="1.0" encoding="UTF-8"?>
<svg xmlns="http://www.w3.org/2000/svg" xmlns:xlink="http://www.w3.org/1999/xlink" width="576pt" height="576pt" viewBox="0 0 576 576" version="1.1">
<g id="surface31804">
<rect x="0" y="0" width="576" height="576" style="fill:rgb(100%,100%,100%);fill-opacity:1;stroke:none;"/>
<path style="fill-rule:nonzero;fill:rgb(56.470588%,93.333333%,56.470588%);fill-opacity:1;stroke-width:0.75;stroke-linecap:round;stroke-linejoin:round;stroke:rgb(20%,20%,20%);stroke-opacity:1;stroke-miterlimit:10;" d="M 33.550781 40.15625 L 49.636719 38.324219 L 62.902344 37.90625 L 79.003906 39.070312 L 94.976562 40.609375 L 111.265625 41.523438 L 124.691406 41.527344 L 141.230469 42.164062 L 157.261719 43.183594 L 173.855469 43.78125 L 186.632812 44.917969 L 202.148438 47.074219 L 218.410156 47.796875 L 231.4375 48.617188 L 246.875 50.726562 L 262.722656 52.691406 L 278.921875 53.542969 L 292.191406 53.84375 L 307.554688 56.277344 L 322.160156 60.082031 L 336.542969 64.171875 L 348.390625 67.085938 L 362.210938 71.898438 L 376.128906 76.492188 L 386.824219 80.898438 L 399.949219 86.613281 L 413.074219 91.570312 L 426.65625 96.976562 L 435.246094 103.753906 L 447.695312 110.089844 L 460.574219 116.867188 L 470.210938 122.761719 L 481.796875 131.320312 L 491.878906 141.039062 L 500.917969 150.617188 L 508.160156 159.558594 L 516.277344 171.601562 L 524.132812 183.78125 L 530.3125 196.84375 L 534.847656 207.777344 L 538.347656 222.65625 L 539.480469 238.644531 L 540.367188 251.601562 L 541.65625 267.605469 L 542.15625 284.011719 L 542.449219 300.613281 L 542.320312 313.800781 L 541.660156 330 L 541.03125 346.394531 L 540.835938 363.015625 L 538.777344 375.242188 L 534.011719 389.285156 L 527.441406 402.300781 L 521.898438 411.886719 L 513.527344 423.589844 L 502.515625 433.535156 L 493.214844 444.0625 L 484.703125 451.691406 L 472.15625 458.867188 L 459.863281 466.488281 L 450.460938 472.476562 L 437.949219 479.96875 L 425.902344 486.734375 L 413.171875 493.71875 L 402.042969 497.992188 L 388.71875 504.199219 L 374.894531 509.621094 L 360.632812 513.761719 L 348.441406 515.410156 L 332.492188 517.050781 L 318.125 520.691406 L 306.589844 524.039062 L 291.511719 526.6875 L 276.398438 529.46875 L 260.882812 531.488281 L 248.015625 531.5625 L 231.882812 531.808594 L 216.886719 532.394531 L 201.371094 532.867188 L 189.179688 534.152344 L 173.890625 536.132812 L 158.65625 536.894531 L 146.203125 538.027344 L 130.042969 538.09375 L 114.171875 536.847656 L 99.25 534.324219 L 89.199219 530.730469 L 79.175781 523.449219 L 70.691406 514.925781 L 63.410156 505.300781 L 58.203125 497.320312 L 52.917969 486.617188 L 48.425781 474.304688 L 45.667969 463.492188 L 42.742188 449.507812 L 40.0625 435.242188 L 38.378906 419.921875 L 37.871094 406.707031 L 37.261719 390.332031 L 36.734375 373.875 L 36.234375 360.835938 L 35.613281 344.660156 L 34.824219 328.605469 L 34.039062 312.550781 L 33.550781 299.515625 Z M 33.550781 40.15625 "/>
</g>
</svg>
