<?xml version="1.0" encoding="UTF-8"?>
<svg xmlns="http://www.w3.org/2000/svg" xmlns:xlink="http://www.w3.org/1999/xlink" width="576pt" height="576pt" viewBox="0 0 576 576" version="1.1">
<g id="surface15978">
<rect x="0" y="0" width="576" height="576" style="fill:rgb(100%,100%,100%);fill-opacity:1;stroke:none;"/>
<path style="fill-rule:nonzero;fill:rgb(0%,61.960784%,45.098039%);fill-opacity:1;stroke-width:0.75;stroke-linecap:round;stroke-linejoin:round;stroke:rgb(20%,20%,20%);stroke-opacity:1;stroke-miterlimit:10;" d="M 226.839844 33.550781 L 235.960938 34.152344 L 244.820312 36.460938 L 252.195312 40.691406 L 258.804688 45.808594 L 264.90625 51.804688 L 269.535156 57.6875 L 273.902344 65.324219 L 278.773438 72.464844 L 282.632812 80.269531 L 286.613281 87.667969 L 290.648438 95.289062 L 294.019531 103.339844 L 298.035156 110.796875 L 301.933594 118.589844 L 305.652344 126.632812 L 308.828125 134.820312 L 311.242188 142.429688 L 315.027344 150.335938 L 318.507812 158.371094 L 321.304688 166.738281 L 324.34375 175.15625 L 326.953125 183.75 L 328.730469 192.835938 L 330.355469 202.058594 L 332.410156 210.992188 L 333.65625 220.460938 L 335.339844 229.628906 L 336.183594 238.09375 L 337.320312 247.558594 L 338.605469 256.960938 L 339.242188 266.746094 L 339.925781 276.515625 L 340.660156 286.269531 L 341.390625 295.941406 L 342.464844 305.457031 L 343.027344 315.308594 L 343.597656 325.148438 L 343.984375 335.089844 L 344.246094 343.804688 L 344.503906 353.816406 L 345.070312 363.511719 L 345.785156 373.261719 L 346.207031 383.199219 L 346.425781 393.222656 L 346.679688 403.242188 L 347.3125 413.019531 L 347.828125 422.785156 L 348.316406 432.660156 L 348.644531 442.644531 L 348.761719 451.613281 L 348.921875 461.691406 L 348.867188 471.691406 L 349.019531 481.742188 L 349.160156 491.851562 L 349.019531 501.960938 L 348.578125 511.871094 L 348.109375 521.671875 L 346.722656 530.953125 L 343.40625 537.984375 L 337.859375 542.011719 L 331.742188 542.449219 L 324.132812 539.914062 L 316.953125 535.710938 L 310.65625 530.039062 L 304.851562 524.53125 L 298.496094 519.378906 L 293.085938 513.421875 L 287.003906 507.984375 L 281.046875 502.707031 L 274.425781 497.984375 L 268.789062 493.898438 L 262.699219 489.429688 L 256.753906 484.246094 L 251.742188 478.253906 L 246.941406 471.59375 L 242.621094 464.882812 L 239.027344 457.503906 L 235.722656 450.046875 L 231.816406 443.394531 L 229.042969 435.648438 L 227.695312 426.65625 L 227.046875 418.191406 L 226.839844 408.195312 Z M 226.839844 33.550781 "/>
</g>
</svg>
