<?xml version="1.0" encoding="UTF-8"?>
<svg xmlns="http://www.w3.org/2000/svg" xmlns:xlink="http://www.w3.org/1999/xlink" width="576pt" height="576pt" viewBox="0 0 576 576" version="1.1">
<g id="surface15990">
<rect x="0" y="0" width="576" height="576" style="fill:rgb(100%,100%,100%);fill-opacity:1;stroke:none;"/>
<path style="fill-rule:nonzero;fill:rgb(0%,44.705882%,69.803922%);fill-opacity:1;stroke-width:0.75;stroke-linecap:round;stroke-linejoin:round;stroke:rgb(20%,20%,20%);stroke-opacity:1;stroke-miterlimit:10;" d="M 185.414062 33.550781 L 196.175781 33.625 L 204.078125 36.597656 L 212.355469 41.660156 L 219.90625 47.527344 L 226.132812 52.621094 L 233.3125 58.980469 L 240.066406 66.074219 L 245.410156 72.214844 L 251.449219 80.023438 L 257.78125 87.898438 L 263.734375 95.828125 L 269.363281 101.933594 L 274.929688 110.050781 L 280.417969 118.183594 L 285.707031 124.285156 L 291.375 132.285156 L 297.113281 140.234375 L 302.070312 146.839844 L 308.027344 154.753906 L 313.800781 162.726562 L 318.453125 169.457031 L 323.410156 178.042969 L 329.101562 186.140625 L 332.78125 193.664062 L 338.269531 202.003906 L 342.914062 211.046875 L 346.46875 218.707031 L 350.601562 227.871094 L 353.738281 237.683594 L 356.46875 247.769531 L 359.148438 255.917969 L 362.589844 265.582031 L 364.660156 276.027344 L 367.105469 284.324219 L 370.09375 294.195312 L 371.832031 304.730469 L 373.144531 313.699219 L 375.335938 324.070312 L 377.6875 334.386719 L 379.304688 343.085938 L 381.09375 353.742188 L 382.488281 364.523438 L 383.996094 373.359375 L 385.351562 384.269531 L 386.78125 395.113281 L 387.054688 404.664062 L 388.003906 415.816406 L 388.992188 426.789062 L 389.417969 436.152344 L 390.132812 447.390625 L 390.308594 458.769531 L 390.574219 470.082031 L 390.585938 479.6875 L 390.394531 491.136719 L 389.933594 502.417969 L 389.242188 511.597656 L 387.664062 522.226562 L 383.203125 530.800781 L 378.109375 536.824219 L 370.570312 541.652344 L 361.34375 542.449219 L 353.070312 541.90625 L 343.773438 539.289062 L 334.835938 535.101562 L 327.640625 531.152344 L 319.535156 525.582031 L 311.574219 519.921875 L 304.1875 516.042969 L 296.039062 510.777344 L 288.570312 504.785156 L 280.386719 499.222656 L 273.265625 494.785156 L 265.039062 489.671875 L 256.476562 485.035156 L 249.488281 480.832031 L 241.339844 475.730469 L 233.082031 470.621094 L 226.734375 466.078125 L 219.292969 460.644531 L 212.597656 454.605469 L 207.851562 448.617188 L 202.515625 441.960938 L 197.609375 434.535156 L 194.300781 427.710938 L 191.230469 418.699219 L 189.453125 408.402344 L 188.304688 399.585938 L 187.003906 389.097656 L 186.324219 378.007812 L 185.9375 368.652344 L 185.691406 357.195312 L 185.445312 345.734375 L 185.414062 334.042969 Z M 185.414062 33.550781 "/>
</g>
</svg>
