<?xml version="1.0" encoding="UTF-8"?>
<svg xmlns="http://www.w3.org/2000/svg" xmlns:xlink="http://www.w3.org/1999/xlink" width="576pt" height="576pt" viewBox="0 0 576 576" version="1.1">
<g id="surface31768">
<rect x="0" y="0" width="576" height="576" style="fill:rgb(100%,100%,100%);fill-opacity:1;stroke:none;"/>
<path style="fill-rule:nonzero;fill:rgb(33.72549%,70.588235%,91.372549%);fill-opacity:1;stroke-width:0.75;stroke-linecap:round;stroke-linejoin:round;stroke:rgb(20%,20%,20%);stroke-opacity:1;stroke-miterlimit:10;" d="M 177.832031 33.894531 L 188.964844 33.550781 L 199.851562 35.175781 L 210.03125 37.84375 L 217.847656 40.667969 L 227.578125 44.238281 L 237.347656 47.945312 L 246.691406 52.359375 L 255.925781 56.566406 L 264.96875 61.203125 L 274.015625 66.019531 L 283.097656 70.910156 L 289.757812 75.367188 L 298.21875 80.9375 L 306.511719 86.535156 L 314.414062 92.679688 L 322.632812 98.777344 L 330.113281 105.652344 L 337.15625 112.699219 L 342.671875 118.414062 L 349.3125 125.863281 L 355.046875 134.140625 L 360.671875 142.523438 L 365.460938 151.476562 L 370.589844 160.21875 L 375.378906 169.207031 L 379.039062 178.84375 L 381.65625 186.714844 L 384.726562 196.773438 L 386.914062 207.378906 L 389.046875 217.976562 L 391.066406 228.746094 L 392.609375 239.742188 L 393.671875 251.035156 L 394.628906 260.03125 L 395.550781 271.414062 L 395.960938 283.03125 L 396.523438 294.542969 L 397.078125 306.144531 L 397.449219 317.863281 L 397.71875 329.617188 L 397.84375 341.484375 L 398.011719 350.898438 L 398.152344 362.601562 L 398.167969 374.390625 L 398.050781 386.035156 L 397.820312 397.804688 L 397.46875 409.5 L 396.789062 420.945312 L 395.945312 429.878906 L 394.550781 440.945312 L 392.761719 451.8125 L 390.265625 462.242188 L 386.980469 472.273438 L 383.015625 481.933594 L 377.585938 490.484375 L 371.460938 498.351562 L 366.207031 504.121094 L 358.914062 510.636719 L 351.066406 516.59375 L 342.519531 521.765625 L 333.488281 525.6875 L 324.558594 529.429688 L 315.261719 532.542969 L 307.355469 534.003906 L 297.910156 536.4375 L 288.410156 538.820312 L 278.71875 540.660156 L 268.054688 541.355469 L 257.34375 541.90625 L 247.042969 542.253906 L 236.679688 542.449219 L 228.597656 542.183594 L 218.90625 541.082031 L 210.304688 538.585938 L 202.582031 534.851562 L 196.644531 528.871094 L 192.066406 521.453125 L 188.316406 513.140625 L 185.902344 505.9375 L 183.402344 496.433594 L 181.417969 486.441406 L 179.957031 475.949219 L 178.789062 465.15625 L 177.9375 454.019531 L 177.835938 442.179688 L 177.832031 430.242188 Z M 177.832031 33.894531 "/>
</g>
</svg>
