<?xml version="1.0" encoding="UTF-8"?>
<svg xmlns="http://www.w3.org/2000/svg" xmlns:xlink="http://www.w3.org/1999/xlink" width="576pt" height="576pt" viewBox="0 0 576 576" version="1.1">
<g id="surface15972">
<rect x="0" y="0" width="576" height="576" style="fill:rgb(100%,100%,100%);fill-opacity:1;stroke:none;"/>
<path style="fill-rule:nonzero;fill:rgb(33.72549%,70.588235%,91.372549%);fill-opacity:1;stroke-width:0.75;stroke-linecap:round;stroke-linejoin:round;stroke:rgb(20%,20%,20%);stroke-opacity:1;stroke-miterlimit:10;" d="M 205.351562 33.550781 L 215.519531 33.746094 L 225.179688 35.875 L 232.945312 38.246094 L 241.601562 42.050781 L 249.882812 46.480469 L 257.839844 51.269531 L 265.480469 56.65625 L 272.726562 62.269531 L 279.929688 67.972656 L 285.886719 72.800781 L 292.871094 78.769531 L 299.453125 85.074219 L 305.542969 91.945312 L 311.675781 98.753906 L 316.492188 104.722656 L 322.101562 112.015625 L 327.066406 119.898438 L 331.863281 127.773438 L 336.730469 135.648438 L 340.871094 144.117188 L 344.246094 153.164062 L 347.550781 160.257812 L 350.574219 169.46875 L 354.03125 178.410156 L 357.058594 187.671875 L 359.015625 197.503906 L 360.804688 205.621094 L 362.511719 215.640625 L 363.867188 225.871094 L 365.191406 236.109375 L 366.1875 246.613281 L 367.027344 257.097656 L 367.632812 267.753906 L 368.273438 276.605469 L 368.71875 287.339844 L 369.191406 298.082031 L 369.738281 308.839844 L 370.140625 319.65625 L 370.371094 328.71875 L 370.472656 339.707031 L 370.488281 350.699219 L 370.632812 361.648438 L 370.648438 372.613281 L 370.589844 383.484375 L 370.425781 394.3125 L 370.304688 403.429688 L 370.070312 414.292969 L 369.582031 425.070312 L 368.714844 435.632812 L 367.417969 445.945312 L 366.199219 454.398438 L 364.121094 464.21875 L 361.136719 473.515625 L 357.554688 482.4375 L 352.800781 490.484375 L 347.355469 498.042969 L 341.03125 504.617188 L 335.375 509.726562 L 328.316406 515.738281 L 320.664062 520.960938 L 312.574219 525.371094 L 304.578125 529.832031 L 297.765625 533.394531 L 288.925781 536.710938 L 279.984375 539.570312 L 270.683594 541.476562 L 261.535156 542.449219 L 252.515625 541.957031 L 244.445312 540.105469 L 238.679688 537.988281 L 232.210938 534.628906 L 226.328125 530.445312 L 221.113281 525.246094 L 216.589844 519.226562 L 213.332031 513.550781 L 210.5 505.359375 L 208.535156 496.238281 L 207.15625 486.46875 L 206.222656 476.285156 L 205.660156 465.738281 L 205.414062 454.882812 L 205.359375 445.691406 L 205.351562 434.609375 Z M 205.351562 33.550781 "/>
</g>
</svg>
