<?xml version="1.0" encoding="UTF-8"?>
<svg xmlns="http://www.w3.org/2000/svg" xmlns:xlink="http://www.w3.org/1999/xlink" width="576pt" height="576pt" viewBox="0 0 576 576" version="1.1">
<g id="surface15996">
<rect x="0" y="0" width="576" height="576" style="fill:rgb(100%,100%,100%);fill-opacity:1;stroke:none;"/>
<path style="fill-rule:nonzero;fill:rgb(83.529412%,36.862745%,0%);fill-opacity:1;stroke-width:0.75;stroke-linecap:round;stroke-linejoin:round;stroke:rgb(20%,20%,20%);stroke-opacity:1;stroke-miterlimit:10;" d="M 56.382812 35.804688 L 72.761719 33.941406 L 85.460938 33.550781 L 102.121094 34.339844 L 114.285156 35.578125 L 130.730469 36.882812 L 143.304688 37.359375 L 160.117188 38.035156 L 176.453125 39.253906 L 188.746094 40.28125 L 204.722656 42.1875 L 216.664062 43.734375 L 232.929688 44.910156 L 245.328125 45.773438 L 260.878906 48.476562 L 272.433594 50.75 L 288.242188 52.984375 L 303.828125 55.785156 L 314.84375 58.699219 L 329.238281 63.3125 L 340.15625 66.457031 L 354.523438 71.441406 L 364.4375 76.257812 L 377.804688 82.285156 L 390.828125 88.890625 L 400.1875 94.417969 L 413.175781 100.46875 L 423.300781 104.9375 L 434.863281 113.320312 L 443.777344 119.105469 L 455.628906 127.445312 L 466.824219 136.578125 L 474.523438 144.414062 L 483.183594 155.851562 L 488.648438 164.703125 L 495.488281 177.53125 L 500.429688 187.558594 L 506.566406 201.097656 L 511.125 215.402344 L 513.863281 226.660156 L 516.320312 242.503906 L 517.007812 254.910156 L 517.597656 271.707031 L 518.246094 284.1875 L 518.949219 300.902344 L 519.304688 317.566406 L 519.617188 329.996094 L 519.304688 346.425781 L 519.003906 358.8125 L 518.757812 375.519531 L 517.351562 387.660156 L 513.363281 402.507812 L 508.796875 412.78125 L 501.433594 425.191406 L 492.847656 437.097656 L 485.222656 445.496094 L 476.035156 456.675781 L 468.351562 464.414062 L 456.171875 472.542969 L 446.804688 478.359375 L 434.480469 486.144531 L 421.542969 493.390625 L 412.429688 498.929688 L 398.464844 504.316406 L 387.21875 506.933594 L 373.207031 512.640625 L 362.726562 516.785156 L 348.625 521.9375 L 333.386719 524.753906 L 321.542969 526.261719 L 306.601562 529.726562 L 295.414062 532.722656 L 279.757812 535.050781 L 268.191406 536.9375 L 252.277344 538.777344 L 239.886719 539.058594 L 223.347656 539.445312 L 207.320312 539.734375 L 195.085938 539.863281 L 178.8125 540.851562 L 166.664062 541.796875 L 150.640625 542.171875 L 138.722656 542.449219 L 122.839844 541.617188 L 108.226562 538.699219 L 99.914062 533.835938 L 91.050781 525.296875 L 85.703125 517.566406 L 79.515625 506.429688 L 75.359375 497.632812 L 70.644531 485.304688 L 67.40625 471.886719 L 65.300781 461.132812 L 63.222656 445.949219 L 61.863281 434.371094 L 60.191406 418.839844 L 59.378906 406.699219 L 58.875 389.855469 L 58.496094 372.984375 L 58.28125 360.238281 L 57.910156 343.382812 L 57.609375 330.839844 L 57.125 314.152344 L 56.765625 301.632812 L 56.382812 284.8125 Z M 56.382812 35.804688 "/>
</g>
</svg>
