<?xml version="1.0" encoding="UTF-8"?>
<svg xmlns="http://www.w3.org/2000/svg" xmlns:xlink="http://www.w3.org/1999/xlink" width="576pt" height="576pt" viewBox="0 0 576 576" version="1.1">
<g id="surface31780">
<rect x="0" y="0" width="576" height="576" style="fill:rgb(100%,100%,100%);fill-opacity:1;stroke:none;"/>
<path style="fill-rule:nonzero;fill:rgb(100%,38.823529%,27.843137%);fill-opacity:1;stroke-width:0.75;stroke-linecap:round;stroke-linejoin:round;stroke:rgb(20%,20%,20%);stroke-opacity:1;stroke-miterlimit:10;" d="M 206.109375 33.550781 L 215.007812 34.808594 L 222.371094 40.160156 L 229.097656 45.273438 L 236.132812 51.460938 L 242.484375 57.1875 L 248.734375 64.152344 L 254.300781 70.816406 L 260.238281 77.945312 L 265.574219 84.519531 L 272.214844 90.988281 L 276.660156 98.105469 L 281.347656 105.402344 L 286.933594 112.84375 L 292.824219 119.5 L 297.828125 127.425781 L 302.578125 134.574219 L 307.289062 142.410156 L 312.378906 149.042969 L 317.113281 157.246094 L 321.117188 165.046875 L 325.871094 173.113281 L 329.9375 180.828125 L 334.636719 189.070312 L 338.867188 196.398438 L 342.371094 204.472656 L 346.808594 212.691406 L 349.582031 221.113281 L 351.761719 230.828125 L 354.503906 239.222656 L 355.769531 249.515625 L 358.238281 258.097656 L 360.160156 267.96875 L 362.355469 276.714844 L 363.753906 286.75 L 365.070312 296.046875 L 365.480469 306.777344 L 365.925781 316.613281 L 366.804688 326.234375 L 367.355469 336.898438 L 367.929688 346.652344 L 368.664062 357.25 L 369 367.144531 L 369.417969 377.871094 L 369.4375 387.867188 L 369.457031 398.835938 L 369.378906 408.820312 L 369.789062 419.570312 L 369.890625 429.476562 L 369.867188 439.574219 L 369.71875 450.503906 L 369.589844 460.511719 L 369.292969 471.363281 L 369.144531 481.355469 L 368.757812 492.078125 L 368.390625 501.949219 L 367.550781 512.1875 L 365.964844 521.097656 L 363.839844 530.175781 L 360.007812 537.160156 L 353.613281 541.226562 L 344.855469 542.449219 L 336.867188 541.832031 L 328.753906 537.898438 L 321.941406 532.6875 L 315.980469 525.605469 L 311.40625 518.722656 L 305.605469 511.640625 L 300.785156 504.746094 L 296.492188 496.808594 L 292.308594 489.761719 L 286.992188 482.40625 L 282.363281 475.894531 L 278.339844 468.929688 L 273.21875 462.117188 L 268.585938 455.753906 L 262.855469 449.839844 L 257.390625 444.226562 L 251.578125 438.246094 L 246.488281 432.003906 L 241.203125 425.054688 L 235.5625 419.25 L 229.355469 413.363281 L 224.535156 407.296875 L 220.152344 399.859375 L 215.105469 394.5625 L 211.6875 387.636719 L 208.320312 379.816406 L 206.769531 371.132812 L 206.109375 360.703125 Z M 206.109375 33.550781 "/>
</g>
</svg>
