<?xml version="1.0" encoding="UTF-8"?>
<svg xmlns="http://www.w3.org/2000/svg" xmlns:xlink="http://www.w3.org/1999/xlink" width="576pt" height="576pt" viewBox="0 0 576 576" version="1.1">
<g id="surface31816">
<rect x="0" y="0" width="576" height="576" style="fill:rgb(100%,100%,100%);fill-opacity:1;stroke:none;"/>
<path style="fill-rule:nonzero;fill:rgb(50.196078%,50.196078%,50.196078%);fill-opacity:1;stroke-width:0.75;stroke-linecap:round;stroke-linejoin:round;stroke:rgb(20%,20%,20%);stroke-opacity:1;stroke-miterlimit:10;" d="M 175.761719 33.550781 L 185.589844 35.832031 L 194.515625 40.523438 L 201.035156 47.039062 L 208.632812 53.78125 L 214.472656 61.769531 L 220.835938 69.324219 L 227 75.828125 L 234.175781 83.429688 L 242.320312 90.332031 L 249.726562 97.304688 L 257.128906 103.195312 L 265.078125 109.46875 L 271.964844 116.003906 L 280.542969 121.527344 L 287.796875 127.527344 L 295.5625 133.5 L 302.703125 140.1875 L 310.484375 146.5 L 318.300781 152.769531 L 324.519531 159.449219 L 332.015625 166.136719 L 339.332031 173.238281 L 345.863281 180.898438 L 351.839844 188.046875 L 357.835938 196.46875 L 363.023438 205.371094 L 367.539062 214.964844 L 373.148438 222.375 L 376.390625 232.425781 L 380.207031 242.058594 L 383.597656 252.050781 L 386.878906 262.097656 L 389.8125 271.203125 L 391.0625 282.210938 L 392.417969 293.277344 L 393.792969 304.386719 L 394.949219 314.480469 L 396.027344 325.726562 L 397.449219 336.75 L 398.433594 348.113281 L 398.554688 358.839844 L 398.777344 370.234375 L 399 381.957031 L 399.578125 393.601562 L 400.1875 405.171875 L 400.238281 415.996094 L 400.203125 427.917969 L 400.203125 498.4375 L 399.296875 508.671875 L 396.722656 517.171875 L 394.515625 524.289062 L 391.597656 530.644531 L 388.40625 535.675781 L 383.953125 539.925781 L 376.722656 542.449219 L 368.851562 541.714844 L 360.238281 537.039062 L 353.597656 530.382812 L 347.558594 522.320312 L 343.09375 513.082031 L 337.546875 504.765625 L 332.601562 496.898438 L 329.265625 487.042969 L 325.175781 477.515625 L 319.144531 469.035156 L 315.105469 460.617188 L 310.453125 451.449219 L 305.78125 442.304688 L 300.257812 433.71875 L 294.851562 425.308594 L 289.605469 418.410156 L 281.855469 412.542969 L 275.328125 405.585938 L 267.921875 399.65625 L 261.808594 393.757812 L 253.785156 389.367188 L 246.203125 386.570312 L 238.132812 384.269531 L 230.101562 383.140625 L 222.402344 380.890625 L 214.0625 380.367188 L 205.503906 380.839844 L 197.65625 381.691406 L 189.273438 380.765625 L 183.167969 376.863281 L 179.410156 369.777344 L 177.273438 359.734375 L 176.371094 349.769531 L 175.761719 338.425781 Z M 175.761719 33.550781 "/>
</g>
</svg>
