<?xml version="1.0" encoding="UTF-8"?>
<svg xmlns="http://www.w3.org/2000/svg" xmlns:xlink="http://www.w3.org/1999/xlink" width="576pt" height="576pt" viewBox="0 0 576 576" version="1.1">
<g id="surface31774">
<rect x="0" y="0" width="576" height="576" style="fill:rgb(100%,100%,100%);fill-opacity:1;stroke:none;"/>
<path style="fill-rule:nonzero;fill:rgb(0%,61.960784%,45.098039%);fill-opacity:1;stroke-width:0.75;stroke-linecap:round;stroke-linejoin:round;stroke:rgb(20%,20%,20%);stroke-opacity:1;stroke-miterlimit:10;" d="M 230.839844 33.550781 L 240.335938 33.855469 L 248.574219 36.140625 L 256.171875 40.453125 L 263.140625 45.347656 L 268.933594 50.636719 L 274.164062 57.15625 L 278.699219 64.464844 L 282.300781 71.410156 L 286.453125 79.027344 L 290.703125 86.375 L 293.710938 93.878906 L 297.832031 101.664062 L 301.863281 109.320312 L 304.617188 117.023438 L 308.472656 124.945312 L 311.769531 133.109375 L 314.894531 140.707031 L 318.664062 148.566406 L 321.894531 156.980469 L 324.085938 165.113281 L 326.808594 173.644531 L 328.640625 182.8125 L 330.367188 191.257812 L 332.445312 200.226562 L 333.871094 209.554688 L 334.828125 218.445312 L 336.324219 227.816406 L 337.554688 237.308594 L 338.792969 246.011719 L 339.660156 255.695312 L 340.492188 265.425781 L 341.25 274.492188 L 341.945312 284.34375 L 342.625 294.066406 L 343.019531 303.222656 L 343.488281 313.191406 L 343.773438 323.265625 L 343.875 332.722656 L 343.753906 342.71875 L 343.777344 352.945312 L 343.894531 362.371094 L 344.136719 372.445312 L 344.351562 382.523438 L 344.496094 391.933594 L 344.535156 402.15625 L 344.636719 412.3125 L 344.804688 421.460938 L 344.84375 431.683594 L 345.160156 441.71875 L 345.160156 501.6875 L 344.671875 510.914062 L 343.539062 520.328125 L 342.367188 529.824219 L 339.855469 536.929688 L 334.632812 541.472656 L 327.347656 542.449219 L 320.375 540.09375 L 313.539062 535.382812 L 307.734375 529.882812 L 302.453125 524.78125 L 296.457031 519.457031 L 291.457031 513.398438 L 285.828125 508.335938 L 280.246094 502.976562 L 273.589844 498.296875 L 267.9375 493.828125 L 262.386719 488.632812 L 257.480469 482.503906 L 254.296875 475.410156 L 250.527344 467.796875 L 246.714844 460.761719 L 243.058594 454.300781 L 239.574219 446.742188 L 235.925781 439.507812 L 233.042969 432.566406 L 231.859375 423.167969 L 231.195312 413.488281 L 230.839844 404.320312 Z M 230.839844 33.550781 "/>
</g>
</svg>
