<?xml version="1.0" encoding="UTF-8"?>
<svg xmlns="http://www.w3.org/2000/svg" xmlns:xlink="http://www.w3.org/1999/xlink" width="576pt" height="576pt" viewBox="0 0 576 576" version="1.1">
<g id="surface15966">
<rect x="0" y="0" width="576" height="576" style="fill:rgb(100%,100%,100%);fill-opacity:1;stroke:none;"/>
<path style="fill-rule:nonzero;fill:rgb(90.196078%,62.352941%,0%);fill-opacity:1;stroke-width:0.75;stroke-linecap:round;stroke-linejoin:round;stroke:rgb(20%,20%,20%);stroke-opacity:1;stroke-miterlimit:10;" d="M 186.890625 34.125 L 197.988281 33.550781 L 208.820312 35.800781 L 215.691406 37.96875 L 225.53125 41.996094 L 234.800781 46.992188 L 243.851562 52.246094 L 249.871094 55.722656 L 258.8125 60.882812 L 267.464844 66.625 L 276.074219 72.625 L 281.734375 76.480469 L 290.136719 82.320312 L 298.175781 88.863281 L 306.3125 95.515625 L 311.464844 100.089844 L 318.605469 107.601562 L 325.628906 115.117188 L 332.625 122.773438 L 336.964844 128.113281 L 343.824219 135.765625 L 350.40625 143.867188 L 355.957031 152.625 L 359.398438 158.652344 L 364.601562 167.832031 L 368.804688 177.640625 L 372.867188 187.566406 L 375.40625 194.324219 L 378.863281 204.5625 L 381.382812 215.367188 L 383.050781 226.679688 L 384.515625 237.929688 L 385.578125 245.421875 L 387 256.699219 L 388.128906 268.195312 L 388.726562 280.011719 L 388.933594 287.992188 L 389.0625 299.992188 L 389.082031 312.085938 L 389.035156 324.164062 L 389.050781 332.308594 L 389.070312 344.472656 L 389.109375 356.5 L 389.03125 368.46875 L 388.945312 376.382812 L 388.289062 388.039062 L 386.886719 399.253906 L 384.765625 410.117188 L 383.324219 417.4375 L 381.058594 428.234375 L 377.925781 438.6875 L 374.210938 448.839844 L 371.34375 455.371094 L 366.113281 464.578125 L 360.335938 473.304688 L 354.554688 481.902344 L 350.5625 487.660156 L 343.671875 495.496094 L 336.113281 502.675781 L 328.570312 509.917969 L 323.363281 514.550781 L 314.859375 520.195312 L 305.929688 524.5 L 297.089844 528.785156 L 288.214844 532.460938 L 282.09375 534.804688 L 273.308594 537.875 L 264.738281 540.894531 L 256.046875 542.332031 L 250.148438 542.449219 L 241.832031 541.457031 L 233.957031 539.652344 L 226.523438 536.660156 L 222.152344 533.867188 L 216.34375 528.523438 L 211.328125 521.902344 L 207.082031 514.257812 L 204.609375 508.648438 L 201.839844 499.113281 L 199.5625 488.925781 L 197.570312 478.390625 L 196.3125 471.339844 L 194.636719 460.503906 L 193.292969 449.265625 L 192.144531 437.964844 L 191.472656 430.417969 L 190.363281 419.128906 L 189.378906 407.820312 L 188.445312 396.382812 L 188.019531 388.601562 L 187.640625 376.65625 L 187.363281 364.671875 L 187.121094 352.640625 L 186.980469 340.527344 L 186.890625 332.433594 Z M 186.890625 34.125 "/>
</g>
</svg>
