<?xml version="1.0" encoding="UTF-8"?>
<svg xmlns="http://www.w3.org/2000/svg" xmlns:xlink="http://www.w3.org/1999/xlink" width="576pt" height="576pt" viewBox="0 0 576 576" version="1.1">
<g id="surface31792">
<rect x="0" y="0" width="576" height="576" style="fill:rgb(100%,100%,100%);fill-opacity:1;stroke:none;"/>
<path style="fill-rule:nonzero;fill:rgb(83.529412%,36.862745%,0%);fill-opacity:1;stroke-width:0.75;stroke-linecap:round;stroke-linejoin:round;stroke:rgb(20%,20%,20%);stroke-opacity:1;stroke-miterlimit:10;" d="M 228.804688 33.550781 L 237.832031 33.867188 L 246.777344 36.6875 L 254.535156 39.773438 L 262.0625 43.140625 L 269.171875 47.195312 L 275.855469 53.007812 L 281.394531 59.007812 L 287.160156 64.734375 L 292.832031 71.75 L 297.660156 78.300781 L 302.464844 84.535156 L 307.578125 90.730469 L 311.625 99.058594 L 316.050781 106.078125 L 319.53125 113.421875 L 323.921875 121.429688 L 326.101562 129.910156 L 328.511719 138.125 L 331.566406 147.230469 L 332.859375 156.128906 L 333.875 165.28125 L 336.375 173.484375 L 338.191406 183.179688 L 339.898438 191.925781 L 341.023438 201.050781 L 341.425781 211.589844 L 342.214844 220.863281 L 342.824219 230.199219 L 343.515625 239.539062 L 344.226562 249.941406 L 344.558594 259.519531 L 344.496094 269.164062 L 344.996094 279.4375 L 345.867188 288.6875 L 346.191406 297.960938 L 346.308594 308.628906 L 346.570312 318.21875 L 346.734375 327.875 L 346.980469 337.269531 L 346.875 348.039062 L 346.992188 357.722656 L 347.089844 367.429688 L 347.191406 378.195312 L 347.195312 387.53125 L 347.113281 397.105469 L 346.945312 406.75 L 346.4375 417.164062 L 346.089844 426.714844 L 346.027344 436.394531 L 344.984375 446.609375 L 344.292969 455.898438 L 342.882812 464.851562 L 340.949219 473.375 L 337.738281 482.191406 L 334.148438 489.582031 L 330.53125 497.070312 L 325.292969 504.675781 L 319.855469 510.949219 L 314.304688 517.335938 L 308.527344 523.054688 L 300.910156 527.878906 L 293.644531 531.9375 L 286.5625 536.078125 L 278.617188 539.601562 L 271.09375 542.109375 L 262.855469 542.449219 L 254.429688 541.523438 L 247.28125 539.609375 L 241.917969 535.621094 L 237.839844 529.949219 L 234.363281 522.5 L 231.945312 515.109375 L 230.4375 506.84375 L 229.375 497.054688 L 228.890625 487.757812 L 228.804688 478.074219 Z M 228.804688 33.550781 "/>
</g>
</svg>
