<?xml version="1.0" encoding="UTF-8"?>
<svg xmlns="http://www.w3.org/2000/svg" xmlns:xlink="http://www.w3.org/1999/xlink" width="576pt" height="576pt" viewBox="0 0 576 576" version="1.1">
<g id="surface31810">
<rect x="0" y="0" width="576" height="576" style="fill:rgb(100%,100%,100%);fill-opacity:1;stroke:none;"/>
<path style="fill-rule:nonzero;fill:rgb(80%,67.45098%,57.647059%);fill-opacity:1;stroke-width:0.75;stroke-linecap:round;stroke-linejoin:round;stroke:rgb(20%,20%,20%);stroke-opacity:1;stroke-miterlimit:10;" d="M 231.578125 33.550781 L 241.035156 34.011719 L 248.386719 35.875 L 256.882812 39.1875 L 264.195312 43.777344 L 269.851562 48.496094 L 276.496094 54.035156 L 283.011719 60.207031 L 287.792969 65.726562 L 293.445312 72.449219 L 299.023438 79.21875 L 304.0625 86.5625 L 308.152344 92.621094 L 312.1875 100.636719 L 316.261719 108.777344 L 319.355469 115.605469 L 321.910156 124.5625 L 324.441406 133.566406 L 326.40625 141.050781 L 328.871094 149.9375 L 331.226562 159.035156 L 332.347656 167.042969 L 333.984375 176.390625 L 335.214844 186.148438 L 336.890625 193.855469 L 338.199219 203.59375 L 338.820312 213.652344 L 339.5625 221.925781 L 340.382812 231.914062 L 341.085938 241.972656 L 341.492188 252.253906 L 342.007812 260.664062 L 342.257812 271.027344 L 342.378906 281.402344 L 342.570312 290.035156 L 342.867188 300.339844 L 343.335938 310.492188 L 343.933594 318.894531 L 344.257812 329.167969 L 344.421875 339.550781 L 344.410156 348.269531 L 344.328125 358.558594 L 344.226562 368.957031 L 344.222656 377.632812 L 344.179688 387.820312 L 343.882812 398.019531 L 343.773438 406.695312 L 343.648438 417 L 343.242188 427.21875 L 342.882812 435.730469 L 341.863281 445.601562 L 340.480469 455.164062 L 338.636719 464.550781 L 336.558594 472.089844 L 333.5 480.722656 L 329.871094 489.019531 L 326.351562 495.816406 L 321.261719 503.019531 L 315.421875 509.726562 L 310.179688 515.074219 L 303.480469 520.996094 L 296.5 526.183594 L 290.640625 530.382812 L 283.453125 535.347656 L 275.203125 539.140625 L 268.023438 541.328125 L 258.839844 542.449219 L 250.414062 542.03125 L 244.183594 540.375 L 238.335938 535.929688 L 234.832031 528.832031 L 232.691406 520.367188 L 231.929688 512.332031 L 231.601562 502.175781 L 231.578125 491.699219 Z M 231.578125 33.550781 "/>
</g>
</svg>
