<?xml version="1.0" encoding="UTF-8"?>
<svg xmlns="http://www.w3.org/2000/svg" xmlns:xlink="http://www.w3.org/1999/xlink" width="576pt" height="576pt" viewBox="0 0 576 576" version="1.1">
<g id="surface15984">
<rect x="0" y="0" width="576" height="576" style="fill:rgb(100%,100%,100%);fill-opacity:1;stroke:none;"/>
<path style="fill-rule:nonzero;fill:rgb(100%,38.823529%,27.843137%);fill-opacity:1;stroke-width:0.75;stroke-linecap:round;stroke-linejoin:round;stroke:rgb(20%,20%,20%);stroke-opacity:1;stroke-miterlimit:10;" d="M 193.738281 33.550781 L 203.339844 35.300781 L 211.296875 40.324219 L 217.875 45.851562 L 225.117188 52.121094 L 231.589844 58.929688 L 237.800781 66 L 243.511719 72.445312 L 249.816406 79.660156 L 256.421875 86.628906 L 263.351562 93.160156 L 268.859375 99.6875 L 275.148438 106.804688 L 281.195312 113.78125 L 288.300781 120.3125 L 293.875 126.929688 L 299.96875 133.929688 L 305.621094 141.191406 L 312.070312 147.949219 L 318.027344 155.285156 L 322.882812 162.457031 L 328.730469 169.832031 L 334.238281 177.628906 L 339.648438 185.507812 L 344.488281 192.664062 L 349.109375 201.160156 L 353.835938 209.511719 L 357.378906 218.769531 L 360.730469 226.921875 L 363.820312 236.308594 L 366.125 246.175781 L 369.054688 255.667969 L 371.429688 265.503906 L 373.898438 274.242188 L 375.179688 284.5625 L 376.546875 294.945312 L 377.300781 305.703125 L 377.972656 315.503906 L 378.917969 326.179688 L 379.773438 336.867188 L 380.496094 347.675781 L 380.914062 357.625 L 381.210938 368.535156 L 381.53125 379.53125 L 381.757812 390.585938 L 382.011719 401.660156 L 381.988281 411.800781 L 382.199219 422.886719 L 382.261719 434.007812 L 382.25 445.246094 L 382.164062 455.410156 L 382.09375 466.59375 L 381.925781 477.742188 L 381.839844 488.917969 L 381.28125 498.730469 L 380.074219 508.507812 L 378.695312 517.40625 L 376.574219 525.746094 L 374.207031 532.6875 L 370.011719 538.972656 L 362.914062 542.355469 L 354.625 542.449219 L 346.042969 540.019531 L 339.050781 535.191406 L 332.289062 528.707031 L 326.914062 521.003906 L 321.515625 513.519531 L 316.304688 506.769531 L 311.707031 498.597656 L 307.28125 490.386719 L 302 482.730469 L 297.285156 475.703125 L 292.355469 467.882812 L 287.636719 460.023438 L 282.183594 452.824219 L 276.796875 445.59375 L 271.480469 439.878906 L 264.636719 434.269531 L 258.394531 428.242188 L 252.167969 421.941406 L 246.933594 415.914062 L 240.480469 410.148438 L 234.148438 405.257812 L 228.15625 400.140625 L 222.839844 395.472656 L 216.90625 390.796875 L 211.617188 385.878906 L 206.480469 381.1875 L 202.59375 376.277344 L 198.96875 369.640625 L 196.605469 361.507812 L 195.152344 352.140625 L 194.324219 341.632812 L 193.976562 331.753906 L 193.738281 320.738281 Z M 193.738281 33.550781 "/>
</g>
</svg>
