<?xml version="1.0" encoding="UTF-8"?>
<svg xmlns="http://www.w3.org/2000/svg" xmlns:xlink="http://www.w3.org/1999/xlink" width="576pt" height="576pt" viewBox="0 0 576 576" version="1.1">
<g id="surface16020">
<rect x="0" y="0" width="576" height="576" style="fill:rgb(100%,100%,100%);fill-opacity:1;stroke:none;"/>
<path style="fill-rule:nonzero;fill:rgb(100%,38.823529%,27.843137%);fill-opacity:1;stroke-width:0.75;stroke-linecap:round;stroke-linejoin:round;stroke:rgb(20%,20%,20%);stroke-opacity:1;stroke-miterlimit:10;" d="M 44.746094 22.390625 L 45.738281 23.113281 L 46.636719 24.015625 L 47.71875 25.007812 L 48.710938 25.90625 L 48.710938 26.988281 L 49.613281 27.890625 L 50.515625 28.703125 L 51.414062 29.601562 L 52.316406 30.59375 L 53.128906 31.496094 L 53.847656 32.488281 L 54.117188 33.570312 L 55.109375 34.558594 L 57.003906 36.453125 L 58.085938 37.445312 L 58.988281 38.34375 L 58.988281 39.425781 L 59.976562 40.328125 L 61.058594 41.320312 L 61.871094 42.132812 L 62.140625 43.304688 L 62.863281 44.113281 L 63.761719 45.105469 L 64.664062 46.097656 L 65.207031 47 L 65.566406 48.082031 L 66.46875 48.980469 L 67.457031 49.972656 L 68.359375 50.964844 L 68.449219 52.046875 L 69.441406 52.949219 L 70.34375 53.847656 L 71.335938 54.660156 L 71.425781 55.832031 L 73.226562 57.632812 L 73.496094 58.804688 L 74.21875 59.617188 L 76.023438 61.601562 L 76.832031 62.5 L 77.734375 63.402344 L 78.636719 64.214844 L 78.726562 65.386719 L 79.71875 66.289062 L 80.707031 67.1875 L 81.699219 68.179688 L 81.789062 69.351562 L 82.691406 70.164062 L 82.78125 71.335938 L 82.78125 73.589844 L 83.773438 74.398438 L 83.863281 75.480469 L 83.863281 78.90625 L 84.042969 80.078125 L 84.855469 80.890625 L 84.855469 101.4375 L 83.953125 102.25 L 83.863281 103.421875 L 83.863281 104.59375 L 82.871094 105.40625 L 82.78125 106.578125 L 81.878906 107.207031 L 78.546875 107.207031 L 77.554688 106.578125 L 76.5625 105.675781 L 75.660156 104.863281 L 74.761719 104.054688 L 73.679688 103.964844 L 71.875 101.980469 L 70.792969 101.980469 L 69.890625 100.988281 L 68.992188 99.996094 L 68.179688 99.1875 L 67.007812 98.914062 L 55.742188 98.914062 L 54.839844 99.546875 L 53.757812 99.90625 L 52.765625 100.539062 L 51.777344 101.53125 L 50.785156 102.429688 L 49.792969 103.0625 L 48.710938 103.421875 L 47.808594 104.144531 L 46.636719 104.414062 L 45.828125 105.226562 Z M 44.746094 22.390625 "/>
<path style="fill-rule:nonzero;fill:rgb(100%,38.823529%,27.843137%);fill-opacity:1;stroke-width:0.75;stroke-linecap:round;stroke-linejoin:round;stroke:rgb(20%,20%,20%);stroke-opacity:1;stroke-miterlimit:10;" d="M 144.5625 22.457031 L 145.59375 22.390625 L 146.234375 23.226562 L 146.941406 24.0625 L 147.390625 24.964844 L 148.164062 25.734375 L 149.0625 26.570312 L 149.835938 27.34375 L 150.609375 28.113281 L 151.121094 29.015625 L 151.894531 29.980469 L 152.601562 30.878906 L 152.988281 31.84375 L 153.371094 32.808594 L 154.273438 33.386719 L 154.914062 34.351562 L 155.300781 35.253906 L 155.6875 36.152344 L 156.394531 36.925781 L 156.523438 37.890625 L 157.167969 38.789062 L 157.617188 39.753906 L 157.9375 40.78125 L 158.324219 41.683594 L 158.644531 42.582031 L 158.839844 43.613281 L 159.417969 44.511719 L 160.574219 46.441406 L 160.574219 47.46875 L 160.960938 48.371094 L 161.347656 49.335938 L 161.410156 50.363281 L 161.730469 51.328125 L 162.117188 52.292969 L 162.4375 53.191406 L 162.503906 54.222656 L 162.824219 55.1875 L 162.824219 57.308594 L 163.210938 58.273438 L 163.210938 62.386719 L 163.46875 63.289062 L 163.597656 64.382812 L 163.597656 79.945312 L 163.210938 80.84375 L 163.210938 105.792969 L 162.632812 106.4375 L 161.667969 106.820312 L 160.703125 107.207031 L 159.675781 107.207031 L 158.773438 106.820312 L 158.003906 106.050781 L 157.167969 105.535156 L 156.332031 104.699219 L 155.878906 103.863281 L 155.238281 103.027344 L 154.851562 102.0625 L 154.273438 101.164062 L 153.695312 100.132812 L 153.308594 99.171875 L 152.921875 98.269531 L 152.472656 97.433594 L 152.214844 96.46875 L 152.023438 95.503906 L 151.445312 94.476562 L 151.25 93.574219 L 150.863281 92.804688 L 150.671875 91.839844 L 150.15625 90.9375 L 149.898438 89.976562 L 149.320312 89.011719 L 148.808594 88.109375 L 148.421875 87.210938 L 148.101562 86.308594 L 147.648438 85.34375 L 147.265625 84.378906 L 146.75 83.414062 L 146.171875 82.453125 L 145.59375 81.871094 Z M 144.5625 22.457031 "/>
<path style="fill-rule:nonzero;fill:rgb(100%,38.823529%,27.843137%);fill-opacity:1;stroke-width:0.75;stroke-linecap:round;stroke-linejoin:round;stroke:rgb(20%,20%,20%);stroke-opacity:1;stroke-miterlimit:10;" d="M 228.796875 22.488281 L 230.03125 22.390625 L 238.410156 22.390625 L 239.363281 23.34375 L 240.3125 24.296875 L 241.457031 24.867188 L 242.40625 25.820312 L 242.980469 26.960938 L 244.121094 27.53125 L 244.597656 28.578125 L 245.644531 29.625 L 246.5 30.578125 L 247.359375 31.246094 L 249.355469 33.242188 L 250.023438 34.386719 L 250.59375 35.433594 L 251.164062 36.386719 L 251.546875 37.335938 L 252.210938 38.097656 L 252.6875 39.144531 L 253.261719 40.289062 L 253.734375 41.238281 L 254.78125 42.289062 L 255.355469 43.429688 L 256.402344 45.523438 L 256.496094 46.664062 L 256.878906 47.808594 L 257.351562 48.949219 L 257.351562 50.09375 L 257.925781 51.140625 L 257.925781 58.375 L 257.351562 59.421875 L 257.351562 65.417969 L 257.925781 66.5625 L 257.925781 96.546875 L 257.351562 97.6875 L 257.351562 101.304688 L 257.257812 102.449219 L 256.878906 103.496094 L 256.304688 104.542969 L 255.832031 105.589844 L 254.972656 106.730469 L 254.023438 107.207031 L 251.546875 107.207031 L 250.59375 106.351562 L 249.929688 105.207031 L 249.453125 104.160156 L 248.5 103.113281 L 248.023438 101.972656 L 247.359375 101.019531 L 246.785156 99.972656 L 246.214844 98.925781 L 245.738281 97.878906 L 245.074219 96.832031 L 244.121094 95.785156 L 243.359375 94.738281 L 242.789062 93.976562 L 242.3125 92.929688 L 241.835938 91.785156 L 241.074219 90.644531 L 240.597656 89.691406 L 240.21875 88.550781 L 239.933594 87.503906 L 239.363281 86.457031 L 238.695312 85.3125 L 237.933594 84.457031 L 237.363281 83.410156 L 236.886719 82.363281 L 236.601562 81.21875 L 235.648438 79.125 L 234.601562 78.554688 L 233.554688 77.699219 L 232.414062 77.792969 L 230.03125 77.792969 Z M 228.796875 22.488281 "/>
<path style="fill-rule:nonzero;fill:rgb(100%,38.823529%,27.843137%);fill-opacity:1;stroke-width:0.75;stroke-linecap:round;stroke-linejoin:round;stroke:rgb(20%,20%,20%);stroke-opacity:1;stroke-miterlimit:10;" d="M 320.714844 22.46875 L 321.789062 22.390625 L 322.9375 22.390625 L 323.859375 22.929688 L 326.007812 22.929688 L 327.082031 23.542969 L 328.152344 23.773438 L 329.074219 24.078125 L 329.917969 25.074219 L 330.992188 25.765625 L 331.910156 26.378906 L 332.679688 27.300781 L 333.597656 28.066406 L 334.441406 29.0625 L 334.902344 29.984375 L 335.824219 30.902344 L 336.207031 31.902344 L 337.125 32.746094 L 337.894531 33.589844 L 338.351562 34.585938 L 339.273438 35.429688 L 339.582031 36.425781 L 340.039062 37.421875 L 340.5 38.34375 L 340.882812 39.339844 L 341.265625 40.414062 L 341.726562 41.332031 L 342.109375 42.253906 L 342.265625 43.402344 L 342.878906 44.324219 L 343.414062 45.246094 L 343.414062 46.394531 L 343.953125 47.390625 L 343.953125 48.464844 L 344.566406 49.386719 L 344.566406 98.617188 L 344.335938 99.769531 L 343.953125 100.765625 L 343.03125 101.609375 L 342.648438 102.605469 L 341.726562 103.449219 L 341.34375 104.371094 L 340.578125 105.367188 L 340.039062 106.289062 L 339.121094 107.207031 L 338.046875 107.207031 L 337.125 106.671875 L 336.128906 105.980469 L 335.363281 105.0625 L 334.824219 104.140625 L 334.289062 103.21875 L 333.597656 102.222656 L 333.136719 101.226562 L 332.601562 100.304688 L 331.988281 99.386719 L 331.910156 98.234375 L 331.453125 97.316406 L 330.609375 96.472656 L 330.300781 95.703125 L 329.765625 94.707031 L 329.152344 93.789062 L 329.226562 92.714844 L 329.226562 91.5625 L 328.691406 90.644531 L 328.308594 89.648438 L 327.921875 88.574219 L 327.539062 87.574219 L 327.003906 86.65625 L 326.621094 85.734375 L 325.777344 84.816406 L 325.238281 83.742188 L 324.320312 82.898438 L 323.550781 82.363281 L 322.9375 81.746094 L 321.789062 81.746094 Z M 320.714844 22.46875 "/>
<path style="fill-rule:nonzero;fill:rgb(100%,38.823529%,27.843137%);fill-opacity:1;stroke-width:0.75;stroke-linecap:round;stroke-linejoin:round;stroke:rgb(20%,20%,20%);stroke-opacity:1;stroke-miterlimit:10;" d="M 410.832031 22.488281 L 411.878906 22.390625 L 413.019531 22.390625 L 413.496094 23.152344 L 414.449219 23.628906 L 415.496094 24.675781 L 415.96875 25.722656 L 416.828125 26.582031 L 417.019531 27.628906 L 417.398438 28.578125 L 417.875 29.53125 L 418.253906 30.386719 L 418.730469 31.246094 L 419.207031 32.195312 L 419.683594 33.054688 L 420.160156 34.003906 L 420.539062 34.863281 L 421.015625 35.8125 L 421.394531 36.765625 L 422.539062 37.8125 L 422.917969 38.667969 L 423.394531 39.621094 L 423.777344 40.476562 L 424.253906 41.429688 L 424.632812 42.382812 L 425.015625 43.335938 L 425.488281 44.285156 L 426.347656 45.144531 L 426.535156 46.191406 L 426.917969 47.140625 L 427.394531 48.09375 L 428.25 48.949219 L 428.917969 49.996094 L 429.964844 51.042969 L 430.441406 51.996094 L 431.488281 52.949219 L 431.960938 53.902344 L 432.34375 54.757812 L 432.535156 55.804688 L 433.011719 56.757812 L 433.011719 82.933594 L 432.722656 83.886719 L 432.535156 84.933594 L 432.535156 85.980469 L 432.058594 86.933594 L 432.058594 89.121094 L 431.582031 89.976562 L 431.582031 91.121094 L 431.105469 91.976562 L 431.105469 93.023438 L 430.628906 93.976562 L 430.628906 95.023438 L 430.152344 95.976562 L 429.679688 96.832031 L 429.679688 97.972656 L 429.203125 98.832031 L 429.105469 99.972656 L 428.726562 100.832031 L 428.25 101.78125 L 427.773438 102.640625 L 427.296875 103.589844 L 426.824219 104.449219 L 426.441406 105.398438 L 425.871094 106.445312 L 424.917969 106.828125 L 423.964844 107.207031 L 422.917969 107.207031 L 421.871094 106.351562 L 421.492188 105.398438 L 421.300781 104.351562 L 420.921875 103.398438 L 420.0625 102.449219 L 419.875 101.496094 L 419.585938 100.542969 L 419.300781 99.59375 L 419.113281 98.546875 L 419.113281 97.402344 L 418.160156 96.546875 L 418.160156 95.402344 L 418.066406 94.355469 L 417.683594 93.40625 L 417.207031 92.738281 L 417.207031 91.597656 L 417.113281 90.550781 L 416.730469 89.691406 L 416.257812 88.742188 L 416.160156 87.695312 L 415.78125 86.742188 L 415.304688 85.886719 L 415.113281 84.839844 L 414.828125 83.886719 L 414.351562 82.933594 L 414.351562 81.886719 L 413.972656 80.839844 L 413.019531 80.554688 L 411.878906 80.554688 Z M 410.832031 22.488281 "/>
<path style="fill-rule:nonzero;fill:rgb(100%,38.823529%,27.843137%);fill-opacity:1;stroke-width:0.75;stroke-linecap:round;stroke-linejoin:round;stroke:rgb(20%,20%,20%);stroke-opacity:1;stroke-miterlimit:10;" d="M 502.753906 22.390625 L 503.589844 22.835938 L 504.179688 23.769531 L 504.820312 24.65625 L 505.363281 25.644531 L 505.90625 26.578125 L 506.59375 27.613281 L 507.332031 28.546875 L 507.824219 29.484375 L 508.417969 30.421875 L 508.8125 31.40625 L 509.253906 32.195312 L 509.796875 33.179688 L 510.238281 34.164062 L 510.484375 35.101562 L 510.929688 35.984375 L 511.324219 36.972656 L 511.914062 38.003906 L 512.257812 38.992188 L 512.851562 39.925781 L 513.292969 40.910156 L 513.835938 41.898438 L 514.03125 42.929688 L 514.574219 43.867188 L 514.820312 44.902344 L 515.363281 45.886719 L 515.757812 46.871094 L 516.148438 47.855469 L 516.347656 48.890625 L 516.542969 49.925781 L 517.332031 51.894531 L 517.675781 52.734375 L 517.921875 53.816406 L 518.269531 54.652344 L 518.464844 55.6875 L 518.464844 74.109375 L 518.660156 75.144531 L 518.660156 76.226562 L 518.957031 77.210938 L 519.054688 78.296875 L 519.253906 79.328125 L 519.253906 81.496094 L 519.449219 82.480469 L 519.449219 95.484375 L 519.5 96.519531 L 519.648438 97.601562 L 519.648438 106.273438 L 519.402344 107.207031 L 518.464844 106.566406 L 518.023438 105.582031 L 517.527344 104.648438 L 517.085938 103.660156 L 516.691406 102.675781 L 516.496094 101.640625 L 515.902344 100.707031 L 515.507812 99.722656 L 515.117188 98.734375 L 514.722656 97.75 L 514.179688 96.816406 L 513.589844 95.832031 L 513.292969 94.84375 L 512.605469 93.910156 L 512.257812 92.925781 L 511.863281 91.9375 L 511.472656 91.101562 L 510.289062 88.148438 L 509.746094 87.210938 L 509.5 86.175781 L 508.957031 85.242188 L 508.761719 84.253906 L 508.171875 83.515625 L 507.777344 82.53125 L 507.433594 81.546875 L 507.136719 80.5625 L 506.644531 79.722656 L 505.066406 75.785156 L 504.527344 74.847656 L 503.933594 73.910156 L 503.34375 72.925781 Z M 502.753906 22.390625 "/>
<path style="fill-rule:nonzero;fill:rgb(100%,38.823529%,27.843137%);fill-opacity:1;stroke-width:0.75;stroke-linecap:round;stroke-linejoin:round;stroke:rgb(20%,20%,20%);stroke-opacity:1;stroke-miterlimit:10;" d="M 47.121094 111.746094 L 48.328125 111.671875 L 51.792969 111.671875 L 52.925781 112.050781 L 54.054688 112.425781 L 55.113281 112.804688 L 56.167969 113.480469 L 57.222656 113.707031 L 58.203125 114.3125 L 59.183594 114.914062 L 59.863281 115.441406 L 60.539062 116.269531 L 61.671875 116.648438 L 62.652344 117.25 L 63.40625 117.929688 L 64.386719 118.53125 L 65.367188 119.589844 L 66.421875 120.265625 L 67.476562 120.871094 L 68.457031 121.925781 L 69.511719 122.378906 L 70.265625 123.28125 L 71.320312 123.960938 L 72.300781 124.640625 L 73.355469 125.621094 L 73.960938 126.601562 L 74.941406 127.65625 L 75.617188 128.710938 L 76.296875 129.691406 L 76.976562 130.746094 L 77.578125 131.800781 L 77.878906 132.855469 L 78.257812 133.914062 L 78.710938 134.894531 L 79.085938 135.949219 L 79.464844 137.078125 L 79.464844 138.210938 L 79.839844 139.339844 L 79.839844 140.472656 L 80.21875 141.527344 L 80.59375 142.582031 L 80.59375 143.714844 L 80.972656 144.84375 L 80.972656 145.976562 L 81.121094 147.179688 L 81.800781 148.238281 L 82.101562 149.292969 L 82.480469 150.347656 L 82.480469 196.261719 L 81.425781 196.488281 L 80.445312 195.734375 L 79.464844 195.28125 L 78.410156 194.980469 L 77.277344 194.601562 L 76.222656 194.226562 L 75.089844 193.847656 L 64.535156 193.847656 L 63.40625 193.398438 L 62.5 193.09375 L 61.292969 193.019531 L 60.238281 192.265625 L 59.257812 191.4375 L 58.277344 190.382812 L 57.222656 189.703125 L 56.242188 188.796875 L 55.1875 188.121094 L 54.207031 187.667969 L 48.328125 187.667969 Z M 47.121094 111.746094 "/>
<path style="fill-rule:nonzero;fill:rgb(100%,38.823529%,27.843137%);fill-opacity:1;stroke-width:0.75;stroke-linecap:round;stroke-linejoin:round;stroke:rgb(20%,20%,20%);stroke-opacity:1;stroke-miterlimit:10;" d="M 134.328125 111.734375 L 135.628906 111.671875 L 152.503906 111.671875 L 153.738281 111.980469 L 154.789062 112.847656 L 155.78125 113.402344 L 156.707031 114.019531 L 157.757812 115.070312 L 158.871094 116.121094 L 159.859375 117.234375 L 160.476562 118.410156 L 161.28125 119.460938 L 162.148438 120.574219 L 162.703125 121.75 L 163.570312 122.859375 L 164.125 124.035156 L 164.683594 125.148438 L 165.113281 126.386719 L 165.792969 127.496094 L 166.597656 128.609375 L 167.214844 129.785156 L 167.710938 130.960938 L 168.328125 132.074219 L 168.699219 133.308594 L 169.257812 134.484375 L 169.441406 135.71875 L 169.75 136.894531 L 170.058594 138.128906 L 170.058594 139.429688 L 170.246094 140.664062 L 170.371094 141.964844 L 170.679688 143.199219 L 170.617188 144.496094 L 171.234375 146.972656 L 171.234375 148.269531 L 171.542969 149.445312 L 171.792969 150.679688 L 171.851562 151.976562 L 172.101562 153.214844 L 172.101562 154.511719 L 172.410156 155.75 L 172.71875 156.984375 L 172.964844 158.160156 L 173.214844 159.394531 L 173.273438 160.695312 L 173.273438 161.992188 L 173.582031 163.167969 L 173.832031 164.402344 L 173.832031 191.667969 L 172.964844 192.777344 L 171.914062 193.828125 L 170.800781 194.695312 L 169.628906 195.5625 L 168.515625 196.179688 L 167.277344 196.488281 L 164.683594 196.488281 L 163.445312 196.179688 L 162.332031 195.621094 L 161.21875 194.820312 L 160.046875 193.953125 L 158.933594 193.148438 L 157.820312 192.347656 L 156.832031 191.480469 L 155.964844 190.613281 L 155.222656 189.75 L 154.667969 188.882812 L 153.617188 188.265625 L 152.6875 187.152344 L 151.824219 186.289062 L 150.710938 185.238281 L 149.90625 184.125 L 149.042969 183.257812 L 148.175781 182.394531 L 147.3125 181.589844 L 146.691406 180.601562 L 145.578125 179.796875 L 144.527344 178.683594 L 143.664062 177.820312 L 142.550781 177.261719 L 141.871094 176.335938 L 141.003906 175.46875 L 140.386719 174.542969 L 139.152344 174.234375 L 138.222656 173.675781 L 135.628906 173.675781 Z M 134.328125 111.734375 "/>
<path style="fill-rule:nonzero;fill:rgb(100%,38.823529%,27.843137%);fill-opacity:1;stroke-width:0.75;stroke-linecap:round;stroke-linejoin:round;stroke:rgb(20%,20%,20%);stroke-opacity:1;stroke-miterlimit:10;" d="M 224.589844 111.789062 L 225.863281 111.671875 L 237.335938 111.671875 L 238.609375 111.902344 L 239.421875 113.179688 L 240.695312 113.988281 L 241.507812 115.148438 L 242.550781 116.074219 L 243.589844 117.003906 L 244.402344 118.160156 L 244.402344 119.433594 L 245.214844 120.476562 L 246.140625 121.519531 L 247.300781 122.449219 L 247.996094 123.605469 L 247.878906 124.882812 L 248.921875 125.925781 L 249.847656 127.082031 L 251.125 128.007812 L 252.050781 129.167969 L 253.207031 130.09375 L 253.207031 131.371094 L 253.554688 132.644531 L 254.832031 133.457031 L 255.757812 134.613281 L 256.800781 135.65625 L 256.683594 136.929688 L 257.378906 138.089844 L 258.539062 139.015625 L 258.421875 140.292969 L 259.003906 141.566406 L 260.160156 142.378906 L 260.277344 143.652344 L 260.625 144.925781 L 261.898438 145.738281 L 262.128906 147.011719 L 262.015625 148.285156 L 262.015625 190.230469 L 262.128906 191.503906 L 261.433594 192.78125 L 260.277344 193.707031 L 259.234375 194.75 L 258.308594 195.910156 L 257.03125 196.488281 L 254.484375 196.488281 L 253.207031 195.792969 L 252.28125 194.632812 L 251.238281 193.589844 L 250.082031 192.664062 L 249.5 191.390625 L 249.617188 190.113281 L 249.617188 187.566406 L 249.386719 186.292969 L 248.109375 185.480469 L 247.761719 184.207031 L 247.761719 182.929688 L 246.605469 182.121094 L 246.023438 180.960938 L 246.023438 179.804688 L 245.214844 178.761719 L 243.589844 177.136719 L 242.550781 176.09375 L 242.550781 174.820312 L 241.96875 173.660156 L 240.8125 172.734375 L 239.882812 171.691406 L 238.609375 171.691406 L 237.335938 171.808594 L 225.863281 171.808594 Z M 224.589844 111.789062 "/>
<path style="fill-rule:nonzero;fill:rgb(100%,38.823529%,27.843137%);fill-opacity:1;stroke-width:0.75;stroke-linecap:round;stroke-linejoin:round;stroke:rgb(20%,20%,20%);stroke-opacity:1;stroke-miterlimit:10;" d="M 315.652344 111.671875 L 316.902344 111.753906 L 317.820312 112.925781 L 318.90625 113.84375 L 319.992188 114.84375 L 320.996094 116.011719 L 321.996094 117.097656 L 323.164062 118.015625 L 324.167969 119.019531 L 325.167969 120.269531 L 326.253906 121.273438 L 327.339844 122.191406 L 328.339844 123.359375 L 329.34375 124.445312 L 330.511719 124.777344 L 331.679688 125.027344 L 332.597656 126.199219 L 333.601562 127.199219 L 334.769531 128.117188 L 335.6875 129.203125 L 336.4375 130.203125 L 336.4375 131.457031 L 337.523438 132.292969 L 337.941406 133.542969 L 338.023438 134.710938 L 339.277344 135.046875 L 340.527344 135.296875 L 341.445312 136.464844 L 342.367188 137.46875 L 343.617188 138.386719 L 343.699219 139.636719 L 344.285156 140.804688 L 345.203125 141.808594 L 345.203125 142.976562 L 346.121094 143.894531 L 346.707031 145.0625 L 346.789062 146.316406 L 347.957031 147.152344 L 348.125 148.402344 L 348.042969 149.65625 L 348.460938 150.90625 L 349.542969 151.742188 L 349.628906 152.996094 L 349.542969 154.246094 L 349.542969 193.648438 L 349.628906 194.902344 L 349.378906 196.152344 L 348.125 196.488281 L 346.875 196.488281 L 345.703125 196.40625 L 344.785156 195.234375 L 343.617188 194.234375 L 342.53125 193.316406 L 341.699219 192.148438 L 340.695312 191.230469 L 340.78125 189.976562 L 340.78125 187.554688 L 340.277344 186.386719 L 339.277344 185.386719 L 339.277344 184.132812 L 339.359375 182.878906 L 338.609375 181.878906 L 337.773438 180.792969 L 337.859375 179.542969 L 337.859375 178.289062 L 336.9375 177.371094 L 336.355469 176.203125 L 336.355469 173.699219 L 335.269531 172.863281 L 334.851562 171.609375 L 334.601562 170.359375 L 333.347656 170.191406 L 332.097656 169.773438 L 332.015625 168.605469 L 331.597656 167.351562 L 330.34375 167.1875 L 329.09375 167.269531 L 316.902344 167.269531 Z M 315.652344 111.671875 "/>
<path style="fill-rule:nonzero;fill:rgb(100%,38.823529%,27.843137%);fill-opacity:1;stroke-width:0.75;stroke-linecap:round;stroke-linejoin:round;stroke:rgb(20%,20%,20%);stroke-opacity:1;stroke-miterlimit:10;" d="M 406.664062 111.757812 L 407.886719 111.671875 L 409.019531 111.671875 L 410.238281 111.757812 L 411.109375 112.890625 L 412.15625 113.765625 L 412.15625 114.898438 L 412.941406 115.855469 L 413.8125 116.988281 L 414.945312 117.773438 L 414.945312 118.996094 L 415.644531 120.039062 L 416.601562 121.085938 L 417.648438 121.871094 L 418.519531 122.828125 L 419.390625 123.964844 L 420.4375 124.746094 L 421.398438 125.617188 L 422.617188 125.53125 L 423.488281 126.664062 L 424.535156 127.449219 L 425.492188 128.320312 L 426.714844 128.320312 L 427.585938 129.28125 L 428.632812 130.152344 L 429.589844 131.109375 L 430.289062 132.242188 L 430.289062 133.378906 L 431.421875 134.25 L 431.597656 135.46875 L 432.03125 136.515625 L 432.992188 137.472656 L 432.992188 141.046875 L 433.511719 142.179688 L 434.386719 143.054688 L 434.386719 146.628906 L 434.910156 147.671875 L 435.78125 148.542969 L 435.78125 154.558594 L 435.953125 155.78125 L 437.085938 156.5625 L 437.175781 157.785156 L 437.175781 194.832031 L 437 196.050781 L 435.78125 196.488281 L 434.648438 196.140625 L 433.6875 195.007812 L 432.730469 193.960938 L 431.597656 193 L 431.597656 191.867188 L 430.898438 190.820312 L 429.941406 189.777344 L 428.804688 188.816406 L 428.71875 187.683594 L 428.804688 186.464844 L 428.285156 185.332031 L 427.324219 184.457031 L 426.191406 183.585938 L 425.929688 182.367188 L 426.015625 181.144531 L 425.753906 180.011719 L 424.621094 179.054688 L 423.578125 178.09375 L 422.703125 177.050781 L 421.832031 176.089844 L 421.832031 174.871094 L 420.785156 174 L 420.4375 172.863281 L 420.175781 171.992188 L 419.390625 171.207031 L 418.609375 170.164062 L 417.648438 169.203125 L 417.648438 167.984375 L 416.691406 167.113281 L 415.90625 165.980469 L 414.859375 165.105469 L 413.8125 164.410156 L 412.679688 164.496094 L 407.886719 164.496094 Z M 406.664062 111.757812 "/>
<path style="fill-rule:nonzero;fill:rgb(100%,38.823529%,27.843137%);fill-opacity:1;stroke-width:0.75;stroke-linecap:round;stroke-linejoin:round;stroke:rgb(20%,20%,20%);stroke-opacity:1;stroke-miterlimit:10;" d="M 496.097656 111.671875 L 497.167969 111.671875 L 498.332031 111.941406 L 499.132812 112.746094 L 500.027344 113.636719 L 500.832031 114.53125 L 501.726562 115.515625 L 502.53125 116.320312 L 503.425781 117.300781 L 504.316406 118.105469 L 505.210938 119 L 507 120.609375 L 508.699219 122.308594 L 509.589844 123.289062 L 510.394531 124.183594 L 511.289062 125.078125 L 512.09375 125.972656 L 513.253906 126.0625 L 514.058594 126.953125 L 515.042969 127.9375 L 516.117188 128.027344 L 517.097656 128.921875 L 517.992188 129.90625 L 518.886719 130.796875 L 519.871094 131.78125 L 520.585938 132.675781 L 520.496094 133.835938 L 521.03125 134.730469 L 521.566406 135.804688 L 521.476562 136.875 L 522.191406 137.769531 L 522.460938 138.839844 L 522.460938 140.003906 L 523.355469 140.808594 L 523.445312 141.96875 L 523.445312 143.042969 L 524.425781 143.847656 L 524.425781 146.082031 L 524.695312 147.152344 L 525.410156 148.046875 L 525.410156 150.28125 L 525.320312 151.445312 L 526.125 152.246094 L 526.304688 153.410156 L 526.304688 191.214844 L 525.320312 192.109375 L 525.320312 193.179688 L 524.339844 194.164062 L 523.355469 195.058594 L 522.371094 195.503906 L 521.210938 195.414062 L 520.40625 196.21875 L 519.242188 196.398438 L 517.007812 196.398438 L 515.9375 196.488281 L 514.773438 196.128906 L 514.6875 195.058594 L 513.792969 194.164062 L 513.792969 193.089844 L 512.898438 192.289062 L 512.808594 191.125 L 511.914062 190.320312 L 511.824219 189.160156 L 511.824219 188.085938 L 511.648438 186.925781 L 510.84375 186.121094 L 510.664062 185.046875 L 509.859375 184.15625 L 509.589844 182.992188 L 508.699219 182.097656 L 507.804688 181.203125 L 506.820312 180.222656 L 505.925781 179.328125 L 504.945312 178.34375 L 504.050781 177.453125 L 502.171875 175.574219 L 501.191406 174.589844 L 500.296875 174.234375 L 499.132812 174.324219 L 498.242188 173.609375 L 497.167969 173.339844 Z M 496.097656 111.671875 "/>
<path style="fill-rule:nonzero;fill:rgb(100%,38.823529%,27.843137%);fill-opacity:1;stroke-width:0.75;stroke-linecap:round;stroke-linejoin:round;stroke:rgb(20%,20%,20%);stroke-opacity:1;stroke-miterlimit:10;" d="M 48.539062 201.019531 L 49.753906 200.953125 L 52.25 200.953125 L 53.328125 201.425781 L 54.542969 201.695312 L 55.554688 202.167969 L 56.027344 203.179688 L 57.109375 203.71875 L 57.78125 204.730469 L 58.523438 205.808594 L 59.535156 206.890625 L 60.617188 207.835938 L 61.628906 208.980469 L 62.707031 209.992188 L 63.789062 211.003906 L 64.800781 212.152344 L 65.878906 213.097656 L 66.824219 214.175781 L 67.902344 215.1875 L 69.050781 215.527344 L 69.386719 216.671875 L 70.535156 217.011719 L 71.613281 217.414062 L 72.695312 218.429688 L 73.640625 219.507812 L 74.3125 220.519531 L 75.054688 221.597656 L 75.394531 222.679688 L 75.796875 223.824219 L 76.539062 224.90625 L 77.214844 225.917969 L 77.28125 227.132812 L 78.023438 228.210938 L 78.023438 229.425781 L 78.09375 230.707031 L 78.835938 231.71875 L 78.835938 232.933594 L 79.578125 234.015625 L 79.578125 235.230469 L 79.507812 236.445312 L 80.320312 237.523438 L 80.320312 238.738281 L 80.589844 239.886719 L 81.0625 241.03125 L 81.0625 252.164062 L 80.320312 253.175781 L 80.320312 280.4375 L 80.25 281.71875 L 79.578125 282.730469 L 78.835938 283.742188 L 78.429688 284.957031 L 77.417969 285.769531 L 76.203125 285.699219 L 75.125 284.757812 L 74.246094 283.742188 L 73.839844 282.664062 L 72.761719 281.585938 L 72.761719 280.371094 L 72.019531 279.289062 L 72.019531 278.074219 L 71.210938 277.0625 L 71.277344 275.78125 L 70.46875 274.769531 L 70.0625 273.691406 L 69.726562 272.476562 L 68.984375 271.464844 L 68.984375 270.25 L 68.511719 269.167969 L 68.242188 267.953125 L 67.769531 266.941406 L 67.429688 265.660156 L 66.417969 264.714844 L 66.015625 263.570312 L 65.203125 262.554688 L 64.664062 261.679688 L 63.71875 260.601562 L 63.382812 259.453125 L 62.304688 258.507812 L 62.035156 257.292969 L 60.953125 256.347656 L 59.941406 255.269531 L 58.863281 254.191406 L 57.851562 253.449219 L 56.839844 252.839844 L 55.554688 252.503906 L 54.542969 251.964844 L 53.464844 251.222656 L 49.753906 251.222656 Z M 48.539062 201.019531 "/>
<path style="fill-rule:nonzero;fill:rgb(100%,38.823529%,27.843137%);fill-opacity:1;stroke-width:0.75;stroke-linecap:round;stroke-linejoin:round;stroke:rgb(20%,20%,20%);stroke-opacity:1;stroke-miterlimit:10;" d="M 140.828125 201.011719 L 141.820312 200.953125 L 142.695312 201.769531 L 143.574219 202.585938 L 144.449219 203.460938 L 145.324219 204.394531 L 146.140625 205.273438 L 146.898438 206.089844 L 147.191406 207.023438 L 147.601562 207.898438 L 148.183594 208.65625 L 148.359375 209.707031 L 149.117188 210.46875 L 149.234375 211.460938 L 150.109375 212.277344 L 150.636719 213.09375 L 151.160156 213.910156 L 152.035156 214.785156 L 152.152344 215.777344 L 152.914062 216.597656 L 153.203125 217.589844 L 153.671875 218.464844 L 154.253906 219.28125 L 154.429688 220.332031 L 155.1875 221.148438 L 155.421875 222.140625 L 156.296875 222.898438 L 157.117188 223.71875 L 157.464844 224.652344 L 158.167969 225.175781 L 159.042969 225.703125 L 159.742188 226.519531 L 160.09375 227.453125 L 160.910156 228.269531 L 161.726562 229.03125 L 162.601562 229.90625 L 162.71875 230.898438 L 163.535156 231.714844 L 164.296875 232.589844 L 164.585938 233.523438 L 164.996094 234.398438 L 165.695312 235.273438 L 165.753906 236.269531 L 165.988281 237.261719 L 166.511719 238.136719 L 167.097656 238.953125 L 167.273438 239.886719 L 167.273438 279.347656 L 167.332031 280.398438 L 166.804688 281.273438 L 166.511719 282.207031 L 166.457031 283.257812 L 165.753906 284.074219 L 165.40625 285.007812 L 164.527344 285.769531 L 163.535156 285.769531 L 162.660156 285.300781 L 161.667969 285.007812 L 160.035156 283.492188 L 159.683594 282.5 L 158.925781 281.683594 L 158.867188 280.691406 L 157.992188 279.8125 L 157.171875 279.054688 L 156.355469 278.238281 L 155.890625 277.304688 L 155.246094 276.488281 L 154.429688 275.667969 L 153.554688 275.144531 L 152.621094 275.203125 L 151.804688 274.445312 L 150.929688 273.625 L 149.933594 273.683594 L 141.820312 273.683594 Z M 140.828125 201.011719 "/>
<path style="fill-rule:nonzero;fill:rgb(100%,38.823529%,27.843137%);fill-opacity:1;stroke-width:0.75;stroke-linecap:round;stroke-linejoin:round;stroke:rgb(20%,20%,20%);stroke-opacity:1;stroke-miterlimit:10;" d="M 225.382812 201.128906 L 226.628906 201.039062 L 227.875 200.953125 L 229.03125 201.308594 L 229.832031 202.464844 L 230.898438 203.445312 L 231.96875 204.332031 L 232.589844 205.402344 L 232.503906 206.648438 L 233.570312 207.539062 L 234.460938 208.785156 L 235.707031 209.050781 L 236.863281 208.960938 L 238.109375 208.960938 L 238.910156 210.03125 L 238.910156 211.277344 L 239.710938 212.164062 L 240.867188 212.164062 L 242.023438 212.789062 L 242.914062 213.769531 L 243.714844 214.835938 L 243.714844 215.992188 L 244.429688 216.972656 L 245.675781 216.972656 L 246.832031 217.59375 L 247.722656 218.574219 L 248.609375 219.640625 L 249.769531 220.53125 L 250.65625 221.6875 L 251.726562 222.578125 L 251.636719 223.734375 L 252.261719 224.894531 L 253.328125 225.871094 L 254.394531 226.582031 L 255.640625 226.582031 L 256.53125 227.472656 L 257.601562 228.363281 L 258.132812 229.519531 L 258.042969 230.765625 L 258.042969 232.011719 L 258.847656 232.902344 L 259.734375 233.96875 L 259.648438 235.214844 L 260.535156 236.195312 L 261.335938 237.175781 L 261.25 238.421875 L 261.25 282.5625 L 261.335938 283.808594 L 261.25 285.054688 L 260.09375 285.769531 L 258.847656 285.679688 L 257.6875 285.679688 L 256.441406 285.769531 L 255.195312 285.5 L 254.394531 284.253906 L 253.148438 284.167969 L 251.992188 283.898438 L 251.636719 282.652344 L 251.546875 281.40625 L 250.390625 280.875 L 249.234375 280.960938 L 248.433594 279.894531 L 248.433594 278.648438 L 247.542969 277.757812 L 246.296875 277.757812 L 245.316406 277.046875 L 244.339844 276.066406 L 243.449219 274.910156 L 242.46875 274.375 L 242.023438 273.21875 L 242.023438 271.972656 L 240.867188 271.082031 L 239.976562 269.835938 L 238.730469 269.75 L 237.574219 269.480469 L 236.773438 268.234375 L 235.527344 268.144531 L 234.28125 267.789062 L 233.480469 266.632812 L 232.324219 266.542969 L 231.078125 266.1875 L 230.277344 265.03125 L 229.03125 264.941406 L 226.628906 264.941406 Z M 225.382812 201.128906 "/>
<path style="fill-rule:nonzero;fill:rgb(100%,38.823529%,27.843137%);fill-opacity:1;stroke-width:0.75;stroke-linecap:round;stroke-linejoin:round;stroke:rgb(20%,20%,20%);stroke-opacity:1;stroke-miterlimit:10;" d="M 309.445312 201.050781 L 310.820312 200.953125 L 312.097656 200.953125 L 313.277344 201.542969 L 314.554688 202.03125 L 315.835938 202.425781 L 317.011719 203.113281 L 318.09375 203.800781 L 319.371094 204.589844 L 320.550781 205.277344 L 321.632812 206.0625 L 322.617188 207.242188 L 323.992188 207.734375 L 324.484375 208.914062 L 325.464844 210.09375 L 326.546875 211.074219 L 327.628906 212.15625 L 328.117188 213.335938 L 329.199219 214.515625 L 330.476562 215.695312 L 331.65625 216.875 L 332.835938 218.152344 L 333.425781 219.429688 L 334.605469 219.820312 L 335.589844 221.097656 L 336.277344 222.277344 L 337.0625 223.359375 L 337.75 224.539062 L 339.125 225.03125 L 339.617188 226.308594 L 340.796875 226.898438 L 341.386719 227.980469 L 342.46875 229.160156 L 343.550781 230.335938 L 344.726562 231.417969 L 345.808594 232.597656 L 347.085938 233.679688 L 347.480469 234.957031 L 348.660156 236.136719 L 349.347656 237.316406 L 350.230469 238.496094 L 350.820312 239.675781 L 351.902344 240.066406 L 352.296875 241.34375 L 352.984375 242.523438 L 352.984375 243.902344 L 354.066406 244.390625 L 354.457031 245.570312 L 355.046875 246.75 L 355.144531 248.125 L 355.144531 250.78125 L 355.246094 252.15625 L 355.835938 253.335938 L 355.835938 280.363281 L 355.34375 281.445312 L 355.144531 282.820312 L 354.261719 283.507812 L 353.671875 284.589844 L 352.492188 284.980469 L 351.410156 285.570312 L 350.035156 285.769531 L 348.660156 285.769531 L 347.578125 285.078125 L 346.203125 284.980469 L 345.023438 284.292969 L 343.84375 283.507812 L 342.46875 283.605469 L 341.386719 282.621094 L 340.601562 281.445312 L 339.816406 280.167969 L 338.636719 279.085938 L 337.652344 276.53125 L 336.964844 275.351562 L 336.179688 274.171875 L 335.589844 273.089844 L 334.800781 271.910156 L 334.015625 270.730469 L 333.523438 269.648438 L 333.03125 268.371094 L 331.953125 267.585938 L 331.65625 266.210938 L 330.476562 265.03125 L 329.296875 263.949219 L 328.808594 262.574219 L 327.53125 262.179688 L 327.136719 261.101562 L 325.761719 261.101562 L 324.582031 260.410156 L 323.304688 259.429688 L 322.320312 258.25 L 321.140625 257.953125 L 319.863281 257.464844 L 318.683594 256.875 L 317.40625 256.773438 L 316.226562 255.988281 L 314.851562 256.085938 L 310.820312 256.085938 Z M 309.445312 201.050781 "/>
<path style="fill-rule:nonzero;fill:rgb(100%,38.823529%,27.843137%);fill-opacity:1;stroke-width:0.75;stroke-linecap:round;stroke-linejoin:round;stroke:rgb(20%,20%,20%);stroke-opacity:1;stroke-miterlimit:10;" d="M 404.328125 201.0625 L 405.5625 200.953125 L 406.792969 200.953125 L 407.691406 201.511719 L 408.8125 202.074219 L 409.929688 203.082031 L 410.605469 204.203125 L 411.277344 205.210938 L 412.394531 205.992188 L 413.070312 206.777344 L 413.742188 207.785156 L 414.300781 208.796875 L 414.972656 209.914062 L 415.871094 210.921875 L 416.316406 212.15625 L 417.214844 212.941406 L 417.664062 214.0625 L 418.78125 215.070312 L 419.230469 216.191406 L 420.015625 217.308594 L 420.6875 217.871094 L 421.246094 218.765625 L 421.695312 219.886719 L 422.703125 221.007812 L 423.152344 222.015625 L 424.046875 222.914062 L 424.945312 223.808594 L 426.289062 225.824219 L 426.851562 226.945312 L 427.523438 227.953125 L 428.304688 229.074219 L 429.425781 230.082031 L 430.324219 231.089844 L 431.332031 232.101562 L 431.890625 233.21875 L 432.5625 234.339844 L 433.234375 235.238281 L 434.132812 236.132812 L 434.582031 237.253906 L 435.703125 238.261719 L 436.375 239.269531 L 436.933594 240.277344 L 437.492188 241.289062 L 437.605469 242.519531 L 438.167969 243.527344 L 438.839844 244.535156 L 438.839844 245.769531 L 439.285156 246.890625 L 439.511719 248.121094 L 439.511719 280.613281 L 439.285156 281.847656 L 438.167969 282.855469 L 437.71875 283.863281 L 436.933594 284.421875 L 436.148438 285.097656 L 435.027344 285.433594 L 433.910156 285.769531 L 432.789062 285.769531 L 431.667969 285.097656 L 430.546875 284.757812 L 429.988281 283.640625 L 429.089844 282.628906 L 428.640625 281.511719 L 427.523438 280.503906 L 427.074219 279.382812 L 426.175781 278.484375 L 425.730469 277.476562 L 424.832031 275.234375 L 423.710938 274.226562 L 423.375 273.21875 L 422.929688 271.988281 L 422.367188 270.976562 L 421.472656 270.082031 L 421.136719 269.296875 L 420.574219 268.289062 L 419.902344 267.28125 L 418.894531 266.273438 L 418.445312 265.039062 L 418 264.03125 L 417.4375 263.023438 L 416.542969 261.902344 L 416.09375 260.78125 L 414.972656 260.445312 L 413.964844 259.4375 L 412.84375 258.765625 L 411.835938 257.980469 L 410.941406 257.535156 L 409.820312 257.085938 L 408.699219 256.75 L 406.683594 255.851562 L 405.5625 255.628906 Z M 404.328125 201.0625 "/>
<path style="fill-rule:nonzero;fill:rgb(100%,38.823529%,27.843137%);fill-opacity:1;stroke-width:0.75;stroke-linecap:round;stroke-linejoin:round;stroke:rgb(20%,20%,20%);stroke-opacity:1;stroke-miterlimit:10;" d="M 491.113281 200.953125 L 492.207031 201.746094 L 493.203125 202.742188 L 494.195312 203.835938 L 495.289062 204.828125 L 496.382812 205.921875 L 497.082031 207.015625 L 497.976562 207.515625 L 498.375 208.609375 L 499.46875 209.601562 L 500.460938 210.597656 L 501.457031 211.691406 L 501.953125 212.785156 L 503.046875 213.777344 L 504.140625 214.871094 L 505.035156 215.964844 L 505.632812 216.960938 L 506.625 217.953125 L 507.519531 219.046875 L 508.019531 220.042969 L 509.011719 221.039062 L 509.90625 221.933594 L 510.503906 222.925781 L 511.199219 223.921875 L 511.796875 225.015625 L 512.890625 225.414062 L 513.585938 226.40625 L 514.28125 227.5 L 515.277344 228.496094 L 516.070312 229.488281 L 516.667969 230.582031 L 517.761719 231.578125 L 518.257812 232.671875 L 519.054688 233.863281 L 519.851562 234.957031 L 520.347656 236.050781 L 520.945312 237.046875 L 521.539062 238.039062 L 522.136719 239.035156 L 522.734375 240.027344 L 523.332031 241.023438 L 523.925781 242.019531 L 524.523438 243.210938 L 525.21875 244.304688 L 525.519531 245.398438 L 525.917969 246.589844 L 526.414062 247.585938 L 527.011719 248.582031 L 527.605469 249.574219 L 528.203125 250.570312 L 528.699219 251.664062 L 529.296875 252.855469 L 529.496094 254.050781 L 529.695312 255.144531 L 530.09375 256.238281 L 530.6875 257.230469 L 531.085938 258.324219 L 531.285156 259.519531 L 531.285156 276.421875 L 530.6875 277.414062 L 530.292969 278.507812 L 530.09375 279.601562 L 529.894531 280.796875 L 529.394531 281.890625 L 528.898438 282.984375 L 528.402344 283.976562 L 525.121094 285.769531 L 523.925781 285.769531 L 522.933594 285.171875 L 521.839844 284.574219 L 520.84375 283.582031 L 520.84375 282.386719 L 520.25 281.394531 L 519.851562 280.199219 L 519.453125 279.105469 L 518.957031 278.113281 L 518.457031 277.019531 L 517.761719 275.925781 L 517.5625 274.832031 L 517.164062 273.738281 L 516.171875 272.941406 L 515.773438 271.746094 L 514.78125 270.851562 L 513.882812 269.957031 L 513.488281 268.863281 L 512.394531 267.871094 L 511.398438 266.875 L 510.40625 265.78125 L 509.210938 265.382812 L 508.8125 264.390625 L 507.917969 263.894531 L 506.824219 262.996094 L 505.730469 262.5 L 504.9375 261.507812 L 503.941406 260.710938 L 502.75 260.710938 L 501.753906 260.113281 L 500.660156 259.519531 L 499.566406 258.921875 L 492.308594 258.921875 Z M 491.113281 200.953125 "/>
<path style="fill-rule:nonzero;fill:rgb(100%,38.823529%,27.843137%);fill-opacity:1;stroke-width:0.75;stroke-linecap:round;stroke-linejoin:round;stroke:rgb(20%,20%,20%);stroke-opacity:1;stroke-miterlimit:10;" d="M 48.777344 290.316406 L 49.867188 290.230469 L 50.957031 290.230469 L 52.046875 290.734375 L 52.804688 291.65625 L 53.640625 292.582031 L 54.734375 293.421875 L 56.242188 295.265625 L 56.242188 296.355469 L 57.082031 297.195312 L 57.585938 298.203125 L 57.667969 299.292969 L 58.675781 300.132812 L 59.515625 301.136719 L 60.355469 302.0625 L 60.269531 303.152344 L 61.109375 303.992188 L 61.949219 304.996094 L 62.953125 305.753906 L 63.039062 306.84375 L 63.457031 307.847656 L 64.378906 308.6875 L 64.378906 309.777344 L 65.050781 310.703125 L 65.808594 311.625 L 65.808594 312.800781 L 66.644531 313.554688 L 67.484375 314.644531 L 68.492188 315.484375 L 69.414062 316.324219 L 69.917969 317.328125 L 69.917969 318.421875 L 70.925781 319.175781 L 71.261719 320.265625 L 71.511719 321.441406 L 72.519531 322.195312 L 72.601562 323.285156 L 72.601562 324.375 L 72.769531 325.46875 L 73.859375 326.136719 L 73.945312 327.230469 L 74.28125 328.320312 L 75.285156 329.074219 L 75.285156 330.164062 L 75.875 331.171875 L 76.710938 332.09375 L 76.710938 333.183594 L 77.46875 334.023438 L 78.140625 334.945312 L 78.054688 336.039062 L 78.054688 337.128906 L 78.726562 338.050781 L 79.480469 338.972656 L 79.480469 340.066406 L 79.398438 341.238281 L 80.070312 342.160156 L 80.824219 343 L 80.824219 372.613281 L 80.238281 373.539062 L 79.3125 374.542969 L 78.308594 375.046875 L 77.214844 374.964844 L 73.945312 374.964844 L 72.855469 375.046875 L 71.761719 374.964844 L 71.007812 373.957031 L 69.917969 373.117188 L 69.078125 372.195312 L 68.324219 371.273438 L 67.234375 370.519531 L 67.066406 369.425781 L 66.8125 368.335938 L 65.972656 367.917969 L 65.722656 366.828125 L 65.554688 365.734375 L 64.464844 365.398438 L 63.375 365.316406 L 62.535156 364.140625 L 61.613281 363.304688 L 60.605469 362.464844 L 59.851562 361.457031 L 58.757812 361.375 L 57.667969 360.953125 L 56.914062 360.03125 L 56.074219 359.109375 L 55.070312 358.351562 L 54.230469 357.261719 L 49.867188 357.261719 Z M 48.777344 290.316406 "/>
<path style="fill-rule:nonzero;fill:rgb(100%,38.823529%,27.843137%);fill-opacity:1;stroke-width:0.75;stroke-linecap:round;stroke-linejoin:round;stroke:rgb(20%,20%,20%);stroke-opacity:1;stroke-miterlimit:10;" d="M 132.789062 290.320312 L 134 290.230469 L 134.953125 291.183594 L 135.992188 292.050781 L 137.03125 293.175781 L 137.980469 294.214844 L 139.195312 295.164062 L 139.972656 296.289062 L 141.183594 297.070312 L 141.964844 298.367188 L 143.175781 299.058594 L 144.039062 300.359375 L 145.164062 301.050781 L 146.464844 300.964844 L 147.675781 301.222656 L 148.453125 302.523438 L 149.578125 303.300781 L 150.792969 303.214844 L 152.089844 303.472656 L 152.867188 304.597656 L 153.992188 305.550781 L 155.03125 306.589844 L 155.984375 307.714844 L 158.40625 307.714844 L 159.445312 308.753906 L 160.226562 309.878906 L 161.523438 309.964844 L 162.734375 309.964844 L 163.859375 310.917969 L 164.640625 312.042969 L 165.851562 312.214844 L 167.148438 312.214844 L 168.273438 312.992188 L 169.140625 314.207031 L 170.351562 314.984375 L 170.785156 316.28125 L 170.695312 317.496094 L 171.214844 318.621094 L 172.515625 319.398438 L 173.035156 320.609375 L 172.945312 321.90625 L 173.378906 323.035156 L 174.679688 323.8125 L 175.285156 324.9375 L 175.285156 326.148438 L 175.199219 327.445312 L 175.199219 371.152344 L 175.285156 372.453125 L 175.371094 373.664062 L 174.851562 374.875 L 173.554688 375.046875 L 172.773438 373.835938 L 171.648438 372.882812 L 169.140625 372.882812 L 167.925781 372.972656 L 166.714844 372.625 L 165.9375 371.328125 L 164.8125 370.632812 L 163.511719 370.71875 L 162.300781 370.375 L 161.4375 369.078125 L 160.3125 368.296875 L 159.359375 367.171875 L 158.320312 366.132812 L 157.109375 366.132812 L 155.8125 366.046875 L 154.945312 364.921875 L 153.90625 363.96875 L 152.695312 363.882812 L 139.019531 363.882812 L 137.808594 363.796875 L 134 363.796875 Z M 132.789062 290.320312 "/>
<path style="fill-rule:nonzero;fill:rgb(100%,38.823529%,27.843137%);fill-opacity:1;stroke-width:0.75;stroke-linecap:round;stroke-linejoin:round;stroke:rgb(20%,20%,20%);stroke-opacity:1;stroke-miterlimit:10;" d="M 228.496094 290.230469 L 229.746094 290.308594 L 230.992188 290.230469 L 232.242188 290.933594 L 233.253906 291.871094 L 234.191406 292.964844 L 235.128906 294.054688 L 236.296875 294.992188 L 237.390625 295.773438 L 238.640625 295.851562 L 239.496094 297.019531 L 240.746094 297.097656 L 241.839844 297.878906 L 242.929688 298.816406 L 243.945312 299.828125 L 245.195312 299.828125 L 246.050781 300.921875 L 247.300781 301.234375 L 248.550781 301.703125 L 249.5625 302.636719 L 250.8125 302.636719 L 251.671875 303.808594 L 252.917969 303.886719 L 254.089844 304.589844 L 255.179688 305.601562 L 256.117188 306.695312 L 256.820312 307.789062 L 256.898438 309.035156 L 258.066406 309.894531 L 258.222656 311.222656 L 258.144531 312.46875 L 258.144531 370.601562 L 258.222656 371.847656 L 258.144531 373.097656 L 256.976562 374.035156 L 256.039062 375.046875 L 254.714844 375.046875 L 254.011719 373.957031 L 253.933594 372.707031 L 252.683594 371.769531 L 252.605469 370.523438 L 252.683594 369.273438 L 251.902344 368.179688 L 251.28125 367.011719 L 251.28125 365.761719 L 251.203125 364.515625 L 249.953125 363.578125 L 249.953125 362.25 L 249.09375 361.316406 L 248.550781 360.144531 L 248.316406 358.894531 L 247.222656 357.960938 L 247.222656 354.136719 L 246.441406 353.121094 L 245.816406 352.03125 L 245.582031 351.015625 L 244.726562 350.15625 L 243.789062 349.066406 L 243.085938 347.972656 L 243.007812 346.722656 L 241.761719 345.710938 L 240.667969 344.773438 L 240.355469 343.523438 L 239.886719 342.355469 L 238.875 341.339844 L 237.703125 340.871094 L 236.453125 340.480469 L 235.441406 339.46875 L 234.503906 338.296875 L 233.253906 338.21875 L 232.164062 337.4375 L 230.992188 336.738281 L 229.746094 336.816406 Z M 228.496094 290.230469 "/>
<path style="fill-rule:nonzero;fill:rgb(100%,38.823529%,27.843137%);fill-opacity:1;stroke-width:0.75;stroke-linecap:round;stroke-linejoin:round;stroke:rgb(20%,20%,20%);stroke-opacity:1;stroke-miterlimit:10;" d="M 316.117188 290.230469 L 317.3125 290.414062 L 318.230469 291.699219 L 319.332031 292.527344 L 319.332031 293.71875 L 319.882812 294.820312 L 320.890625 295.738281 L 320.890625 297.023438 L 321.53125 298.035156 L 322.449219 298.953125 L 323.644531 299.960938 L 324.5625 301.0625 L 325.570312 301.980469 L 326.582031 302.808594 L 327.773438 302.714844 L 328.785156 303.632812 L 329.792969 304.367188 L 330.988281 304.367188 L 331.90625 305.285156 L 333.007812 305.929688 L 334.199219 305.929688 L 335.117188 307.03125 L 336.3125 307.488281 L 337.503906 307.582031 L 338.421875 308.773438 L 339.617188 309.050781 L 340.808594 309.234375 L 341.726562 310.519531 L 342.921875 310.609375 L 344.113281 310.976562 L 345.03125 312.171875 L 345.949219 313.089844 L 345.949219 314.28125 L 346.777344 315.292969 L 347.601562 316.394531 L 347.511719 317.679688 L 348.519531 318.597656 L 349.164062 319.699219 L 349.070312 320.980469 L 349.070312 366.328125 L 349.164062 367.519531 L 348.335938 368.621094 L 347.417969 369.632812 L 346.316406 370.457031 L 345.949219 371.652344 L 345.859375 372.84375 L 344.664062 373.671875 L 343.746094 374.863281 L 342.554688 375.046875 L 341.359375 374.496094 L 340.441406 373.394531 L 339.617188 372.386719 L 339.617188 371.101562 L 338.789062 370.183594 L 337.964844 369.171875 L 338.054688 367.886719 L 338.054688 366.695312 L 337.503906 365.59375 L 336.496094 364.675781 L 336.496094 362.289062 L 336.128906 361.003906 L 335.027344 360.269531 L 334.933594 359.074219 L 334.476562 357.882812 L 333.375 357.058594 L 333.28125 355.773438 L 333.375 354.578125 L 333.191406 353.386719 L 331.90625 352.46875 L 331.078125 351.457031 L 330.253906 350.632812 L 330.253906 349.347656 L 329.609375 348.335938 L 328.417969 348.246094 L 327.132812 348.335938 L 317.3125 348.335938 Z M 316.117188 290.230469 "/>
<path style="fill-rule:nonzero;fill:rgb(100%,38.823529%,27.843137%);fill-opacity:1;stroke-width:0.75;stroke-linecap:round;stroke-linejoin:round;stroke:rgb(20%,20%,20%);stroke-opacity:1;stroke-miterlimit:10;" d="M 410.632812 290.320312 L 411.800781 290.230469 L 412.878906 290.410156 L 413.691406 291.582031 L 414.769531 292.390625 L 415.578125 293.378906 L 416.570312 294.28125 L 417.46875 295.179688 L 417.46875 296.347656 L 417.558594 297.515625 L 418.546875 298.238281 L 419.445312 299.226562 L 420.4375 300.125 L 421.335938 301.023438 L 421.425781 302.195312 L 421.425781 303.273438 L 421.335938 304.441406 L 421.695312 305.613281 L 422.773438 306.242188 L 423.402344 307.320312 L 423.3125 308.492188 L 423.675781 309.570312 L 424.84375 310.289062 L 425.382812 311.367188 L 425.382812 312.449219 L 425.292969 313.617188 L 425.292969 314.695312 L 426.011719 315.777344 L 427.089844 316.496094 L 427.363281 317.574219 L 427.273438 318.742188 L 428.082031 319.734375 L 429.070312 320.453125 L 429.25 321.621094 L 429.25 322.792969 L 430.058594 323.691406 L 431.140625 324.5 L 431.230469 325.578125 L 431.230469 326.75 L 432.128906 327.648438 L 433.117188 328.457031 L 433.207031 329.625 L 433.207031 373.96875 L 432.398438 374.867188 L 431.230469 375.046875 L 430.058594 374.957031 L 429.25 374.058594 L 428.351562 373.070312 L 427.363281 372.351562 L 427.183594 371.179688 L 427.183594 370.011719 L 426.371094 369.113281 L 425.292969 368.300781 L 425.203125 367.132812 L 425.203125 366.054688 L 424.304688 365.15625 L 423.3125 364.253906 L 423.222656 363.175781 L 423.3125 362.007812 L 423.3125 360.925781 L 423.132812 359.757812 L 421.964844 359.039062 L 421.246094 358.046875 L 421.335938 356.878906 L 421.066406 355.710938 L 419.984375 355.082031 L 419.265625 354 L 419.355469 352.832031 L 419.355469 350.582031 L 418.816406 349.59375 L 417.648438 348.875 L 417.378906 347.707031 L 417.378906 346.625 L 416.660156 345.546875 L 415.578125 344.828125 L 415.398438 343.746094 L 415.398438 342.578125 L 415.21875 341.949219 L 414.050781 341.5 L 412.878906 341.5 L 411.800781 341.589844 Z M 410.632812 290.320312 "/>
<path style="fill-rule:nonzero;fill:rgb(100%,38.823529%,27.843137%);fill-opacity:1;stroke-width:0.75;stroke-linecap:round;stroke-linejoin:round;stroke:rgb(20%,20%,20%);stroke-opacity:1;stroke-miterlimit:10;" d="M 499.453125 290.304688 L 500.5625 290.230469 L 501.742188 290.230469 L 502.703125 291.117188 L 503.738281 291.5625 L 504.699219 292.523438 L 505.363281 293.558594 L 505.878906 294.589844 L 506.398438 295.550781 L 506.988281 296.511719 L 507.507812 297.546875 L 508.023438 298.507812 L 508.984375 299.394531 L 509.351562 300.355469 L 509.871094 301.460938 L 510.757812 302.347656 L 511.199219 303.308594 L 512.085938 304.121094 L 512.605469 305.230469 L 513.417969 306.117188 L 513.859375 307.078125 L 514.894531 307.445312 L 515.410156 308.554688 L 516.003906 309.515625 L 516.742188 310.476562 L 517.035156 311.511719 L 517.628906 312.542969 L 518.660156 314.464844 L 519.105469 315.425781 L 519.621094 316.460938 L 519.695312 317.566406 L 520.289062 318.527344 L 520.582031 319.5625 L 521.027344 320.597656 L 521.320312 321.632812 L 521.46875 322.664062 L 521.914062 323.773438 L 521.914062 324.882812 L 522.0625 325.917969 L 522.429688 326.949219 L 522.429688 328.132812 L 522.652344 329.167969 L 522.945312 330.203125 L 522.945312 373.054688 L 522.429688 374.011719 L 521.617188 374.53125 L 520.582031 375.046875 L 517.257812 375.046875 L 516.148438 374.457031 L 515.410156 373.421875 L 514.894531 372.460938 L 514.304688 371.429688 L 513.785156 370.46875 L 513.34375 369.507812 L 513.269531 368.398438 L 512.75 367.363281 L 512.308594 366.402344 L 511.863281 365.371094 L 511.496094 364.410156 L 511.125 363.300781 L 510.609375 362.339844 L 510.089844 361.378906 L 510.019531 360.273438 L 509.574219 359.238281 L 509.058594 358.277344 L 508.984375 357.167969 L 508.464844 356.132812 L 507.949219 355.101562 L 507.433594 354.140625 L 507.0625 353.105469 L 506.914062 352.070312 L 506.324219 351.035156 L 506.101562 350.003906 L 505.660156 348.96875 L 505.214844 347.933594 L 504.699219 346.898438 L 503.960938 346.234375 L 500.5625 346.234375 Z M 499.453125 290.304688 "/>
<path style="fill-rule:nonzero;fill:rgb(100%,38.823529%,27.843137%);fill-opacity:1;stroke-width:0.75;stroke-linecap:round;stroke-linejoin:round;stroke:rgb(20%,20%,20%);stroke-opacity:1;stroke-miterlimit:10;" d="M 52.660156 379.511719 L 53.632812 379.902344 L 54.277344 380.9375 L 54.796875 381.972656 L 55.121094 382.878906 L 56.089844 383.398438 L 56.609375 384.433594 L 57.710938 385.015625 L 58.617188 385.988281 L 59.589844 386.441406 L 60.496094 386.957031 L 61.078125 387.992188 L 62.046875 388.382812 L 62.5 389.351562 L 63.085938 390.453125 L 64.054688 391.425781 L 64.574219 392.394531 L 65.542969 393.367188 L 66.128906 394.46875 L 67.097656 395.4375 L 67.679688 396.410156 L 68.523438 397.382812 L 69.039062 398.417969 L 69.558594 399.390625 L 70.011719 400.425781 L 70.464844 401.394531 L 70.984375 402.433594 L 71.5 403.46875 L 71.953125 404.503906 L 72.40625 405.476562 L 72.796875 406.511719 L 73.378906 407.546875 L 73.898438 408.519531 L 73.960938 409.617188 L 74.351562 410.65625 L 74.933594 411.691406 L 74.867188 412.789062 L 75.449219 413.761719 L 75.386719 414.925781 L 75.839844 415.964844 L 75.902344 417.0625 L 75.902344 418.164062 L 76.421875 419.199219 L 76.421875 420.367188 L 76.941406 421.335938 L 76.941406 458.695312 L 76.550781 459.730469 L 76.421875 460.898438 L 76.421875 461.996094 L 75.902344 462.96875 L 75.386719 464.003906 L 74.351562 464.328125 L 73.25 464.328125 L 72.277344 463.808594 L 71.242188 463.03125 L 70.207031 461.996094 L 69.6875 461.027344 L 68.847656 460.121094 L 68.328125 459.082031 L 67.617188 458.371094 L 67.164062 457.398438 L 66.644531 456.429688 L 66.582031 455.265625 L 66.0625 454.226562 L 66.0625 453.128906 L 65.542969 452.15625 L 65.027344 451.121094 L 64.960938 449.953125 L 64.507812 448.984375 L 63.992188 448.011719 L 63.472656 446.976562 L 63.40625 445.8125 L 62.5 444 L 61.917969 443.027344 L 61.53125 442.183594 L 60.949219 441.472656 L 60.949219 440.371094 L 59.910156 438.300781 L 59.394531 437.328125 L 58.941406 436.359375 L 58.875 435.191406 L 58.292969 434.414062 L 53.761719 434.414062 Z M 52.660156 379.511719 "/>
<path style="fill-rule:nonzero;fill:rgb(100%,38.823529%,27.843137%);fill-opacity:1;stroke-width:0.75;stroke-linecap:round;stroke-linejoin:round;stroke:rgb(20%,20%,20%);stroke-opacity:1;stroke-miterlimit:10;" d="M 145.871094 379.574219 L 146.957031 379.511719 L 147.34375 380.46875 L 147.851562 381.363281 L 148.300781 382.386719 L 148.300781 383.472656 L 148.234375 384.492188 L 149.066406 385.324219 L 149.195312 386.410156 L 150.089844 387.238281 L 150.152344 388.261719 L 150.152344 390.433594 L 150.34375 391.457031 L 151.109375 392.285156 L 151.046875 393.371094 L 151.429688 394.328125 L 152.003906 395.222656 L 152.386719 396.246094 L 152.960938 397.140625 L 152.960938 398.226562 L 152.898438 399.246094 L 153.601562 400.078125 L 153.855469 401.164062 L 154.558594 401.992188 L 154.816406 403.015625 L 154.816406 405.1875 L 155.707031 406.015625 L 155.773438 407.039062 L 156.667969 407.871094 L 156.667969 408.953125 L 156.730469 409.976562 L 157.625 410.808594 L 157.5625 411.894531 L 157.878906 412.980469 L 158.582031 413.746094 L 158.519531 414.832031 L 158.902344 415.789062 L 159.476562 416.746094 L 159.476562 421.027344 L 159.539062 422.046875 L 160.371094 422.878906 L 160.5 423.964844 L 161.328125 424.730469 L 161.328125 427.988281 L 161.777344 428.882812 L 162.285156 429.839844 L 162.285156 462.988281 L 162.160156 464.074219 L 161.136719 464.328125 L 160.050781 464.328125 L 159.15625 463.496094 L 158.261719 462.605469 L 157.433594 461.773438 L 155.644531 459.984375 L 155.707031 458.964844 L 155.453125 457.878906 L 154.75 457.046875 L 154.496094 456.023438 L 153.792969 455.195312 L 153.792969 454.109375 L 153.855469 453.023438 L 153.21875 452.128906 L 152.386719 451.234375 L 151.941406 450.277344 L 152.003906 449.191406 L 151.238281 448.296875 L 151.046875 447.273438 L 150.28125 446.445312 L 150.089844 445.359375 L 150.089844 444.335938 L 149.511719 443.761719 L 149.128906 442.742188 L 149.128906 441.65625 L 149.195312 440.632812 L 148.300781 439.804688 L 148.234375 438.71875 L 148.234375 437.632812 L 148.171875 436.609375 L 147.277344 435.777344 L 147.277344 434.695312 L 147.34375 433.609375 L 146.957031 432.648438 Z M 145.871094 379.574219 "/>
<path style="fill-rule:nonzero;fill:rgb(100%,38.823529%,27.843137%);fill-opacity:1;stroke-width:0.75;stroke-linecap:round;stroke-linejoin:round;stroke:rgb(20%,20%,20%);stroke-opacity:1;stroke-miterlimit:10;" d="M 234.488281 379.511719 L 235.546875 379.566406 L 235.769531 380.625 L 236.546875 381.457031 L 236.65625 382.460938 L 236.65625 383.515625 L 237.492188 384.296875 L 237.605469 385.351562 L 238.382812 386.1875 L 238.328125 387.242188 L 238.773438 388.132812 L 239.273438 389.078125 L 239.214844 390.136719 L 239.214844 391.191406 L 240.105469 392.027344 L 240.160156 393.082031 L 240.996094 393.859375 L 241.109375 394.917969 L 241.832031 395.753906 L 242.109375 396.753906 L 242.71875 397.585938 L 243.109375 398.53125 L 243.609375 399.480469 L 243.554688 400.480469 L 243.554688 401.535156 L 244.390625 402.316406 L 244.445312 403.371094 L 244.445312 404.429688 L 244.777344 405.429688 L 245.335938 406.265625 L 245.277344 407.320312 L 245.945312 408.210938 L 246.835938 409.042969 L 247.003906 410.101562 L 247.058594 411.15625 L 247.894531 411.882812 L 247.949219 412.9375 L 248.78125 413.773438 L 248.726562 414.828125 L 249.117188 415.828125 L 249.949219 416.664062 L 250.507812 417.554688 L 250.894531 418.445312 L 251.785156 419.277344 L 252.230469 420.28125 L 252.230469 462.214844 L 252.0625 463.269531 L 251.230469 464.050781 L 250.230469 464.328125 L 249.171875 464.328125 L 248.335938 463.492188 L 247.835938 462.546875 L 247.335938 461.660156 L 246.503906 460.824219 L 246.113281 459.878906 L 246.113281 458.820312 L 245.335938 457.988281 L 245.222656 456.929688 L 245.277344 455.875 L 245 454.875 L 244.390625 454.039062 L 244 453.09375 L 243.5 452.257812 L 243.109375 451.371094 L 242.664062 450.421875 L 242.109375 449.535156 L 241.773438 448.589844 L 241.773438 447.53125 L 240.996094 446.699219 L 240.941406 445.640625 L 240.941406 444.582031 L 240.605469 443.582031 L 240.050781 442.75 L 240.105469 441.691406 L 239.4375 440.859375 L 239.214844 439.800781 L 238.382812 438.964844 L 238.328125 437.910156 L 237.492188 437.132812 L 236.601562 436.628906 L 235.546875 436.628906 Z M 234.488281 379.511719 "/>
<path style="fill-rule:nonzero;fill:rgb(100%,38.823529%,27.843137%);fill-opacity:1;stroke-width:0.75;stroke-linecap:round;stroke-linejoin:round;stroke:rgb(20%,20%,20%);stroke-opacity:1;stroke-miterlimit:10;" d="M 321.871094 379.589844 L 322.976562 379.511719 L 325.195312 379.511719 L 326.382812 379.671875 L 327.175781 380.542969 L 328.285156 380.542969 L 329.394531 380.621094 L 330.265625 381.648438 L 331.371094 381.648438 L 332.957031 383.390625 L 333.035156 384.5 L 333.984375 385.453125 L 334.066406 386.558594 L 335.015625 387.429688 L 335.015625 388.539062 L 335.09375 389.648438 L 336.046875 390.441406 L 336.046875 391.550781 L 336.125 392.738281 L 337.074219 393.609375 L 337.152344 394.71875 L 337.152344 400.261719 L 337.074219 401.371094 L 337.472656 402.476562 L 338.183594 403.347656 L 338.183594 404.457031 L 338.421875 405.566406 L 339.214844 406.4375 L 339.214844 410.953125 L 339.6875 411.980469 L 340.320312 412.929688 L 340.242188 414.039062 L 340.242188 416.257812 L 340.796875 417.207031 L 341.351562 418.238281 L 341.273438 419.425781 L 341.828125 420.375 L 342.378906 421.324219 L 342.300781 422.433594 L 342.777344 423.464844 L 343.410156 424.414062 L 343.410156 462.507812 L 342.617188 463.378906 L 341.746094 464.328125 L 339.53125 464.328125 L 338.421875 464.25 L 338.105469 463.140625 L 338.105469 462.03125 L 337.472656 461.160156 L 336.519531 460.128906 L 335.492188 460.128906 L 334.621094 459.179688 L 333.90625 458.308594 L 333.75 457.199219 L 332.878906 456.410156 L 332.796875 455.300781 L 331.847656 454.351562 L 331.847656 452.132812 L 331.769531 451.023438 L 330.820312 450.230469 L 330.738281 449.121094 L 329.867188 448.332031 L 329.710938 447.222656 L 328.917969 446.351562 L 328.679688 445.164062 L 328.679688 444.054688 L 327.886719 443.261719 L 327.652344 442.152344 L 327.015625 441.28125 L 326.621094 440.253906 L 326.144531 439.222656 L 325.511719 438.195312 L 325.195312 437.164062 L 322.976562 437.164062 Z M 321.871094 379.589844 "/>
<path style="fill-rule:nonzero;fill:rgb(100%,38.823529%,27.843137%);fill-opacity:1;stroke-width:0.75;stroke-linecap:round;stroke-linejoin:round;stroke:rgb(20%,20%,20%);stroke-opacity:1;stroke-miterlimit:10;" d="M 409.632812 379.628906 L 410.738281 379.570312 L 411.898438 379.511719 L 412.769531 380.265625 L 413.816406 380.675781 L 414.863281 381.082031 L 415.792969 381.953125 L 416.082031 383.054688 L 416.605469 384.042969 L 417.242188 384.972656 L 417.183594 386.132812 L 417.359375 387.238281 L 418.347656 388.109375 L 419.335938 388.921875 L 419.507812 390.085938 L 419.449219 391.1875 L 420.207031 392.058594 L 420.613281 393.105469 L 421.019531 394.210938 L 421.773438 395.082031 L 421.890625 396.242188 L 422.878906 397.054688 L 422.878906 398.21875 L 423.808594 399.03125 L 423.980469 400.191406 L 424.679688 401.066406 L 425.144531 402.167969 L 425.085938 403.273438 L 425.550781 404.375 L 426.363281 405.246094 L 427.410156 406.117188 L 427.351562 407.222656 L 428.28125 407.976562 L 428.511719 409.140625 L 429.09375 410.070312 L 429.675781 411.113281 L 429.90625 412.160156 L 430.894531 413.089844 L 431.882812 413.902344 L 431.882812 416.167969 L 432.753906 416.980469 L 433.042969 418.085938 L 433.566406 419.074219 L 434.207031 420.0625 L 434.148438 421.222656 L 434.148438 457.414062 L 434.207031 458.578125 L 433.859375 459.679688 L 432.929688 460.550781 L 431.941406 461.367188 L 431.941406 462.527344 L 431.070312 463.339844 L 430.199219 464.328125 L 426.828125 464.328125 L 425.898438 463.339844 L 425.027344 462.46875 L 425.027344 461.367188 L 423.980469 460.492188 L 423.925781 459.390625 L 423.980469 458.226562 L 423.109375 457.414062 L 422.820312 456.253906 L 422.878906 455.148438 L 422.238281 454.160156 L 421.660156 453.175781 L 421.714844 452.011719 L 421.425781 450.910156 L 420.554688 450.035156 L 420.554688 448.992188 L 419.683594 448.351562 L 419.394531 447.25 L 419.449219 446.085938 L 418.871094 445.097656 L 418.289062 444.113281 L 418.058594 443.007812 L 417.128906 442.136719 L 417.183594 441.03125 L 417.128906 439.871094 L 416.140625 439.117188 L 416.023438 437.953125 L 416.082031 436.851562 L 415.269531 436.09375 L 410.738281 436.09375 Z M 409.632812 379.628906 "/>
<path style="fill-rule:nonzero;fill:rgb(100%,38.823529%,27.843137%);fill-opacity:1;stroke-width:0.75;stroke-linecap:round;stroke-linejoin:round;stroke:rgb(20%,20%,20%);stroke-opacity:1;stroke-miterlimit:10;" d="M 496.828125 379.511719 L 497.851562 380.0625 L 498.402344 381.164062 L 499.425781 381.796875 L 500.214844 382.898438 L 501.238281 383.6875 L 502.183594 384.710938 L 503.050781 385.734375 L 504.074219 386.441406 L 504.78125 387.542969 L 505.882812 388.253906 L 506.59375 389.355469 L 507.617188 390.066406 L 508.5625 391.089844 L 509.429688 392.035156 L 510.53125 392.898438 L 511.238281 394.003906 L 512.261719 394.632812 L 512.972656 395.734375 L 514.074219 396.523438 L 514.941406 397.46875 L 515.726562 398.414062 L 516.753906 398.492188 L 517.855469 398.492188 L 518.878906 399.121094 L 519.507812 400.222656 L 520.609375 400.855469 L 521.320312 401.878906 L 522.34375 402.742188 L 523.289062 403.6875 L 524.074219 404.710938 L 525.179688 405.34375 L 525.570312 406.367188 L 525.492188 407.46875 L 525.492188 460.707031 L 525.570312 461.808594 L 525.570312 462.910156 L 525.101562 463.933594 L 523.996094 464.328125 L 522.894531 464.328125 L 521.792969 464.011719 L 521.164062 463.066406 L 520.21875 462.203125 L 519.191406 461.335938 L 518.484375 460.234375 L 517.382812 459.679688 L 516.910156 458.65625 L 516.988281 457.554688 L 516.832031 456.453125 L 515.808594 455.742188 L 514.863281 454.878906 L 514.785156 453.855469 L 514.863281 452.75 L 514.230469 451.726562 L 513.128906 451.175781 L 512.65625 450.074219 L 512.734375 449.050781 L 512.578125 447.949219 L 511.476562 447.238281 L 510.609375 446.214844 L 509.820312 445.269531 L 508.71875 445.113281 L 507.617188 445.191406 L 499.03125 445.191406 L 497.929688 445.269531 Z M 496.828125 379.511719 "/>
<path style="fill-rule:nonzero;fill:rgb(100%,38.823529%,27.843137%);fill-opacity:1;stroke-width:0.75;stroke-linecap:round;stroke-linejoin:round;stroke:rgb(20%,20%,20%);stroke-opacity:1;stroke-miterlimit:10;" d="M 49.257812 468.792969 L 50.3125 469.320312 L 50.914062 470.449219 L 52.042969 471.050781 L 53.171875 470.972656 L 54.300781 471.125 L 55.054688 472.179688 L 56.03125 473.230469 L 57.085938 473.984375 L 57.761719 475.113281 L 58.890625 475.789062 L 59.71875 476.917969 L 60.625 477.824219 L 61.753906 477.898438 L 62.882812 477.824219 L 64.011719 478.574219 L 64.6875 479.703125 L 65.816406 480.382812 L 66.644531 481.511719 L 67.621094 482.414062 L 69.878906 482.414062 L 70.933594 483.242188 L 71.6875 484.445312 L 72.816406 485.046875 L 73.566406 486.175781 L 74.546875 487.003906 L 75.597656 487.984375 L 76.351562 489.035156 L 77.480469 489.714844 L 78.007812 490.84375 L 77.933594 491.972656 L 78.160156 493.175781 L 79.210938 493.929688 L 80.191406 494.832031 L 80.339844 495.960938 L 80.265625 497.164062 L 80.265625 547.585938 L 80.339844 548.792969 L 80.339844 549.921875 L 79.589844 550.972656 L 78.460938 551.652344 L 77.707031 552.855469 L 76.652344 553.53125 L 75.523438 553.609375 L 74.394531 553.457031 L 73.417969 552.480469 L 72.589844 551.425781 L 71.460938 550.75 L 71.007812 549.621094 L 71.085938 548.492188 L 70.859375 547.285156 L 69.730469 546.535156 L 68.828125 545.628906 L 68.675781 544.5 L 68.75 543.296875 L 68.828125 542.167969 L 68.828125 541.039062 L 68.074219 539.984375 L 66.871094 539.308594 L 66.417969 538.179688 L 66.492188 537.050781 L 66.34375 535.921875 L 65.214844 535.167969 L 51.515625 535.167969 L 50.386719 535.246094 Z M 49.257812 468.792969 "/>
<path style="fill-rule:nonzero;fill:rgb(100%,38.823529%,27.843137%);fill-opacity:1;stroke-width:0.75;stroke-linecap:round;stroke-linejoin:round;stroke:rgb(20%,20%,20%);stroke-opacity:1;stroke-miterlimit:10;" d="M 137.894531 468.792969 L 138.992188 468.792969 L 140.085938 469.339844 L 140.714844 470.4375 L 141.65625 471.144531 L 142.675781 472.085938 L 143.378906 473.183594 L 144.476562 473.808594 L 145.183594 474.90625 L 146.203125 475.769531 L 147.222656 476.628906 L 147.847656 477.648438 L 148.945312 478.277344 L 149.652344 479.296875 L 149.652344 481.492188 L 149.574219 482.589844 L 149.574219 483.605469 L 150.277344 484.625 L 151.375 485.175781 L 151.925781 486.273438 L 152.003906 487.371094 L 151.847656 489.566406 L 151.925781 490.582031 L 152.628906 491.523438 L 153.726562 492.152344 L 154.277344 493.25 L 154.277344 494.347656 L 154.199219 495.445312 L 154.121094 496.464844 L 154.199219 497.558594 L 155.058594 498.5 L 156.15625 499.128906 L 156.550781 500.226562 L 156.472656 501.324219 L 156.628906 502.421875 L 157.566406 503.125 L 158.585938 503.910156 L 158.824219 505.007812 L 158.824219 506.105469 L 158.742188 507.203125 L 158.742188 508.300781 L 158.980469 509.398438 L 160 510.101562 L 160.9375 510.886719 L 161.097656 511.984375 L 161.015625 513.082031 L 161.410156 514.179688 L 162.507812 514.726562 L 163.367188 515.746094 L 163.449219 516.765625 L 163.367188 517.863281 L 163.289062 518.960938 L 163.289062 520.058594 L 163.839844 521.15625 L 164.9375 521.703125 L 165.640625 522.644531 L 165.640625 524.839844 L 166.347656 525.859375 L 167.445312 526.40625 L 167.992188 527.503906 L 167.992188 528.601562 L 167.914062 529.621094 L 167.835938 530.71875 L 167.914062 531.816406 L 168.699219 532.757812 L 169.796875 533.382812 L 170.265625 534.480469 L 170.265625 535.5 L 170.1875 536.597656 L 170.1875 549.6875 L 170.265625 550.707031 L 170.265625 551.804688 L 170.03125 552.902344 L 168.933594 553.53125 L 167.835938 553.609375 L 166.738281 553.53125 L 165.640625 553.609375 L 164.625 553.609375 L 163.527344 552.902344 L 162.976562 551.804688 L 161.878906 551.097656 L 161.015625 550.082031 L 160.15625 549.140625 L 159.136719 548.433594 L 158.507812 547.335938 L 157.488281 546.632812 L 156.390625 546.710938 L 155.296875 546.710938 L 154.277344 545.847656 L 153.648438 544.75 L 152.628906 544.203125 L 151.847656 543.183594 L 151.375 542.476562 L 150.277344 541.851562 L 149.496094 540.832031 L 148.710938 539.890625 L 147.691406 539.8125 L 146.59375 539.890625 L 145.496094 539.417969 L 144.871094 538.324219 L 143.851562 537.539062 L 142.832031 536.675781 L 142.203125 535.578125 L 141.183594 535.1875 L 140.085938 535.1875 L 138.992188 535.265625 Z M 137.894531 468.792969 "/>
<path style="fill-rule:nonzero;fill:rgb(100%,38.823529%,27.843137%);fill-opacity:1;stroke-width:0.75;stroke-linecap:round;stroke-linejoin:round;stroke:rgb(20%,20%,20%);stroke-opacity:1;stroke-miterlimit:10;" d="M 224.039062 468.792969 L 226.433594 468.792969 L 227.40625 469.679688 L 228.203125 470.742188 L 229.355469 471.449219 L 229.621094 472.691406 L 229.535156 473.84375 L 229.445312 474.996094 L 229.535156 476.148438 L 230.597656 477.121094 L 231.574219 478.007812 L 232.371094 478.984375 L 233.433594 479.78125 L 234.230469 480.933594 L 235.382812 481.644531 L 235.738281 482.796875 L 235.738281 484.035156 L 236.269531 485.097656 L 237.421875 485.71875 L 237.863281 486.871094 L 237.777344 488.113281 L 238.308594 489.175781 L 239.460938 489.886719 L 240.167969 491.039062 L 241.410156 491.835938 L 242.121094 492.988281 L 243.269531 493.785156 L 244.070312 494.847656 L 245.222656 495.734375 L 246.109375 496.796875 L 247.082031 497.773438 L 248.144531 498.746094 L 249.03125 499.722656 L 250.09375 500.609375 L 250.894531 501.671875 L 252.132812 502.558594 L 252.3125 503.710938 L 252.222656 504.863281 L 253.019531 505.925781 L 254.171875 506.722656 L 254.882812 507.789062 L 256.035156 508.496094 L 256.476562 509.648438 L 256.386719 510.890625 L 256.921875 511.953125 L 258.070312 512.574219 L 258.515625 513.816406 L 258.515625 514.964844 L 258.425781 516.117188 L 258.425781 517.269531 L 259.3125 518.335938 L 260.375 519.132812 L 260.640625 520.285156 L 260.554688 521.4375 L 260.554688 523.828125 L 260.464844 524.980469 L 260.730469 526.132812 L 261.972656 526.929688 L 262.679688 527.996094 L 262.679688 529.148438 L 262.59375 530.386719 L 262.59375 550.328125 L 262.679688 551.480469 L 262.679688 552.722656 L 261.792969 553.609375 L 260.640625 553.164062 L 260.023438 552.011719 L 258.871094 551.214844 L 258.160156 550.0625 L 257.007812 549.265625 L 256.210938 548.203125 L 255.058594 547.316406 L 254.171875 546.253906 L 253.199219 545.367188 L 252.222656 544.300781 L 251.246094 543.328125 L 250.183594 542.441406 L 249.386719 541.378906 L 248.234375 540.492188 L 247.4375 539.339844 L 246.285156 538.628906 L 245.574219 537.476562 L 244.335938 536.679688 L 243.625 535.527344 L 242.5625 534.996094 L 241.5 535.085938 L 240.257812 534.730469 L 239.550781 533.578125 L 238.484375 532.78125 L 237.597656 531.628906 L 236.535156 530.832031 L 235.648438 529.765625 L 234.761719 528.882812 L 233.523438 528.882812 L 232.371094 528.792969 L 231.484375 527.730469 L 230.597656 526.753906 L 229.355469 526.753906 L 228.203125 526.664062 L 227.320312 525.601562 L 226.433594 524.714844 L 225.191406 524.628906 Z M 224.039062 468.792969 "/>
<path style="fill-rule:nonzero;fill:rgb(100%,38.823529%,27.843137%);fill-opacity:1;stroke-width:0.75;stroke-linecap:round;stroke-linejoin:round;stroke:rgb(20%,20%,20%);stroke-opacity:1;stroke-miterlimit:10;" d="M 307.140625 468.792969 L 308.546875 469.765625 L 309.84375 470.953125 L 310.273438 472.359375 L 311.679688 473.761719 L 312.109375 475.167969 L 313.515625 476.03125 L 314.378906 477.113281 L 315.351562 478.515625 L 316.867188 478.839844 L 318.160156 480.351562 L 319.675781 480.785156 L 320.972656 481.542969 L 322.589844 481.867188 L 323.996094 482.40625 L 330.261719 482.40625 L 331.667969 483.378906 L 333.289062 483.269531 L 334.585938 484.132812 L 336.097656 484.242188 L 337.394531 485.105469 L 339.015625 485.105469 L 340.527344 485.214844 L 341.933594 486.078125 L 343.335938 486.945312 L 344.847656 486.945312 L 346.253906 488.242188 L 347.441406 489.644531 L 348.738281 490.617188 L 350.144531 491.375 L 351.65625 492.671875 L 352.089844 494.183594 L 353.386719 495.15625 L 354.464844 496.019531 L 355.4375 497.425781 L 355.871094 498.828125 L 356.300781 500.339844 L 357.058594 501.746094 L 357.273438 503.257812 L 357.273438 517.628906 L 357.816406 518.925781 L 358.140625 520.546875 L 358.140625 552.3125 L 357.492188 553.609375 L 355.871094 553.609375 L 354.464844 552.636719 L 352.84375 552.527344 L 351.65625 551.230469 L 350.792969 549.828125 L 349.820312 548.421875 L 348.523438 547.234375 L 347.117188 545.828125 L 346.578125 544.425781 L 346.144531 542.910156 L 344.632812 542.480469 L 344.09375 540.859375 L 343.445312 539.5625 L 342.363281 538.265625 L 340.960938 536.96875 L 340.417969 535.347656 L 339.878906 534.050781 L 338.90625 532.753906 L 338.042969 531.351562 L 337.070312 530.054688 L 336.207031 528.648438 L 335.773438 527.136719 L 334.585938 526.378906 L 334.367188 524.757812 L 332.964844 523.464844 L 331.667969 522.273438 L 330.261719 521.734375 L 322.269531 521.734375 L 320.753906 521.625 L 319.351562 522.597656 L 317.945312 523.246094 L 316.433594 523.464844 L 315.351562 524.21875 L 314.488281 525.625 L 313.082031 526.273438 L 312.542969 527.570312 L 311.679688 528.972656 L 310.707031 530.378906 L 310.816406 531.890625 L 309.84375 533.1875 L 309.085938 534.59375 L 308.761719 536.105469 Z M 307.140625 468.792969 "/>
<path style="fill-rule:nonzero;fill:rgb(100%,38.823529%,27.843137%);fill-opacity:1;stroke-width:0.75;stroke-linecap:round;stroke-linejoin:round;stroke:rgb(20%,20%,20%);stroke-opacity:1;stroke-miterlimit:10;" d="M 397.957031 468.792969 L 398.523438 469.929688 L 400.117188 470.042969 L 401.371094 470.726562 L 402.851562 471.523438 L 404.101562 472.433594 L 404.214844 474.027344 L 404.785156 475.394531 L 404.898438 476.988281 L 406.039062 478.242188 L 408.65625 480.859375 L 410.136719 481.203125 L 411.503906 482 L 413.097656 482.226562 L 414.464844 482.679688 L 416.058594 482.679688 L 417.308594 483.476562 L 418.902344 483.363281 L 420.15625 484.160156 L 421.636719 484.160156 L 423 484.84375 L 424.480469 484.84375 L 425.960938 485.527344 L 427.328125 486.097656 L 428.578125 487.121094 L 429.945312 487.917969 L 431.539062 487.917969 L 432.792969 488.601562 L 434.160156 489.96875 L 435.410156 490.421875 L 436.890625 491.105469 L 438.144531 492.359375 L 439.507812 493.839844 L 440.761719 495.089844 L 442.242188 496.457031 L 442.925781 497.824219 L 442.925781 499.417969 L 443.722656 500.667969 L 444.175781 502.148438 L 444.40625 503.515625 L 444.40625 504.996094 L 445.203125 506.476562 L 445.203125 521.84375 L 445.886719 523.210938 L 445.886719 552.355469 L 445.203125 553.609375 L 443.835938 552.695312 L 442.46875 551.332031 L 441.21875 549.964844 L 440.535156 548.484375 L 439.851562 547.234375 L 439.167969 545.867188 L 438.371094 544.5 L 437.574219 543.246094 L 436.890625 541.769531 L 436.207031 540.515625 L 435.410156 539.035156 L 435.410156 537.554688 L 434.613281 536.1875 L 433.929688 534.9375 L 433.132812 533.570312 L 432.449219 532.203125 L 430.972656 530.953125 L 430.515625 529.699219 L 429.832031 528.21875 L 428.695312 526.855469 L 427.898438 525.488281 L 427.214844 524.121094 L 425.847656 522.753906 L 424.59375 521.503906 L 424.253906 520.363281 L 422.886719 520.023438 L 421.636719 519.226562 L 412.414062 519.226562 L 411.046875 520.023438 L 409.566406 520.136719 L 408.882812 521.617188 L 408.429688 522.871094 L 407.0625 524.234375 L 406.492188 525.601562 L 405.015625 526.96875 L 404.214844 528.21875 L 403.761719 529.699219 L 403.304688 531.066406 L 401.941406 531.976562 L 400.574219 532.203125 L 399.09375 533.570312 Z M 397.957031 468.792969 "/>
<path style="fill-rule:nonzero;fill:rgb(100%,38.823529%,27.843137%);fill-opacity:1;stroke-width:0.75;stroke-linecap:round;stroke-linejoin:round;stroke:rgb(20%,20%,20%);stroke-opacity:1;stroke-miterlimit:10;" d="M 493.316406 468.792969 L 493.769531 469.925781 L 494.339844 471.175781 L 494.90625 472.3125 L 494.90625 473.789062 L 495.703125 474.921875 L 496.042969 476.171875 L 496.382812 477.535156 L 497.0625 478.671875 L 497.746094 480.03125 L 498.3125 481.28125 L 499.5625 482.417969 L 500.582031 483.097656 L 501.378906 483.78125 L 502.742188 484.574219 L 503.875 485.253906 L 505.351562 485.253906 L 506.488281 485.9375 L 507.851562 485.9375 L 509.214844 486.617188 L 510.574219 486.617188 L 511.824219 487.300781 L 512.960938 488.09375 L 514.4375 488.320312 L 515.683594 488.890625 L 516.933594 489.457031 L 518.183594 490.820312 L 519.316406 491.273438 L 520.679688 491.839844 L 521.703125 492.863281 L 522.953125 493.542969 L 524.085938 494.453125 L 524.996094 495.589844 L 526.359375 496.15625 L 526.925781 497.292969 L 527.492188 498.539062 L 528.402344 499.675781 L 528.402344 502.515625 L 529.082031 503.761719 L 529.082031 551.679688 L 528.628906 552.925781 L 527.492188 553.609375 L 526.246094 552.699219 L 525.789062 551.449219 L 525.5625 550.089844 L 524.65625 548.839844 L 524.085938 547.589844 L 523.40625 546.339844 L 522.722656 545.207031 L 522.042969 543.957031 L 521.363281 542.820312 L 521.363281 541.460938 L 520.679688 540.097656 L 520.226562 538.960938 L 519.660156 537.597656 L 519.203125 536.347656 L 518.070312 535.441406 L 517.386719 534.761719 L 517.160156 533.398438 L 516.480469 532.148438 L 515.796875 530.898438 L 515.683594 529.421875 L 515.117188 528.175781 L 513.980469 527.152344 L 513.414062 525.789062 L 512.960938 524.542969 L 511.710938 523.519531 L 511.257812 522.269531 L 510.007812 521.589844 L 508.757812 521.136719 L 507.511719 520.679688 L 506.261719 520.226562 L 500.699219 520.226562 L 499.335938 520.90625 L 498.085938 521.589844 L 496.835938 522.839844 L 496.269531 524.085938 L 495.589844 525.335938 L 495.019531 526.585938 L 494.90625 527.949219 L 494.453125 529.308594 L 494.226562 530.558594 L 494.226562 532.035156 Z M 493.316406 468.792969 "/>
</g>
</svg>
