<?xml version="1.0" encoding="UTF-8"?>
<svg xmlns="http://www.w3.org/2000/svg" xmlns:xlink="http://www.w3.org/1999/xlink" width="576pt" height="576pt" viewBox="0 0 576 576" version="1.1">
<g id="surface16026">
<rect x="0" y="0" width="576" height="576" style="fill:rgb(100%,100%,100%);fill-opacity:1;stroke:none;"/>
<path style="fill-rule:nonzero;fill:rgb(0%,44.705882%,69.803922%);fill-opacity:1;stroke-width:0.75;stroke-linecap:round;stroke-linejoin:round;stroke:rgb(20%,20%,20%);stroke-opacity:1;stroke-miterlimit:10;" d="M 47.117188 22.160156 L 48 22.074219 L 49.765625 22.074219 L 50.648438 22.160156 L 51.445312 22.957031 L 51.621094 23.839844 L 51.710938 24.722656 L 52.417969 25.339844 L 52.945312 26.136719 L 53.386719 26.84375 L 53.5625 27.726562 L 54.269531 28.433594 L 54.359375 29.316406 L 54.976562 30.023438 L 55.242188 30.816406 L 55.597656 31.613281 L 56.125 32.320312 L 56.832031 33.027344 L 56.921875 33.910156 L 57.628906 34.617188 L 57.804688 35.5 L 58.335938 36.207031 L 58.6875 36.914062 L 59.484375 37.707031 L 59.660156 38.589844 L 60.367188 39.296875 L 60.453125 40.183594 L 60.984375 40.886719 L 61.425781 41.683594 L 61.691406 42.566406 L 61.691406 43.449219 L 62.308594 44.15625 L 62.664062 44.953125 L 63.371094 45.660156 L 64.164062 46.363281 L 65.578125 47.777344 L 65.667969 48.660156 L 66.371094 49.367188 L 67.078125 50.074219 L 67.699219 50.78125 L 67.875 51.578125 L 68.757812 51.664062 L 69.023438 52.546875 L 69.640625 53.167969 L 69.730469 54.050781 L 69.730469 93.007812 L 69.640625 93.890625 L 68.933594 94.597656 L 68.050781 94.773438 L 65.402344 94.773438 L 64.695312 94.152344 L 63.988281 93.449219 L 62.574219 92.035156 L 61.691406 91.859375 L 60.894531 91.0625 L 60.808594 90.179688 L 59.925781 90.089844 L 59.128906 89.296875 L 58.335938 88.5 L 57.539062 87.707031 L 56.832031 86.910156 L 55.242188 85.320312 L 54.449219 84.613281 L 54.007812 84.085938 L 53.300781 83.378906 L 48 83.378906 Z M 47.117188 22.160156 "/>
<path style="fill-rule:nonzero;fill:rgb(0%,44.705882%,69.803922%);fill-opacity:1;stroke-width:0.75;stroke-linecap:round;stroke-linejoin:round;stroke:rgb(20%,20%,20%);stroke-opacity:1;stroke-miterlimit:10;" d="M 125.792969 22.179688 L 126.65625 22.074219 L 128.378906 22.074219 L 129.132812 22.613281 L 129.886719 23.257812 L 130.425781 23.902344 L 131.285156 23.902344 L 131.933594 24.550781 L 131.933594 25.410156 L 132.6875 26.058594 L 133.332031 26.8125 L 133.980469 27.566406 L 134.734375 28.210938 L 135.488281 28.859375 L 135.59375 29.71875 L 136.027344 30.472656 L 136.5625 31.121094 L 136.5625 31.980469 L 137.210938 32.304688 L 138.070312 32.414062 L 138.503906 33.167969 L 138.394531 34.027344 L 138.503906 34.890625 L 139.363281 35.535156 L 140.011719 36.183594 L 140.65625 36.9375 L 141.195312 37.691406 L 141.304688 38.550781 L 142.058594 39.089844 L 142.164062 39.84375 L 142.164062 40.707031 L 142.378906 41.566406 L 143.132812 42.214844 L 143.132812 44.796875 L 143.027344 45.660156 L 143.671875 46.304688 L 143.996094 47.167969 L 143.996094 93.15625 L 144.101562 94.019531 L 143.566406 94.773438 L 142.917969 94.125 L 142.058594 93.910156 L 141.195312 93.480469 L 140.550781 92.832031 L 140.226562 91.972656 L 139.902344 91.109375 L 139.257812 90.570312 L 138.503906 89.925781 L 137.855469 89.171875 L 137.210938 88.417969 L 136.457031 87.773438 L 135.703125 87.125 L 135.054688 86.371094 L 134.195312 86.371094 L 133.546875 85.617188 L 132.792969 84.972656 L 132.039062 84.539062 L 131.179688 84.433594 L 130.53125 83.679688 L 129.777344 83.570312 L 128.917969 83.679688 L 128.164062 83.140625 L 127.515625 82.816406 L 126.65625 82.710938 Z M 125.792969 22.179688 "/>
<path style="fill-rule:nonzero;fill:rgb(0%,44.705882%,69.803922%);fill-opacity:1;stroke-width:0.75;stroke-linecap:round;stroke-linejoin:round;stroke:rgb(20%,20%,20%);stroke-opacity:1;stroke-miterlimit:10;" d="M 196.636719 22.171875 L 197.527344 22.074219 L 198.320312 22.566406 L 199.011719 23.261719 L 199.507812 24.050781 L 199.507812 24.941406 L 200.199219 25.535156 L 200.59375 26.425781 L 200.691406 27.414062 L 201.582031 28.007812 L 201.683594 28.898438 L 201.980469 29.789062 L 202.769531 30.480469 L 203.5625 31.171875 L 204.253906 32.0625 L 205.046875 32.65625 L 205.046875 34.4375 L 205.242188 35.328125 L 206.132812 35.921875 L 206.132812 36.8125 L 206.527344 37.699219 L 207.320312 38.292969 L 208.109375 38.988281 L 208.40625 39.878906 L 208.507812 40.765625 L 209.296875 41.0625 L 210.1875 41.164062 L 210.683594 41.953125 L 210.683594 42.84375 L 211.375 43.4375 L 212.066406 44.328125 L 212.859375 45.019531 L 213.648438 45.710938 L 214.34375 46.601562 L 215.132812 47.296875 L 215.035156 48.1875 L 215.628906 48.878906 L 216.417969 49.769531 L 217.210938 50.363281 L 217.804688 51.152344 L 218.496094 51.84375 L 218.398438 52.734375 L 219.089844 53.429688 L 219.585938 54.21875 L 219.585938 56 L 220.078125 56.691406 L 220.773438 57.484375 L 221.660156 58.175781 L 222.355469 58.96875 L 222.949219 59.757812 L 222.949219 60.648438 L 223.738281 61.339844 L 224.035156 62.230469 L 224.035156 64.011719 L 224.726562 64.605469 L 225.222656 65.496094 L 225.222656 66.386719 L 226.015625 66.980469 L 226.3125 67.867188 L 226.3125 89.429688 L 225.816406 90.222656 L 225.125 90.914062 L 224.332031 91.507812 L 223.738281 92.398438 L 222.847656 92.597656 L 215.628906 92.597656 L 214.738281 92.496094 L 213.945312 93.089844 L 213.253906 93.683594 L 210.585938 93.683594 L 209.695312 93.882812 L 209.101562 94.671875 L 208.308594 94.773438 L 197.527344 94.773438 Z M 196.636719 22.171875 "/>
<path style="fill-rule:nonzero;fill:rgb(0%,44.705882%,69.803922%);fill-opacity:1;stroke-width:0.75;stroke-linecap:round;stroke-linejoin:round;stroke:rgb(20%,20%,20%);stroke-opacity:1;stroke-miterlimit:10;" d="M 269.464844 22.175781 L 270.492188 22.074219 L 271.515625 22.074219 L 272.332031 22.6875 L 273.253906 23.507812 L 274.175781 24.019531 L 275.199219 24.324219 L 275.304688 25.351562 L 275.917969 26.167969 L 276.738281 27.089844 L 277.554688 27.910156 L 278.476562 28.730469 L 278.476562 29.753906 L 279.296875 30.46875 L 280.011719 31.289062 L 280.730469 32.109375 L 281.652344 33.027344 L 282.574219 33.746094 L 282.574219 34.769531 L 283.289062 35.589844 L 284.007812 36.410156 L 284.722656 37.226562 L 284.722656 38.25 L 285.644531 39.070312 L 286.566406 39.789062 L 286.769531 40.914062 L 287.285156 41.628906 L 288.308594 41.628906 L 288.820312 42.550781 L 289.023438 43.574219 L 289.84375 44.292969 L 289.84375 45.316406 L 290.765625 46.136719 L 290.867188 47.160156 L 291.582031 47.980469 L 292.402344 48.898438 L 293.324219 49.925781 L 294.042969 50.742188 L 294.144531 51.765625 L 294.960938 52.484375 L 295.882812 53.304688 L 296.089844 54.328125 L 296.601562 55.144531 L 297.316406 56.066406 L 298.136719 56.785156 L 298.238281 57.910156 L 299.058594 58.628906 L 299.878906 59.445312 L 300.289062 60.367188 L 300.59375 61.289062 L 301.3125 62.109375 L 301.3125 63.132812 L 302.335938 63.953125 L 303.152344 64.769531 L 303.359375 65.796875 L 303.972656 66.613281 L 304.382812 67.742188 L 304.792969 68.664062 L 305.507812 69.480469 L 305.507812 70.503906 L 306.429688 71.222656 L 306.535156 72.246094 L 306.535156 84.636719 L 306.429688 85.660156 L 306.535156 86.683594 L 306.535156 88.832031 L 305.714844 89.652344 L 305.40625 90.574219 L 305.507812 91.597656 L 304.996094 92.621094 L 304.179688 93.441406 L 303.152344 93.644531 L 302.234375 94.261719 L 301.207031 94.773438 L 298.136719 94.773438 L 297.113281 94.363281 L 296.394531 93.644531 L 295.371094 93.644531 L 294.960938 92.621094 L 294.65625 91.699219 L 293.632812 91.597656 L 292.914062 90.882812 L 292.8125 89.753906 L 291.890625 89.039062 L 290.96875 88.21875 L 290.148438 87.398438 L 289.433594 86.480469 L 288.410156 86.375 L 287.488281 86.375 L 286.464844 86.480469 L 285.644531 85.863281 L 284.621094 85.351562 L 283.597656 85.351562 L 282.574219 85.046875 L 281.855469 84.328125 L 270.492188 84.328125 Z M 269.464844 22.175781 "/>
<path style="fill-rule:nonzero;fill:rgb(0%,44.705882%,69.803922%);fill-opacity:1;stroke-width:0.75;stroke-linecap:round;stroke-linejoin:round;stroke:rgb(20%,20%,20%);stroke-opacity:1;stroke-miterlimit:10;" d="M 345.308594 22.175781 L 346.351562 22.074219 L 349.578125 22.074219 L 350.308594 22.699219 L 350.515625 23.636719 L 351.664062 23.738281 L 352.496094 24.574219 L 353.328125 25.40625 L 353.433594 26.550781 L 354.371094 26.761719 L 355.308594 27.28125 L 355.308594 28.425781 L 355.414062 29.46875 L 356.246094 30.195312 L 356.351562 31.34375 L 357.183594 31.863281 L 358.328125 32.175781 L 358.328125 35.40625 L 359.265625 35.925781 L 360.308594 36.238281 L 361.246094 37.175781 L 361.453125 38.21875 L 361.347656 39.363281 L 362.183594 40.089844 L 362.390625 41.132812 L 362.390625 42.277344 L 363.015625 43.007812 L 364.058594 43.007812 L 364.472656 44.152344 L 364.371094 45.195312 L 364.996094 46.027344 L 365.410156 47.070312 L 365.828125 48.007812 L 366.972656 48.007812 L 367.492188 48.945312 L 367.492188 51.132812 L 367.804688 52.070312 L 368.847656 52.070312 L 369.472656 53.007812 L 369.785156 54.046875 L 370.515625 54.984375 L 370.515625 56.027344 L 370.722656 57.070312 L 371.554688 57.902344 L 371.554688 58.945312 L 371.660156 59.984375 L 372.804688 60.195312 L 373.535156 60.921875 L 373.640625 61.964844 L 374.578125 62.902344 L 374.578125 63.941406 L 375.617188 64.777344 L 375.617188 65.816406 L 376.453125 66.234375 L 377.597656 66.652344 L 377.597656 67.691406 L 378.324219 68.421875 L 379.261719 69.359375 L 380.097656 70.296875 L 380.722656 71.234375 L 380.617188 72.378906 L 381.035156 73.316406 L 381.660156 74.253906 L 381.867188 75.296875 L 382.699219 76.023438 L 383.636719 76.859375 L 383.636719 88.730469 L 383.742188 89.773438 L 383.117188 90.710938 L 382.699219 91.648438 L 382.285156 92.691406 L 381.136719 92.691406 L 380.410156 93.523438 L 379.574219 94.355469 L 378.429688 94.773438 L 374.160156 94.773438 L 373.328125 93.9375 L 372.179688 93.730469 L 350.726562 93.730469 L 349.578125 93.625 L 346.351562 93.625 Z M 345.308594 22.175781 "/>
<path style="fill-rule:nonzero;fill:rgb(0%,44.705882%,69.803922%);fill-opacity:1;stroke-width:0.75;stroke-linecap:round;stroke-linejoin:round;stroke:rgb(20%,20%,20%);stroke-opacity:1;stroke-miterlimit:10;" d="M 418.960938 22.199219 L 420.105469 22.074219 L 424.691406 22.074219 L 425.835938 22.199219 L 426.855469 23.089844 L 427.621094 24.109375 L 428.636719 25 L 429.65625 25.894531 L 429.910156 27.039062 L 430.292969 28.058594 L 431.183594 28.949219 L 432.328125 29.839844 L 432.585938 30.984375 L 432.964844 32.132812 L 434.113281 32.132812 L 435.132812 32.769531 L 436.023438 33.53125 L 436.53125 34.679688 L 436.660156 35.824219 L 437.675781 36.585938 L 437.804688 37.605469 L 438.1875 38.625 L 439.207031 39.515625 L 439.207031 40.660156 L 439.96875 41.554688 L 440.859375 42.699219 L 442.898438 44.480469 L 443.789062 45.5 L 444.550781 46.390625 L 444.550781 47.535156 L 445.570312 48.429688 L 446.460938 49.445312 L 447.355469 50.464844 L 448.371094 51.355469 L 449.261719 52.121094 L 449.898438 53.265625 L 449.898438 54.414062 L 451.046875 55.175781 L 451.171875 56.320312 L 451.554688 57.339844 L 452.699219 57.339844 L 453.71875 57.976562 L 453.847656 59.125 L 453.71875 60.269531 L 454.230469 61.289062 L 455.375 61.414062 L 456.394531 61.925781 L 456.394531 63.070312 L 457.03125 64.089844 L 457.792969 64.851562 L 457.792969 67.144531 L 458.429688 68.035156 L 459.195312 69.054688 L 459.195312 70.199219 L 460.214844 70.964844 L 460.46875 72.109375 L 460.46875 73.253906 L 460.59375 74.402344 L 461.742188 75.164062 L 461.867188 76.3125 L 461.742188 77.457031 L 461.742188 83.058594 L 462.378906 83.949219 L 463.140625 84.96875 L 463.140625 94.136719 L 462.121094 94.773438 L 453.082031 94.773438 L 452.191406 93.753906 L 451.046875 92.863281 L 450.28125 92.097656 L 431.058594 92.097656 L 430.039062 92.480469 L 429.148438 93.5 L 420.105469 93.5 Z M 418.960938 22.199219 "/>
<path style="fill-rule:nonzero;fill:rgb(0%,44.705882%,69.803922%);fill-opacity:1;stroke-width:0.75;stroke-linecap:round;stroke-linejoin:round;stroke:rgb(20%,20%,20%);stroke-opacity:1;stroke-miterlimit:10;" d="M 505.222656 22.261719 L 506.074219 22.074219 L 507.023438 22.355469 L 507.589844 23.210938 L 508.441406 23.777344 L 509.011719 24.535156 L 509.863281 25.292969 L 510.523438 25.953125 L 511.09375 26.710938 L 511.09375 27.5625 L 511.660156 28.414062 L 512.324219 29.078125 L 512.324219 29.929688 L 512.703125 30.78125 L 513.554688 31.351562 L 513.742188 33.054688 L 514.59375 33.621094 L 514.878906 34.472656 L 514.878906 35.324219 L 515.542969 35.988281 L 516.109375 36.746094 L 516.109375 37.597656 L 516.582031 38.355469 L 517.339844 39.113281 L 518.097656 39.679688 L 518.664062 40.53125 L 518.570312 41.382812 L 519.234375 42.140625 L 519.894531 42.898438 L 520.652344 43.5625 L 521.316406 44.414062 L 522.167969 44.980469 L 522.734375 45.832031 L 523.589844 46.402344 L 523.589844 47.347656 L 523.777344 48.199219 L 524.628906 48.671875 L 525.199219 49.523438 L 526.050781 50.1875 L 526.144531 51.039062 L 526.050781 51.890625 L 526.144531 52.835938 L 526.804688 53.5 L 527.375 54.164062 L 527.375 55.015625 L 527.847656 55.867188 L 528.605469 56.53125 L 528.605469 63.535156 L 528.792969 64.386719 L 529.644531 64.953125 L 529.929688 65.804688 L 529.835938 66.660156 L 529.835938 91.269531 L 529.929688 92.121094 L 529.835938 92.972656 L 528.984375 93.636719 L 528.414062 94.394531 L 527.660156 94.773438 L 523.210938 94.773438 L 522.359375 94.300781 L 521.789062 93.542969 L 520.9375 93.542969 L 519.992188 93.257812 L 519.519531 92.40625 L 518.855469 92.121094 L 518.285156 91.175781 L 517.433594 90.984375 L 516.582031 90.984375 L 516.015625 90.230469 L 515.164062 89.753906 L 514.3125 89.753906 L 513.554688 89.1875 L 512.796875 88.429688 L 512.230469 87.671875 L 511.375 87.199219 L 510.523438 87.292969 L 506.074219 87.292969 Z M 505.222656 22.261719 "/>
<path style="fill-rule:nonzero;fill:rgb(0%,44.705882%,69.803922%);fill-opacity:1;stroke-width:0.75;stroke-linecap:round;stroke-linejoin:round;stroke:rgb(20%,20%,20%);stroke-opacity:1;stroke-miterlimit:10;" d="M 48.226562 98.714844 L 49.03125 98.597656 L 50.761719 98.597656 L 51.453125 99.175781 L 51.453125 99.980469 L 51.683594 100.902344 L 52.488281 101.132812 L 53.410156 101.132812 L 54.21875 101.019531 L 55.140625 101.363281 L 55.601562 102.171875 L 56.40625 102.632812 L 56.984375 103.554688 L 57.789062 104.015625 L 58.367188 104.9375 L 59.171875 105.394531 L 59.402344 106.316406 L 59.402344 107.125 L 60.09375 107.699219 L 60.667969 108.507812 L 60.667969 111.15625 L 61.359375 111.734375 L 61.9375 112.308594 L 62.050781 113.230469 L 62.050781 114.960938 L 61.9375 115.765625 L 62.167969 116.6875 L 62.972656 117.148438 L 63.320312 118.070312 L 63.320312 124.0625 L 63.78125 124.753906 L 64.585938 125.445312 L 64.703125 126.25 L 64.585938 127.171875 L 64.585938 130.628906 L 65.046875 131.433594 L 65.855469 131.894531 L 65.96875 132.816406 L 65.96875 137.078125 L 66.316406 138 L 67.121094 138.460938 L 67.351562 139.382812 L 67.238281 140.191406 L 67.238281 145.375 L 68.621094 146.757812 L 68.621094 169.109375 L 68.042969 169.800781 L 66.660156 171.183594 L 65.855469 171.296875 L 64.933594 171.183594 L 64.125 171.183594 L 63.203125 171.296875 L 62.398438 171.183594 L 61.820312 170.261719 L 61.015625 169.914062 L 60.09375 169.914062 L 59.402344 169.453125 L 58.710938 168.648438 L 57.90625 167.957031 L 57.328125 167.265625 L 56.40625 167.265625 L 55.601562 167.035156 L 55.023438 166.113281 L 54.21875 165.882812 L 53.296875 166 L 52.488281 166 L 51.566406 165.652344 L 51.105469 164.847656 L 50.300781 164.617188 L 49.492188 164.617188 L 48.6875 164.039062 Z M 48.226562 98.714844 "/>
<path style="fill-rule:nonzero;fill:rgb(0%,44.705882%,69.803922%);fill-opacity:1;stroke-width:0.75;stroke-linecap:round;stroke-linejoin:round;stroke:rgb(20%,20%,20%);stroke-opacity:1;stroke-miterlimit:10;" d="M 119.164062 98.71875 L 120.25 98.597656 L 128.71875 98.597656 L 129.6875 98.71875 L 130.414062 99.6875 L 131.5 99.808594 L 132.46875 100.171875 L 133.195312 101.019531 L 134.042969 102.105469 L 135.007812 102.953125 L 135.855469 103.558594 L 136.21875 104.648438 L 136.21875 105.734375 L 136.339844 106.824219 L 137.308594 107.429688 L 137.429688 108.519531 L 137.429688 110.574219 L 137.550781 111.664062 L 138.515625 112.390625 L 138.636719 113.476562 L 138.636719 115.535156 L 138.878906 116.621094 L 139.726562 117.226562 L 139.847656 118.316406 L 139.847656 119.40625 L 140.332031 120.371094 L 141.058594 121.097656 L 141.058594 123.277344 L 141.78125 124.121094 L 142.265625 124.96875 L 142.265625 128.113281 L 142.992188 128.960938 L 143.476562 129.929688 L 143.476562 133.074219 L 144.324219 133.800781 L 144.6875 134.886719 L 144.6875 135.855469 L 144.808594 136.945312 L 145.773438 137.671875 L 145.894531 138.636719 L 145.894531 140.816406 L 146.015625 141.902344 L 146.984375 142.507812 L 147.105469 143.597656 L 147.105469 145.652344 L 147.226562 146.742188 L 148.195312 147.46875 L 148.316406 148.558594 L 148.316406 150.613281 L 148.558594 151.703125 L 149.523438 152.429688 L 149.523438 160.773438 L 150.25 161.621094 L 150.734375 162.589844 L 150.734375 169.96875 L 150.492188 171.054688 L 149.523438 171.296875 L 144.203125 171.296875 L 143.355469 170.574219 L 142.507812 169.847656 L 141.660156 168.878906 L 140.574219 168.878906 L 138.878906 167.425781 L 138.03125 166.460938 L 137.1875 165.492188 L 136.097656 164.644531 L 135.976562 164.28125 L 135.007812 163.554688 L 134.164062 162.832031 L 133.195312 162.832031 L 132.347656 161.984375 L 131.378906 161.136719 L 130.535156 160.289062 L 129.808594 159.324219 L 127.871094 157.628906 L 127.144531 156.78125 L 126.300781 155.9375 L 125.332031 155.574219 L 124.242188 155.332031 L 123.636719 154.484375 L 122.671875 153.515625 L 121.703125 152.667969 L 120.855469 151.824219 L 120.25 150.976562 Z M 119.164062 98.71875 "/>
<path style="fill-rule:nonzero;fill:rgb(0%,44.705882%,69.803922%);fill-opacity:1;stroke-width:0.75;stroke-linecap:round;stroke-linejoin:round;stroke:rgb(20%,20%,20%);stroke-opacity:1;stroke-miterlimit:10;" d="M 194.621094 98.714844 L 195.65625 98.597656 L 196.460938 99.175781 L 196.460938 100.210938 L 197.152344 100.898438 L 197.613281 101.933594 L 197.726562 102.855469 L 198.648438 103.546875 L 198.761719 104.464844 L 199.222656 105.386719 L 199.914062 106.074219 L 199.914062 107.109375 L 200.71875 107.800781 L 201.0625 108.722656 L 201.179688 109.757812 L 202.097656 110.332031 L 202.789062 111.136719 L 203.363281 111.941406 L 203.363281 112.976562 L 204.167969 113.554688 L 204.976562 114.472656 L 205.664062 115.277344 L 206.585938 116.082031 L 207.390625 116.890625 L 208.195312 117.808594 L 209 118.613281 L 209.921875 119.304688 L 210.613281 120.109375 L 211.53125 120.109375 L 212.335938 120.800781 L 213.140625 121.375 L 213.832031 122.296875 L 214.636719 122.984375 L 214.636719 124.019531 L 215.210938 124.710938 L 216.019531 125.632812 L 216.824219 126.320312 L 217.742188 127.125 L 218.546875 128.046875 L 219.238281 128.851562 L 220.160156 129.65625 L 220.964844 130.460938 L 221.769531 131.382812 L 222.574219 132.074219 L 223.496094 132.878906 L 223.726562 133.796875 L 223.957031 134.71875 L 224.761719 135.410156 L 224.875 136.445312 L 225.566406 137.25 L 226.027344 138.167969 L 226.027344 140.125 L 226.945312 140.929688 L 227.0625 141.851562 L 227.519531 142.769531 L 228.210938 143.460938 L 228.210938 162.210938 L 228.328125 163.132812 L 228.097656 164.167969 L 227.175781 164.855469 L 227.0625 165.890625 L 227.0625 166.8125 L 227.175781 167.847656 L 226.945312 168.769531 L 226.027344 169.457031 L 225.335938 170.148438 L 224.644531 171.066406 L 223.609375 171.296875 L 222.691406 171.296875 L 221.65625 171.183594 L 221.078125 170.261719 L 220.160156 169.574219 L 219.46875 168.882812 L 218.777344 167.960938 L 217.859375 167.960938 L 216.9375 167.503906 L 216.25 166.8125 L 215.441406 165.777344 L 214.867188 165.433594 L 214.175781 164.625 L 213.257812 163.707031 L 212.453125 163.015625 L 211.648438 162.210938 L 210.726562 162.210938 L 209.921875 161.40625 L 209 160.714844 L 208.195312 159.910156 L 207.277344 160.023438 L 206.46875 159.105469 L 205.550781 158.875 L 204.515625 158.53125 L 203.710938 157.726562 L 202.789062 157.726562 L 201.984375 156.917969 L 201.179688 156.574219 L 200.144531 156.460938 L 199.570312 155.539062 L 198.535156 155.425781 L 195.65625 155.425781 Z M 194.621094 98.714844 "/>
<path style="fill-rule:nonzero;fill:rgb(0%,44.705882%,69.803922%);fill-opacity:1;stroke-width:0.75;stroke-linecap:round;stroke-linejoin:round;stroke:rgb(20%,20%,20%);stroke-opacity:1;stroke-miterlimit:10;" d="M 272.039062 98.859375 L 272.953125 98.597656 L 273.996094 98.859375 L 274.515625 99.769531 L 275.558594 100.421875 L 275.6875 101.335938 L 275.816406 102.378906 L 276.730469 102.898438 L 276.992188 103.941406 L 277.121094 104.851562 L 278.03125 105.632812 L 278.425781 106.546875 L 278.425781 107.457031 L 279.207031 108.238281 L 279.855469 109.023438 L 280.898438 109.804688 L 281.550781 110.714844 L 282.460938 111.496094 L 282.332031 112.410156 L 282.855469 113.320312 L 283.636719 113.972656 L 283.765625 114.882812 L 284.027344 115.925781 L 284.9375 116.578125 L 285.71875 117.492188 L 286.5 118.273438 L 287.414062 119.054688 L 288.066406 119.964844 L 289.109375 120.746094 L 289.109375 121.660156 L 289.238281 122.570312 L 290.28125 123.222656 L 290.929688 124.136719 L 291.84375 124.917969 L 291.714844 125.828125 L 292.234375 126.742188 L 293.015625 127.390625 L 293.796875 128.171875 L 294.449219 128.957031 L 294.449219 130.910156 L 294.578125 131.820312 L 295.492188 132.472656 L 296.144531 133.386719 L 297.054688 134.167969 L 297.835938 134.949219 L 298.488281 135.859375 L 298.488281 136.773438 L 299.140625 137.554688 L 299.789062 138.335938 L 300.703125 138.988281 L 301.222656 139.898438 L 301.222656 140.8125 L 301.09375 141.855469 L 301.484375 142.765625 L 302.527344 143.546875 L 302.527344 144.460938 L 302.789062 145.5 L 303.699219 146.023438 L 303.960938 147.066406 L 303.828125 147.976562 L 303.828125 169.34375 L 302.917969 169.996094 L 302.136719 171.039062 L 301.222656 171.296875 L 298.226562 171.296875 L 297.316406 170.90625 L 296.535156 169.996094 L 295.621094 169.863281 L 294.710938 169.734375 L 294.058594 168.691406 L 293.144531 168.5625 L 292.105469 168.433594 L 291.453125 167.519531 L 290.539062 167.257812 L 289.628906 167.257812 L 288.847656 166.21875 L 287.933594 165.566406 L 287.285156 164.652344 L 286.371094 163.871094 L 285.589844 163.089844 L 284.808594 162.179688 L 283.894531 161.527344 L 283.113281 160.484375 L 282.203125 160.484375 L 281.160156 160.222656 L 280.640625 159.3125 L 279.726562 158.660156 L 279.335938 158.140625 L 278.683594 157.75 L 277.640625 157.878906 L 276.078125 156.316406 L 275.425781 155.535156 L 274.515625 155.144531 L 273.601562 155.144531 L 272.820312 154.230469 Z M 272.039062 98.859375 "/>
<path style="fill-rule:nonzero;fill:rgb(0%,44.705882%,69.803922%);fill-opacity:1;stroke-width:0.75;stroke-linecap:round;stroke-linejoin:round;stroke:rgb(20%,20%,20%);stroke-opacity:1;stroke-miterlimit:10;" d="M 347.3125 98.710938 L 348.332031 98.597656 L 359.089844 98.597656 L 360.109375 98.824219 L 360.902344 99.730469 L 361.128906 100.75 L 361.695312 101.65625 L 361.695312 102.675781 L 362.375 103.695312 L 362.375 104.714844 L 363.167969 105.621094 L 363.167969 106.753906 L 363.734375 107.65625 L 363.847656 108.789062 L 364.1875 109.695312 L 364.640625 110.714844 L 365.320312 111.507812 L 365.429688 112.527344 L 366.109375 113.433594 L 366.109375 114.453125 L 366.335938 115.585938 L 366.902344 116.492188 L 366.789062 117.621094 L 367.128906 118.527344 L 367.582031 119.546875 L 367.582031 120.566406 L 368.375 121.359375 L 368.261719 122.492188 L 369.054688 123.285156 L 369.167969 124.417969 L 369.847656 125.210938 L 369.847656 126.34375 L 370.527344 127.136719 L 370.867188 128.152344 L 371.320312 129.171875 L 371.320312 130.191406 L 372.339844 131.210938 L 372.792969 132.117188 L 373.472656 133.023438 L 373.585938 134.042969 L 374.265625 134.949219 L 374.832031 135.742188 L 375.058594 136.875 L 375.738281 137.667969 L 376.074219 138.570312 L 377.09375 139.476562 L 377.207031 140.496094 L 378 141.402344 L 378.339844 142.308594 L 378.679688 143.441406 L 379.472656 144.234375 L 379.472656 145.367188 L 380.039062 146.160156 L 380.152344 147.179688 L 380.152344 148.3125 L 380.832031 149.214844 L 381.058594 150.347656 L 381.738281 151.140625 L 381.625 152.273438 L 381.625 162.917969 L 381.738281 163.9375 L 380.945312 164.957031 L 380.945312 165.976562 L 380.378906 166.882812 L 379.472656 167.789062 L 378.566406 168.808594 L 377.660156 169.714844 L 376.753906 170.503906 L 375.851562 170.730469 L 374.945312 171.296875 L 372.792969 171.296875 L 371.886719 170.730469 L 370.867188 170.503906 L 369.847656 169.601562 L 368.941406 168.695312 L 368.035156 167.675781 L 367.242188 166.882812 L 366.222656 166.769531 L 365.320312 165.863281 L 364.640625 165.070312 L 363.621094 164.617188 L 362.714844 163.824219 L 361.808594 163.257812 L 361.582031 162.351562 L 361.015625 161.558594 L 360.109375 160.652344 L 359.996094 159.632812 L 358.976562 159.40625 L 358.636719 158.503906 L 357.050781 156.691406 L 356.371094 155.671875 L 355.804688 154.992188 L 354.902344 154.539062 L 353.089844 152.726562 L 351.957031 152.5 L 351.277344 151.707031 L 350.257812 151.253906 L 349.238281 151.253906 L 348.332031 150.574219 Z M 347.3125 98.710938 "/>
<path style="fill-rule:nonzero;fill:rgb(0%,44.705882%,69.803922%);fill-opacity:1;stroke-width:0.75;stroke-linecap:round;stroke-linejoin:round;stroke:rgb(20%,20%,20%);stroke-opacity:1;stroke-miterlimit:10;" d="M 426.117188 98.699219 L 427.027344 98.597656 L 428.039062 98.597656 L 428.953125 99.003906 L 428.953125 99.914062 L 429.761719 100.726562 L 429.761719 101.636719 L 430.570312 102.34375 L 430.671875 103.359375 L 431.484375 104.066406 L 431.484375 104.976562 L 431.585938 105.992188 L 432.292969 106.699219 L 432.394531 107.609375 L 433.203125 108.421875 L 433.203125 109.332031 L 434.015625 110.039062 L 434.015625 111.054688 L 434.117188 111.964844 L 434.824219 112.671875 L 435.027344 113.683594 L 435.734375 114.394531 L 435.734375 115.304688 L 435.9375 116.316406 L 436.546875 117.027344 L 436.546875 117.9375 L 436.847656 118.847656 L 437.355469 119.558594 L 437.558594 120.46875 L 438.265625 121.28125 L 438.46875 122.191406 L 439.078125 122.898438 L 439.28125 123.8125 L 439.886719 124.519531 L 439.886719 125.429688 L 440.191406 126.441406 L 440.796875 127.152344 L 440.898438 128.0625 L 441.609375 128.773438 L 441.609375 129.683594 L 441.8125 130.59375 L 442.417969 131.40625 L 442.621094 132.316406 L 443.328125 132.921875 L 443.328125 133.9375 L 443.53125 134.847656 L 444.140625 135.554688 L 444.34375 136.46875 L 444.949219 137.175781 L 444.949219 138.085938 L 445.253906 139.101562 L 445.859375 139.808594 L 445.757812 140.71875 L 446.164062 141.632812 L 446.671875 142.441406 L 446.671875 143.351562 L 447.074219 144.164062 L 447.582031 144.972656 L 447.480469 145.882812 L 447.988281 146.796875 L 448.390625 147.605469 L 448.695312 148.414062 L 449.203125 149.226562 L 449.507812 150.035156 L 450.011719 150.84375 L 450.417969 151.757812 L 450.921875 152.566406 L 451.125 153.375 L 452.039062 154.289062 L 452.644531 154.996094 L 452.542969 155.90625 L 452.949219 156.820312 L 453.453125 157.628906 L 453.65625 158.4375 L 454.570312 159.351562 L 455.074219 160.058594 L 455.277344 160.96875 L 455.984375 161.78125 L 455.984375 164.617188 L 455.378906 165.425781 L 455.074219 166.234375 L 455.074219 168.160156 L 453.554688 169.679688 L 452.847656 170.488281 L 452.136719 171.296875 L 449.304688 171.296875 L 448.289062 170.894531 L 447.582031 170.386719 L 446.671875 170.183594 L 445.859375 169.578125 L 444.949219 169.273438 L 442.722656 167.046875 L 442.011719 166.234375 L 441.203125 165.425781 L 440.496094 164.617188 L 438.976562 163.097656 L 438.066406 162.792969 L 437.253906 162.285156 L 436.445312 161.476562 L 435.632812 161.171875 L 434.824219 160.769531 L 434.015625 159.957031 L 433.609375 159.453125 L 432.902344 158.742188 L 431.886719 158.640625 L 431.179688 157.832031 L 429.660156 156.3125 L 428.75 156.109375 L 427.839844 156.109375 L 427.027344 155.402344 Z M 426.117188 98.699219 "/>
<path style="fill-rule:nonzero;fill:rgb(0%,44.705882%,69.803922%);fill-opacity:1;stroke-width:0.75;stroke-linecap:round;stroke-linejoin:round;stroke:rgb(20%,20%,20%);stroke-opacity:1;stroke-miterlimit:10;" d="M 504.9375 98.597656 L 505.847656 98.597656 L 506.011719 99.507812 L 506.671875 100.167969 L 506.753906 101.078125 L 507.414062 101.820312 L 507.414062 103.554688 L 508.078125 104.300781 L 508.078125 106.117188 L 508.65625 106.859375 L 508.738281 107.6875 L 508.738281 109.503906 L 509.398438 110.246094 L 509.398438 112.890625 L 510.058594 113.632812 L 510.058594 114.460938 L 510.308594 115.371094 L 510.71875 116.113281 L 511.296875 116.855469 L 511.464844 117.765625 L 512.125 118.425781 L 512.207031 119.335938 L 512.785156 119.996094 L 512.785156 120.90625 L 513.28125 121.566406 L 513.445312 122.472656 L 513.613281 123.382812 L 514.105469 124.125 L 514.105469 125.035156 L 514.769531 125.695312 L 514.851562 126.605469 L 515.511719 127.265625 L 515.429688 128.175781 L 515.84375 128.835938 L 516.089844 129.742188 L 516.832031 130.488281 L 516.917969 131.394531 L 517.496094 132.140625 L 517.824219 132.882812 L 518.15625 133.710938 L 518.816406 134.453125 L 518.898438 135.363281 L 519.476562 135.941406 L 519.640625 136.765625 L 520.136719 137.507812 L 520.550781 138.253906 L 521.292969 138.996094 L 521.542969 139.824219 L 522.203125 140.566406 L 522.285156 141.476562 L 522.863281 142.21875 L 523.195312 142.960938 L 523.523438 143.789062 L 524.1875 144.53125 L 524.269531 145.441406 L 524.929688 146.101562 L 525.011719 146.925781 L 525.589844 147.589844 L 525.921875 148.332031 L 526.167969 149.242188 L 526.828125 149.902344 L 526.914062 150.808594 L 527.574219 151.554688 L 527.574219 152.460938 L 528.070312 153.125 L 528.234375 154.03125 L 528.234375 154.941406 L 528.566406 155.683594 L 528.894531 156.59375 L 529.472656 157.253906 L 529.554688 158.164062 L 529.554688 159.980469 L 530.21875 160.640625 L 530.21875 166.917969 L 529.554688 167.582031 L 529.472656 168.40625 L 528.894531 169.148438 L 528.480469 169.976562 L 527.738281 170.636719 L 526.828125 170.554688 L 526.167969 170.96875 L 525.34375 171.296875 L 524.433594 171.214844 L 523.523438 171.296875 L 522.78125 170.886719 L 521.957031 170.636719 L 521.210938 169.976562 L 520.46875 169.234375 L 519.640625 169.148438 L 518.15625 167.664062 L 517.824219 167.25 L 516.917969 167.085938 L 516.253906 166.425781 L 515.429688 165.597656 L 514.6875 164.855469 L 513.941406 164.523438 L 513.28125 164.027344 L 512.457031 163.203125 L 511.628906 162.457031 L 510.886719 161.796875 L 510.058594 161.550781 L 509.398438 160.890625 L 508.574219 160.476562 L 507.828125 159.898438 L 507.085938 159.152344 L 506.425781 158.492188 L 505.679688 157.832031 Z M 504.9375 98.597656 "/>
<path style="fill-rule:nonzero;fill:rgb(0%,44.705882%,69.803922%);fill-opacity:1;stroke-width:0.75;stroke-linecap:round;stroke-linejoin:round;stroke:rgb(20%,20%,20%);stroke-opacity:1;stroke-miterlimit:10;" d="M 46.242188 175.222656 L 47.113281 175.125 L 47.988281 175.414062 L 47.988281 177.164062 L 48.472656 177.84375 L 48.667969 178.714844 L 48.667969 179.589844 L 48.863281 180.367188 L 49.347656 181.140625 L 49.25 182.015625 L 49.929688 182.792969 L 49.929688 183.667969 L 50.316406 184.441406 L 50.609375 185.21875 L 50.609375 186.09375 L 51.289062 186.773438 L 51.289062 187.644531 L 51.578125 188.421875 L 51.96875 189.199219 L 51.96875 190.167969 L 52.648438 190.945312 L 52.648438 191.820312 L 53.132812 192.5 L 53.328125 193.371094 L 53.328125 194.246094 L 53.519531 195.023438 L 54.007812 195.796875 L 53.910156 196.671875 L 54.6875 197.449219 L 54.78125 198.324219 L 55.367188 199 L 55.269531 199.875 L 55.851562 200.554688 L 55.949219 201.429688 L 56.628906 202.109375 L 56.722656 202.980469 L 57.308594 203.660156 L 57.597656 204.4375 L 57.984375 205.214844 L 58.570312 205.992188 L 58.664062 206.863281 L 59.34375 207.542969 L 59.539062 208.417969 L 59.925781 209.097656 L 60.414062 209.777344 L 60.605469 210.648438 L 61.285156 211.328125 L 61.382812 212.203125 L 61.964844 212.882812 L 62.160156 213.65625 L 63.128906 215.210938 L 63.324219 216.085938 L 64.003906 216.765625 L 64.101562 217.636719 L 64.683594 218.316406 L 64.972656 219.09375 L 65.265625 219.871094 L 65.847656 220.550781 L 65.945312 221.421875 L 66.625 222.199219 L 66.625 223.074219 L 67.011719 223.753906 L 67.304688 224.625 L 67.984375 225.402344 L 67.984375 226.277344 L 68.273438 227.054688 L 68.664062 227.828125 L 68.664062 228.703125 L 69.246094 229.382812 L 69.34375 230.253906 L 69.34375 232.003906 L 69.246094 232.875 L 69.535156 233.652344 L 70.023438 234.429688 L 69.925781 235.304688 L 70.023438 236.175781 L 70.605469 236.855469 L 70.605469 241.222656 L 70.023438 241.902344 L 69.925781 242.777344 L 69.925781 243.648438 L 69.632812 244.425781 L 69.246094 245.203125 L 69.34375 246.078125 L 68.566406 246.851562 L 67.789062 247.628906 L 66.914062 247.824219 L 63.421875 247.824219 L 62.644531 247.53125 L 61.964844 246.851562 L 61.09375 246.464844 L 60.414062 245.882812 L 59.636719 245.105469 L 58.859375 244.425781 L 57.984375 244.234375 L 57.210938 243.457031 L 56.820312 243.066406 L 56.042969 242.484375 L 55.269531 242.097656 L 54.492188 241.320312 L 53.8125 240.542969 L 52.9375 240.449219 L 52.257812 239.769531 L 51.484375 239.089844 L 50.707031 238.3125 L 50.027344 237.828125 L 49.25 237.4375 L 48.472656 237.148438 L 47.792969 236.566406 L 47.113281 235.886719 Z M 46.242188 175.222656 "/>
<path style="fill-rule:nonzero;fill:rgb(0%,44.705882%,69.803922%);fill-opacity:1;stroke-width:0.75;stroke-linecap:round;stroke-linejoin:round;stroke:rgb(20%,20%,20%);stroke-opacity:1;stroke-miterlimit:10;" d="M 121.203125 175.125 L 121.976562 175.511719 L 122.65625 176.285156 L 123.332031 176.964844 L 124.011719 177.738281 L 124.300781 178.511719 L 125.171875 179.382812 L 125.945312 180.0625 L 126.625 180.738281 L 126.816406 181.707031 L 127.496094 182.386719 L 127.496094 183.351562 L 127.785156 184.222656 L 128.269531 184.902344 L 128.269531 185.871094 L 128.851562 186.546875 L 128.945312 187.515625 L 128.945312 188.386719 L 129.238281 189.160156 L 129.722656 190.03125 L 129.625 190.902344 L 130.398438 191.679688 L 130.398438 192.550781 L 130.6875 193.421875 L 131.078125 194.195312 L 131.078125 195.066406 L 131.753906 195.839844 L 131.851562 196.710938 L 132.527344 197.484375 L 132.433594 198.355469 L 133.011719 199.132812 L 133.207031 200.003906 L 133.785156 200.679688 L 133.882812 201.648438 L 134.078125 202.519531 L 134.5625 203.292969 L 135.046875 204.070312 L 135.335938 204.84375 L 135.335938 205.8125 L 136.011719 206.488281 L 136.207031 207.457031 L 136.691406 208.132812 L 136.980469 208.910156 L 137.464844 209.78125 L 137.949219 210.457031 L 138.144531 211.425781 L 138.820312 212.101562 L 139.015625 213.070312 L 139.59375 213.847656 L 139.886719 214.621094 L 140.273438 215.492188 L 140.855469 216.167969 L 140.949219 217.136719 L 141.628906 217.816406 L 141.726562 218.6875 L 142.402344 219.460938 L 142.691406 220.234375 L 143.078125 221.105469 L 143.660156 221.785156 L 143.757812 222.75 L 144.53125 223.429688 L 144.53125 224.300781 L 145.210938 225.074219 L 145.5 225.847656 L 145.886719 226.722656 L 146.46875 227.398438 L 146.566406 228.269531 L 146.566406 229.238281 L 146.855469 230.109375 L 147.339844 230.882812 L 147.726562 231.5625 L 148.015625 232.527344 L 148.015625 233.398438 L 148.695312 234.078125 L 148.695312 239.59375 L 148.015625 240.273438 L 148.015625 243.953125 L 147.921875 244.824219 L 147.339844 245.597656 L 146.953125 246.371094 L 146.660156 247.242188 L 146.082031 247.824219 L 140.5625 247.824219 L 139.886719 247.144531 L 139.015625 247.050781 L 138.144531 246.179688 L 137.464844 245.695312 L 136.59375 245.308594 L 135.917969 244.628906 L 135.238281 243.953125 L 134.464844 243.175781 L 133.785156 242.5 L 133.109375 241.726562 L 132.335938 241.046875 L 131.464844 240.757812 L 130.785156 240.46875 L 130.398438 239.886719 L 128.851562 238.917969 L 127.980469 238.046875 L 127.203125 237.273438 L 126.429688 236.496094 L 125.558594 235.722656 L 124.882812 235.144531 L 122.074219 235.144531 Z M 121.203125 175.125 "/>
<path style="fill-rule:nonzero;fill:rgb(0%,44.705882%,69.803922%);fill-opacity:1;stroke-width:0.75;stroke-linecap:round;stroke-linejoin:round;stroke:rgb(20%,20%,20%);stroke-opacity:1;stroke-miterlimit:10;" d="M 198.804688 175.238281 L 199.71875 175.125 L 200.632812 175.46875 L 201.429688 175.808594 L 202.117188 176.265625 L 202.230469 177.179688 L 202.914062 177.976562 L 203.144531 178.777344 L 203.597656 179.574219 L 203.597656 180.488281 L 204.285156 181.289062 L 204.285156 183 L 204.511719 183.914062 L 205.082031 184.597656 L 205.082031 185.511719 L 205.539062 186.195312 L 205.769531 187.109375 L 205.769531 188.820312 L 206.566406 189.503906 L 206.566406 190.417969 L 206.796875 191.214844 L 207.25 192.015625 L 207.25 192.929688 L 207.820312 193.613281 L 207.9375 194.527344 L 207.9375 195.324219 L 208.734375 196.011719 L 208.734375 196.921875 L 208.964844 197.835938 L 209.421875 198.636719 L 209.875 199.320312 L 210.21875 200.234375 L 210.675781 200.917969 L 210.902344 201.832031 L 211.589844 202.515625 L 211.703125 203.429688 L 212.386719 204.113281 L 212.386719 205.027344 L 212.617188 205.824219 L 213.070312 206.625 L 213.414062 207.421875 L 213.871094 208.222656 L 213.871094 209.132812 L 214.554688 209.933594 L 214.667969 210.847656 L 215.355469 211.53125 L 215.46875 212.445312 L 216.039062 213.015625 L 216.039062 213.929688 L 216.382812 214.726562 L 216.839844 215.527344 L 216.722656 216.4375 L 217.410156 217.125 L 217.523438 218.035156 L 217.523438 218.949219 L 218.207031 219.519531 L 218.207031 220.433594 L 218.550781 221.347656 L 219.007812 222.144531 L 219.464844 222.828125 L 219.691406 223.742188 L 219.691406 225.453125 L 220.492188 226.140625 L 220.492188 227.054688 L 220.71875 227.851562 L 221.175781 228.652344 L 221.175781 230.476562 L 221.859375 231.277344 L 221.859375 232.074219 L 222.089844 232.988281 L 222.660156 233.671875 L 222.660156 235.5 L 223.34375 236.296875 L 223.34375 240.75 L 223.457031 241.660156 L 224.140625 242.460938 L 224.140625 245.996094 L 223.34375 246.683594 L 222.542969 247.023438 L 221.859375 247.597656 L 220.945312 247.824219 L 217.410156 247.824219 L 216.609375 247.367188 L 215.8125 247.023438 L 214.898438 247.140625 L 214.097656 246.339844 L 213.1875 246.226562 L 212.617188 245.542969 L 211.929688 244.855469 L 211.019531 244.742188 L 210.21875 243.945312 L 209.421875 243.144531 L 207.820312 242.230469 L 207.136719 241.546875 L 206.339844 241.203125 L 205.539062 240.632812 L 204.96875 240.175781 L 204.285156 239.378906 L 203.484375 239.035156 L 202.6875 238.464844 L 201.886719 237.667969 L 201.203125 236.980469 L 200.402344 236.183594 L 199.492188 236.070312 Z M 198.804688 175.238281 "/>
<path style="fill-rule:nonzero;fill:rgb(0%,44.705882%,69.803922%);fill-opacity:1;stroke-width:0.75;stroke-linecap:round;stroke-linejoin:round;stroke:rgb(20%,20%,20%);stroke-opacity:1;stroke-miterlimit:10;" d="M 270.382812 175.226562 L 271.398438 175.125 L 277.695312 175.125 L 278.507812 175.9375 L 278.8125 177.054688 L 279.625 177.867188 L 280.335938 178.679688 L 280.539062 179.695312 L 281.144531 180.609375 L 281.144531 181.621094 L 281.855469 182.433594 L 281.855469 183.550781 L 282.363281 184.363281 L 282.667969 185.378906 L 283.378906 186.191406 L 283.582031 187.308594 L 284.191406 188.121094 L 284.191406 189.136719 L 284.902344 190.050781 L 285.105469 191.066406 L 285.714844 191.878906 L 286.121094 192.792969 L 286.425781 193.808594 L 287.136719 194.519531 L 287.238281 195.535156 L 288.050781 196.445312 L 288.355469 197.257812 L 288.761719 198.273438 L 289.472656 199.085938 L 289.574219 200.203125 L 290.285156 201.015625 L 291.097656 202.84375 L 291.808594 203.757812 L 291.910156 204.773438 L 292.621094 205.585938 L 293.027344 206.5 L 293.332031 207.515625 L 294.042969 208.328125 L 294.144531 209.34375 L 294.855469 210.257812 L 295.359375 211.167969 L 296.171875 211.878906 L 296.375 212.996094 L 297.1875 213.808594 L 297.390625 214.824219 L 298.203125 215.636719 L 299.117188 216.449219 L 299.929688 217.261719 L 300.234375 218.175781 L 300.945312 219.089844 L 302.570312 220.714844 L 302.773438 221.730469 L 303.28125 222.644531 L 303.28125 223.660156 L 304.09375 224.472656 L 303.992188 225.585938 L 304.601562 226.398438 L 304.804688 227.414062 L 304.804688 229.546875 L 305.414062 230.257812 L 305.617188 231.273438 L 305.617188 242.746094 L 304.804688 243.660156 L 304.804688 244.675781 L 304.296875 245.589844 L 304.09375 246.605469 L 303.179688 247.011719 L 302.367188 247.621094 L 301.351562 247.824219 L 298.203125 247.824219 L 297.390625 247.011719 L 296.476562 246.300781 L 295.5625 245.894531 L 294.652344 245.488281 L 293.738281 244.777344 L 292.925781 243.964844 L 291.910156 243.863281 L 291.097656 243.050781 L 290.285156 242.136719 L 289.371094 241.730469 L 288.457031 241.019531 L 287.441406 240.105469 L 286.527344 239.195312 L 285.613281 238.28125 L 284.800781 237.367188 L 283.785156 236.351562 L 282.871094 235.539062 L 281.957031 234.625 L 281.042969 233.609375 L 280.132812 232.695312 L 276.882812 229.445312 L 275.867188 229.34375 L 274.953125 228.429688 L 274.140625 227.921875 L 273.125 227.921875 L 272.3125 227.210938 L 271.195312 227.007812 Z M 270.382812 175.226562 "/>
<path style="fill-rule:nonzero;fill:rgb(0%,44.705882%,69.803922%);fill-opacity:1;stroke-width:0.75;stroke-linecap:round;stroke-linejoin:round;stroke:rgb(20%,20%,20%);stroke-opacity:1;stroke-miterlimit:10;" d="M 351.257812 175.238281 L 352.164062 175.125 L 354.886719 175.125 L 355.566406 175.691406 L 355.792969 176.597656 L 356.359375 177.394531 L 356.699219 178.1875 L 357.152344 179.09375 L 357.152344 180 L 357.722656 180.683594 L 357.949219 181.589844 L 357.949219 183.402344 L 358.0625 184.3125 L 358.628906 184.992188 L 359.082031 185.898438 L 359.421875 186.804688 L 359.421875 188.621094 L 359.535156 189.527344 L 360.214844 190.324219 L 360.214844 193.042969 L 360.894531 193.839844 L 361.011719 194.746094 L 361.691406 195.539062 L 361.804688 196.445312 L 362.484375 197.128906 L 362.710938 198.035156 L 363.277344 198.828125 L 363.617188 199.621094 L 364.070312 200.417969 L 363.957031 201.324219 L 364.527344 202.003906 L 364.753906 202.910156 L 365.433594 203.707031 L 365.546875 204.726562 L 367.019531 206.199219 L 367.019531 207.109375 L 367.246094 207.902344 L 367.816406 208.695312 L 368.15625 209.488281 L 368.609375 210.398438 L 369.0625 211.191406 L 369.289062 211.984375 L 369.855469 212.664062 L 370.082031 213.6875 L 370.761719 214.367188 L 370.878906 215.273438 L 370.878906 216.179688 L 371.671875 216.863281 L 371.671875 217.769531 L 371.785156 218.5625 L 372.464844 219.355469 L 372.351562 220.265625 L 372.804688 221.058594 L 373.144531 221.851562 L 373.144531 222.871094 L 373.9375 223.667969 L 373.9375 225.480469 L 374.167969 226.273438 L 374.734375 227.070312 L 375.074219 227.863281 L 375.527344 228.769531 L 375.414062 229.675781 L 376.09375 230.359375 L 376.207031 231.378906 L 376.320312 232.285156 L 377 233.078125 L 377 234.894531 L 377.457031 235.574219 L 377.796875 236.484375 L 377.796875 242.039062 L 377.683594 242.945312 L 377 243.742188 L 377 245.554688 L 376.546875 246.347656 L 375.753906 247.144531 L 374.960938 247.824219 L 373.144531 247.824219 L 372.238281 247.371094 L 371.558594 246.578125 L 370.648438 246.347656 L 369.742188 246.347656 L 369.0625 245.667969 L 368.382812 244.875 L 367.472656 244.761719 L 366.792969 244.082031 L 365.886719 244.082031 L 365.207031 243.289062 L 364.414062 242.492188 L 363.503906 241.699219 L 362.710938 240.90625 L 362.03125 240.453125 L 361.578125 239.65625 L 360.78125 238.863281 L 359.988281 238.070312 L 359.082031 237.957031 L 356.699219 235.574219 L 355.90625 234.894531 L 355 233.988281 L 354.203125 233.195312 L 353.523438 232.511719 L 352.617188 232.398438 L 351.9375 231.71875 Z M 351.257812 175.238281 "/>
<path style="fill-rule:nonzero;fill:rgb(0%,44.705882%,69.803922%);fill-opacity:1;stroke-width:0.75;stroke-linecap:round;stroke-linejoin:round;stroke:rgb(20%,20%,20%);stroke-opacity:1;stroke-miterlimit:10;" d="M 426.441406 175.359375 L 427.492188 175.125 L 428.429688 175.359375 L 429.128906 176.410156 L 430.066406 176.527344 L 431.117188 176.761719 L 431.699219 177.695312 L 432.753906 177.929688 L 433.6875 177.929688 L 434.15625 178.980469 L 434.15625 179.917969 L 434.972656 180.617188 L 435.910156 180.5 L 436.726562 181.203125 L 437.546875 181.902344 L 438.363281 182.957031 L 439.179688 183.304688 L 440.234375 183.304688 L 440.933594 184.125 L 441.871094 184.824219 L 442.570312 185.878906 L 443.507812 185.878906 L 444.558594 186.226562 L 445.257812 187.164062 L 446.195312 187.980469 L 447.011719 188.683594 L 447.714844 189.734375 L 448.648438 189.96875 L 449.699219 189.96875 L 450.285156 190.902344 L 450.167969 191.957031 L 450.871094 192.65625 L 451.6875 193.589844 L 452.621094 194.292969 L 453.441406 195.226562 L 454.257812 196.046875 L 455.195312 196.863281 L 455.660156 197.683594 L 455.542969 198.734375 L 455.542969 244.550781 L 455.660156 245.601562 L 454.960938 246.304688 L 454.140625 247.238281 L 453.324219 247.824219 L 452.273438 247.707031 L 449.351562 247.707031 L 448.53125 246.65625 L 447.597656 245.953125 L 446.777344 245.019531 L 446.078125 244.199219 L 445.023438 243.382812 L 444.324219 242.449219 L 443.390625 241.628906 L 443.390625 239.640625 L 443.273438 238.589844 L 442.335938 238.355469 L 441.285156 238.238281 L 440.582031 237.421875 L 439.648438 236.953125 L 438.714844 236.953125 L 438.128906 236.371094 L 437.429688 235.667969 L 427.492188 235.667969 Z M 426.441406 175.359375 "/>
<path style="fill-rule:nonzero;fill:rgb(0%,44.705882%,69.803922%);fill-opacity:1;stroke-width:0.75;stroke-linecap:round;stroke-linejoin:round;stroke:rgb(20%,20%,20%);stroke-opacity:1;stroke-miterlimit:10;" d="M 501.464844 175.382812 L 502.496094 175.253906 L 503.527344 175.253906 L 504.429688 175.125 L 505.460938 175.511719 L 506.105469 176.414062 L 507.007812 177.316406 L 507.910156 177.960938 L 508.167969 178.992188 L 508.167969 179.894531 L 509.199219 180.28125 L 510.230469 180.410156 L 510.875 181.3125 L 511.90625 182.085938 L 512.679688 182.859375 L 513.324219 183.761719 L 514.355469 184.535156 L 515.128906 185.308594 L 516.160156 185.308594 L 517.964844 186.855469 L 518.609375 187.757812 L 519.640625 188.53125 L 519.640625 189.5625 L 520.15625 190.464844 L 521.058594 191.367188 L 521.832031 191.882812 L 522.21875 192.914062 L 522.21875 193.945312 L 523.25 194.589844 L 523.894531 195.492188 L 524.667969 196.265625 L 524.667969 197.167969 L 525.183594 198.070312 L 526.214844 198.070312 L 527.117188 198.585938 L 527.246094 199.617188 L 527.632812 200.519531 L 528.40625 201.164062 L 529.308594 202.066406 L 530.082031 202.96875 L 530.984375 203.742188 L 530.984375 204.773438 L 531.371094 205.542969 L 533.175781 207.089844 L 533.691406 208.121094 L 533.5625 209.152344 L 533.5625 241.378906 L 533.304688 242.410156 L 531.5 243.957031 L 530.855469 244.859375 L 529.824219 245.632812 L 529.824219 246.664062 L 529.308594 247.695312 L 528.277344 247.824219 L 527.246094 247.824219 L 526.34375 247.695312 L 525.570312 246.664062 L 524.539062 246.535156 L 519.511719 246.535156 L 518.480469 246.277344 L 517.835938 245.375 L 516.933594 244.472656 L 516.03125 243.957031 L 515.128906 243.957031 L 514.355469 243.183594 L 513.453125 242.410156 L 512.9375 240.347656 L 512.035156 239.703125 L 510.488281 237.898438 L 509.457031 237.125 L 508.167969 235.835938 L 508.039062 234.933594 L 507.78125 233.902344 L 506.878906 233.257812 L 506.105469 232.484375 L 505.332031 231.582031 L 504.429688 231.195312 L 502.496094 231.195312 Z M 501.464844 175.382812 "/>
<path style="fill-rule:nonzero;fill:rgb(0%,44.705882%,69.803922%);fill-opacity:1;stroke-width:0.75;stroke-linecap:round;stroke-linejoin:round;stroke:rgb(20%,20%,20%);stroke-opacity:1;stroke-miterlimit:10;" d="M 42.925781 251.753906 L 43.945312 251.648438 L 50.164062 251.648438 L 51.183594 251.957031 L 52 252.875 L 53.019531 252.773438 L 53.734375 253.585938 L 54.753906 254.402344 L 55.464844 255.21875 L 56.585938 255.21875 L 57.300781 256.035156 L 57.300781 257.054688 L 58.117188 257.5625 L 59.136719 257.5625 L 59.644531 258.582031 L 59.75 259.707031 L 60.769531 259.910156 L 61.789062 260.214844 L 62.5 261.132812 L 63.316406 261.949219 L 64.335938 262.765625 L 65.050781 263.578125 L 65.765625 264.496094 L 66.683594 265.210938 L 67.496094 265.925781 L 68.007812 266.945312 L 68.109375 268.066406 L 69.128906 268.78125 L 69.945312 269.597656 L 70.351562 270.617188 L 70.453125 271.636719 L 71.574219 271.839844 L 72.59375 272.246094 L 73.410156 273.0625 L 73.921875 274.082031 L 73.921875 322.921875 L 73.820312 323.941406 L 72.800781 324.351562 L 71.78125 324.246094 L 68.617188 324.246094 L 67.597656 324.351562 L 66.683594 323.738281 L 65.867188 322.921875 L 64.949219 321.902344 L 64.132812 320.984375 L 63.214844 320.679688 L 62.195312 320.476562 L 61.480469 319.558594 L 60.667969 318.640625 L 59.644531 318.332031 L 58.625 318.128906 L 57.914062 317.210938 L 56.894531 317.210938 L 55.976562 316.601562 L 55.058594 315.683594 L 53.425781 313.847656 L 52.507812 313.03125 L 52 312.421875 L 51.082031 311.503906 L 50.164062 311.195312 L 43.945312 311.195312 Z M 42.925781 251.753906 "/>
<path style="fill-rule:nonzero;fill:rgb(0%,44.705882%,69.803922%);fill-opacity:1;stroke-width:0.75;stroke-linecap:round;stroke-linejoin:round;stroke:rgb(20%,20%,20%);stroke-opacity:1;stroke-miterlimit:10;" d="M 118.875 251.773438 L 119.847656 251.648438 L 120.945312 251.648438 L 121.796875 252.382812 L 122.527344 252.988281 L 123.625 252.988281 L 124.355469 253.84375 L 125.449219 254.695312 L 125.570312 255.667969 L 125.816406 256.644531 L 126.789062 257.375 L 127.519531 258.105469 L 128.25 258.957031 L 129.226562 259.6875 L 129.347656 260.660156 L 129.589844 261.636719 L 130.566406 262.488281 L 131.417969 263.21875 L 131.902344 264.191406 L 131.902344 265.167969 L 132.757812 265.65625 L 133.851562 265.65625 L 134.582031 266.507812 L 135.4375 267.238281 L 136.289062 268.210938 L 137.140625 269.0625 L 138.113281 269.917969 L 138.84375 270.769531 L 139.820312 270.769531 L 140.792969 271.378906 L 141.523438 272.109375 L 142.5 271.988281 L 144.570312 271.988281 L 145.542969 272.230469 L 146.394531 273.203125 L 147.246094 274.058594 L 148.222656 274.910156 L 148.953125 275.761719 L 149.804688 276.613281 L 149.683594 277.710938 L 150.414062 278.441406 L 151.023438 279.292969 L 151.023438 323.132812 L 150.535156 324.226562 L 149.5625 324.351562 L 145.542969 324.351562 L 144.570312 323.742188 L 144.570312 322.765625 L 144.203125 321.792969 L 140.183594 321.792969 L 139.332031 320.941406 L 138.359375 320.453125 L 137.382812 320.453125 L 136.773438 319.480469 L 135.679688 319.234375 L 134.703125 318.992188 L 133.851562 318.015625 L 133 317.164062 L 132.148438 316.679688 L 119.847656 316.679688 Z M 118.875 251.773438 "/>
<path style="fill-rule:nonzero;fill:rgb(0%,44.705882%,69.803922%);fill-opacity:1;stroke-width:0.75;stroke-linecap:round;stroke-linejoin:round;stroke:rgb(20%,20%,20%);stroke-opacity:1;stroke-miterlimit:10;" d="M 195.753906 251.78125 L 196.804688 251.648438 L 207.675781 251.648438 L 208.332031 252.699219 L 209.378906 253.613281 L 210.296875 254.269531 L 210.6875 255.316406 L 210.820312 256.496094 L 211.867188 257.152344 L 212.652344 258.070312 L 213.570312 259.117188 L 214.488281 259.902344 L 215.402344 260.6875 L 216.058594 261.738281 L 217.238281 261.738281 L 218.15625 262.261719 L 218.941406 263.046875 L 221.167969 263.046875 L 222.085938 263.703125 L 223 264.488281 L 223.917969 265.535156 L 224.703125 266.453125 L 225.753906 267.238281 L 226.015625 268.417969 L 226.40625 269.332031 L 227.191406 270.25 L 227.191406 323.5625 L 226.539062 324.351562 L 223.261719 324.351562 L 222.214844 324.085938 L 221.558594 323.171875 L 220.382812 323.171875 L 219.464844 322.386719 L 218.546875 321.597656 L 217.761719 320.550781 L 216.582031 320.550781 L 215.664062 319.894531 L 214.878906 319.242188 L 213.699219 319.242188 L 213.046875 318.324219 L 212 317.667969 L 211.867188 316.621094 L 211.472656 315.574219 L 210.558594 314.789062 L 210.164062 314.261719 L 209.246094 313.347656 L 208.199219 312.5625 L 208.070312 311.511719 L 207.675781 310.464844 L 206.757812 309.546875 L 205.710938 308.761719 L 204.925781 307.84375 L 204.007812 306.796875 L 202.960938 306.535156 L 201.910156 306.273438 L 201.125 305.226562 L 196.804688 305.226562 Z M 195.753906 251.78125 "/>
<path style="fill-rule:nonzero;fill:rgb(0%,44.705882%,69.803922%);fill-opacity:1;stroke-width:0.75;stroke-linecap:round;stroke-linejoin:round;stroke:rgb(20%,20%,20%);stroke-opacity:1;stroke-miterlimit:10;" d="M 271.625 251.777344 L 272.652344 251.648438 L 277.019531 251.648438 L 278.046875 252.292969 L 278.945312 253.0625 L 279.714844 254.089844 L 280.742188 254.21875 L 281.769531 254.734375 L 282.542969 255.503906 L 283.441406 256.53125 L 284.339844 257.429688 L 285.367188 258.328125 L 286.136719 259.226562 L 287.035156 260.257812 L 288.0625 261.027344 L 288.964844 261.667969 L 289.992188 261.667969 L 290.761719 262.695312 L 291.917969 262.953125 L 292.945312 263.339844 L 293.84375 264.238281 L 294.488281 265.265625 L 295.640625 265.394531 L 296.671875 265.777344 L 297.441406 266.679688 L 300.652344 266.679688 L 301.679688 267.191406 L 302.578125 268.089844 L 303.476562 269.117188 L 304.25 269.890625 L 304.25 321.011719 L 304.375 322.167969 L 302.835938 323.964844 L 301.808594 324.351562 L 300.652344 324.222656 L 298.46875 324.222656 L 297.699219 323.195312 L 296.671875 322.292969 L 295.769531 321.523438 L 294.871094 320.496094 L 294.101562 319.597656 L 292.945312 318.699219 L 292.175781 317.925781 L 291.273438 316.773438 L 290.375 316 L 289.347656 315.101562 L 288.578125 314.203125 L 287.9375 313.304688 L 287.9375 312.148438 L 286.910156 311.375 L 286.007812 310.476562 L 285.238281 309.449219 L 284.210938 308.679688 L 284.210938 307.652344 L 283.570312 306.753906 L 282.796875 305.855469 L 281.769531 305.46875 L 280.742188 305.339844 L 279.972656 304.3125 L 277.789062 302.128906 L 276.761719 301.230469 L 275.992188 300.460938 L 272.652344 300.460938 Z M 271.625 251.777344 "/>
<path style="fill-rule:nonzero;fill:rgb(0%,44.705882%,69.803922%);fill-opacity:1;stroke-width:0.75;stroke-linecap:round;stroke-linejoin:round;stroke:rgb(20%,20%,20%);stroke-opacity:1;stroke-miterlimit:10;" d="M 346.976562 251.78125 L 348.027344 251.648438 L 356.835938 251.648438 L 357.886719 251.78125 L 358.808594 252.832031 L 359.597656 253.753906 L 360.515625 254.542969 L 361.4375 255.460938 L 362.355469 256.121094 L 363.410156 256.25 L 364.328125 257.171875 L 365.117188 258.222656 L 366.167969 258.222656 L 367.089844 259.144531 L 368.140625 259.273438 L 369.0625 259.933594 L 369.980469 260.328125 L 371.03125 260.589844 L 371.953125 261.511719 L 373.003906 261.511719 L 373.792969 262.429688 L 374.714844 263.480469 L 375.632812 264.269531 L 376.554688 265.058594 L 377.476562 265.980469 L 378.261719 266.898438 L 379.050781 267.820312 L 379.972656 268.742188 L 380.894531 269.53125 L 381.8125 270.316406 L 382.074219 271.5 L 382.074219 321.851562 L 381.8125 323.035156 L 381.023438 323.824219 L 379.972656 324.351562 L 378.789062 324.351562 L 377.738281 324.085938 L 377.082031 323.296875 L 375.898438 323.167969 L 375.109375 322.246094 L 373.269531 320.40625 L 372.347656 319.617188 L 371.425781 318.960938 L 370.246094 318.960938 L 369.191406 318.695312 L 368.402344 317.777344 L 367.484375 316.855469 L 366.433594 316.855469 L 365.644531 315.9375 L 365.644531 314.882812 L 364.722656 314.09375 L 363.671875 313.570312 L 362.621094 313.175781 L 361.832031 312.386719 L 360.648438 312.519531 L 350.917969 312.519531 L 350.261719 313.4375 L 349.210938 313.570312 L 348.027344 313.570312 Z M 346.976562 251.78125 "/>
<path style="fill-rule:nonzero;fill:rgb(0%,44.705882%,69.803922%);fill-opacity:1;stroke-width:0.75;stroke-linecap:round;stroke-linejoin:round;stroke:rgb(20%,20%,20%);stroke-opacity:1;stroke-miterlimit:10;" d="M 423.125 251.816406 L 424.289062 251.648438 L 429.265625 251.648438 L 430.261719 252.480469 L 431.257812 253.144531 L 432.421875 253.144531 L 433.417969 254.304688 L 434.578125 254.304688 L 435.738281 255.136719 L 436.734375 255.800781 L 452.835938 255.800781 L 453.664062 256.796875 L 454.828125 257.128906 L 457.316406 257.128906 L 458.644531 257.292969 L 458.976562 258.457031 L 458.976562 322.523438 L 458.8125 323.851562 L 457.816406 324.351562 L 456.488281 324.351562 L 455.324219 324.183594 L 454.496094 323.1875 L 453.332031 322.191406 L 452.339844 321.363281 L 451.34375 320.199219 L 450.179688 320.199219 L 449.183594 319.203125 L 449.351562 318.042969 L 449.351562 316.878906 L 448.355469 315.882812 L 447.359375 314.722656 L 446.195312 313.5625 L 445.199219 312.566406 L 443.875 311.402344 L 442.878906 310.40625 L 442.378906 309.410156 L 442.214844 308.082031 L 441.050781 307.917969 L 439.890625 307.917969 L 439.390625 306.753906 L 438.394531 305.761719 L 437.066406 304.597656 L 434.910156 302.441406 L 433.914062 301.277344 L 432.753906 300.117188 L 431.757812 299.617188 L 430.59375 299.785156 L 424.289062 299.785156 Z M 423.125 251.816406 "/>
<path style="fill-rule:nonzero;fill:rgb(0%,44.705882%,69.803922%);fill-opacity:1;stroke-width:0.75;stroke-linecap:round;stroke-linejoin:round;stroke:rgb(20%,20%,20%);stroke-opacity:1;stroke-miterlimit:10;" d="M 499.402344 251.917969 L 500.476562 251.648438 L 501.546875 251.785156 L 507.046875 251.785156 L 508.121094 251.648438 L 509.195312 251.785156 L 510.132812 252.589844 L 510.804688 253.527344 L 511.875 254.199219 L 512.414062 255.273438 L 513.484375 255.941406 L 514.15625 256.882812 L 515.097656 257.6875 L 516.035156 258.492188 L 516.707031 259.429688 L 517.777344 260.234375 L 518.449219 261.308594 L 519.523438 261.84375 L 520.058594 262.917969 L 519.925781 263.992188 L 520.191406 265.0625 L 521.265625 265.601562 L 522.070312 266.671875 L 522.875 267.476562 L 523.949219 267.34375 L 525.019531 267.476562 L 525.828125 268.550781 L 525.828125 269.625 L 525.960938 270.695312 L 526.898438 271.367188 L 527.839844 272.304688 L 528.644531 273.246094 L 529.582031 274.050781 L 530.386719 275.125 L 531.460938 275.792969 L 531.726562 276.867188 L 531.726562 277.941406 L 532.265625 279.011719 L 533.335938 279.550781 L 533.738281 280.757812 L 533.605469 281.828125 L 534.140625 282.902344 L 535.214844 283.441406 L 535.753906 284.511719 L 535.617188 285.585938 L 535.617188 319.253906 L 535.753906 320.324219 L 535.617188 321.398438 L 534.679688 322.335938 L 533.738281 323.140625 L 532.933594 324.214844 L 531.863281 324.351562 L 527.703125 324.351562 L 526.632812 324.214844 L 525.691406 323.140625 L 524.886719 322.335938 L 522.742188 322.335938 L 521.800781 321.398438 L 521.800781 319.253906 L 520.996094 318.449219 L 518.851562 318.449219 L 517.914062 317.507812 L 517.109375 316.4375 L 514.960938 316.4375 L 514.15625 315.632812 L 513.351562 314.691406 L 512.277344 313.886719 L 511.609375 312.8125 L 510.535156 312.144531 L 509.863281 311.070312 L 508.792969 310.398438 L 507.988281 309.328125 L 507.046875 308.65625 L 500.476562 308.65625 Z M 499.402344 251.917969 "/>
<path style="fill-rule:nonzero;fill:rgb(0%,44.705882%,69.803922%);fill-opacity:1;stroke-width:0.75;stroke-linecap:round;stroke-linejoin:round;stroke:rgb(20%,20%,20%);stroke-opacity:1;stroke-miterlimit:10;" d="M 42.710938 328.300781 L 43.699219 328.175781 L 45.667969 328.175781 L 46.65625 328.667969 L 48.132812 330.394531 L 48.996094 330.886719 L 49.980469 330.886719 L 50.84375 331.625 L 51.707031 332.367188 L 52.445312 333.351562 L 53.308594 333.96875 L 54.046875 334.953125 L 54.910156 335.691406 L 55.773438 336.433594 L 56.511719 337.417969 L 57.5 338.15625 L 58.238281 339.140625 L 59.101562 339.882812 L 59.101562 340.867188 L 59.46875 341.730469 L 60.332031 342.46875 L 61.195312 343.332031 L 61.933594 344.195312 L 62.921875 344.933594 L 63.660156 345.917969 L 64.523438 346.660156 L 65.382812 347.398438 L 66.125 348.382812 L 67.109375 349.125 L 67.847656 349.984375 L 68.710938 350.847656 L 69.574219 351.585938 L 70.3125 352.574219 L 71.300781 353.3125 L 72.039062 354.175781 L 72.777344 354.914062 L 73.640625 355.652344 L 74.132812 356.640625 L 74.132812 389.046875 L 73.394531 389.910156 L 72.777344 390.648438 L 72.777344 396.5625 L 72.65625 397.546875 L 71.792969 398.164062 L 71.421875 399.148438 L 71.421875 400.136719 L 70.683594 400.875 L 66.738281 400.875 L 65.878906 400.257812 L 65.136719 399.519531 L 64.152344 399.519531 L 63.167969 399.027344 L 63.042969 398.042969 L 62.921875 397.054688 L 61.933594 396.441406 L 61.320312 395.453125 L 60.332031 394.714844 L 59.59375 393.976562 L 58.976562 393.113281 L 58.976562 392.125 L 58.359375 391.265625 L 57.5 390.402344 L 56.636719 389.664062 L 55.898438 388.675781 L 55.15625 388.308594 L 54.542969 387.320312 L 53.679688 386.707031 L 52.941406 385.84375 L 52.078125 384.980469 L 51.214844 384.363281 L 50.230469 384.488281 L 49.367188 383.746094 L 48.625 383.007812 L 44.683594 383.007812 L 43.699219 383.132812 Z M 42.710938 328.300781 "/>
<path style="fill-rule:nonzero;fill:rgb(0%,44.705882%,69.803922%);fill-opacity:1;stroke-width:0.75;stroke-linecap:round;stroke-linejoin:round;stroke:rgb(20%,20%,20%);stroke-opacity:1;stroke-miterlimit:10;" d="M 121.445312 328.402344 L 122.472656 328.289062 L 125.546875 328.289062 L 126.574219 328.175781 L 127.597656 328.175781 L 128.625 328.289062 L 129.648438 328.175781 L 130.675781 328.519531 L 131.359375 329.542969 L 132.382812 330.226562 L 132.382812 331.140625 L 132.5 332.164062 L 133.523438 332.847656 L 134.207031 333.875 L 135.234375 334.558594 L 135.347656 335.582031 L 135.460938 336.609375 L 136.488281 337.292969 L 137.171875 338.203125 L 138.082031 338.886719 L 138.195312 339.914062 L 138.425781 340.9375 L 139.335938 341.507812 L 140.019531 342.535156 L 141.042969 343.332031 L 141.84375 344.242188 L 142.640625 345.15625 L 143.664062 345.839844 L 144.007812 346.863281 L 144.007812 347.890625 L 144.917969 348.6875 L 145.488281 349.597656 L 145.488281 350.625 L 145.375 351.648438 L 145.714844 352.675781 L 146.628906 353.128906 L 146.96875 354.15625 L 146.96875 360.308594 L 146.855469 361.335938 L 146.96875 362.359375 L 147.769531 363.160156 L 148.453125 364.070312 L 148.335938 365.09375 L 148.335938 398.824219 L 148.453125 399.851562 L 147.769531 400.761719 L 146.855469 400.875 L 142.753906 400.875 L 141.730469 400.761719 L 140.929688 399.964844 L 140.019531 399.167969 L 139.5625 398.253906 L 139.5625 397.230469 L 138.878906 396.429688 L 137.855469 396.546875 L 136.828125 396.089844 L 136.714844 395.0625 L 136.601562 394.039062 L 135.6875 393.582031 L 134.664062 393.582031 L 133.753906 392.898438 L 133.753906 391.875 L 133.410156 390.847656 L 132.382812 390.164062 L 132.269531 389.140625 L 132.15625 388.113281 L 131.246094 387.769531 L 130.789062 386.859375 L 130.902344 385.835938 L 130.332031 384.921875 L 129.308594 384.921875 L 128.28125 384.582031 L 127.597656 383.554688 L 126.574219 383.441406 L 122.472656 383.441406 Z M 121.445312 328.402344 "/>
<path style="fill-rule:nonzero;fill:rgb(0%,44.705882%,69.803922%);fill-opacity:1;stroke-width:0.75;stroke-linecap:round;stroke-linejoin:round;stroke:rgb(20%,20%,20%);stroke-opacity:1;stroke-miterlimit:10;" d="M 194.429688 328.320312 L 195.59375 328.175781 L 221.527344 328.175781 L 222.546875 329.050781 L 223.421875 330.070312 L 224.441406 330.945312 L 225.316406 331.964844 L 226.480469 332.984375 L 226.480469 334.148438 L 226.625 335.316406 L 227.644531 336.042969 L 228.519531 337.0625 L 228.519531 393.589844 L 227.9375 394.609375 L 226.625 395.484375 L 226.480469 396.652344 L 226.480469 397.816406 L 226.625 398.980469 L 226.335938 400.148438 L 225.316406 400.875 L 220.652344 400.875 L 219.488281 400.730469 L 216.574219 397.816406 L 216.28125 397.234375 L 215.117188 396.503906 L 214.386719 395.339844 L 213.222656 394.757812 L 212.640625 393.589844 L 212.640625 392.425781 L 212.203125 391.261719 L 211.039062 390.53125 L 210.164062 389.21875 L 208.996094 388.492188 L 208.269531 387.328125 L 207.105469 387.035156 L 205.9375 387.179688 L 204.917969 386.304688 L 204.773438 385.140625 L 204.773438 383.976562 L 203.898438 383.246094 L 202.734375 383.101562 L 201.566406 383.246094 L 195.59375 383.246094 Z M 194.429688 328.320312 "/>
<path style="fill-rule:nonzero;fill:rgb(0%,44.705882%,69.803922%);fill-opacity:1;stroke-width:0.75;stroke-linecap:round;stroke-linejoin:round;stroke:rgb(20%,20%,20%);stroke-opacity:1;stroke-miterlimit:10;" d="M 271.722656 328.292969 L 272.773438 328.175781 L 275.804688 328.175781 L 276.855469 328.527344 L 276.972656 329.578125 L 277.207031 330.511719 L 278.257812 331.328125 L 279.074219 332.027344 L 280.125 332.027344 L 280.824219 332.726562 L 280.824219 333.777344 L 281.523438 334.710938 L 282.339844 335.644531 L 283.273438 335.996094 L 284.324219 335.878906 L 285.375 335.996094 L 286.191406 336.8125 L 287.125 337.511719 L 287.707031 338.445312 L 288.640625 339.144531 L 289.457031 339.84375 L 290.507812 339.84375 L 291.210938 340.546875 L 292.144531 341.246094 L 292.84375 342.296875 L 293.894531 342.414062 L 294.828125 342.644531 L 295.527344 343.578125 L 296.460938 344.394531 L 297.277344 345.097656 L 297.976562 346.148438 L 298.910156 346.730469 L 299.609375 347.546875 L 300.429688 348.480469 L 301.359375 349.179688 L 301.59375 350.113281 L 301.710938 351.164062 L 302.761719 351.863281 L 302.996094 352.914062 L 302.878906 353.847656 L 302.996094 354.898438 L 303.929688 355.597656 L 304.277344 356.648438 L 304.160156 357.699219 L 304.160156 394.457031 L 304.277344 395.507812 L 304.046875 396.558594 L 303.113281 397.257812 L 302.292969 398.191406 L 301.59375 399.007812 L 301.59375 400.058594 L 301.011719 400.875 L 293.777344 400.875 L 292.726562 400.640625 L 292.144531 399.707031 L 291.09375 399.59375 L 290.042969 399.242188 L 289.34375 398.308594 L 288.410156 398.308594 L 287.359375 397.839844 L 286.65625 397.023438 L 285.839844 396.089844 L 284.90625 395.625 L 283.972656 395.625 L 283.15625 394.691406 L 282.222656 393.992188 L 281.523438 393.058594 L 280.941406 392.707031 L 280.238281 391.773438 L 279.421875 390.957031 L 278.488281 390.488281 L 276.503906 390.488281 L 275.570312 389.789062 L 274.753906 389.207031 L 272.773438 389.207031 Z M 271.722656 328.292969 "/>
<path style="fill-rule:nonzero;fill:rgb(0%,44.705882%,69.803922%);fill-opacity:1;stroke-width:0.75;stroke-linecap:round;stroke-linejoin:round;stroke:rgb(20%,20%,20%);stroke-opacity:1;stroke-miterlimit:10;" d="M 350.71875 328.296875 L 351.695312 328.175781 L 356.707031 328.175781 L 357.5625 328.785156 L 358.292969 329.519531 L 359.027344 330.375 L 359.882812 330.984375 L 360.492188 331.964844 L 361.59375 332.085938 L 362.570312 332.453125 L 363.304688 333.308594 L 364.160156 334.164062 L 365.015625 334.894531 L 365.746094 335.875 L 366.601562 336.605469 L 366.601562 337.707031 L 367.214844 338.5625 L 367.945312 339.292969 L 368.800781 340.027344 L 369.414062 340.882812 L 370.390625 341.492188 L 371 342.347656 L 371.855469 343.082031 L 371.855469 344.183594 L 372.34375 344.914062 L 373.199219 345.769531 L 374.054688 346.503906 L 374.421875 347.480469 L 374.421875 348.457031 L 375.398438 349.070312 L 375.765625 350.167969 L 375.765625 352.125 L 375.644531 353.101562 L 376.132812 353.957031 L 376.988281 354.691406 L 376.988281 356.644531 L 377.234375 357.746094 L 378.210938 358.355469 L 378.332031 359.332031 L 378.332031 398.066406 L 378.210938 399.042969 L 377.234375 399.777344 L 376.5 400.753906 L 375.398438 400.875 L 371.488281 400.875 L 370.511719 400.386719 L 369.902344 399.53125 L 369.046875 398.675781 L 368.191406 398.066406 L 367.824219 397.085938 L 367.824219 395.132812 L 367.457031 394.644531 L 366.726562 394.03125 L 366.113281 393.179688 L 365.015625 393.054688 L 364.035156 392.566406 L 363.304688 391.710938 L 362.570312 390.855469 L 361.59375 390.125 L 361.347656 389.144531 L 361.226562 388.167969 L 360.25 387.433594 L 359.515625 386.578125 L 358.78125 385.847656 L 357.929688 385.113281 L 357.316406 384.257812 L 356.339844 383.890625 L 355.363281 384.015625 L 353.285156 384.015625 L 352.429688 383.523438 L 351.695312 382.671875 Z M 350.71875 328.296875 "/>
<path style="fill-rule:nonzero;fill:rgb(0%,44.705882%,69.803922%);fill-opacity:1;stroke-width:0.75;stroke-linecap:round;stroke-linejoin:round;stroke:rgb(20%,20%,20%);stroke-opacity:1;stroke-miterlimit:10;" d="M 424.613281 328.339844 L 425.601562 328.175781 L 428.742188 328.175781 L 429.734375 329.003906 L 430.394531 329.664062 L 431.386719 329.664062 L 432.378906 329.992188 L 433.203125 331.148438 L 434.195312 331.316406 L 436.34375 331.316406 L 437.332031 331.148438 L 438.324219 331.316406 L 439.152344 332.472656 L 440.144531 333.132812 L 440.804688 334.125 L 441.960938 334.949219 L 442.621094 335.777344 L 443.445312 336.601562 L 443.613281 337.59375 L 443.777344 338.75 L 444.769531 339.410156 L 445.429688 340.238281 L 446.585938 341.0625 L 446.585938 342.054688 L 446.75 343.046875 L 447.742188 343.871094 L 448.238281 344.863281 L 448.238281 345.855469 L 449.066406 346.847656 L 449.726562 347.671875 L 449.726562 348.664062 L 450.054688 349.65625 L 451.210938 350.316406 L 451.210938 351.308594 L 451.378906 352.300781 L 452.371094 353.125 L 452.863281 354.117188 L 452.863281 355.109375 L 452.699219 356.265625 L 453.03125 357.253906 L 454.023438 357.75 L 454.351562 358.90625 L 454.351562 360.890625 L 454.683594 361.882812 L 455.839844 362.707031 L 456.003906 363.699219 L 455.839844 364.691406 L 455.839844 373.117188 L 456.003906 374.109375 L 457.160156 374.769531 L 457.492188 375.761719 L 457.492188 399.71875 L 456.996094 400.710938 L 455.839844 400.875 L 453.855469 400.875 L 452.863281 400.378906 L 452.699219 399.222656 L 452.535156 398.230469 L 451.707031 397.734375 L 449.5625 397.734375 L 448.570312 397.570312 L 447.742188 396.414062 L 446.75 396.082031 L 445.761719 396.25 L 444.605469 396.25 L 443.613281 395.753906 L 442.953125 394.761719 L 441.960938 394.101562 L 441.132812 393.109375 L 440.144531 393.109375 L 439.152344 392.78125 L 438.324219 391.621094 L 437.332031 390.960938 L 436.671875 390.136719 L 435.679688 389.144531 L 434.855469 388.484375 L 425.601562 388.484375 Z M 424.613281 328.339844 "/>
<path style="fill-rule:nonzero;fill:rgb(0%,44.705882%,69.803922%);fill-opacity:1;stroke-width:0.75;stroke-linecap:round;stroke-linejoin:round;stroke:rgb(20%,20%,20%);stroke-opacity:1;stroke-miterlimit:10;" d="M 508.382812 328.175781 L 509.238281 328.175781 L 509.773438 328.925781 L 510.519531 329.351562 L 510.734375 330.207031 L 510.839844 331.0625 L 511.695312 331.597656 L 512.230469 332.34375 L 512.875 332.878906 L 512.875 333.734375 L 513.300781 334.484375 L 513.941406 335.125 L 514.582031 335.660156 L 515.226562 336.515625 L 515.972656 337.050781 L 516.082031 337.90625 L 516.402344 338.652344 L 517.042969 339.1875 L 517.683594 339.828125 L 518.324219 340.578125 L 519.074219 341.113281 L 519.289062 341.96875 L 519.289062 343.570312 L 519.929688 344.210938 L 520.355469 344.960938 L 520.355469 346.566406 L 520.785156 347.3125 L 521.425781 347.953125 L 521.425781 352.980469 L 521.855469 353.726562 L 522.496094 354.261719 L 522.496094 357.578125 L 523.242188 358.109375 L 523.5625 358.964844 L 523.5625 362.28125 L 523.671875 363.136719 L 524.527344 363.671875 L 524.632812 364.527344 L 524.632812 371.152344 L 525.0625 371.902344 L 525.703125 372.4375 L 525.703125 378.316406 L 525.808594 379.171875 L 526.664062 379.707031 L 526.769531 380.457031 L 526.769531 397.988281 L 526.238281 398.738281 L 525.703125 399.378906 L 525.808594 400.128906 L 525.273438 400.875 L 524.527344 400.339844 L 523.886719 399.804688 L 523.03125 399.804688 L 522.386719 399.273438 L 521.746094 398.628906 L 521.105469 397.773438 L 520.25 397.132812 L 520.144531 396.8125 L 519.394531 396.386719 L 519.179688 395.53125 L 519.074219 394.675781 L 518.21875 394.460938 L 517.46875 394.355469 L 516.9375 393.605469 L 516.082031 393.070312 L 515.546875 392.324219 L 514.691406 392.324219 L 513.941406 392 L 513.40625 391.253906 L 509.238281 391.253906 Z M 508.382812 328.175781 "/>
<path style="fill-rule:nonzero;fill:rgb(0%,44.705882%,69.803922%);fill-opacity:1;stroke-width:0.75;stroke-linecap:round;stroke-linejoin:round;stroke:rgb(20%,20%,20%);stroke-opacity:1;stroke-miterlimit:10;" d="M 49.128906 404.703125 L 50.007812 404.703125 L 50.691406 405.582031 L 51.378906 406.265625 L 52.257812 406.953125 L 52.84375 407.636719 L 53.433594 408.417969 L 53.433594 409.300781 L 54.214844 409.984375 L 54.902344 410.769531 L 55.585938 411.550781 L 56.464844 412.234375 L 57.152344 412.921875 L 57.738281 413.703125 L 58.519531 414.386719 L 59.304688 415.074219 L 59.988281 415.855469 L 60.671875 416.640625 L 61.554688 417.324219 L 62.238281 418.007812 L 62.628906 418.792969 L 62.726562 419.671875 L 63.414062 420.160156 L 64.097656 420.945312 L 64.683594 421.726562 L 64.683594 422.609375 L 65.46875 423.195312 L 65.761719 424.074219 L 65.664062 424.957031 L 65.761719 425.835938 L 66.640625 426.421875 L 66.738281 427.207031 L 67.035156 428.085938 L 67.71875 428.773438 L 67.71875 474.855469 L 66.835938 475.542969 L 66.152344 476.324219 L 65.46875 477.109375 L 64.683594 477.402344 L 63.804688 477.207031 L 63.609375 476.324219 L 63.414062 475.445312 L 62.53125 475.25 L 61.652344 474.953125 L 60.96875 474.171875 L 60.476562 473.390625 L 60.476562 472.507812 L 59.792969 472.3125 L 59.402344 471.433594 L 58.519531 470.84375 L 58.519531 469.964844 L 58.03125 469.183594 L 57.445312 468.398438 L 57.445312 467.519531 L 56.660156 466.933594 L 56.367188 466.050781 L 56.269531 465.269531 L 55.390625 464.582031 L 54.703125 463.898438 L 54.410156 463.019531 L 54.214844 462.136719 L 53.433594 461.550781 L 52.648438 460.863281 L 52.0625 460.082031 L 51.378906 459.496094 L 51.28125 458.613281 L 50.890625 457.929688 L 50.007812 457.929688 Z M 49.128906 404.703125 "/>
<path style="fill-rule:nonzero;fill:rgb(0%,44.705882%,69.803922%);fill-opacity:1;stroke-width:0.75;stroke-linecap:round;stroke-linejoin:round;stroke:rgb(20%,20%,20%);stroke-opacity:1;stroke-miterlimit:10;" d="M 126.230469 404.8125 L 127.109375 404.703125 L 127.65625 405.359375 L 128.425781 406.015625 L 128.972656 406.785156 L 129.738281 407.332031 L 129.738281 408.210938 L 130.070312 408.867188 L 130.835938 409.527344 L 131.496094 410.183594 L 132.152344 410.953125 L 132.921875 411.609375 L 133.03125 412.378906 L 133.359375 413.253906 L 134.015625 413.804688 L 134.785156 414.460938 L 135.332031 415.226562 L 136.101562 415.886719 L 136.867188 416.542969 L 137.414062 417.3125 L 138.292969 417.96875 L 138.839844 418.628906 L 139.390625 419.394531 L 139.390625 420.273438 L 140.046875 420.710938 L 140.925781 420.710938 L 141.472656 421.257812 L 141.472656 422.136719 L 142.019531 422.902344 L 142.570312 423.453125 L 142.570312 424.328125 L 143.007812 424.988281 L 143.664062 425.644531 L 143.664062 468.957031 L 143.335938 469.726562 L 142.570312 470.382812 L 142.570312 472.027344 L 142.351562 472.90625 L 141.691406 473.34375 L 141.035156 474.113281 L 140.484375 474.660156 L 140.484375 475.535156 L 139.9375 476.304688 L 139.390625 476.851562 L 138.511719 477.402344 L 137.746094 477.402344 L 137.085938 476.632812 L 136.320312 476.085938 L 136.101562 475.316406 L 135.992188 474.441406 L 135.222656 473.890625 L 135.003906 473.015625 L 134.785156 472.136719 L 134.015625 471.589844 L 134.015625 470.710938 L 133.6875 469.945312 L 132.921875 469.285156 L 132.261719 468.738281 L 131.824219 467.972656 L 131.824219 467.09375 L 131.714844 466.875 L 130.835938 466.328125 L 130.289062 465.667969 L 129.628906 464.902344 L 128.753906 464.242188 L 128.203125 463.476562 L 127.546875 462.816406 L 126.78125 462.269531 Z M 126.230469 404.8125 "/>
<path style="fill-rule:nonzero;fill:rgb(0%,44.705882%,69.803922%);fill-opacity:1;stroke-width:0.75;stroke-linecap:round;stroke-linejoin:round;stroke:rgb(20%,20%,20%);stroke-opacity:1;stroke-miterlimit:10;" d="M 200.730469 404.808594 L 201.601562 404.703125 L 203.445312 404.703125 L 204.097656 405.570312 L 204.964844 406.222656 L 205.613281 406.980469 L 206.375 407.738281 L 207.132812 408.390625 L 207.785156 409.257812 L 208.542969 410.019531 L 209.414062 410.667969 L 210.0625 411.429688 L 210.824219 412.1875 L 211.582031 412.839844 L 212.234375 413.707031 L 213.101562 414.46875 L 213.863281 415.011719 L 214.730469 414.902344 L 215.378906 415.660156 L 216.140625 416.203125 L 216.683594 417.070312 L 217.550781 417.722656 L 218.203125 418.375 L 218.746094 419.132812 L 218.746094 420 L 219.394531 420.652344 L 219.9375 421.519531 L 219.9375 422.496094 L 220.699219 423.039062 L 221.023438 423.90625 L 221.023438 424.777344 L 221.890625 425.316406 L 222.214844 426.1875 L 222.109375 427.164062 L 222.109375 459.929688 L 221.238281 460.582031 L 220.914062 461.34375 L 221.023438 462.210938 L 221.023438 469.371094 L 220.914062 470.238281 L 220.046875 470.78125 L 219.828125 471.648438 L 219.828125 473.496094 L 219.9375 474.363281 L 219.285156 475.121094 L 218.746094 475.773438 L 218.746094 476.640625 L 218.203125 477.402344 L 213.753906 477.402344 L 212.992188 476.859375 L 212.34375 476.207031 L 211.367188 476.316406 L 210.824219 475.882812 L 210.171875 475.121094 L 209.304688 475.121094 L 208.4375 474.6875 L 208.4375 473.820312 L 208.003906 472.953125 L 207.242188 472.191406 L 207.351562 471.324219 L 206.808594 470.566406 L 206.15625 469.914062 L 206.15625 469.046875 L 205.507812 468.285156 L 204.855469 467.417969 L 203.988281 466.875 L 203.769531 465.140625 L 202.902344 464.597656 L 202.144531 463.730469 L 201.492188 462.96875 Z M 200.730469 404.808594 "/>
<path style="fill-rule:nonzero;fill:rgb(0%,44.705882%,69.803922%);fill-opacity:1;stroke-width:0.75;stroke-linecap:round;stroke-linejoin:round;stroke:rgb(20%,20%,20%);stroke-opacity:1;stroke-miterlimit:10;" d="M 273.285156 404.992188 L 274.253906 404.703125 L 275.125 404.703125 L 276.09375 404.992188 L 276.867188 405.765625 L 277.351562 406.734375 L 278.320312 407.316406 L 279.191406 407.992188 L 279.382812 408.960938 L 279.289062 409.832031 L 279.289062 410.800781 L 280.0625 411.671875 L 280.933594 412.058594 L 281.609375 413.027344 L 281.707031 413.898438 L 281.609375 414.867188 L 281.804688 415.835938 L 282.675781 416.511719 L 283.644531 417.09375 L 284.03125 417.964844 L 284.03125 418.933594 L 283.933594 419.898438 L 284.417969 420.769531 L 285.386719 421.351562 L 286.160156 422.125 L 286.742188 423.09375 L 287.710938 423.675781 L 288.484375 424.449219 L 289.066406 425.417969 L 289.9375 425.902344 L 290.808594 426.773438 L 291.386719 427.742188 L 292.257812 428.226562 L 293.128906 429.097656 L 293.613281 429.96875 L 294.582031 430.546875 L 295.453125 431.324219 L 295.746094 432.195312 L 295.648438 433.160156 L 295.648438 434.03125 L 296.226562 434.90625 L 297.195312 435.386719 L 297.972656 436.257812 L 298.550781 437.226562 L 299.421875 437.710938 L 300.292969 438.582031 L 300.875 439.550781 L 301.746094 440.035156 L 302.617188 440.808594 L 302.714844 441.679688 L 302.714844 476.144531 L 302.230469 477.015625 L 301.261719 477.402344 L 294.777344 477.402344 L 293.808594 477.015625 L 293.226562 476.144531 L 292.550781 475.269531 L 291.679688 474.789062 L 290.902344 473.820312 L 290.226562 472.851562 L 289.453125 472.65625 L 287.613281 472.65625 L 286.644531 472.753906 L 285.675781 472.753906 L 284.804688 472.5625 L 284.03125 471.691406 L 283.546875 470.820312 L 282.578125 470.335938 L 275.125 470.335938 L 274.253906 470.429688 Z M 273.285156 404.992188 "/>
<path style="fill-rule:nonzero;fill:rgb(0%,44.705882%,69.803922%);fill-opacity:1;stroke-width:0.75;stroke-linecap:round;stroke-linejoin:round;stroke:rgb(20%,20%,20%);stroke-opacity:1;stroke-miterlimit:10;" d="M 352.410156 404.851562 L 353.3125 404.703125 L 354.214844 404.703125 L 355.117188 404.851562 L 356.171875 405.453125 L 356.625 406.355469 L 357.074219 407.261719 L 357.976562 408.011719 L 358.882812 408.164062 L 359.785156 408.164062 L 360.6875 408.011719 L 361.589844 408.011719 L 362.492188 408.613281 L 363.246094 409.667969 L 363.699219 410.570312 L 364.601562 411.175781 L 365.503906 411.625 L 366.40625 412.527344 L 366.707031 413.433594 L 366.707031 414.335938 L 366.558594 415.386719 L 366.558594 416.292969 L 366.859375 417.195312 L 367.761719 417.796875 L 368.664062 417.945312 L 371.375 417.945312 L 372.277344 418.25 L 373.03125 419.300781 L 373.179688 420.203125 L 373.179688 422.914062 L 373.632812 423.816406 L 374.535156 424.417969 L 375.589844 425.019531 L 376.339844 425.773438 L 376.492188 426.675781 L 376.640625 427.582031 L 376.492188 428.484375 L 376.492188 472.734375 L 376.640625 473.636719 L 376.640625 475.445312 L 376.492188 476.347656 L 375.4375 477.25 L 374.535156 477.402344 L 373.632812 476.800781 L 373.03125 475.894531 L 372.578125 474.992188 L 371.675781 474.242188 L 370.773438 473.636719 L 369.867188 472.734375 L 369.566406 471.832031 L 368.816406 471.078125 L 367.914062 470.777344 L 367.007812 470.628906 L 366.105469 470.777344 L 353.3125 470.777344 Z M 352.410156 404.851562 "/>
<path style="fill-rule:nonzero;fill:rgb(0%,44.705882%,69.803922%);fill-opacity:1;stroke-width:0.75;stroke-linecap:round;stroke-linejoin:round;stroke:rgb(20%,20%,20%);stroke-opacity:1;stroke-miterlimit:10;" d="M 422.839844 404.851562 L 423.890625 404.703125 L 424.796875 404.703125 L 425.847656 405.304688 L 426.453125 406.355469 L 427.355469 406.960938 L 428.257812 407.863281 L 429.011719 408.917969 L 429.914062 409.367188 L 430.664062 410.421875 L 430.664062 411.476562 L 430.515625 412.378906 L 431.269531 413.433594 L 432.320312 414.035156 L 432.921875 414.9375 L 433.828125 415.6875 L 434.878906 416.59375 L 435.332031 417.496094 L 436.386719 418.097656 L 437.136719 419.152344 L 437.890625 419.902344 L 438.945312 420.507812 L 439.394531 421.558594 L 439.394531 423.515625 L 440.148438 424.417969 L 441.203125 425.019531 L 441.652344 425.925781 L 442.554688 426.675781 L 443.609375 427.429688 L 443.761719 428.332031 L 443.761719 429.386719 L 443.910156 430.441406 L 444.664062 431.042969 L 445.71875 431.792969 L 446.320312 432.847656 L 447.222656 433.449219 L 448.125 434.351562 L 448.277344 435.40625 L 448.125 436.308594 L 448.125 438.417969 L 448.425781 439.320312 L 449.328125 439.921875 L 450.234375 440.824219 L 450.382812 441.730469 L 450.382812 442.78125 L 450.683594 443.835938 L 451.585938 444.4375 L 452.492188 445.191406 L 452.640625 446.246094 L 452.492188 447.148438 L 452.792969 448.199219 L 453.84375 448.804688 L 454.597656 449.554688 L 455.199219 450.457031 L 456.253906 451.0625 L 456.855469 451.964844 L 457.007812 453.015625 L 457.007812 454.070312 L 456.855469 455.125 L 456.855469 456.027344 L 457.308594 457.082031 L 458.359375 457.683594 L 459.113281 458.4375 L 459.265625 459.488281 L 459.113281 460.542969 L 459.113281 474.542969 L 459.265625 475.59375 L 458.960938 476.496094 L 458.058594 477.25 L 457.007812 477.402344 L 453.996094 477.402344 L 453.09375 477.101562 L 452.339844 476.046875 L 451.585938 475.144531 L 449.632812 475.144531 L 448.578125 474.84375 L 447.976562 473.9375 L 447.222656 473.035156 L 446.167969 472.433594 L 445.71875 471.53125 L 444.8125 470.777344 L 443.761719 470.628906 L 442.859375 470.777344 L 423.890625 470.777344 Z M 422.839844 404.851562 "/>
<path style="fill-rule:nonzero;fill:rgb(0%,44.705882%,69.803922%);fill-opacity:1;stroke-width:0.75;stroke-linecap:round;stroke-linejoin:round;stroke:rgb(20%,20%,20%);stroke-opacity:1;stroke-miterlimit:10;" d="M 503.050781 404.703125 L 504.003906 404.703125 L 504.824219 404.839844 L 505.371094 405.792969 L 505.371094 407.703125 L 506.050781 408.382812 L 507.007812 409.066406 L 507.550781 410.019531 L 508.507812 410.566406 L 509.1875 411.386719 L 509.1875 413.292969 L 509.871094 414.113281 L 510.6875 414.660156 L 511.234375 415.613281 L 512.191406 416.296875 L 512.871094 416.976562 L 513.554688 417.933594 L 514.507812 418.476562 L 514.917969 419.433594 L 514.917969 421.207031 L 515.871094 421.886719 L 516.691406 422.707031 L 516.828125 423.523438 L 516.828125 424.480469 L 517.234375 425.433594 L 518.191406 425.980469 L 518.738281 426.796875 L 518.738281 428.707031 L 519.417969 429.390625 L 520.375 430.070312 L 520.917969 431.027344 L 521.875 431.570312 L 522.554688 432.390625 L 523.238281 433.207031 L 524.191406 433.890625 L 524.738281 434.84375 L 525.554688 435.390625 L 526.375 436.210938 L 526.375 438.117188 L 526.921875 438.9375 L 527.875 439.484375 L 528.285156 440.4375 L 528.285156 442.210938 L 529.238281 442.894531 L 530.058594 443.710938 L 530.195312 444.53125 L 530.195312 447.394531 L 530.464844 448.210938 L 531.421875 448.757812 L 532.101562 449.710938 L 532.101562 476.308594 L 531.558594 477.265625 L 530.601562 477.402344 L 519.691406 477.402344 L 518.738281 476.71875 L 518.191406 475.765625 L 517.234375 475.492188 L 516.417969 475.492188 L 515.464844 475.355469 L 514.78125 474.402344 L 514.097656 473.71875 L 513.144531 473.035156 L 512.597656 472.082031 L 511.644531 471.671875 L 508.097656 471.671875 L 507.277344 470.992188 L 506.734375 470.035156 L 505.777344 469.761719 L 504.003906 469.761719 Z M 503.050781 404.703125 "/>
<path style="fill-rule:nonzero;fill:rgb(0%,44.705882%,69.803922%);fill-opacity:1;stroke-width:0.75;stroke-linecap:round;stroke-linejoin:round;stroke:rgb(20%,20%,20%);stroke-opacity:1;stroke-miterlimit:10;" d="M 46.039062 481.226562 L 46.917969 481.519531 L 47.796875 481.960938 L 48.382812 482.839844 L 48.527344 483.71875 L 48.527344 485.476562 L 48.675781 486.359375 L 49.554688 487.089844 L 50.433594 487.382812 L 51.167969 488.261719 L 51.3125 489.140625 L 51.3125 490.023438 L 51.167969 490.902344 L 51.460938 491.78125 L 52.195312 492.511719 L 53.074219 492.953125 L 53.804688 493.6875 L 54.097656 494.566406 L 54.097656 495.445312 L 53.953125 496.324219 L 54.097656 497.203125 L 54.832031 497.9375 L 55.710938 498.375 L 56.589844 499.109375 L 56.882812 499.988281 L 56.882812 502.625 L 56.738281 503.507812 L 56.738281 504.53125 L 56.882812 505.410156 L 57.46875 506.292969 L 58.347656 506.730469 L 59.230469 507.316406 L 59.667969 508.195312 L 59.667969 509.074219 L 59.523438 509.957031 L 59.667969 510.835938 L 60.109375 511.714844 L 60.988281 512.152344 L 61.867188 512.742188 L 62.453125 513.621094 L 62.453125 515.378906 L 62.308594 516.257812 L 62.308594 518.894531 L 62.601562 519.777344 L 63.480469 520.363281 L 64.359375 520.800781 L 65.09375 521.679688 L 65.238281 522.5625 L 65.238281 523.441406 L 65.09375 524.320312 L 65.09375 526.957031 L 65.238281 527.835938 L 65.972656 528.570312 L 66.851562 529.007812 L 67.582031 529.597656 L 68.023438 530.476562 L 68.023438 532.234375 L 67.875 533.113281 L 67.875 538.390625 L 68.316406 539.269531 L 69.195312 539.855469 L 70.074219 540.296875 L 70.660156 541.175781 L 70.808594 542.054688 L 70.808594 542.933594 L 70.660156 543.8125 L 70.660156 549.96875 L 70.808594 550.847656 L 70.808594 551.726562 L 70.660156 552.609375 L 70.074219 553.488281 L 69.050781 553.925781 L 63.773438 553.925781 L 63.1875 553.632812 L 62.453125 552.902344 L 62.015625 552.019531 L 61.425781 551.289062 L 60.546875 550.996094 L 59.667969 551.140625 L 58.789062 551.140625 L 57.910156 550.996094 L 57.175781 550.410156 L 56.589844 549.53125 L 56.003906 548.648438 L 55.125 548.210938 L 54.246094 547.476562 L 53.804688 546.597656 L 53.074219 545.71875 L 52.195312 545.425781 L 51.3125 545.425781 L 50.433594 545.574219 L 46.917969 545.574219 Z M 46.039062 481.226562 "/>
<path style="fill-rule:nonzero;fill:rgb(0%,44.705882%,69.803922%);fill-opacity:1;stroke-width:0.75;stroke-linecap:round;stroke-linejoin:round;stroke:rgb(20%,20%,20%);stroke-opacity:1;stroke-miterlimit:10;" d="M 119.015625 481.429688 L 120.027344 481.226562 L 120.933594 481.226562 L 121.941406 481.730469 L 122.445312 482.640625 L 123.351562 483.242188 L 124.160156 484.050781 L 124.160156 485.964844 L 124.765625 486.875 L 125.671875 487.378906 L 126.277344 488.386719 L 127.082031 488.992188 L 127.890625 489.796875 L 128.496094 490.605469 L 129.503906 491.210938 L 129.90625 492.21875 L 129.804688 493.125 L 130.007812 494.132812 L 130.914062 494.738281 L 131.722656 495.546875 L 132.429688 496.453125 L 133.4375 497.058594 L 133.738281 497.964844 L 133.636719 498.972656 L 133.839844 499.882812 L 134.847656 500.484375 L 135.554688 501.292969 L 136.359375 502.199219 L 137.269531 502.804688 L 137.570312 503.8125 L 137.570312 504.820312 L 137.46875 505.730469 L 137.46875 506.738281 L 137.773438 507.644531 L 138.78125 508.148438 L 139.386719 509.058594 L 139.386719 510.972656 L 140.191406 511.78125 L 141.097656 512.382812 L 141.402344 513.394531 L 141.300781 514.300781 L 141.300781 516.214844 L 141.601562 517.222656 L 142.613281 517.726562 L 143.214844 518.535156 L 143.214844 520.449219 L 144.023438 521.359375 L 144.929688 521.863281 L 145.234375 522.871094 L 145.132812 523.777344 L 145.132812 525.695312 L 145.433594 526.703125 L 146.34375 527.207031 L 147.046875 528.113281 L 147.148438 529.023438 L 147.046875 530.03125 L 146.949219 531.039062 L 147.046875 531.945312 L 147.855469 532.753906 L 148.761719 533.355469 L 148.964844 534.367188 L 148.964844 536.28125 L 148.863281 537.1875 L 149.265625 538.195312 L 150.175781 538.703125 L 150.878906 539.609375 L 150.878906 553.019531 L 150.074219 553.824219 L 149.164062 553.925781 L 148.15625 553.925781 L 147.25 553.421875 L 146.746094 552.414062 L 145.738281 551.910156 L 144.828125 552.011719 L 143.820312 551.910156 L 143.117188 551.003906 L 142.410156 550.195312 L 141.503906 549.589844 L 141 548.582031 L 140.089844 548.179688 L 137.167969 548.179688 L 136.359375 548.28125 L 135.351562 548.179688 L 120.027344 548.179688 Z M 119.015625 481.429688 "/>
<path style="fill-rule:nonzero;fill:rgb(0%,44.705882%,69.803922%);fill-opacity:1;stroke-width:0.75;stroke-linecap:round;stroke-linejoin:round;stroke:rgb(20%,20%,20%);stroke-opacity:1;stroke-miterlimit:10;" d="M 195.558594 481.226562 L 196.542969 481.226562 L 197.523438 482.113281 L 198.210938 482.996094 L 199.292969 483.78125 L 199.882812 484.765625 L 200.863281 485.058594 L 201.945312 484.960938 L 202.925781 485.453125 L 203.417969 486.433594 L 204.5 487.121094 L 205.1875 488.105469 L 206.167969 488.890625 L 206.957031 489.773438 L 207.742188 490.558594 L 208.722656 491.347656 L 208.820312 492.328125 L 208.722656 493.410156 L 209.410156 494.292969 L 211.472656 494.292969 L 212.359375 494.980469 L 212.554688 495.964844 L 212.457031 497.042969 L 213.144531 497.929688 L 214.226562 498.617188 L 214.421875 499.597656 L 214.324219 500.582031 L 214.914062 501.5625 L 215.894531 502.152344 L 216.289062 503.136719 L 216.191406 504.214844 L 216.582031 505.199219 L 217.664062 505.789062 L 218.054688 506.769531 L 218.054688 507.753906 L 218.351562 508.832031 L 219.332031 509.324219 L 219.921875 510.40625 L 219.921875 511.386719 L 220.019531 512.371094 L 221.101562 513.058594 L 221.789062 513.941406 L 221.789062 514.925781 L 221.886719 516.003906 L 222.773438 516.691406 L 223.65625 517.578125 L 223.65625 519.542969 L 223.558594 520.621094 L 223.753906 521.605469 L 224.738281 522.292969 L 225.523438 523.175781 L 225.523438 527.203125 L 225.425781 528.285156 L 225.816406 529.269531 L 226.898438 529.859375 L 227.390625 530.839844 L 227.390625 552.257812 L 227.191406 553.238281 L 226.210938 553.925781 L 225.226562 553.925781 L 224.148438 553.730469 L 223.558594 552.847656 L 223.558594 551.863281 L 223.460938 550.78125 L 222.574219 550.09375 L 221.691406 549.210938 L 220.90625 548.328125 L 220.019531 547.640625 L 219.234375 546.558594 L 218.253906 545.96875 L 217.664062 544.988281 L 216.582031 544.300781 L 216.089844 543.316406 L 216.191406 542.234375 L 215.894531 541.253906 L 214.914062 540.664062 L 214.125 539.683594 L 213.339844 538.992188 L 212.359375 538.992188 L 211.277344 538.894531 L 209.707031 537.128906 L 196.542969 537.128906 Z M 195.558594 481.226562 "/>
<path style="fill-rule:nonzero;fill:rgb(0%,44.705882%,69.803922%);fill-opacity:1;stroke-width:0.75;stroke-linecap:round;stroke-linejoin:round;stroke:rgb(20%,20%,20%);stroke-opacity:1;stroke-miterlimit:10;" d="M 271.535156 481.226562 L 272.539062 481.226562 L 273.359375 482.046875 L 274.089844 482.960938 L 276.003906 482.960938 L 276.824219 483.78125 L 277.554688 484.601562 L 278.46875 485.421875 L 279.199219 486.335938 L 280.199219 487.066406 L 280.839844 487.976562 L 281.75 488.617188 L 282.390625 489.621094 L 283.394531 490.257812 L 284.03125 491.261719 L 285.035156 491.898438 L 285.492188 492.8125 L 285.398438 493.816406 L 285.765625 494.726562 L 286.769531 495.367188 L 287.40625 496.371094 L 288.410156 497.007812 L 289.050781 498.011719 L 290.050781 498.648438 L 290.691406 499.5625 L 290.601562 500.566406 L 290.78125 501.476562 L 291.785156 502.117188 L 292.425781 503.027344 L 292.332031 504.03125 L 292.605469 505.035156 L 293.609375 505.582031 L 294.15625 506.585938 L 294.066406 507.496094 L 294.339844 508.5 L 295.34375 509.046875 L 295.890625 510.050781 L 295.800781 511.054688 L 296.164062 512.058594 L 297.167969 512.605469 L 297.625 513.609375 L 297.53125 514.519531 L 297.53125 516.527344 L 298.171875 517.441406 L 299.175781 518.078125 L 299.265625 519.082031 L 299.265625 520.085938 L 299.902344 520.816406 L 300.90625 521.546875 L 301 522.546875 L 301 523.550781 L 301.726562 524.371094 L 302.640625 525.101562 L 302.730469 526.105469 L 302.730469 527.109375 L 302.640625 528.019531 L 302.824219 529.023438 L 303.734375 529.664062 L 304.464844 530.484375 L 304.464844 552.285156 L 304.28125 553.289062 L 303.371094 553.835938 L 302.367188 553.925781 L 301.363281 553.5625 L 300.816406 552.648438 L 299.8125 551.921875 L 299.082031 551.007812 L 298.171875 550.277344 L 297.441406 549.367188 L 296.527344 548.546875 L 295.707031 547.722656 L 294.976562 546.902344 L 294.066406 546.171875 L 293.425781 545.261719 L 292.425781 545.171875 L 291.421875 545.171875 L 290.691406 544.53125 L 289.960938 543.527344 L 289.050781 542.890625 L 288.5 541.976562 L 287.5 541.703125 L 286.496094 541.796875 L 285.582031 541.15625 L 284.945312 540.246094 L 283.941406 539.605469 L 283.394531 538.601562 L 282.480469 538.238281 L 272.539062 538.238281 Z M 271.535156 481.226562 "/>
<path style="fill-rule:nonzero;fill:rgb(0%,44.705882%,69.803922%);fill-opacity:1;stroke-width:0.75;stroke-linecap:round;stroke-linejoin:round;stroke:rgb(20%,20%,20%);stroke-opacity:1;stroke-miterlimit:10;" d="M 351.574219 481.375 L 352.457031 481.226562 L 353.046875 481.816406 L 353.636719 482.699219 L 354.519531 482.847656 L 357.019531 482.847656 L 357.757812 483.289062 L 358.34375 484.171875 L 359.226562 484.757812 L 359.816406 485.640625 L 360.550781 486.082031 L 361.289062 486.96875 L 361.289062 490.351562 L 362.023438 490.941406 L 362.757812 491.527344 L 362.90625 492.410156 L 362.90625 493.148438 L 363.347656 494.03125 L 364.230469 494.472656 L 364.527344 495.207031 L 364.527344 496.089844 L 364.671875 496.972656 L 365.410156 497.414062 L 366.144531 498.152344 L 366.144531 499.917969 L 366.734375 500.507812 L 367.617188 501.09375 L 367.761719 501.976562 L 367.761719 502.714844 L 368.058594 503.597656 L 368.941406 504.039062 L 369.382812 504.773438 L 369.382812 506.539062 L 370.117188 506.980469 L 370.855469 507.71875 L 371 508.601562 L 371 509.335938 L 370.855469 510.21875 L 371 511.101562 L 371.441406 511.691406 L 372.324219 512.277344 L 372.765625 513.164062 L 373.503906 513.605469 L 374.089844 514.339844 L 374.238281 515.222656 L 374.089844 516.105469 L 374.089844 516.839844 L 374.238281 517.722656 L 374.972656 518.3125 L 375.710938 518.902344 L 375.855469 519.785156 L 375.710938 520.667969 L 375.710938 522.285156 L 376.300781 523.023438 L 377.035156 523.464844 L 377.476562 524.347656 L 377.328125 525.230469 L 377.328125 538.621094 L 377.476562 539.359375 L 377.328125 540.242188 L 376.59375 540.976562 L 375.855469 541.417969 L 375.710938 542.300781 L 375.855469 543.183594 L 375.414062 543.917969 L 374.53125 544.359375 L 374.089844 545.242188 L 374.238281 545.980469 L 374.089844 546.863281 L 373.207031 547.453125 L 372.472656 548.1875 L 371.882812 548.921875 L 371 549.511719 L 370.558594 550.394531 L 369.824219 550.6875 L 368.941406 550.6875 L 368.058594 550.542969 L 367.320312 550.542969 L 366.4375 550.835938 L 365.851562 551.71875 L 365.261719 552.160156 L 364.527344 552.898438 L 363.9375 553.78125 L 363.203125 553.925781 L 362.316406 553.925781 L 361.433594 553.78125 L 360.847656 553.925781 L 359.964844 553.78125 L 352.457031 553.78125 Z M 351.574219 481.375 "/>
<path style="fill-rule:nonzero;fill:rgb(0%,44.705882%,69.803922%);fill-opacity:1;stroke-width:0.75;stroke-linecap:round;stroke-linejoin:round;stroke:rgb(20%,20%,20%);stroke-opacity:1;stroke-miterlimit:10;" d="M 426.820312 481.226562 L 427.371094 482 L 428.035156 482.773438 L 429.027344 483.433594 L 429.578125 484.425781 L 430.570312 485.199219 L 431.34375 485.859375 L 432.003906 486.855469 L 433 487.515625 L 433.660156 488.289062 L 434.433594 489.28125 L 435.425781 489.832031 L 435.976562 490.824219 L 436.859375 491.488281 L 437.851562 492.257812 L 438.402344 493.253906 L 439.285156 493.804688 L 440.058594 494.6875 L 440.832031 495.679688 L 441.714844 496.121094 L 442.375 497.113281 L 443.257812 497.996094 L 444.25 498.65625 L 444.691406 499.539062 L 445.683594 500.203125 L 446.566406 501.085938 L 447.117188 501.96875 L 448.113281 502.519531 L 448.773438 503.511719 L 449.65625 504.394531 L 450.539062 504.945312 L 451.089844 505.9375 L 452.082031 506.601562 L 452.964844 507.371094 L 453.074219 508.367188 L 452.964844 509.359375 L 453.1875 510.242188 L 454.179688 510.902344 L 455.0625 511.675781 L 455.28125 512.667969 L 455.171875 513.550781 L 455.171875 551.058594 L 455.28125 552.050781 L 455.171875 552.933594 L 454.398438 553.816406 L 453.40625 553.925781 L 452.523438 553.925781 L 451.53125 553.707031 L 450.871094 552.824219 L 450.757812 551.832031 L 450.871094 550.949219 L 450.539062 549.957031 L 449.546875 549.515625 L 448.664062 549.625 L 447.671875 549.625 L 446.675781 548.960938 L 446.457031 547.96875 L 446.566406 547.085938 L 446.457031 546.09375 L 445.574219 545.320312 L 444.691406 544.769531 L 444.359375 543.777344 L 444.359375 541.902344 L 444.140625 541.460938 L 443.148438 541.019531 L 442.15625 540.910156 L 441.273438 541.019531 L 427.8125 541.019531 Z M 426.820312 481.226562 "/>
</g>
</svg>
