<?xml version="1.0" encoding="UTF-8"?>
<svg xmlns="http://www.w3.org/2000/svg" xmlns:xlink="http://www.w3.org/1999/xlink" width="576pt" height="576pt" viewBox="0 0 576 576" version="1.1">
<g id="surface16014">
<rect x="0" y="0" width="576" height="576" style="fill:rgb(100%,100%,100%);fill-opacity:1;stroke:none;"/>
<path style="fill-rule:nonzero;fill:rgb(0%,61.960784%,45.098039%);fill-opacity:1;stroke-width:0.75;stroke-linecap:round;stroke-linejoin:round;stroke:rgb(20%,20%,20%);stroke-opacity:1;stroke-miterlimit:10;" d="M 59.082031 22.445312 L 66.074219 22.445312 L 67.101562 22.390625 L 68.023438 22.71875 L 69.703125 24.398438 L 70.519531 25.210938 L 70.519531 106.234375 L 70.191406 107.207031 L 69.21875 107.207031 L 68.835938 106.234375 L 68.890625 105.257812 L 68.078125 104.445312 L 67.375 103.792969 L 67.265625 102.765625 L 66.453125 102.003906 L 66.453125 100.976562 L 66.234375 100.054688 L 65.585938 99.1875 L 65.640625 98.210938 L 65.042969 97.453125 L 64.828125 96.421875 L 64.070312 95.664062 L 64.015625 94.632812 L 63.203125 93.875 L 63.203125 92.847656 L 62.929688 91.925781 L 62.386719 91.058594 L 62.441406 90.082031 L 61.738281 89.269531 L 61.628906 88.292969 L 60.003906 86.667969 L 59.191406 85.800781 Z M 59.082031 22.445312 "/>
<path style="fill-rule:nonzero;fill:rgb(0%,61.960784%,45.098039%);fill-opacity:1;stroke-width:0.75;stroke-linecap:round;stroke-linejoin:round;stroke:rgb(20%,20%,20%);stroke-opacity:1;stroke-miterlimit:10;" d="M 148.949219 22.453125 L 149.953125 22.390625 L 150.890625 22.390625 L 151.703125 22.828125 L 152.140625 23.582031 L 152.828125 24.082031 L 153.328125 24.894531 L 153.390625 25.894531 L 154.015625 26.769531 L 153.953125 27.707031 L 154.582031 28.523438 L 154.582031 29.523438 L 154.769531 30.460938 L 155.144531 31.335938 L 155.457031 32.210938 L 155.707031 33.085938 L 156.082031 33.964844 L 156.269531 34.964844 L 156.269531 35.964844 L 156.894531 36.714844 L 156.894531 37.714844 L 156.832031 38.71875 L 157.457031 39.46875 L 157.457031 40.46875 L 158.019531 41.34375 L 158.019531 42.34375 L 158.644531 43.09375 L 158.582031 44.097656 L 158.582031 64.738281 L 159.210938 65.488281 L 159.144531 66.488281 L 159.144531 105.769531 L 159.210938 106.769531 L 158.394531 107.207031 L 157.519531 106.457031 L 156.769531 105.582031 L 156.207031 104.769531 L 156.269531 103.769531 L 156.207031 102.765625 L 155.644531 101.890625 L 155.082031 101.078125 L 155.082031 99.078125 L 154.519531 98.261719 L 154.519531 96.261719 L 153.953125 95.386719 L 153.953125 94.449219 L 153.328125 93.574219 L 153.390625 92.570312 L 152.765625 91.820312 L 152.765625 89.820312 L 152.265625 89.070312 L 152.203125 88.066406 L 151.765625 87.441406 L 151.515625 86.503906 L 151.078125 85.628906 L 150.453125 84.816406 L 150.453125 83.816406 L 149.765625 83 Z M 148.949219 22.453125 "/>
<path style="fill-rule:nonzero;fill:rgb(0%,61.960784%,45.098039%);fill-opacity:1;stroke-width:0.75;stroke-linecap:round;stroke-linejoin:round;stroke:rgb(20%,20%,20%);stroke-opacity:1;stroke-miterlimit:10;" d="M 235.363281 22.464844 L 236.394531 22.390625 L 237.355469 22.464844 L 238.238281 22.90625 L 238.902344 23.867188 L 239.050781 24.824219 L 239.417969 25.707031 L 240.375 26.519531 L 240.742188 27.402344 L 240.890625 28.433594 L 241.554688 29.246094 L 241.921875 30.128906 L 242.808594 30.941406 L 243.25 31.824219 L 243.542969 32.707031 L 243.839844 33.667969 L 244.355469 34.625 L 244.355469 35.582031 L 244.871094 36.464844 L 245.386719 37.351562 L 245.609375 38.234375 L 246.34375 39.121094 L 246.859375 40.003906 L 247.230469 40.8125 L 247.671875 41.773438 L 247.816406 42.804688 L 248.039062 43.6875 L 248.480469 44.644531 L 248.851562 45.53125 L 249.292969 46.339844 L 249.808594 47.226562 L 249.808594 48.257812 L 250.324219 49.066406 L 250.324219 50.097656 L 250.839844 50.984375 L 250.839844 52.972656 L 250.914062 54.003906 L 251.28125 54.890625 L 251.28125 73.015625 L 251.058594 73.972656 L 250.839844 74.933594 L 250.839844 78.910156 L 251.355469 79.796875 L 251.28125 80.828125 L 251.28125 105.957031 L 250.324219 106.398438 L 249.882812 107.207031 L 247.890625 107.207031 L 247.300781 106.617188 L 246.785156 105.808594 L 246.269531 104.921875 L 245.828125 104.039062 L 245.828125 103.082031 L 245.3125 102.195312 L 245.3125 100.207031 L 245.019531 99.25 L 244.796875 98.292969 L 244.796875 97.332031 L 244.28125 96.449219 L 244.28125 95.417969 L 243.765625 94.535156 L 243.324219 93.574219 L 242.882812 92.691406 L 242.4375 92.25 L 242.292969 91.21875 L 241.847656 90.332031 L 241.332031 89.523438 L 240.816406 88.636719 L 239.933594 88.269531 L 239.269531 87.460938 L 238.386719 86.871094 L 236.394531 86.871094 Z M 235.363281 22.464844 "/>
<path style="fill-rule:nonzero;fill:rgb(0%,61.960784%,45.098039%);fill-opacity:1;stroke-width:0.75;stroke-linecap:round;stroke-linejoin:round;stroke:rgb(20%,20%,20%);stroke-opacity:1;stroke-miterlimit:10;" d="M 324.402344 22.390625 L 325.355469 22.535156 L 326.265625 23.011719 L 327.125 23.679688 L 327.792969 24.542969 L 328.414062 25.402344 L 328.9375 26.261719 L 329.558594 27.167969 L 329.988281 28.121094 L 330.46875 28.984375 L 330.945312 29.890625 L 331.328125 30.796875 L 331.707031 31.753906 L 331.898438 32.707031 L 332.519531 33.421875 L 333.046875 34.285156 L 333.570312 35.191406 L 334.046875 36.097656 L 334.429688 37.003906 L 334.859375 37.914062 L 335.433594 38.820312 L 335.769531 39.726562 L 336.246094 40.636719 L 336.578125 41.542969 L 337.199219 42.210938 L 337.582031 43.167969 L 337.964844 44.074219 L 338.441406 44.933594 L 338.921875 45.839844 L 339.109375 46.84375 L 339.492188 47.75 L 339.683594 48.707031 L 339.96875 49.613281 L 340.113281 50.617188 L 340.304688 51.617188 L 340.496094 52.574219 L 340.589844 53.53125 L 340.78125 54.53125 L 340.878906 55.535156 L 340.878906 66.664062 L 340.6875 67.617188 L 340.6875 84.859375 L 340.496094 85.8125 L 340.304688 86.816406 L 340.304688 106.0625 L 340.113281 107.015625 L 339.160156 107.207031 L 338.300781 106.492188 L 337.628906 105.632812 L 337.105469 104.726562 L 336.628906 103.863281 L 336.148438 102.957031 L 335.960938 102.003906 L 335.386719 101.09375 L 335.097656 100.1875 L 335.003906 99.183594 L 334.382812 98.421875 L 334.191406 97.464844 L 333.808594 96.558594 L 333.429688 95.652344 L 333.046875 94.742188 L 332.664062 93.789062 L 332.136719 92.929688 L 331.660156 92.019531 L 331.277344 91.113281 L 330.753906 90.398438 L 330.46875 89.441406 L 329.894531 88.726562 L 329.320312 87.867188 L 329.082031 86.910156 L 328.558594 86.003906 L 328.03125 85.097656 L 327.554688 84.1875 L 326.835938 83.519531 L 326.3125 82.613281 L 325.40625 82.230469 Z M 324.402344 22.390625 "/>
<path style="fill-rule:nonzero;fill:rgb(0%,61.960784%,45.098039%);fill-opacity:1;stroke-width:0.75;stroke-linecap:round;stroke-linejoin:round;stroke:rgb(20%,20%,20%);stroke-opacity:1;stroke-miterlimit:10;" d="M 410.097656 22.457031 L 411.0625 22.390625 L 411.960938 22.90625 L 412.925781 23.164062 L 413.695312 24 L 414.59375 24.511719 L 415.429688 25.089844 L 416.328125 25.925781 L 417.101562 26.761719 L 418 27.210938 L 418.449219 28.109375 L 419.351562 28.882812 L 420.183594 29.460938 L 421.019531 29.910156 L 421.855469 30.746094 L 422.5 31.644531 L 422.882812 32.480469 L 423.527344 32.992188 L 423.910156 33.894531 L 424.234375 34.730469 L 424.617188 35.628906 L 425.195312 36.464844 L 425.390625 37.363281 L 425.582031 38.328125 L 425.902344 39.226562 L 426.289062 40.125 L 426.355469 41.089844 L 426.609375 41.988281 L 426.933594 42.890625 L 427.316406 43.789062 L 427.316406 44.753906 L 427.574219 45.652344 L 427.636719 46.617188 L 427.960938 47.578125 L 428.023438 48.542969 L 428.28125 49.441406 L 428.472656 50.34375 L 428.730469 51.304688 L 428.988281 52.207031 L 429.246094 53.105469 L 429.308594 54.070312 L 429.308594 56.0625 L 429.695312 56.960938 L 429.695312 57.925781 L 429.628906 58.886719 L 430.015625 59.851562 L 430.015625 61.78125 L 430.335938 62.679688 L 430.335938 63.707031 L 430.722656 64.605469 L 430.722656 66.535156 L 431.367188 67.113281 L 431.367188 68.078125 L 431.492188 68.976562 L 431.6875 69.941406 L 431.6875 71.933594 L 432.070312 72.832031 L 432.070312 77.714844 L 432.265625 78.550781 L 432.394531 79.578125 L 432.394531 81.507812 L 432.652344 82.339844 L 432.714844 83.371094 L 432.714844 84.332031 L 432.777344 85.296875 L 433.101562 86.195312 L 433.101562 87.226562 L 433.292969 88.125 L 433.421875 89.089844 L 433.421875 90.050781 L 433.742188 90.886719 L 433.742188 106.566406 L 433.230469 107.207031 L 432.328125 106.628906 L 431.492188 106.179688 L 430.59375 105.792969 L 411.0625 105.792969 Z M 410.097656 22.457031 "/>
<path style="fill-rule:nonzero;fill:rgb(0%,61.960784%,45.098039%);fill-opacity:1;stroke-width:0.75;stroke-linecap:round;stroke-linejoin:round;stroke:rgb(20%,20%,20%);stroke-opacity:1;stroke-miterlimit:10;" d="M 497.261719 22.390625 L 499.089844 23.304688 L 499.929688 24.21875 L 500.773438 25.058594 L 501.757812 25.691406 L 502.597656 26.183594 L 503.441406 26.675781 L 504.214844 27.515625 L 505.054688 28.289062 L 505.40625 29.0625 L 506.320312 29.484375 L 507.164062 29.976562 L 507.933594 30.816406 L 508.847656 31.167969 L 508.847656 32.152344 L 509.832031 32.574219 L 510.53125 33.34375 L 510.882812 34.257812 L 511.726562 34.679688 L 512.289062 35.242188 L 513.128906 35.871094 L 513.902344 36.714844 L 514.675781 37.488281 L 515.097656 38.332031 L 515.867188 39.101562 L 516.570312 39.945312 L 516.992188 40.789062 L 517.484375 41.769531 L 518.46875 43.597656 L 518.957031 44.4375 L 519.449219 45.28125 L 519.378906 46.335938 L 519.871094 47.246094 L 520.082031 48.160156 L 520.503906 49.074219 L 520.855469 49.984375 L 520.855469 52.019531 L 521.066406 52.933594 L 521.34375 53.917969 L 521.554688 54.898438 L 521.835938 55.8125 L 521.765625 56.796875 L 522.328125 57.707031 L 522.257812 58.691406 L 522.257812 59.675781 L 522.539062 60.65625 L 522.75 61.570312 L 522.75 67.609375 L 523.242188 68.589844 L 523.242188 69.574219 L 523.734375 70.417969 L 523.734375 78.492188 L 524.222656 79.332031 L 524.222656 86.425781 L 524.714844 87.269531 L 524.644531 88.320312 L 524.644531 89.304688 L 525.136719 90.148438 L 525.136719 103.277344 L 524.503906 104.1875 L 523.453125 104.257812 L 522.609375 104.75 L 521.835938 105.382812 L 520.925781 105.804688 L 520.011719 106.15625 L 519.027344 106.226562 L 518.117188 106.644531 L 517.273438 107.136719 L 508.214844 107.136719 L 507.234375 107.207031 L 506.25 107.136719 L 498.175781 107.136719 Z M 497.261719 22.390625 "/>
<path style="fill-rule:nonzero;fill:rgb(0%,61.960784%,45.098039%);fill-opacity:1;stroke-width:0.75;stroke-linecap:round;stroke-linejoin:round;stroke:rgb(20%,20%,20%);stroke-opacity:1;stroke-miterlimit:10;" d="M 52.949219 111.714844 L 53.976562 111.671875 L 54.957031 111.671875 L 55.894531 112.027344 L 56.742188 112.609375 L 57.636719 113.277344 L 58.304688 113.992188 L 59.0625 114.484375 L 59.6875 115.378906 L 60.582031 116.046875 L 61.25 116.671875 L 61.964844 117.566406 L 62.636719 118.011719 L 63.261719 118.902344 L 64.0625 119.351562 L 64.777344 120.019531 L 65.222656 120.734375 L 66.117188 121.539062 L 66.921875 122.386719 L 67.769531 123.234375 L 68.484375 124.125 L 69.195312 124.976562 L 69.867188 125.867188 L 70.359375 126.671875 L 70.9375 127.519531 L 71.339844 128.410156 L 71.742188 129.304688 L 72.1875 130.199219 L 72.632812 131.089844 L 72.902344 132.027344 L 73.125 133.011719 L 73.347656 133.949219 L 73.839844 134.886719 L 73.839844 135.867188 L 74.152344 136.804688 L 74.285156 137.742188 L 74.554688 138.679688 L 74.777344 139.570312 L 74.777344 140.597656 L 74.957031 141.535156 L 75.222656 142.519531 L 75.222656 143.546875 L 75.714844 144.4375 L 75.714844 146.445312 L 75.9375 147.382812 L 75.9375 149.394531 L 76.160156 150.332031 L 76.160156 155.375 L 76.382812 156.3125 L 76.382812 160.328125 L 76.652344 161.3125 L 76.652344 195.507812 L 76.339844 196.445312 L 75.3125 196.488281 L 74.417969 196.265625 L 73.4375 196.042969 L 72.5 195.773438 L 71.5625 195.550781 L 70.582031 195.28125 L 69.6875 195.105469 L 66.652344 195.105469 L 65.804688 194.835938 L 64.824219 194.613281 L 63.929688 194.167969 L 62.277344 192.515625 L 61.386719 191.84375 L 60.535156 191.042969 L 59.6875 190.195312 L 58.886719 189.34375 L 58.261719 188.585938 L 57.410156 187.871094 L 56.5625 187.425781 L 55.851562 186.757812 L 54.957031 186.222656 L 53.976562 186.222656 Z M 52.949219 111.714844 "/>
<path style="fill-rule:nonzero;fill:rgb(0%,61.960784%,45.098039%);fill-opacity:1;stroke-width:0.75;stroke-linecap:round;stroke-linejoin:round;stroke:rgb(20%,20%,20%);stroke-opacity:1;stroke-miterlimit:10;" d="M 141.558594 111.761719 L 142.625 111.671875 L 145.730469 111.671875 L 146.707031 112.203125 L 146.707031 113.269531 L 147.0625 114.160156 L 148.039062 114.957031 L 148.929688 115.757812 L 149.371094 116.824219 L 149.460938 117.890625 L 150.351562 118.332031 L 151.414062 118.332031 L 152.214844 119.308594 L 153.191406 119.664062 L 154.167969 119.664062 L 154.878906 120.730469 L 155.945312 120.996094 L 157.011719 121.175781 L 157.367188 122.152344 L 157.453125 123.21875 L 158.433594 123.929688 L 158.699219 124.992188 L 158.609375 126.058594 L 158.699219 127.035156 L 159.585938 127.746094 L 160.296875 128.722656 L 161.363281 128.902344 L 162.339844 129.167969 L 163.140625 130.144531 L 163.9375 131.03125 L 163.9375 133.164062 L 164.382812 134.140625 L 165.269531 134.941406 L 166.246094 135.738281 L 166.601562 136.71875 L 166.601562 195.246094 L 166.246094 196.308594 L 165.179688 196.488281 L 164.203125 196.488281 L 163.140625 196.398438 L 162.339844 195.421875 L 161.363281 195.066406 L 160.386719 195.15625 L 159.320312 195.15625 L 158.519531 194.269531 L 157.542969 193.734375 L 156.476562 193.734375 L 155.855469 192.847656 L 155.945312 191.78125 L 155.058594 191.070312 L 153.992188 191.160156 L 142.625 191.160156 Z M 141.558594 111.761719 "/>
<path style="fill-rule:nonzero;fill:rgb(0%,61.960784%,45.098039%);fill-opacity:1;stroke-width:0.75;stroke-linecap:round;stroke-linejoin:round;stroke:rgb(20%,20%,20%);stroke-opacity:1;stroke-miterlimit:10;" d="M 233.429688 111.78125 L 234.394531 111.671875 L 236.328125 111.671875 L 237.292969 111.78125 L 237.9375 112.636719 L 238.796875 113.175781 L 239.441406 114.035156 L 240.191406 114.785156 L 241.050781 115.429688 L 241.695312 116.394531 L 242.554688 117.039062 L 243.304688 117.792969 L 243.949219 118.652344 L 244.808594 119.292969 L 245.5625 120.046875 L 246.207031 120.90625 L 246.097656 121.765625 L 246.097656 122.730469 L 246.527344 123.589844 L 247.492188 123.589844 L 248.460938 124.019531 L 248.566406 124.984375 L 248.890625 125.949219 L 249.746094 126.59375 L 249.746094 130.351562 L 250.605469 130.996094 L 250.929688 131.964844 L 250.929688 134.863281 L 251.574219 135.613281 L 252.109375 136.472656 L 252.109375 146.992188 L 252.96875 147.636719 L 253.289062 148.605469 L 253.289062 194.449219 L 252.648438 195.308594 L 252.003906 196.058594 L 251.035156 196.488281 L 250.070312 196.378906 L 249.425781 195.414062 L 248.460938 195.308594 L 247.492188 194.984375 L 246.847656 194.125 L 246.207031 193.695312 L 245.453125 192.835938 L 244.703125 191.980469 L 243.734375 191.65625 L 242.769531 191.550781 L 242.125 190.582031 L 241.265625 189.832031 L 240.40625 189.292969 L 238.476562 189.292969 L 237.722656 188.757812 L 236.972656 188.113281 L 236.003906 188.113281 L 235.253906 187.363281 L 234.394531 186.933594 Z M 233.429688 111.78125 "/>
<path style="fill-rule:nonzero;fill:rgb(0%,61.960784%,45.098039%);fill-opacity:1;stroke-width:0.75;stroke-linecap:round;stroke-linejoin:round;stroke:rgb(20%,20%,20%);stroke-opacity:1;stroke-miterlimit:10;" d="M 320.480469 111.671875 L 321.464844 111.761719 L 322.183594 112.660156 L 322.992188 113.558594 L 323.800781 114.273438 L 324.695312 114.992188 L 324.875 115.980469 L 325.324219 116.789062 L 326.132812 117.773438 L 327.121094 117.863281 L 328.019531 118.402344 L 328.824219 119.121094 L 329.09375 120.109375 L 329.003906 121.1875 L 329.453125 121.992188 L 330.441406 121.992188 L 331.160156 122.710938 L 331.160156 123.699219 L 332.144531 124.507812 L 332.234375 125.492188 L 332.144531 126.480469 L 332.683594 127.289062 L 333.492188 128.1875 L 334.390625 129.082031 L 335.289062 129.800781 L 335.378906 130.789062 L 335.289062 131.777344 L 335.914062 132.585938 L 336.722656 133.480469 L 337.441406 134.289062 L 337.441406 135.277344 L 338.339844 135.90625 L 338.429688 136.890625 L 339.058594 137.789062 L 339.597656 138.6875 L 339.507812 139.675781 L 339.507812 140.660156 L 339.597656 141.648438 L 340.582031 142.457031 L 340.582031 145.417969 L 341.210938 146.226562 L 341.660156 147.214844 L 341.570312 148.203125 L 341.839844 149.097656 L 342.648438 149.816406 L 342.648438 156.90625 L 343.277344 157.714844 L 343.722656 158.613281 L 343.722656 174.679688 L 344.261719 175.484375 L 344.800781 176.472656 L 344.800781 192.539062 L 344.171875 193.347656 L 343.722656 194.15625 L 343.722656 195.140625 L 343.542969 196.21875 L 342.558594 196.488281 L 341.660156 196.128906 L 341.570312 195.140625 L 341.03125 194.332031 L 340.492188 193.4375 L 340.3125 192.449219 L 339.417969 191.730469 L 338.609375 191.191406 L 337.621094 191.101562 L 336.902344 190.207031 L 328.914062 190.207031 L 327.929688 190.117188 L 327.03125 190.5625 L 326.222656 191.28125 L 325.234375 191.28125 L 324.515625 192.179688 L 323.53125 192.269531 L 321.464844 192.269531 Z M 320.480469 111.671875 "/>
<path style="fill-rule:nonzero;fill:rgb(0%,61.960784%,45.098039%);fill-opacity:1;stroke-width:0.75;stroke-linecap:round;stroke-linejoin:round;stroke:rgb(20%,20%,20%);stroke-opacity:1;stroke-miterlimit:10;" d="M 412.355469 111.671875 L 414.035156 112.976562 L 414.316406 113.910156 L 414.410156 114.84375 L 415.34375 115.496094 L 415.996094 116.242188 L 416.929688 116.152344 L 417.769531 116.898438 L 417.675781 117.832031 L 417.675781 118.761719 L 418.140625 119.601562 L 418.886719 120.347656 L 418.792969 121.28125 L 419.449219 121.9375 L 420.378906 121.9375 L 421.125 122.589844 L 421.964844 123.242188 L 422.339844 124.175781 L 422.433594 125.109375 L 423.273438 125.761719 L 424.019531 126.507812 L 424.671875 127.347656 L 425.699219 128.09375 L 425.699219 129.027344 L 426.070312 129.867188 L 426.820312 130.519531 L 426.910156 131.453125 L 426.820312 132.386719 L 427.191406 133.320312 L 428.03125 133.972656 L 428.03125 134.90625 L 428.589844 135.746094 L 429.152344 136.492188 L 429.152344 143.117188 L 429.898438 143.769531 L 430.363281 144.703125 L 430.269531 145.636719 L 430.269531 156.925781 L 431.109375 157.578125 L 431.484375 158.511719 L 431.484375 194.15625 L 431.296875 195.089844 L 430.363281 195.367188 L 429.339844 195.554688 L 428.683594 196.488281 L 424.953125 196.488281 L 424.300781 195.554688 L 423.367188 195.367188 L 422.433594 195.183594 L 422.058594 193.316406 L 421.125 192.664062 L 421.035156 191.730469 L 420.753906 190.890625 L 419.820312 190.796875 L 413.289062 190.796875 Z M 412.355469 111.671875 "/>
<path style="fill-rule:nonzero;fill:rgb(0%,61.960784%,45.098039%);fill-opacity:1;stroke-width:0.75;stroke-linecap:round;stroke-linejoin:round;stroke:rgb(20%,20%,20%);stroke-opacity:1;stroke-miterlimit:10;" d="M 501.074219 111.78125 L 502.054688 111.671875 L 503.035156 111.671875 L 504.015625 112 L 504.667969 112.980469 L 505.648438 113.632812 L 505.757812 114.613281 L 505.863281 115.589844 L 506.84375 116.027344 L 507.824219 115.917969 L 508.585938 116.789062 L 509.457031 117.441406 L 510.4375 117.332031 L 511.308594 117.878906 L 511.417969 118.859375 L 511.527344 119.835938 L 512.507812 120.492188 L 513.160156 121.472656 L 514.140625 122.125 L 514.792969 122.996094 L 515.664062 123.757812 L 515.664062 126.695312 L 515.554688 127.675781 L 516.097656 128.546875 L 516.96875 129.308594 L 517.078125 130.289062 L 516.96875 131.269531 L 517.078125 132.25 L 517.949219 133.011719 L 518.605469 133.992188 L 519.582031 134.535156 L 519.910156 135.515625 L 519.910156 136.496094 L 519.800781 137.476562 L 520.238281 138.347656 L 521.109375 139 L 521.324219 139.980469 L 521.324219 193.984375 L 520.78125 194.964844 L 519.910156 195.617188 L 519.148438 196.488281 L 515.226562 196.488281 L 514.25 196.050781 L 513.703125 195.179688 L 512.722656 195.074219 L 510.765625 195.074219 L 509.894531 194.417969 L 509.894531 193.4375 L 509.675781 192.460938 L 508.695312 192.242188 L 507.714844 192.242188 L 506.953125 191.371094 L 506.082031 190.71875 L 505.648438 189.738281 L 505.648438 188.757812 L 505.539062 188.320312 L 504.558594 187.996094 L 503.578125 187.996094 L 502.816406 187.234375 L 502.054688 186.582031 Z M 501.074219 111.78125 "/>
<path style="fill-rule:nonzero;fill:rgb(0%,61.960784%,45.098039%);fill-opacity:1;stroke-width:0.75;stroke-linecap:round;stroke-linejoin:round;stroke:rgb(20%,20%,20%);stroke-opacity:1;stroke-miterlimit:10;" d="M 52.433594 201.050781 L 53.535156 200.953125 L 56.640625 200.953125 L 57.539062 201.652344 L 59.242188 203.355469 L 60.144531 204.15625 L 60.84375 205.058594 L 61.847656 205.859375 L 62.648438 206.859375 L 63.546875 207.460938 L 64.148438 208.5625 L 64.148438 209.5625 L 64.050781 210.664062 L 64.148438 211.667969 L 65.152344 212.265625 L 66.253906 212.265625 L 67.152344 212.769531 L 67.953125 213.769531 L 68.855469 214.46875 L 69.054688 215.570312 L 68.957031 216.671875 L 68.957031 217.675781 L 69.554688 218.675781 L 70.457031 219.378906 L 71.257812 220.378906 L 72.359375 220.378906 L 73.363281 220.578125 L 74.0625 221.582031 L 74.964844 222.179688 L 75.566406 223.183594 L 75.566406 224.285156 L 75.464844 225.285156 L 75.464844 255.027344 L 75.765625 256.027344 L 76.867188 256.628906 L 77.167969 257.628906 L 77.167969 284.164062 L 76.964844 285.265625 L 75.964844 285.769531 L 74.863281 285.769531 L 73.863281 285.066406 L 73.261719 284.164062 L 72.160156 284.066406 L 71.160156 283.964844 L 70.457031 282.964844 L 70.558594 281.863281 L 70.058594 280.960938 L 68.957031 280.859375 L 67.953125 280.761719 L 67.253906 279.761719 L 67.351562 278.660156 L 66.851562 277.757812 L 66.050781 277.257812 L 65.449219 276.253906 L 64.347656 275.855469 L 63.347656 275.953125 L 62.445312 275.152344 L 61.546875 274.253906 L 60.542969 274.351562 L 59.441406 273.953125 L 58.84375 272.949219 L 57.742188 272.648438 L 53.535156 272.648438 Z M 52.433594 201.050781 "/>
<path style="fill-rule:nonzero;fill:rgb(0%,61.960784%,45.098039%);fill-opacity:1;stroke-width:0.75;stroke-linecap:round;stroke-linejoin:round;stroke:rgb(20%,20%,20%);stroke-opacity:1;stroke-miterlimit:10;" d="M 144.078125 201.039062 L 145.039062 200.953125 L 149.058594 200.953125 L 150.019531 201.214844 L 150.71875 202 L 151.589844 202.785156 L 151.851562 203.746094 L 151.851562 206.71875 L 152.640625 207.414062 L 152.726562 208.464844 L 152.726562 209.425781 L 152.8125 210.386719 L 153.863281 210.558594 L 154.472656 211.257812 L 154.472656 212.21875 L 154.824219 213.179688 L 155.785156 213.179688 L 156.21875 214.140625 L 156.65625 214.929688 L 157.355469 215.714844 L 158.230469 216.585938 L 158.839844 217.375 L 159.015625 218.335938 L 159.714844 219.121094 L 159.890625 220.082031 L 160.585938 220.78125 L 160.585938 221.828125 L 160.847656 222.703125 L 161.460938 223.488281 L 161.460938 224.535156 L 161.808594 225.410156 L 162.335938 226.195312 L 162.335938 228.203125 L 162.859375 228.992188 L 163.207031 229.953125 L 163.207031 255.71875 L 163.296875 256.679688 L 164.082031 257.378906 L 164.082031 285.15625 L 163.382812 285.769531 L 162.421875 285.59375 L 162.246094 284.546875 L 162.246094 282.535156 L 161.285156 282.273438 L 160.5 281.75 L 159.539062 281.402344 L 148.796875 281.402344 L 147.746094 281.488281 L 147.046875 282.273438 L 145.039062 282.273438 Z M 144.078125 201.039062 "/>
<path style="fill-rule:nonzero;fill:rgb(0%,61.960784%,45.098039%);fill-opacity:1;stroke-width:0.75;stroke-linecap:round;stroke-linejoin:round;stroke:rgb(20%,20%,20%);stroke-opacity:1;stroke-miterlimit:10;" d="M 232.429688 201.046875 L 233.363281 200.953125 L 235.328125 200.953125 L 236.074219 201.699219 L 236.820312 202.539062 L 237.660156 203.378906 L 238.597656 203.472656 L 239.34375 204.222656 L 239.996094 204.875 L 240.183594 205.902344 L 241.773438 207.492188 L 242.519531 208.144531 L 242.613281 209.171875 L 243.359375 209.824219 L 243.453125 210.851562 L 244.199219 211.507812 L 244.199219 212.535156 L 244.386719 213.46875 L 245.042969 214.214844 L 245.226562 215.058594 L 246.070312 215.898438 L 246.816406 216.738281 L 247.65625 217.578125 L 248.402344 218.234375 L 248.496094 219.261719 L 249.246094 219.914062 L 249.246094 220.941406 L 249.429688 221.78125 L 250.085938 222.625 L 250.085938 223.558594 L 250.460938 224.398438 L 250.925781 225.238281 L 251.300781 226.078125 L 251.765625 226.917969 L 251.765625 230.84375 L 252.609375 231.683594 L 252.699219 232.617188 L 253.449219 233.457031 L 253.449219 265.777344 L 253.355469 266.710938 L 254.195312 267.554688 L 254.289062 268.488281 L 254.289062 285.207031 L 253.449219 285.769531 L 252.515625 285.300781 L 251.765625 284.554688 L 250.925781 283.714844 L 250.085938 282.964844 L 249.992188 281.9375 L 249.246094 281.285156 L 248.402344 280.628906 L 247.46875 280.722656 L 246.628906 280.164062 L 245.789062 279.789062 L 244.761719 279.882812 L 244.015625 279.230469 L 243.078125 278.949219 L 242.238281 279.136719 L 241.210938 279.042969 L 233.363281 279.042969 Z M 232.429688 201.046875 "/>
<path style="fill-rule:nonzero;fill:rgb(0%,61.960784%,45.098039%);fill-opacity:1;stroke-width:0.75;stroke-linecap:round;stroke-linejoin:round;stroke:rgb(20%,20%,20%);stroke-opacity:1;stroke-miterlimit:10;" d="M 319.078125 201.050781 L 320.160156 200.953125 L 322.320312 200.953125 L 323.207031 201.640625 L 324.285156 201.933594 L 326.449219 201.933594 L 327.332031 202.820312 L 328.21875 203.703125 L 329.199219 204.589844 L 330.183594 205.472656 L 331.066406 206.359375 L 331.953125 207.242188 L 332.835938 207.929688 L 333.917969 208.125 L 334.113281 209.207031 L 334.800781 209.992188 L 335.882812 210.09375 L 336.078125 211.171875 L 336.769531 212.058594 L 337.160156 213.039062 L 337.652344 213.925781 L 338.636719 214.90625 L 339.519531 215.890625 L 340.109375 216.773438 L 340.402344 217.855469 L 342.171875 219.625 L 342.269531 220.707031 L 343.15625 221.589844 L 344.140625 222.476562 L 344.140625 247.535156 L 344.238281 248.617188 L 345.121094 249.503906 L 345.121094 253.828125 L 345.515625 254.808594 L 346.105469 255.695312 L 346.105469 284 L 346.203125 285.078125 L 345.417969 285.769531 L 344.628906 284.882812 L 343.550781 284.785156 L 342.960938 283.902344 L 343.058594 282.820312 L 342.664062 281.835938 L 341.582031 281.835938 L 340.992188 280.953125 L 341.09375 279.773438 L 340.601562 278.886719 L 339.816406 277.90625 L 338.734375 277.808594 L 337.847656 277.019531 L 336.769531 276.824219 L 327.136719 276.824219 L 326.152344 277.316406 L 325.171875 278.199219 L 324.1875 278.398438 L 320.945312 278.398438 L 320.160156 278.789062 Z M 319.078125 201.050781 "/>
<path style="fill-rule:nonzero;fill:rgb(0%,61.960784%,45.098039%);fill-opacity:1;stroke-width:0.75;stroke-linecap:round;stroke-linejoin:round;stroke:rgb(20%,20%,20%);stroke-opacity:1;stroke-miterlimit:10;" d="M 410.964844 201.726562 L 411.824219 201.039062 L 412.941406 200.953125 L 413.972656 200.953125 L 415.003906 201.296875 L 415.949219 201.640625 L 416.894531 202.414062 L 417.753906 203.273438 L 418.527344 204.21875 L 419.386719 204.992188 L 420.332031 205.851562 L 420.503906 206.882812 L 420.933594 207.828125 L 421.191406 208.859375 L 421.535156 209.890625 L 421.878906 210.835938 L 421.878906 212.984375 L 422.566406 213.84375 L 422.566406 215.992188 L 423.167969 216.851562 L 423.425781 217.964844 L 423.9375 218.824219 L 424.023438 219.941406 L 424.625 220.800781 L 424.625 221.917969 L 424.96875 222.863281 L 425.914062 223.722656 L 426.6875 224.582031 L 426.6875 225.699219 L 427.375 226.558594 L 427.375 227.589844 L 427.976562 228.535156 L 428.0625 229.566406 L 428.578125 230.511719 L 428.75 231.542969 L 428.75 233.691406 L 429.265625 234.550781 L 429.4375 235.582031 L 429.4375 240.996094 L 429.695312 241.941406 L 430.125 242.972656 L 430.125 249.417969 L 430.039062 250.449219 L 430.8125 251.308594 L 430.8125 261.964844 L 430.898438 263.082031 L 431.5 263.941406 L 431.5 270.386719 L 432.1875 271.332031 L 432.101562 272.363281 L 432.875 273.308594 L 432.789062 274.339844 L 432.789062 284.050781 L 432.875 285.082031 L 432.101562 285.769531 L 431.070312 285.769531 L 430.210938 284.996094 L 430.039062 283.878906 L 429.609375 283.019531 L 428.664062 282.074219 L 428.664062 281.042969 L 428.0625 280.097656 L 427.976562 279.066406 L 427.460938 278.121094 L 427.203125 277.089844 L 426.601562 276.144531 L 426.601562 275.113281 L 425.914062 274.253906 L 425.914062 273.222656 L 425.65625 272.105469 L 424.710938 271.332031 L 424.539062 270.300781 L 423.851562 269.699219 L 423.167969 268.753906 L 422.652344 267.894531 L 422.394531 266.777344 L 421.449219 266.605469 L 416.035156 266.605469 L 415.261719 267.378906 L 414.144531 267.292969 L 411.996094 267.292969 Z M 410.964844 201.726562 "/>
<path style="fill-rule:nonzero;fill:rgb(0%,61.960784%,45.098039%);fill-opacity:1;stroke-width:0.75;stroke-linecap:round;stroke-linejoin:round;stroke:rgb(20%,20%,20%);stroke-opacity:1;stroke-miterlimit:10;" d="M 501.003906 201.039062 L 502.03125 200.953125 L 505.117188 200.953125 L 506.058594 201.808594 L 506.917969 202.75 L 507.601562 203.609375 L 507.601562 204.636719 L 507.6875 205.664062 L 508.289062 206.519531 L 508.289062 207.546875 L 508.972656 208.40625 L 508.972656 212.519531 L 509.402344 213.375 L 509.65625 214.402344 L 509.914062 215.34375 L 510.6875 216.117188 L 511.542969 216.886719 L 511.714844 217.914062 L 512.570312 218.773438 L 513.597656 218.941406 L 513.769531 219.972656 L 514.457031 220.828125 L 514.96875 221.683594 L 515.828125 222.542969 L 515.996094 223.570312 L 516.511719 224.425781 L 517.195312 225.28125 L 517.28125 226.3125 L 517.28125 228.367188 L 517.96875 229.136719 L 517.96875 230.167969 L 518.054688 231.195312 L 518.652344 232.050781 L 518.652344 233.078125 L 519.339844 233.9375 L 519.339844 243.1875 L 519.425781 244.214844 L 520.023438 245.074219 L 520.023438 252.269531 L 520.710938 253.125 L 520.710938 263.320312 L 521.394531 264.09375 L 521.394531 284.652344 L 520.539062 285.082031 L 519.765625 285.769531 L 518.996094 285.167969 L 518.140625 284.398438 L 517.882812 283.371094 L 517.625 282.339844 L 516.769531 281.570312 L 516.425781 280.628906 L 516.253906 279.597656 L 515.742188 278.828125 L 515.140625 277.972656 L 514.96875 276.945312 L 514.371094 276.085938 L 514.371094 275.058594 L 513.683594 274.203125 L 513.257812 273.34375 L 513 272.316406 L 512.140625 271.976562 L 511.285156 271.289062 L 510.941406 270.347656 L 510.171875 269.917969 L 502.03125 269.917969 Z M 501.003906 201.039062 "/>
<path style="fill-rule:nonzero;fill:rgb(0%,61.960784%,45.098039%);fill-opacity:1;stroke-width:0.75;stroke-linecap:round;stroke-linejoin:round;stroke:rgb(20%,20%,20%);stroke-opacity:1;stroke-miterlimit:10;" d="M 57.441406 290.273438 L 58.460938 290.230469 L 60.457031 290.230469 L 61.394531 290.515625 L 62.414062 290.558594 L 63.433594 290.679688 L 64.332031 291.007812 L 64.65625 291.945312 L 65.226562 292.515625 L 65.839844 293.371094 L 66.125 294.308594 L 66.453125 295.246094 L 66.738281 296.226562 L 67.0625 297.164062 L 67.347656 298.0625 L 67.917969 299.9375 L 68.246094 300.875 L 68.53125 301.8125 L 68.855469 302.75 L 69.429688 303.566406 L 69.714844 304.503906 L 70.039062 305.441406 L 70.367188 306.378906 L 70.652344 307.316406 L 70.9375 308.214844 L 71.304688 309.152344 L 71.546875 310.089844 L 71.835938 311.027344 L 72.121094 311.964844 L 72.160156 312.984375 L 72.160156 370.683594 L 72.078125 371.664062 L 71.753906 372.601562 L 71.261719 373.457031 L 70.652344 374.070312 L 69.957031 374.679688 L 69.019531 375.046875 L 68.125 374.722656 L 67.183594 374.4375 L 66.371094 373.621094 L 65.800781 372.765625 L 65.433594 372.03125 L 64.65625 371.335938 L 64.332031 370.441406 L 64.046875 369.503906 L 63.71875 368.566406 L 63.394531 367.625 L 63.066406 366.6875 L 62.78125 365.792969 L 62.457031 364.855469 L 61.882812 363.996094 L 61.597656 363.058594 L 61.273438 362.121094 L 60.988281 361.183594 L 60.785156 360.246094 L 60.375 359.308594 L 59.804688 357.433594 L 59.480469 356.496094 L 59.519531 355.476562 L 59.191406 354.578125 L 58.460938 354.007812 Z M 57.441406 290.273438 "/>
<path style="fill-rule:nonzero;fill:rgb(0%,61.960784%,45.098039%);fill-opacity:1;stroke-width:0.75;stroke-linecap:round;stroke-linejoin:round;stroke:rgb(20%,20%,20%);stroke-opacity:1;stroke-miterlimit:10;" d="M 141.1875 290.445312 L 142.253906 290.339844 L 149.5 290.339844 L 150.5625 290.230469 L 151.628906 290.550781 L 152.269531 291.511719 L 153.226562 292.148438 L 153.972656 293.214844 L 154.933594 293.855469 L 155.359375 294.921875 L 155.359375 295.878906 L 155.890625 296.839844 L 156.851562 297.476562 L 157.0625 298.542969 L 157.0625 299.503906 L 157.914062 300.355469 L 158.660156 301.207031 L 158.769531 302.273438 L 158.660156 303.230469 L 158.660156 305.363281 L 158.769531 306.429688 L 159.726562 306.960938 L 160.367188 308.027344 L 160.367188 317.402344 L 160.261719 318.46875 L 160.367188 319.535156 L 161.21875 320.171875 L 162.070312 321.132812 L 162.070312 322.199219 L 161.964844 323.261719 L 161.964844 332.640625 L 162.710938 333.386719 L 163.667969 334.238281 L 163.667969 342.550781 L 164.414062 343.402344 L 165.269531 344.148438 L 165.375 345.214844 L 165.375 352.457031 L 165.269531 353.523438 L 165.480469 354.589844 L 166.441406 355.121094 L 166.972656 356.1875 L 166.972656 370.785156 L 165.375 372.382812 L 165.375 373.449219 L 165.160156 374.515625 L 164.097656 375.046875 L 163.136719 374.941406 L 161.007812 374.941406 L 159.941406 375.046875 L 158.980469 374.726562 L 158.34375 373.664062 L 157.382812 373.238281 L 156.316406 373.34375 L 155.679688 373.023438 L 155.039062 371.957031 L 153.972656 371.636719 L 152.90625 371.636719 L 152.054688 370.890625 L 151.308594 370.039062 L 150.351562 369.1875 L 149.5 368.335938 L 142.253906 368.335938 Z M 141.1875 290.445312 "/>
<path style="fill-rule:nonzero;fill:rgb(0%,61.960784%,45.098039%);fill-opacity:1;stroke-width:0.75;stroke-linecap:round;stroke-linejoin:round;stroke:rgb(20%,20%,20%);stroke-opacity:1;stroke-miterlimit:10;" d="M 232.414062 290.316406 L 233.445312 290.230469 L 238.507812 290.230469 L 239.453125 290.746094 L 240.3125 291.605469 L 240.828125 292.550781 L 240.828125 293.496094 L 241.773438 294.179688 L 242.03125 295.210938 L 242.03125 296.242188 L 242.113281 297.269531 L 243.058594 297.957031 L 243.230469 298.902344 L 243.230469 299.933594 L 243.316406 300.960938 L 244.347656 301.648438 L 244.519531 302.679688 L 244.433594 303.710938 L 244.433594 306.714844 L 245.207031 307.488281 L 245.722656 308.429688 L 245.722656 312.464844 L 245.636719 313.496094 L 245.804688 314.527344 L 246.835938 315.214844 L 246.921875 316.242188 L 246.921875 321.308594 L 247.523438 322.167969 L 248.210938 323.023438 L 248.125 323.96875 L 248.125 326.03125 L 248.554688 326.972656 L 249.414062 327.746094 L 249.414062 330.75 L 249.328125 331.78125 L 249.414062 332.8125 L 250.441406 333.5 L 250.613281 334.527344 L 250.613281 337.535156 L 251.472656 338.21875 L 251.902344 339.25 L 251.816406 340.28125 L 251.816406 344.316406 L 252.074219 345.257812 L 253.019531 346.03125 L 253.105469 347.0625 L 253.019531 348.007812 L 253.019531 350.066406 L 253.105469 351.097656 L 253.960938 351.785156 L 254.304688 352.8125 L 254.304688 374.105469 L 253.703125 374.960938 L 252.675781 374.960938 L 251.644531 375.046875 L 250.699219 374.617188 L 250.011719 373.761719 L 248.984375 373.761719 L 248.125 373.160156 L 247.265625 372.472656 L 246.234375 372.558594 L 245.464844 371.613281 L 244.433594 370.839844 L 244.433594 369.898438 L 244.003906 368.953125 L 243.144531 368.179688 L 242.285156 367.578125 L 241.601562 366.550781 L 239.882812 365.003906 L 239.109375 364.058594 L 238.253906 363.285156 L 237.308594 362.515625 L 236.535156 361.570312 L 235.761719 360.710938 L 234.902344 360.109375 L 234.21875 359.167969 L 233.359375 358.394531 Z M 232.414062 290.316406 "/>
<path style="fill-rule:nonzero;fill:rgb(0%,61.960784%,45.098039%);fill-opacity:1;stroke-width:0.75;stroke-linecap:round;stroke-linejoin:round;stroke:rgb(20%,20%,20%);stroke-opacity:1;stroke-miterlimit:10;" d="M 321.257812 290.402344 L 322.285156 290.316406 L 326.304688 290.316406 L 327.25 290.230469 L 328.019531 290.832031 L 328.273438 291.859375 L 328.875 292.628906 L 329.300781 293.570312 L 329.644531 294.511719 L 330.328125 295.28125 L 330.414062 296.222656 L 330.414062 298.277344 L 330.84375 299.132812 L 331.269531 300.074219 L 331.269531 303.070312 L 331.183594 304.097656 L 331.957031 304.953125 L 332.039062 305.894531 L 332.039062 308.976562 L 332.726562 309.660156 L 332.8125 310.6875 L 332.8125 313.683594 L 333.582031 314.539062 L 333.667969 315.566406 L 333.667969 316.507812 L 333.582031 317.535156 L 334.179688 318.304688 L 334.4375 319.332031 L 334.4375 322.328125 L 334.949219 323.097656 L 335.207031 324.125 L 335.207031 325.152344 L 335.464844 326.179688 L 336.0625 326.949219 L 336.0625 329.945312 L 336.234375 330.972656 L 336.832031 331.828125 L 336.832031 332.855469 L 337.433594 333.539062 L 337.605469 334.566406 L 337.605469 336.535156 L 338.03125 337.476562 L 338.460938 338.417969 L 338.460938 340.386719 L 338.714844 341.414062 L 339.230469 342.269531 L 339.230469 343.210938 L 339.914062 344.066406 L 340 345.09375 L 340 348.089844 L 340.769531 348.859375 L 340.855469 349.800781 L 340.855469 350.828125 L 341.113281 351.769531 L 341.625 352.625 L 341.625 354.59375 L 341.710938 355.621094 L 342.480469 356.390625 L 342.398438 357.417969 L 342.910156 358.273438 L 343.253906 359.214844 L 343.253906 361.183594 L 344.023438 361.953125 L 344.023438 372.992188 L 343.253906 373.765625 L 342.398438 374.621094 L 341.457031 375.046875 L 340.597656 374.363281 L 338.117188 371.882812 L 337.175781 371.882812 L 336.40625 371.027344 L 335.550781 370.253906 L 334.695312 369.398438 L 333.921875 368.628906 L 333.066406 367.859375 L 332.039062 367.601562 L 330.414062 365.976562 L 329.644531 365.121094 L 328.789062 364.265625 L 328.019531 363.835938 L 327.078125 363.324219 L 326.304688 362.46875 L 325.535156 361.695312 L 323.824219 359.984375 L 322.796875 359.898438 L 322.113281 359.128906 Z M 321.257812 290.402344 "/>
<path style="fill-rule:nonzero;fill:rgb(0%,61.960784%,45.098039%);fill-opacity:1;stroke-width:0.75;stroke-linecap:round;stroke-linejoin:round;stroke:rgb(20%,20%,20%);stroke-opacity:1;stroke-miterlimit:10;" d="M 411.238281 290.230469 L 412.0625 290.691406 L 412.886719 291.515625 L 413.714844 292.25 L 414.445312 292.984375 L 414.628906 293.992188 L 414.628906 295.917969 L 415.457031 296.652344 L 415.457031 298.574219 L 415.640625 299.492188 L 416.371094 300.226562 L 416.28125 301.234375 L 416.28125 302.152344 L 416.648438 302.976562 L 417.199219 303.894531 L 417.199219 304.8125 L 417.105469 305.726562 L 417.746094 306.554688 L 418.023438 307.46875 L 418.023438 309.394531 L 418.757812 310.128906 L 418.847656 311.136719 L 418.847656 312.972656 L 419.765625 313.796875 L 419.765625 315.632812 L 420.589844 316.363281 L 420.589844 317.28125 L 421.414062 318.015625 L 421.414062 319.941406 L 421.691406 320.949219 L 422.332031 321.683594 L 422.332031 322.601562 L 422.242188 323.609375 L 423.15625 325.257812 L 423.15625 327.183594 L 423.707031 327.917969 L 423.984375 328.925781 L 423.984375 331.769531 L 424.808594 332.410156 L 424.898438 333.417969 L 424.898438 334.335938 L 425.726562 335.070312 L 425.726562 336.996094 L 425.816406 337.914062 L 426.640625 338.738281 L 426.550781 339.65625 L 426.734375 340.570312 L 427.46875 341.304688 L 427.46875 342.222656 L 427.375 343.140625 L 427.742188 344.054688 L 428.292969 344.789062 L 428.292969 345.796875 L 428.566406 346.625 L 429.300781 347.355469 L 430.035156 348.183594 L 430.035156 349.097656 L 429.941406 350.015625 L 430.308594 350.933594 L 430.859375 351.667969 L 430.859375 354.507812 L 431.410156 355.335938 L 431.777344 356.160156 L 431.683594 357.078125 L 431.683594 363.769531 L 432.050781 364.59375 L 432.601562 365.421875 L 432.601562 373.03125 L 432.328125 374.039062 L 431.59375 374.679688 L 430.769531 375.046875 L 429.757812 375.046875 L 429.027344 374.40625 L 428.109375 374.132812 L 427.285156 373.488281 L 426.457031 372.753906 L 425.632812 371.929688 L 424.808594 371.195312 L 424.074219 370.738281 L 423.15625 370.371094 L 422.332031 369.636719 L 421.597656 368.90625 L 420.773438 367.988281 L 420.132812 367.253906 L 419.214844 367.253906 L 418.390625 366.429688 L 417.65625 365.605469 L 416.921875 364.871094 L 416.097656 364.042969 L 415.363281 363.3125 L 414.445312 362.484375 L 413.621094 362.121094 L 412.796875 361.660156 L 411.972656 360.835938 Z M 411.238281 290.230469 "/>
<path style="fill-rule:nonzero;fill:rgb(0%,61.960784%,45.098039%);fill-opacity:1;stroke-width:0.75;stroke-linecap:round;stroke-linejoin:round;stroke:rgb(20%,20%,20%);stroke-opacity:1;stroke-miterlimit:10;" d="M 499.679688 290.332031 L 500.785156 290.230469 L 503.90625 290.230469 L 505.011719 290.535156 L 505.917969 291.035156 L 506.722656 291.640625 L 509.339844 294.257812 L 510.042969 295.160156 L 510.34375 296.066406 L 510.949219 296.972656 L 511.453125 297.878906 L 511.753906 298.882812 L 512.558594 299.789062 L 512.558594 301.902344 L 513.0625 302.808594 L 513.464844 303.816406 L 513.464844 304.921875 L 514.269531 305.828125 L 514.269531 307.941406 L 514.773438 308.746094 L 515.074219 309.851562 L 515.074219 310.957031 L 515.273438 311.964844 L 515.980469 312.871094 L 515.980469 314.984375 L 516.785156 315.886719 L 516.785156 318 L 517.386719 318.90625 L 517.589844 319.914062 L 517.691406 321.019531 L 518.496094 321.722656 L 518.496094 322.832031 L 518.898438 323.835938 L 519.300781 324.742188 L 519.300781 325.847656 L 519.398438 326.957031 L 520.203125 327.761719 L 520.105469 328.867188 L 520.105469 329.875 L 520.910156 330.777344 L 521.007812 331.886719 L 521.007812 332.890625 L 521.414062 333.898438 L 521.816406 334.804688 L 521.816406 338.023438 L 522.316406 338.929688 L 522.621094 340.035156 L 522.621094 368.808594 L 522.71875 369.917969 L 522.21875 370.824219 L 521.816406 371.726562 L 521.816406 372.835938 L 521.007812 373.335938 L 520.105469 373.839844 L 520.003906 374.847656 L 518.898438 375.046875 L 517.789062 374.949219 L 516.984375 374.042969 L 516.078125 373.238281 L 515.878906 372.128906 L 515.074219 371.324219 L 514.972656 370.21875 L 514.167969 369.414062 L 514.167969 368.308594 L 513.664062 367.402344 L 513.363281 366.394531 L 512.558594 365.488281 L 512.457031 364.382812 L 511.652344 363.578125 L 511.550781 362.773438 L 509.941406 361.164062 L 509.839844 360.058594 L 509.035156 359.25 L 508.332031 358.347656 L 508.03125 357.441406 L 507.425781 356.535156 L 506.925781 355.628906 L 506.117188 354.824219 L 505.011719 354.925781 L 500.785156 354.925781 Z M 499.679688 290.332031 "/>
<path style="fill-rule:nonzero;fill:rgb(0%,61.960784%,45.098039%);fill-opacity:1;stroke-width:0.75;stroke-linecap:round;stroke-linejoin:round;stroke:rgb(20%,20%,20%);stroke-opacity:1;stroke-miterlimit:10;" d="M 57.875 379.585938 L 58.78125 379.511719 L 59.605469 379.886719 L 60.210938 380.714844 L 60.660156 381.46875 L 61.339844 382.222656 L 62.015625 382.972656 L 62.769531 383.726562 L 63.519531 384.402344 L 64.273438 385.082031 L 64.5 386.058594 L 65.027344 386.8125 L 65.027344 387.714844 L 65.628906 388.46875 L 65.628906 389.371094 L 65.777344 390.347656 L 66.230469 391.101562 L 66.230469 392.003906 L 66.832031 393.660156 L 66.90625 394.5625 L 67.433594 395.242188 L 67.433594 396.21875 L 68.035156 396.972656 L 68.035156 397.875 L 68.636719 398.628906 L 68.636719 399.53125 L 69.238281 400.359375 L 69.238281 401.261719 L 69.691406 402.015625 L 69.84375 402.917969 L 69.84375 403.820312 L 69.917969 404.722656 L 70.519531 405.476562 L 70.445312 406.453125 L 70.671875 407.359375 L 71.121094 408.109375 L 71.046875 409.011719 L 71.421875 409.839844 L 71.722656 410.746094 L 71.722656 430.839844 L 71.648438 431.742188 L 71.722656 432.71875 L 71.273438 433.472656 L 71.046875 434.375 L 71.046875 457.253906 L 71.121094 458.15625 L 70.671875 458.910156 L 70.445312 459.8125 L 70.519531 460.789062 L 69.917969 461.542969 L 69.691406 462.445312 L 68.9375 463.125 L 68.1875 463.726562 L 67.359375 464.175781 L 66.457031 464.328125 L 65.703125 463.652344 L 65.027344 462.898438 L 64.421875 462.371094 L 63.746094 461.617188 L 63.519531 460.714844 L 63.144531 459.886719 L 63.070312 458.984375 L 62.542969 458.308594 L 62.542969 457.402344 L 61.941406 456.652344 L 61.941406 455.671875 L 61.339844 454.921875 L 61.339844 454.019531 L 60.8125 453.265625 L 60.660156 452.363281 L 59.605469 450.855469 L 59.382812 449.878906 L 58.628906 449.199219 Z M 57.875 379.585938 "/>
<path style="fill-rule:nonzero;fill:rgb(0%,61.960784%,45.098039%);fill-opacity:1;stroke-width:0.75;stroke-linecap:round;stroke-linejoin:round;stroke:rgb(20%,20%,20%);stroke-opacity:1;stroke-miterlimit:10;" d="M 144.601562 379.578125 L 145.585938 379.511719 L 147.554688 379.511719 L 148.339844 380.234375 L 148.667969 381.152344 L 149.390625 381.9375 L 149.519531 382.921875 L 150.113281 383.710938 L 150.503906 384.496094 L 150.832031 385.414062 L 150.832031 386.398438 L 150.765625 387.382812 L 151.421875 388.171875 L 151.488281 389.15625 L 151.75 390.074219 L 152.210938 390.925781 L 152.867188 391.777344 L 152.933594 392.761719 L 153.261719 393.613281 L 153.652344 394.535156 L 153.652344 395.515625 L 154.375 396.304688 L 154.308594 397.289062 L 154.964844 398.074219 L 155.03125 399.058594 L 155.226562 399.914062 L 155.753906 400.765625 L 155.753906 401.75 L 156.472656 402.535156 L 156.472656 404.503906 L 157.195312 405.355469 L 157.195312 406.339844 L 157.128906 407.324219 L 157.851562 408.113281 L 157.851562 409.097656 L 158.3125 409.949219 L 158.574219 410.867188 L 158.640625 411.851562 L 159.292969 412.636719 L 159.6875 413.425781 L 159.949219 414.410156 L 160.671875 415.128906 L 160.804688 416.113281 L 161.460938 416.902344 L 161.394531 417.886719 L 162.117188 418.671875 L 162.117188 420.640625 L 162.773438 421.429688 L 162.835938 422.410156 L 163.164062 423.332031 L 163.558594 424.25 L 163.558594 456.585938 L 162.902344 457.441406 L 162.773438 458.425781 L 162.117188 459.210938 L 162.117188 460.195312 L 161.460938 460.984375 L 161.328125 461.964844 L 160.671875 462.753906 L 160.277344 463.605469 L 159.492188 464.328125 L 157.523438 464.328125 L 156.738281 463.605469 L 155.949219 462.886719 L 155.6875 461.902344 L 154.964844 461.113281 L 155.03125 460.128906 L 154.507812 459.277344 L 154.308594 458.359375 L 153.589844 457.570312 L 153.589844 456.585938 L 153.128906 455.800781 L 152.867188 454.816406 L 152.144531 453.964844 L 151.292969 453.109375 L 150.765625 452.324219 L 150.308594 451.535156 L 149.519531 450.816406 L 148.734375 450.027344 L 148.078125 449.4375 L 147.421875 448.714844 L 146.636719 447.929688 L 146.503906 446.945312 L 145.585938 446.683594 Z M 144.601562 379.578125 "/>
<path style="fill-rule:nonzero;fill:rgb(0%,61.960784%,45.098039%);fill-opacity:1;stroke-width:0.75;stroke-linecap:round;stroke-linejoin:round;stroke:rgb(20%,20%,20%);stroke-opacity:1;stroke-miterlimit:10;" d="M 230.183594 379.601562 L 231.25 379.511719 L 235.417969 379.511719 L 236.484375 379.867188 L 237.195312 380.84375 L 238.082031 381.640625 L 238.082031 382.617188 L 238.523438 383.59375 L 239.5 384.390625 L 240.300781 385.191406 L 241.007812 386.164062 L 240.921875 387.230469 L 241.628906 388.027344 L 242.429688 388.917969 L 243.492188 389.714844 L 243.757812 390.78125 L 243.9375 391.84375 L 244.914062 392.554688 L 245.621094 393.53125 L 246.597656 394.238281 L 246.597656 395.304688 L 246.953125 396.28125 L 247.929688 397.078125 L 248.726562 397.878906 L 249.4375 398.765625 L 249.4375 399.828125 L 250.058594 400.714844 L 250.855469 401.515625 L 250.855469 405.683594 L 251.742188 406.484375 L 252.277344 407.457031 L 252.277344 412.691406 L 252.1875 413.757812 L 252.632812 414.644531 L 253.605469 415.355469 L 253.695312 416.417969 L 253.695312 420.589844 L 253.605469 421.652344 L 253.695312 422.71875 L 254.671875 423.429688 L 255.117188 424.492188 L 255.027344 425.558594 L 255.027344 440.195312 L 255.203125 441.261719 L 256.269531 441.96875 L 256.535156 443.035156 L 256.445312 444.011719 L 256.445312 461.84375 L 256.535156 462.910156 L 256.269531 463.972656 L 255.203125 464.328125 L 254.140625 464.238281 L 253.429688 463.175781 L 252.453125 462.820312 L 251.390625 462.820312 L 250.589844 461.84375 L 249.613281 461.132812 L 248.90625 460.15625 L 247.929688 459.359375 L 247.664062 458.828125 L 246.6875 458.117188 L 245.886719 457.230469 L 245.089844 456.34375 L 244.113281 455.632812 L 243.492188 454.65625 L 242.429688 454.390625 L 241.363281 454.300781 L 240.652344 453.238281 L 239.589844 452.527344 L 238.878906 451.640625 L 238.082031 450.84375 L 237.195312 450.042969 L 236.484375 449.066406 L 235.417969 448.714844 L 231.25 448.714844 Z M 230.183594 379.601562 "/>
<path style="fill-rule:nonzero;fill:rgb(0%,61.960784%,45.098039%);fill-opacity:1;stroke-width:0.75;stroke-linecap:round;stroke-linejoin:round;stroke:rgb(20%,20%,20%);stroke-opacity:1;stroke-miterlimit:10;" d="M 323.835938 379.59375 L 324.828125 379.59375 L 325.820312 379.511719 L 326.8125 379.59375 L 328.878906 379.59375 L 329.871094 379.511719 L 330.699219 380.171875 L 331.605469 380.917969 L 332.351562 381.742188 L 333.09375 382.652344 L 333.921875 383.398438 L 334.914062 384.222656 L 335.65625 384.96875 L 336.070312 385.960938 L 336.320312 386.953125 L 337.144531 387.695312 L 337.144531 388.6875 L 337.972656 389.433594 L 338.796875 390.339844 L 339.292969 391.25 L 339.460938 392.242188 L 340.285156 392.902344 L 340.371094 393.894531 L 340.285156 394.886719 L 340.949219 395.632812 L 341.445312 396.542969 L 341.445312 449.777344 L 340.617188 450.441406 L 340.285156 451.433594 L 340.371094 452.425781 L 340.371094 459.449219 L 339.460938 460.195312 L 339.292969 461.1875 L 338.796875 462.097656 L 338.21875 462.921875 L 338.054688 463.996094 L 337.144531 464.328125 L 335.160156 464.328125 L 334.253906 464.246094 L 333.507812 463.253906 L 332.515625 463.253906 L 331.6875 462.59375 L 330.699219 461.765625 L 329.953125 461.019531 L 329.539062 460.03125 L 329.292969 459.039062 L 328.464844 458.292969 L 328.464844 457.300781 L 327.636719 456.558594 L 327.472656 455.484375 L 326.894531 454.65625 L 326.316406 453.746094 L 326.316406 451.761719 L 325.324219 451.019531 L 325.242188 450.027344 L 325.242188 447.960938 L 325.324219 446.96875 L 324.828125 446.058594 Z M 323.835938 379.59375 "/>
<path style="fill-rule:nonzero;fill:rgb(0%,61.960784%,45.098039%);fill-opacity:1;stroke-width:0.75;stroke-linecap:round;stroke-linejoin:round;stroke:rgb(20%,20%,20%);stroke-opacity:1;stroke-miterlimit:10;" d="M 414.375 379.511719 L 414.929688 380.34375 L 415.855469 380.992188 L 416.503906 381.917969 L 416.503906 382.84375 L 416.597656 383.863281 L 417.429688 384.511719 L 418.355469 385.34375 L 418.355469 389.234375 L 418.261719 390.253906 L 418.449219 391.269531 L 419.28125 391.917969 L 420.207031 392.753906 L 420.300781 393.679688 L 420.207031 394.699219 L 420.113281 395.714844 L 420.207031 396.640625 L 421.039062 397.476562 L 421.964844 398.125 L 422.152344 399.140625 L 422.058594 400.066406 L 421.964844 401.085938 L 422.058594 402.105469 L 422.707031 402.9375 L 423.726562 403.585938 L 423.910156 404.511719 L 423.910156 405.53125 L 424.28125 406.457031 L 425.300781 407.011719 L 425.761719 408.03125 L 425.761719 408.957031 L 425.949219 409.976562 L 426.875 410.53125 L 427.613281 411.457031 L 427.613281 413.402344 L 427.523438 414.417969 L 427.707031 415.347656 L 428.632812 416.085938 L 429.464844 416.921875 L 429.464844 462.9375 L 429.097656 463.957031 L 428.171875 464.234375 L 427.152344 464.328125 L 426.226562 464.050781 L 425.578125 463.03125 L 424.742188 462.382812 L 423.910156 461.550781 L 423.816406 460.53125 L 423.816406 459.605469 L 423.078125 458.773438 L 422.152344 458.125 L 421.964844 457.105469 L 421.964844 456.179688 L 421.503906 455.160156 L 420.484375 454.605469 L 420.113281 453.679688 L 420.113281 452.660156 L 419.929688 451.734375 L 418.910156 451.085938 L 418.261719 450.160156 L 418.261719 449.234375 L 418.171875 448.214844 L 417.335938 447.570312 L 416.597656 447.011719 L 416.410156 445.996094 L 416.410156 445.070312 L 415.949219 444.050781 L 415.023438 443.585938 L 414.558594 442.570312 L 414.558594 441.640625 Z M 414.375 379.511719 "/>
<path style="fill-rule:nonzero;fill:rgb(0%,61.960784%,45.098039%);fill-opacity:1;stroke-width:0.75;stroke-linecap:round;stroke-linejoin:round;stroke:rgb(20%,20%,20%);stroke-opacity:1;stroke-miterlimit:10;" d="M 505.917969 379.757812 L 506.75 379.511719 L 510.292969 379.511719 L 511.183594 379.664062 L 511.832031 380.40625 L 512.171875 381.207031 L 512.539062 381.976562 L 512.664062 382.867188 L 513.15625 383.609375 L 513.15625 384.5 L 513.433594 385.300781 L 513.617188 386.164062 L 513.617188 388.84375 L 514.109375 389.582031 L 514.109375 390.476562 L 514.078125 391.367188 L 514.511719 392.109375 L 514.574219 393 L 514.757812 393.863281 L 515.066406 394.664062 L 515.066406 395.527344 L 515.34375 396.296875 L 515.527344 397.160156 L 515.527344 398.050781 L 515.957031 398.820312 L 516.019531 399.714844 L 516.019531 404.148438 L 516.296875 404.917969 L 516.480469 405.78125 L 516.480469 463.558594 L 516.234375 464.328125 L 515.464844 463.988281 L 515.035156 463.21875 L 514.542969 462.449219 L 514.046875 461.648438 L 513.585938 460.878906 L 513.402344 460.046875 L 513.09375 459.277344 L 512.632812 458.507812 L 512.140625 457.769531 L 511.738281 457 L 511.0625 456.257812 L 510.324219 455.703125 L 506.78125 455.703125 Z M 505.917969 379.757812 "/>
<path style="fill-rule:nonzero;fill:rgb(0%,61.960784%,45.098039%);fill-opacity:1;stroke-width:0.75;stroke-linecap:round;stroke-linejoin:round;stroke:rgb(20%,20%,20%);stroke-opacity:1;stroke-miterlimit:10;" d="M 57.222656 469.101562 L 58.148438 468.792969 L 63.964844 468.792969 L 64.832031 469.164062 L 65.015625 470.027344 L 66.007812 470.214844 L 66.191406 471.203125 L 66.6875 472.070312 L 66.6875 473.988281 L 67.304688 474.792969 L 67.984375 475.535156 L 67.984375 476.523438 L 68.109375 477.515625 L 68.605469 478.382812 L 68.667969 479.308594 L 69.222656 480.113281 L 69.222656 481.101562 L 69.84375 481.84375 L 69.84375 482.835938 L 70.027344 483.824219 L 70.460938 484.691406 L 70.523438 485.617188 L 71.140625 486.421875 L 71.140625 487.414062 L 71.757812 488.15625 L 71.699219 489.144531 L 72.378906 489.949219 L 72.378906 553.175781 L 71.574219 553.609375 L 70.585938 553.609375 L 69.71875 553.113281 L 69.160156 552.308594 L 69.160156 551.320312 L 68.851562 550.453125 L 67.925781 550.144531 L 67.738281 549.214844 L 67.304688 548.410156 L 66.6875 547.605469 L 66.6875 546.679688 L 66.066406 545.8125 L 65.882812 544.824219 L 64.953125 544.824219 L 64.027344 544.761719 L 60.128906 544.761719 L 59.820312 545.628906 L 59.078125 546.492188 L 58.148438 546.679688 Z M 57.222656 469.101562 "/>
<path style="fill-rule:nonzero;fill:rgb(0%,61.960784%,45.098039%);fill-opacity:1;stroke-width:0.75;stroke-linecap:round;stroke-linejoin:round;stroke:rgb(20%,20%,20%);stroke-opacity:1;stroke-miterlimit:10;" d="M 140.679688 468.792969 L 141.722656 468.792969 L 143.371094 470.441406 L 144.148438 471.308594 L 144.929688 472.175781 L 145.796875 472.953125 L 146.664062 473.734375 L 147.707031 474.082031 L 148.484375 474.949219 L 149.441406 475.816406 L 150.394531 476.769531 L 151.261719 477.722656 L 152.214844 477.984375 L 152.996094 478.679688 L 153.949219 479.632812 L 154.816406 480.585938 L 155.769531 481.453125 L 156.726562 482.40625 L 157.59375 483.273438 L 157.679688 484.230469 L 158.632812 485.007812 L 158.980469 486.050781 L 159.761719 486.917969 L 160.539062 487.785156 L 161.320312 488.476562 L 161.753906 489.433594 L 162.449219 490.300781 L 163.230469 491.167969 L 163.578125 492.121094 L 163.921875 493.074219 L 164.011719 494.027344 L 164.878906 494.894531 L 165.3125 495.761719 L 165.398438 496.804688 L 166.089844 497.671875 L 166.003906 498.625 L 166.699219 499.492188 L 166.699219 501.574219 L 167.480469 502.441406 L 167.480469 545.457031 L 167.132812 546.496094 L 166.785156 547.363281 L 166.089844 548.058594 L 166.003906 549.097656 L 165.65625 550.050781 L 165.3125 551.007812 L 164.53125 551.875 L 163.835938 552.652344 L 162.796875 552.914062 L 161.929688 553.609375 L 157.851562 553.609375 L 156.8125 553.347656 L 156.03125 552.914062 L 155.164062 552.21875 L 154.296875 551.441406 L 153.949219 550.574219 L 153.691406 550.050781 L 152.734375 549.183594 L 151.867188 548.316406 L 151.695312 547.277344 L 151.175781 546.410156 L 150.566406 545.628906 L 150.394531 544.589844 L 149.699219 543.722656 L 149.179688 542.855469 L 148.3125 541.988281 L 147.617188 541.207031 L 146.839844 540.339844 L 146.492188 539.386719 L 145.625 538.605469 L 144.757812 537.996094 L 143.714844 538.085938 L 141.722656 538.085938 Z M 140.679688 468.792969 "/>
<path style="fill-rule:nonzero;fill:rgb(0%,61.960784%,45.098039%);fill-opacity:1;stroke-width:0.75;stroke-linecap:round;stroke-linejoin:round;stroke:rgb(20%,20%,20%);stroke-opacity:1;stroke-miterlimit:10;" d="M 230.519531 468.792969 L 231.304688 469.492188 L 232.179688 470.101562 L 232.441406 471.152344 L 232.617188 472.109375 L 233.578125 472.808594 L 233.75 473.769531 L 234.101562 474.820312 L 234.972656 475.519531 L 234.972656 476.566406 L 235.5 477.351562 L 236.285156 478.226562 L 236.199219 479.273438 L 236.984375 479.972656 L 237.683594 480.933594 L 238.644531 481.546875 L 238.730469 482.59375 L 239.078125 483.554688 L 239.953125 484.253906 L 239.953125 485.214844 L 240.476562 486.085938 L 241.261719 486.960938 L 241.175781 487.921875 L 241.960938 488.707031 L 242.488281 489.582031 L 242.488281 490.628906 L 243.359375 491.328125 L 244.144531 492.289062 L 244.933594 492.988281 L 244.933594 494.035156 L 245.632812 494.910156 L 246.328125 495.78125 L 247.378906 496.570312 L 247.464844 497.53125 L 247.816406 498.492188 L 248.6875 499.191406 L 249.5625 499.976562 L 250.261719 500.9375 L 251.222656 501.722656 L 251.132812 502.683594 L 251.746094 503.558594 L 252.53125 504.429688 L 253.40625 505.042969 L 253.667969 506.089844 L 253.84375 507.050781 L 254.890625 507.835938 L 255.589844 508.625 L 256.199219 509.496094 L 256.199219 549.851562 L 255.9375 550.8125 L 254.976562 551.597656 L 254.191406 552.386719 L 253.40625 553.347656 L 252.355469 553.609375 L 251.394531 553.609375 L 250.347656 553.519531 L 249.648438 552.558594 L 248.6875 551.773438 L 248.601562 550.8125 L 248.164062 549.851562 L 247.378906 549.152344 L 246.417969 548.367188 L 245.632812 547.40625 L 244.84375 546.621094 L 243.882812 545.832031 L 243.183594 544.875 L 242.3125 544.085938 L 241.4375 543.386719 L 241.089844 542.339844 L 241 541.378906 L 239.953125 540.59375 L 239.253906 539.808594 L 238.554688 539.109375 L 237.683594 538.320312 L 236.984375 537.449219 L 236.109375 536.574219 L 235.238281 535.875 L 234.539062 534.914062 L 233.578125 534.828125 L 231.566406 534.828125 Z M 230.519531 468.792969 "/>
</g>
</svg>
