<?xml version="1.0" encoding="UTF-8"?>
<svg xmlns="http://www.w3.org/2000/svg" xmlns:xlink="http://www.w3.org/1999/xlink" width="576pt" height="576pt" viewBox="0 0 576 576" version="1.1">
<g id="surface16032">
<rect x="0" y="0" width="576" height="576" style="fill:rgb(100%,100%,100%);fill-opacity:1;stroke:none;"/>
<path style="fill-rule:nonzero;fill:rgb(83.529412%,36.862745%,0%);fill-opacity:1;stroke-width:0.75;stroke-linecap:round;stroke-linejoin:round;stroke:rgb(20%,20%,20%);stroke-opacity:1;stroke-miterlimit:10;" d="M 31.375 61.832031 L 32.65625 61.617188 L 33.941406 60.335938 L 67.722656 60.335938 L 69.007812 61.191406 L 70.074219 61.617188 L 71.359375 62.261719 L 72.429688 62.902344 L 73.710938 63.117188 L 73.925781 64.613281 L 74.78125 65.46875 L 76.0625 65.46875 L 77.132812 66.75 L 78.414062 66.75 L 79.269531 67.820312 L 80.554688 68.890625 L 81.410156 69.746094 L 82.476562 70.597656 L 82.90625 72.097656 L 83.546875 73.164062 L 84.1875 74.234375 L 84.617188 75.515625 L 85.472656 76.585938 L 85.472656 115.929688 L 85.257812 117.425781 L 84.1875 118.496094 L 84.1875 119.777344 L 82.90625 121.0625 L 81.835938 121.917969 L 81.621094 123.199219 L 80.554688 124.269531 L 79.269531 124.269531 L 78.414062 125.335938 L 77.132812 126.621094 L 75.847656 126.621094 L 74.992188 127.691406 L 73.496094 127.902344 L 69.433594 127.902344 L 68.367188 129.1875 L 65.585938 129.1875 L 64.515625 130.46875 L 60.453125 130.46875 L 59.171875 131.753906 L 52.757812 131.753906 L 51.261719 131.964844 L 50.40625 133.035156 L 32.65625 133.035156 Z M 31.375 61.832031 "/>
<path style="fill-rule:nonzero;fill:rgb(83.529412%,36.862745%,0%);fill-opacity:1;stroke-width:0.75;stroke-linecap:round;stroke-linejoin:round;stroke:rgb(20%,20%,20%);stroke-opacity:1;stroke-miterlimit:10;" d="M 98.597656 65.078125 L 100.179688 64.761719 L 101.757812 64.761719 L 103.339844 65.078125 L 104.605469 66.65625 L 152.964844 66.65625 L 154.546875 66.339844 L 156.125 67.605469 L 157.390625 68.554688 L 158.972656 68.554688 L 159.917969 69.820312 L 159.917969 71.398438 L 161.183594 72.347656 L 162.132812 73.925781 L 163.710938 73.925781 L 165.292969 74.558594 L 165.609375 76.457031 L 166.242188 77.71875 L 167.503906 78.984375 L 167.503906 80.566406 L 167.1875 82.144531 L 168.136719 83.410156 L 169.402344 84.675781 L 169.085938 86.570312 L 169.085938 88.152344 L 170.351562 89.101562 L 171.296875 90.679688 L 170.980469 92.261719 L 170.980469 95.421875 L 171.296875 97 L 170.351562 98.582031 L 169.085938 99.847656 L 169.085938 103.007812 L 169.402344 104.585938 L 168.453125 106.167969 L 167.1875 107.117188 L 167.503906 108.695312 L 167.503906 110.59375 L 166.242188 111.859375 L 165.292969 113.121094 L 165.609375 114.703125 L 165.609375 116.28125 L 164.34375 117.546875 L 163.710938 118.8125 L 163.710938 121.972656 L 162.132812 123.238281 L 160.550781 123.238281 L 159.601562 124.5 L 158.023438 124.816406 L 156.441406 125.132812 L 155.492188 126.714844 L 152.015625 126.714844 L 150.753906 127.347656 L 149.488281 128.609375 L 134.949219 128.609375 L 133.367188 127.976562 L 133.367188 126.398438 L 132.734375 125.132812 L 131.15625 124.816406 L 129.574219 125.132812 L 127.996094 124.5 L 127.046875 123.238281 L 125.464844 122.921875 L 123.886719 122.921875 L 122.304688 123.238281 L 120.726562 122.605469 L 119.460938 121.339844 L 117.878906 121.339844 L 116.300781 119.761719 L 114.71875 119.128906 L 113.140625 119.445312 L 100.179688 119.445312 Z M 98.597656 65.078125 "/>
<path style="fill-rule:nonzero;fill:rgb(83.529412%,36.862745%,0%);fill-opacity:1;stroke-width:0.75;stroke-linecap:round;stroke-linejoin:round;stroke:rgb(20%,20%,20%);stroke-opacity:1;stroke-miterlimit:10;" d="M 175.125 70.527344 L 176.804688 70.316406 L 203.488281 70.316406 L 205.171875 70.527344 L 206.640625 71.367188 L 214.414062 71.367188 L 215.675781 72.207031 L 217.148438 72.417969 L 226.601562 72.417969 L 228.074219 73.257812 L 235.847656 73.257812 L 237.109375 74.308594 L 240.261719 74.308594 L 241.730469 74.9375 L 243.203125 75.359375 L 244.671875 76.621094 L 245.722656 77.878906 L 246.773438 79.351562 L 247.613281 80.613281 L 247.824219 82.292969 L 247.824219 106.035156 L 247.613281 107.507812 L 246.773438 108.976562 L 246.773438 110.449219 L 246.144531 111.917969 L 245.722656 113.390625 L 244.253906 114.859375 L 243.832031 116.121094 L 242.359375 116.960938 L 241.730469 118.011719 L 240.679688 118.851562 L 239.210938 118.851562 L 237.738281 120.324219 L 236.6875 121.585938 L 235.007812 122.003906 L 233.746094 123.054688 L 232.066406 122.84375 L 220.929688 122.84375 L 219.667969 122.003906 L 218.199219 120.953125 L 216.726562 120.953125 L 215.257812 120.113281 L 213.785156 119.902344 L 212.523438 118.851562 L 211.265625 118.011719 L 209.792969 116.960938 L 208.742188 116.75 L 207.273438 115.910156 L 205.800781 115.910156 L 204.332031 114.859375 L 202.648438 114.652344 L 201.390625 113.808594 L 199.917969 112.96875 L 198.445312 112.550781 L 198.027344 110.867188 L 196.765625 109.816406 L 195.085938 109.816406 L 193.824219 108.765625 L 192.355469 108.347656 L 191.09375 107.714844 L 189.414062 107.507812 L 188.152344 106.875 L 186.679688 105.824219 L 185.421875 104.773438 L 184.160156 103.933594 L 182.6875 103.722656 L 181.429688 102.675781 L 179.957031 102.882812 L 176.804688 102.882812 Z M 175.125 70.527344 "/>
<path style="fill-rule:nonzero;fill:rgb(83.529412%,36.862745%,0%);fill-opacity:1;stroke-width:0.75;stroke-linecap:round;stroke-linejoin:round;stroke:rgb(20%,20%,20%);stroke-opacity:1;stroke-miterlimit:10;" d="M 259.769531 60.59375 L 261.058594 60.335938 L 280.136719 60.335938 L 281.683594 60.59375 L 282.714844 61.367188 L 284.003906 61.109375 L 293.542969 61.109375 L 294.574219 62.140625 L 296.121094 63.429688 L 298.183594 65.492188 L 298.957031 67.039062 L 299.214844 68.328125 L 300.246094 69.101562 L 300.246094 70.390625 L 301.535156 71.164062 L 302.824219 71.421875 L 303.339844 72.710938 L 303.597656 74 L 305.144531 74 L 306.175781 75.03125 L 307.207031 75.804688 L 308.238281 77.09375 L 309.527344 77.09375 L 310.816406 76.835938 L 313.136719 79.15625 L 313.136719 80.445312 L 314.167969 81.476562 L 314.683594 83.023438 L 315.199219 84.054688 L 316.230469 85.085938 L 316.230469 114.988281 L 314.941406 116.019531 L 314.683594 117.308594 L 314.683594 120.144531 L 314.167969 121.433594 L 313.136719 122.464844 L 313.136719 123.753906 L 310.816406 126.074219 L 310.042969 127.105469 L 308.496094 127.363281 L 307.464844 128.136719 L 306.175781 128.910156 L 304.886719 128.910156 L 303.855469 130.199219 L 301.277344 130.199219 L 300.246094 130.972656 L 298.957031 132.261719 L 297.667969 132.777344 L 286.839844 132.777344 L 285.550781 133.035156 L 284.261719 132.777344 L 261.058594 132.777344 Z M 259.769531 60.59375 "/>
<path style="fill-rule:nonzero;fill:rgb(83.529412%,36.862745%,0%);fill-opacity:1;stroke-width:0.75;stroke-linecap:round;stroke-linejoin:round;stroke:rgb(20%,20%,20%);stroke-opacity:1;stroke-miterlimit:10;" d="M 328.175781 68.234375 L 329.703125 68.066406 L 331.0625 67.214844 L 332.59375 67.046875 L 373.867188 67.046875 L 375.226562 67.554688 L 375.566406 68.914062 L 377.09375 69.421875 L 378.285156 70.78125 L 378.792969 71.972656 L 380.152344 72.652344 L 381.511719 73.839844 L 384.230469 76.558594 L 385.417969 77.917969 L 386.777344 79.105469 L 388.136719 80.464844 L 389.324219 81.824219 L 390.683594 83.011719 L 392.042969 84.371094 L 393.230469 85.730469 L 393.910156 86.917969 L 394.929688 88.109375 L 395.101562 89.636719 L 395.949219 90.824219 L 396.96875 92.183594 L 397.308594 93.542969 L 397.816406 95.070312 L 398.835938 96.261719 L 398.835938 97.789062 L 399.855469 98.980469 L 400.195312 100.507812 L 400.875 101.867188 L 400.875 121.570312 L 400.707031 123.097656 L 399.347656 124.289062 L 398.15625 125.308594 L 361.46875 125.308594 L 360.277344 125.984375 L 358.75 126.324219 L 329.703125 126.324219 Z M 328.175781 68.234375 "/>
<path style="fill-rule:nonzero;fill:rgb(83.529412%,36.862745%,0%);fill-opacity:1;stroke-width:0.75;stroke-linecap:round;stroke-linejoin:round;stroke:rgb(20%,20%,20%);stroke-opacity:1;stroke-miterlimit:10;" d="M 415.207031 60.503906 L 416.539062 60.335938 L 445.886719 60.335938 L 447.222656 60.503906 L 448.386719 61.167969 L 449.554688 62.003906 L 450.722656 63.171875 L 451.054688 64.503906 L 452.390625 64.503906 L 453.390625 65.171875 L 454.558594 66.171875 L 455.058594 67.507812 L 456.058594 68.671875 L 457.226562 69.671875 L 458.390625 70.839844 L 459.558594 71.339844 L 460.726562 72.339844 L 461.894531 73.507812 L 462.894531 74.675781 L 464.0625 75.675781 L 465.230469 76.84375 L 465.5625 78.011719 L 466.0625 79.34375 L 466.0625 82.011719 L 466.894531 83.179688 L 466.894531 124.53125 L 466.0625 125.699219 L 466.0625 127.03125 L 465.394531 128.03125 L 464.394531 129.199219 L 463.226562 129.699219 L 462.726562 130.699219 L 462.5625 132.035156 L 461.226562 132.203125 L 460.058594 132.703125 L 458.894531 133.035156 L 416.539062 133.035156 Z M 415.207031 60.503906 "/>
<path style="fill-rule:nonzero;fill:rgb(83.529412%,36.862745%,0%);fill-opacity:1;stroke-width:0.75;stroke-linecap:round;stroke-linejoin:round;stroke:rgb(20%,20%,20%);stroke-opacity:1;stroke-miterlimit:10;" d="M 490.921875 60.496094 L 492.214844 60.335938 L 514.183594 60.335938 L 515.316406 61.46875 L 516.609375 62.113281 L 517.898438 62.113281 L 519.03125 62.757812 L 520.324219 63.082031 L 521.453125 63.730469 L 522.261719 64.535156 L 522.910156 65.503906 L 524.039062 65.992188 L 525.171875 66.3125 L 526.460938 66.636719 L 527.59375 67.121094 L 528.722656 68.089844 L 529.855469 69.222656 L 530.984375 69.707031 L 531.632812 70.675781 L 532.441406 71.804688 L 532.761719 73.097656 L 533.894531 74.066406 L 534.21875 75.359375 L 535.347656 75.523438 L 535.832031 76.816406 L 536.640625 77.785156 L 536.964844 78.914062 L 538.09375 79.882812 L 538.417969 81.175781 L 539.226562 82.308594 L 539.871094 83.4375 L 540.839844 84.570312 L 541.324219 85.699219 L 541.648438 86.992188 L 542.617188 87.960938 L 543.425781 88.929688 L 543.910156 90.0625 L 544.234375 91.355469 L 544.234375 117.363281 L 543.910156 118.65625 L 543.425781 119.789062 L 542.457031 120.917969 L 542.617188 122.210938 L 542.457031 123.503906 L 541.648438 124.632812 L 540.839844 125.765625 L 539.871094 126.894531 L 538.742188 128.027344 L 537.609375 128.835938 L 536.480469 129.480469 L 535.1875 129.804688 L 534.054688 130.933594 L 533.085938 132.066406 L 531.957031 133.035156 L 495.765625 133.035156 L 494.636719 132.710938 L 493.34375 132.550781 L 492.214844 132.226562 Z M 490.921875 60.496094 "/>
<path style="fill-rule:nonzero;fill:rgb(83.529412%,36.862745%,0%);fill-opacity:1;stroke-width:0.75;stroke-linecap:round;stroke-linejoin:round;stroke:rgb(20%,20%,20%);stroke-opacity:1;stroke-miterlimit:10;" d="M 30.507812 137.035156 L 31.726562 136.863281 L 44.597656 136.863281 L 45.8125 137.210938 L 52.25 137.210938 L 53.292969 138.253906 L 57.117188 138.253906 L 58.335938 139.121094 L 59.554688 139.296875 L 60.597656 140.339844 L 61.988281 140.515625 L 63.03125 141.382812 L 64.25 141.730469 L 65.464844 142.425781 L 66.511719 143.121094 L 67.902344 143.472656 L 69.117188 143.472656 L 70.335938 143.644531 L 71.554688 144.515625 L 72.769531 145.035156 L 73.816406 145.558594 L 74.859375 146.425781 L 74.859375 147.644531 L 75.378906 148.6875 L 75.902344 150.078125 L 76.773438 151.125 L 76.945312 152.339844 L 77.988281 153.558594 L 78.164062 154.777344 L 79.03125 155.820312 L 79.554688 157.035156 L 80.597656 158.082031 L 81.640625 159.125 L 82.164062 160.515625 L 82.164062 161.734375 L 83.207031 162.777344 L 84.25 163.992188 L 84.25 165.210938 L 84.773438 166.429688 L 85.292969 167.644531 L 85.292969 168.863281 L 86.335938 170.082031 L 86.335938 190.429688 L 85.640625 191.648438 L 83.554688 193.734375 L 83.207031 195.125 L 82.164062 196.167969 L 82.164062 197.386719 L 76.597656 202.953125 L 75.378906 203.125 L 73.988281 203.300781 L 72.945312 204.167969 L 71.726562 204.167969 L 70.511719 204.867188 L 69.292969 205.214844 L 68.074219 205.214844 L 66.859375 206.257812 L 64.25 206.257812 L 63.207031 206.953125 L 61.988281 207.300781 L 60.597656 207.300781 L 59.554688 208.34375 L 56.945312 208.34375 L 55.902344 209.039062 L 54.683594 209.386719 L 53.464844 209.5625 L 52.25 209.386719 L 31.726562 209.386719 Z M 30.507812 137.035156 "/>
<path style="fill-rule:nonzero;fill:rgb(83.529412%,36.862745%,0%);fill-opacity:1;stroke-width:0.75;stroke-linecap:round;stroke-linejoin:round;stroke:rgb(20%,20%,20%);stroke-opacity:1;stroke-miterlimit:10;" d="M 100.074219 137.074219 L 101.550781 136.863281 L 131.261719 136.863281 L 132.734375 137.492188 L 134 137.914062 L 137.160156 137.914062 L 138.636719 138.96875 L 139.902344 139.601562 L 141.375 139.8125 L 142.640625 141.285156 L 144.113281 141.285156 L 145.378906 142.339844 L 146.011719 143.816406 L 147.277344 144.871094 L 148.960938 144.871094 L 150.226562 146.132812 L 151.492188 146.765625 L 152.964844 147.609375 L 154.441406 147.609375 L 155.914062 148.453125 L 157.390625 148.871094 L 158.65625 149.292969 L 160.339844 149.292969 L 161.605469 150.347656 L 162.660156 151.613281 L 163.5 153.085938 L 163.710938 154.5625 L 165.1875 155.828125 L 165.609375 157.300781 L 166.242188 158.566406 L 167.292969 160.042969 L 167.082031 161.515625 L 167.082031 163.203125 L 167.714844 164.464844 L 168.980469 165.730469 L 168.980469 168.890625 L 169.824219 170.15625 L 169.824219 187.433594 L 168.980469 188.488281 L 168.980469 194.808594 L 168.558594 196.285156 L 167.292969 197.339844 L 166.242188 198.8125 L 165.398438 200.078125 L 163.921875 200.710938 L 162.660156 201.765625 L 161.183594 201.765625 L 160.550781 203.449219 L 159.078125 203.871094 L 158.023438 205.136719 L 145.378906 205.136719 L 144.113281 206.191406 L 142.640625 205.980469 L 140.953125 205.980469 L 139.691406 207.03125 L 136.738281 207.03125 L 135.476562 207.242188 L 133.789062 207.875 L 121.355469 207.875 L 120.09375 208.507812 L 118.828125 209.5625 L 101.550781 209.5625 Z M 100.074219 137.074219 "/>
<path style="fill-rule:nonzero;fill:rgb(83.529412%,36.862745%,0%);fill-opacity:1;stroke-width:0.75;stroke-linecap:round;stroke-linejoin:round;stroke:rgb(20%,20%,20%);stroke-opacity:1;stroke-miterlimit:10;" d="M 186.558594 137.019531 L 187.820312 136.863281 L 192.550781 136.863281 L 193.652344 137.492188 L 194.601562 138.4375 L 195.703125 139.542969 L 196.808594 139.699219 L 197.914062 140.648438 L 199.171875 140.960938 L 199.960938 141.59375 L 201.066406 142.066406 L 202.011719 142.539062 L 203.273438 142.382812 L 204.21875 143.328125 L 205.007812 144.273438 L 206.269531 144.429688 L 207.058594 145.21875 L 208.320312 145.535156 L 209.425781 146.164062 L 211.789062 146.164062 L 212.734375 147.113281 L 213.996094 147.425781 L 214.945312 148.53125 L 215.890625 149.003906 L 216.992188 149.636719 L 217.941406 149.949219 L 219.203125 149.949219 L 220.464844 150.109375 L 221.25 150.898438 L 222.511719 150.738281 L 223.460938 151.527344 L 224.5625 152.632812 L 225.824219 152.789062 L 226.769531 153.734375 L 227.875 154.523438 L 228.980469 154.996094 L 229.925781 156.101562 L 231.976562 158.152344 L 233.078125 159.097656 L 233.550781 160.203125 L 233.550781 161.460938 L 234.5 162.566406 L 235.445312 163.511719 L 235.761719 164.617188 L 236.390625 165.722656 L 236.390625 181.332031 L 235.761719 182.4375 L 235.445312 183.539062 L 235.445312 184.800781 L 235.128906 186.0625 L 234.5 187.011719 L 234.5 191.898438 L 233.710938 192.84375 L 233.550781 194.105469 L 233.550781 196.472656 L 232.765625 197.417969 L 231.976562 198.363281 L 231.660156 199.46875 L 231.660156 200.574219 L 231.503906 201.832031 L 230.714844 202.78125 L 230.871094 203.882812 L 229.925781 204.988281 L 228.980469 205.933594 L 228.03125 207.039062 L 226.769531 207.511719 L 225.824219 208.300781 L 224.722656 209.402344 L 211.632812 209.402344 L 210.527344 209.5625 L 209.265625 209.402344 L 187.820312 209.402344 Z M 186.558594 137.019531 "/>
<path style="fill-rule:nonzero;fill:rgb(83.529412%,36.862745%,0%);fill-opacity:1;stroke-width:0.75;stroke-linecap:round;stroke-linejoin:round;stroke:rgb(20%,20%,20%);stroke-opacity:1;stroke-miterlimit:10;" d="M 251.648438 143.832031 L 253.144531 143.582031 L 299.203125 143.582031 L 300.449219 144.828125 L 301.445312 146.324219 L 302.9375 146.570312 L 305.675781 146.570312 L 307.171875 146.324219 L 308.664062 146.820312 L 309.660156 148.3125 L 310.90625 149.558594 L 312.148438 150.554688 L 313.144531 152.050781 L 314.640625 152.546875 L 316.132812 152.296875 L 317.628906 152.796875 L 318.375 154.289062 L 318.375 155.785156 L 318.625 157.277344 L 319.867188 158.273438 L 321.113281 159.519531 L 321.363281 161.011719 L 321.363281 165.492188 L 322.109375 166.988281 L 323.601562 167.734375 L 324.351562 169.226562 L 324.351562 182.421875 L 324.101562 183.917969 L 322.855469 184.914062 L 321.609375 186.15625 L 320.367188 187.652344 L 318.871094 188.648438 L 318.125 190.140625 L 316.632812 191.136719 L 315.136719 190.886719 L 313.644531 191.136719 L 312.398438 192.382812 L 311.402344 193.875 L 309.910156 194.125 L 308.414062 193.875 L 305.429688 193.875 L 303.933594 194.621094 L 303.1875 196.117188 L 301.941406 196.863281 L 296.214844 196.863281 L 294.972656 197.859375 L 293.976562 199.351562 L 292.480469 199.851562 L 279.035156 199.851562 L 277.542969 200.347656 L 276.796875 201.84375 L 275.300781 202.839844 L 253.144531 202.839844 Z M 251.648438 143.832031 "/>
<path style="fill-rule:nonzero;fill:rgb(83.529412%,36.862745%,0%);fill-opacity:1;stroke-width:0.75;stroke-linecap:round;stroke-linejoin:round;stroke:rgb(20%,20%,20%);stroke-opacity:1;stroke-miterlimit:10;" d="M 337.113281 137.0625 L 338.316406 136.863281 L 340.929688 136.863281 L 341.730469 137.867188 L 342.535156 138.871094 L 343.941406 139.070312 L 345.144531 139.070312 L 346.351562 138.871094 L 347.554688 138.871094 L 348.960938 139.671875 L 349.5625 140.878906 L 350.769531 141.480469 L 352.175781 141.480469 L 353.378906 141.679688 L 354.382812 142.886719 L 355.1875 143.890625 L 356.59375 144.089844 L 357.796875 143.890625 L 359.003906 144.695312 L 359.605469 145.898438 L 361.011719 146.5 L 362.214844 146.5 L 363.421875 146.703125 L 364.425781 148.109375 L 365.429688 148.910156 L 366.632812 149.113281 L 367.839844 149.113281 L 369.246094 148.910156 L 370.449219 148.910156 L 371.65625 149.914062 L 372.457031 151.320312 L 373.664062 151.921875 L 374.464844 153.128906 L 374.265625 154.332031 L 374.464844 155.738281 L 375.472656 156.542969 L 380.492188 156.542969 L 381.695312 157.347656 L 382.5 158.75 L 383.703125 159.355469 L 384.507812 160.558594 L 385.511719 161.5625 L 386.71875 162.566406 L 387.519531 163.773438 L 388.726562 164.375 L 389.527344 165.578125 L 390.734375 166.585938 L 391.738281 167.589844 L 391.9375 168.792969 L 391.9375 195.300781 L 391.335938 196.507812 L 389.929688 197.3125 L 389.128906 198.515625 L 388.121094 199.320312 L 386.917969 199.519531 L 385.511719 199.519531 L 384.507812 200.324219 L 383.703125 201.527344 L 382.300781 202.332031 L 381.695312 203.535156 L 380.492188 204.539062 L 379.285156 204.339844 L 377.878906 204.539062 L 376.875 205.542969 L 376.074219 206.546875 L 374.867188 207.351562 L 374.066406 208.757812 L 372.859375 209.5625 L 371.65625 209.5625 L 370.25 209.359375 L 342.734375 209.359375 L 341.53125 209.5625 L 340.324219 209.359375 L 339.320312 208.558594 L 338.316406 207.152344 Z M 337.113281 137.0625 "/>
<path style="fill-rule:nonzero;fill:rgb(83.529412%,36.862745%,0%);fill-opacity:1;stroke-width:0.75;stroke-linecap:round;stroke-linejoin:round;stroke:rgb(20%,20%,20%);stroke-opacity:1;stroke-miterlimit:10;" d="M 404.703125 140.5625 L 406.308594 140.238281 L 445.875 140.238281 L 447.164062 139.917969 L 451.667969 139.917969 L 453.273438 140.5625 L 454.5625 141.847656 L 455.207031 143.457031 L 456.171875 144.742188 L 457.777344 145.707031 L 459.386719 145.707031 L 460.996094 145.386719 L 462.28125 145.386719 L 463.890625 145.707031 L 465.175781 146.996094 L 466.140625 148.28125 L 466.785156 149.890625 L 470.003906 151.820312 L 471.289062 153.105469 L 471.933594 154.714844 L 473.21875 156 L 474.828125 156.964844 L 476.113281 157.609375 L 477.078125 159.21875 L 477.402344 160.828125 L 477.078125 162.113281 L 477.078125 183.664062 L 477.402344 184.953125 L 477.078125 186.5625 L 476.4375 188.167969 L 475.148438 189.457031 L 473.539062 190.097656 L 472.253906 191.386719 L 471.289062 192.996094 L 470.324219 194.28125 L 468.714844 195.246094 L 464.210938 195.246094 L 462.605469 195.566406 L 460.996094 196.855469 L 460.351562 198.140625 L 459.386719 199.75 L 457.777344 200.714844 L 456.171875 201.679688 L 455.207031 202.964844 L 454.5625 204.574219 L 452.953125 205.863281 L 451.34375 206.503906 L 450.058594 206.503906 L 448.449219 206.183594 L 436.226562 206.183594 L 435.261719 206.503906 L 433.652344 206.183594 L 406.308594 206.183594 Z M 404.703125 140.5625 "/>
<path style="fill-rule:nonzero;fill:rgb(83.529412%,36.862745%,0%);fill-opacity:1;stroke-width:0.75;stroke-linecap:round;stroke-linejoin:round;stroke:rgb(20%,20%,20%);stroke-opacity:1;stroke-miterlimit:10;" d="M 491.335938 137.046875 L 492.632812 136.863281 L 521.195312 136.863281 L 522.304688 137.605469 L 523.234375 138.902344 L 524.53125 138.902344 L 525.828125 139.085938 L 526.757812 140.199219 L 527.871094 141.128906 L 529.355469 140.941406 L 530.652344 141.5 L 531.394531 142.796875 L 532.691406 143.722656 L 533.621094 145.023438 L 534.917969 145.949219 L 535.84375 147.246094 L 537.144531 148.175781 L 538.070312 149.472656 L 539.367188 150.398438 L 540.296875 151.511719 L 541.59375 152.625 L 542.519531 153.738281 L 543.632812 154.664062 L 543.820312 155.964844 L 543.820312 194.910156 L 543.261719 196.207031 L 541.964844 196.949219 L 541.59375 198.25 L 541.59375 199.546875 L 541.78125 200.84375 L 541.59375 202.144531 L 540.296875 203.070312 L 539.367188 204.183594 L 538.253906 205.109375 L 537.328125 206.222656 L 534.175781 209.375 L 515.816406 209.375 L 514.703125 209.5625 L 513.40625 209.375 L 492.632812 209.375 Z M 491.335938 137.046875 "/>
<path style="fill-rule:nonzero;fill:rgb(83.529412%,36.862745%,0%);fill-opacity:1;stroke-width:0.75;stroke-linecap:round;stroke-linejoin:round;stroke:rgb(20%,20%,20%);stroke-opacity:1;stroke-miterlimit:10;" d="M 22.074219 214.699219 L 23.742188 214.460938 L 44.003906 214.460938 L 45.671875 214.222656 L 47.339844 214.222656 L 48.769531 214.460938 L 50.199219 216.128906 L 50.914062 217.558594 L 52.582031 218.273438 L 54.25 218.273438 L 55.683594 218.035156 L 58.78125 218.035156 L 60.449219 218.75 L 61.402344 220.417969 L 62.59375 221.609375 L 64.261719 221.847656 L 70.460938 221.847656 L 72.128906 221.609375 L 73.558594 221.609375 L 75.226562 222.324219 L 76.179688 223.996094 L 77.371094 225.425781 L 79.039062 225.664062 L 80.472656 225.425781 L 82.140625 225.664062 L 83.332031 227.09375 L 84.046875 228.523438 L 85.714844 229.238281 L 88.8125 229.238281 L 90.480469 230.191406 L 90.957031 231.621094 L 90.957031 234.71875 L 91.914062 236.152344 L 93.582031 237.105469 L 94.535156 238.296875 L 94.773438 239.964844 L 94.773438 268.328125 L 93.820312 269.519531 L 92.152344 270.472656 L 90.957031 271.90625 L 89.765625 273.574219 L 88.097656 274.050781 L 86.667969 273.8125 L 85 274.050781 L 83.808594 275.242188 L 82.855469 276.910156 L 81.1875 277.863281 L 79.996094 279.054688 L 79.039062 280.722656 L 77.609375 281.4375 L 66.40625 281.4375 L 64.976562 281.199219 L 63.308594 281.199219 L 61.878906 282.152344 L 60.925781 283.824219 L 59.496094 285.015625 L 58.304688 285.253906 L 56.636719 285.015625 L 23.742188 285.015625 Z M 22.074219 214.699219 "/>
<path style="fill-rule:nonzero;fill:rgb(83.529412%,36.862745%,0%);fill-opacity:1;stroke-width:0.75;stroke-linecap:round;stroke-linejoin:round;stroke:rgb(20%,20%,20%);stroke-opacity:1;stroke-miterlimit:10;" d="M 108.328125 213.539062 L 109.683594 213.386719 L 122.808594 213.386719 L 124.011719 214.292969 L 124.769531 215.347656 L 126.125 215.5 L 127.484375 215.648438 L 128.386719 216.707031 L 129.441406 217.609375 L 133.363281 217.609375 L 134.722656 217.460938 L 136.078125 217.914062 L 136.832031 219.117188 L 138.039062 219.722656 L 139.398438 219.570312 L 140.453125 220.324219 L 141.359375 221.683594 L 142.714844 221.683594 L 144.074219 221.832031 L 144.828125 222.890625 L 146.035156 223.792969 L 149.957031 223.792969 L 151.011719 224.851562 L 151.917969 225.90625 L 153.273438 225.90625 L 154.632812 226.058594 L 155.386719 227.414062 L 156.59375 228.019531 L 157.949219 227.867188 L 159.308594 228.773438 L 160.0625 229.828125 L 161.417969 230.882812 L 161.417969 270.25 L 161.570312 271.605469 L 161.269531 272.964844 L 159.910156 273.871094 L 159.15625 275.078125 L 157.800781 275.679688 L 156.441406 275.679688 L 155.386719 276.28125 L 155.234375 277.640625 L 155.085938 278.996094 L 154.027344 279.902344 L 152.671875 279.753906 L 151.3125 280.355469 L 150.410156 281.710938 L 149.203125 282.015625 L 147.84375 281.863281 L 146.488281 281.863281 L 145.28125 282.164062 L 144.527344 283.523438 L 143.167969 284.429688 L 142.265625 285.785156 L 141.058594 286.085938 L 109.683594 286.085938 Z M 108.328125 213.539062 "/>
<path style="fill-rule:nonzero;fill:rgb(83.529412%,36.862745%,0%);fill-opacity:1;stroke-width:0.75;stroke-linecap:round;stroke-linejoin:round;stroke:rgb(20%,20%,20%);stroke-opacity:1;stroke-miterlimit:10;" d="M 178.261719 213.589844 L 179.679688 213.386719 L 198.3125 213.386719 L 199.730469 213.589844 L 201.753906 216.019531 L 214.714844 216.019531 L 215.929688 217.03125 L 216.941406 218.449219 L 218.359375 218.652344 L 222.816406 218.652344 L 224.230469 218.449219 L 225.648438 218.855469 L 226.664062 220.273438 L 227.878906 221.285156 L 229.292969 221.082031 L 230.710938 221.285156 L 231.726562 222.703125 L 232.941406 223.714844 L 234.15625 224.929688 L 235.167969 226.144531 L 236.789062 226.347656 L 238.203125 226.347656 L 239.421875 227.5625 L 239.421875 230.398438 L 240.636719 231.410156 L 241.851562 232.625 L 242.863281 233.839844 L 244.28125 234.851562 L 244.683594 236.269531 L 244.484375 237.6875 L 244.484375 259.355469 L 244.683594 260.773438 L 243.875 262.191406 L 242.457031 263 L 241.648438 264.417969 L 240.230469 265.429688 L 239.21875 266.644531 L 238.003906 267.660156 L 236.789062 268.875 L 235.773438 270.089844 L 234.355469 271.304688 L 233.34375 272.722656 L 231.925781 273.53125 L 231.117188 274.949219 L 229.699219 275.554688 L 228.28125 275.355469 L 226.863281 275.960938 L 226.054688 277.378906 L 224.636719 278.390625 L 223.828125 279.605469 L 222.410156 280.621094 L 220.992188 280.621094 L 219.574219 280.820312 L 218.5625 282.238281 L 217.347656 283.25 L 214.511719 283.25 L 213.5 284.46875 L 212.488281 285.683594 L 211.070312 285.882812 L 205.398438 285.882812 L 203.980469 286.085938 L 202.5625 285.882812 L 179.679688 285.882812 Z M 178.261719 213.589844 "/>
<path style="fill-rule:nonzero;fill:rgb(83.529412%,36.862745%,0%);fill-opacity:1;stroke-width:0.75;stroke-linecap:round;stroke-linejoin:round;stroke:rgb(20%,20%,20%);stroke-opacity:1;stroke-miterlimit:10;" d="M 261.90625 213.746094 L 263.167969 213.566406 L 285.300781 213.566406 L 286.742188 213.386719 L 288 214.105469 L 288.71875 215.367188 L 289.800781 215.90625 L 296.457031 215.90625 L 297.71875 215.726562 L 298.976562 215.90625 L 299.875 216.988281 L 300.777344 218.066406 L 302.214844 218.246094 L 303.476562 218.246094 L 304.554688 219.144531 L 305.453125 220.40625 L 306.894531 221.484375 L 307.613281 222.566406 L 308.875 222.925781 L 310.132812 222.746094 L 311.574219 223.644531 L 311.753906 224.902344 L 311.753906 226.164062 L 311.574219 227.421875 L 311.753906 228.863281 L 312.652344 229.761719 L 313.914062 230.664062 L 314.09375 231.921875 L 313.914062 233.363281 L 313.914062 265.933594 L 314.09375 267.191406 L 313.914062 268.453125 L 313.011719 269.53125 L 311.753906 270.609375 L 310.855469 271.691406 L 309.59375 272.410156 L 309.234375 273.671875 L 309.414062 275.109375 L 308.695312 276.371094 L 307.433594 277.089844 L 306.714844 278.347656 L 305.273438 279.070312 L 304.015625 278.890625 L 302.753906 279.25 L 302.035156 280.507812 L 300.777344 281.40625 L 299.875 282.667969 L 298.796875 283.566406 L 297.539062 283.566406 L 296.277344 283.746094 L 295.378906 284.828125 L 294.296875 285.90625 L 293.039062 286.085938 L 291.777344 285.90625 L 263.167969 285.90625 Z M 261.90625 213.746094 "/>
<path style="fill-rule:nonzero;fill:rgb(83.529412%,36.862745%,0%);fill-opacity:1;stroke-width:0.75;stroke-linecap:round;stroke-linejoin:round;stroke:rgb(20%,20%,20%);stroke-opacity:1;stroke-miterlimit:10;" d="M 338.507812 213.574219 L 339.824219 213.386719 L 377.957031 213.386719 L 379.085938 214.328125 L 380.210938 215.265625 L 381.152344 216.582031 L 382.464844 217.519531 L 383.03125 218.835938 L 383.03125 220.148438 L 383.96875 221.089844 L 384.90625 222.214844 L 386.222656 223.15625 L 387.160156 224.472656 L 388.476562 225.410156 L 388.664062 226.726562 L 388.851562 228.039062 L 389.980469 228.792969 L 390.542969 230.105469 L 390.542969 273.6875 L 389.226562 274.628906 L 388.289062 275.941406 L 386.972656 276.882812 L 386.035156 278.195312 L 384.71875 278.386719 L 383.40625 278.574219 L 382.652344 279.699219 L 381.339844 280.261719 L 380.023438 280.261719 L 379.085938 281.203125 L 377.957031 282.140625 L 376.640625 282.140625 L 375.515625 282.707031 L 374.574219 284.019531 L 361.613281 284.019531 L 360.300781 284.394531 L 359.546875 285.710938 L 358.234375 286.085938 L 356.917969 285.898438 L 339.824219 285.898438 Z M 338.507812 213.574219 "/>
<path style="fill-rule:nonzero;fill:rgb(83.529412%,36.862745%,0%);fill-opacity:1;stroke-width:0.75;stroke-linecap:round;stroke-linejoin:round;stroke:rgb(20%,20%,20%);stroke-opacity:1;stroke-miterlimit:10;" d="M 414.449219 213.71875 L 415.773438 213.550781 L 425.851562 213.550781 L 427.171875 213.386719 L 428.496094 213.550781 L 429.652344 214.214844 L 430.3125 215.535156 L 431.46875 216.363281 L 432.625 216.527344 L 433.945312 216.363281 L 442.867188 216.363281 L 444.191406 217.1875 L 444.851562 218.507812 L 445.84375 219.335938 L 448.488281 219.335938 L 449.644531 219.171875 L 450.964844 219.171875 L 452.285156 219.5 L 453.113281 220.65625 L 453.9375 221.980469 L 455.261719 222.308594 L 456.417969 222.144531 L 457.738281 222.308594 L 458.894531 223.464844 L 459.722656 224.789062 L 460.878906 225.285156 L 461.871094 226.605469 L 462.859375 227.761719 L 464.019531 228.421875 L 464.84375 229.746094 L 464.679688 231.066406 L 464.679688 232.386719 L 465.503906 233.378906 L 466.828125 234.039062 L 467.652344 235.363281 L 467.652344 267.085938 L 466.660156 268.40625 L 465.503906 268.902344 L 464.679688 270.226562 L 464.84375 271.546875 L 464.679688 272.867188 L 464.019531 274.023438 L 462.695312 274.6875 L 461.703125 276.007812 L 460.714844 277.164062 L 459.390625 277.992188 L 458.566406 279.3125 L 457.242188 280.304688 L 456.253906 281.296875 L 455.425781 282.617188 L 454.105469 283.113281 L 445.347656 283.113281 L 444.027344 282.949219 L 442.703125 283.113281 L 441.710938 284.269531 L 441.050781 285.425781 L 439.730469 286.085938 L 438.574219 286.085938 L 437.417969 285.921875 L 415.773438 285.921875 Z M 414.449219 213.71875 "/>
<path style="fill-rule:nonzero;fill:rgb(83.529412%,36.862745%,0%);fill-opacity:1;stroke-width:0.75;stroke-linecap:round;stroke-linejoin:round;stroke:rgb(20%,20%,20%);stroke-opacity:1;stroke-miterlimit:10;" d="M 483.894531 213.667969 L 485.296875 213.386719 L 524.3125 213.386719 L 525.71875 213.667969 L 527.121094 215.351562 L 527.960938 216.753906 L 529.367188 217.597656 L 531.050781 219 L 531.613281 220.40625 L 533.015625 221.246094 L 534.699219 221.527344 L 536.101562 221.246094 L 537.507812 221.527344 L 538.910156 222.929688 L 539.75 224.335938 L 540.875 225.175781 L 542.558594 226.300781 L 543.121094 227.703125 L 543.121094 230.789062 L 543.402344 232.195312 L 544.804688 233.316406 L 546.488281 234.4375 L 547.332031 235.84375 L 548.453125 237.246094 L 550.136719 238.089844 L 551.261719 239.492188 L 551.261719 270.929688 L 550.980469 272.332031 L 549.296875 273.738281 L 547.890625 274.578125 L 547.050781 275.980469 L 545.644531 277.667969 L 544.242188 277.945312 L 542.839844 277.667969 L 541.15625 277.667969 L 539.75 278.507812 L 539.191406 279.910156 L 537.785156 281.316406 L 536.382812 282.15625 L 535.261719 283.28125 L 534.417969 284.964844 L 533.015625 285.804688 L 525.4375 285.804688 L 524.3125 286.085938 L 522.910156 285.804688 L 485.296875 285.804688 Z M 483.894531 213.667969 "/>
<path style="fill-rule:nonzero;fill:rgb(83.529412%,36.862745%,0%);fill-opacity:1;stroke-width:0.75;stroke-linecap:round;stroke-linejoin:round;stroke:rgb(20%,20%,20%);stroke-opacity:1;stroke-miterlimit:10;" d="M 22.074219 295.324219 L 23.585938 295.105469 L 78.761719 295.105469 L 80.277344 295.972656 L 80.707031 297.703125 L 80.492188 299.21875 L 81.359375 300.515625 L 82.871094 300.730469 L 84.386719 300.730469 L 85.902344 301.597656 L 86.335938 303.113281 L 86.117188 304.625 L 86.765625 305.925781 L 88.28125 306.789062 L 89.148438 308.304688 L 90.878906 309.601562 L 91.960938 310.902344 L 93.257812 311.984375 L 94.554688 313.28125 L 94.773438 314.796875 L 94.554688 316.308594 L 94.554688 333.1875 L 94.773438 334.703125 L 94.554688 336.214844 L 93.257812 337.296875 L 91.960938 338.597656 L 90.660156 340.109375 L 89.148438 341.191406 L 88.28125 342.707031 L 86.765625 343.140625 L 82.222656 343.140625 L 80.707031 342.921875 L 79.195312 343.140625 L 77.894531 344.003906 L 77.679688 345.519531 L 77.679688 347.25 L 76.597656 348.546875 L 75.082031 348.765625 L 67.511719 348.765625 L 65.996094 348.546875 L 64.480469 348.980469 L 63.617188 350.496094 L 61.882812 351.578125 L 60.371094 351.363281 L 58.855469 351.792969 L 57.988281 353.308594 L 56.476562 354.390625 L 53.445312 354.390625 L 51.933594 354.175781 L 50.417969 354.605469 L 49.550781 356.121094 L 48.039062 357.203125 L 44.792969 357.203125 L 43.492188 357.417969 L 41.980469 357.203125 L 23.585938 357.203125 Z M 22.074219 295.324219 "/>
<path style="fill-rule:nonzero;fill:rgb(83.529412%,36.862745%,0%);fill-opacity:1;stroke-width:0.75;stroke-linecap:round;stroke-linejoin:round;stroke:rgb(20%,20%,20%);stroke-opacity:1;stroke-miterlimit:10;" d="M 108.03125 290.28125 L 109.3125 290.097656 L 110.59375 290.097656 L 111.875 289.914062 L 112.972656 289.914062 L 114.074219 290.828125 L 114.988281 291.925781 L 116.269531 292.109375 L 123.777344 292.109375 L 124.695312 293.390625 L 125.792969 294.125 L 129.453125 294.125 L 130.554688 294.859375 L 131.46875 296.140625 L 132.75 296.324219 L 134.03125 296.140625 L 135.316406 296.140625 L 136.414062 296.503906 L 137.328125 297.789062 L 138.429688 298.335938 L 139.710938 298.335938 L 140.992188 298.152344 L 142.273438 298.335938 L 143.1875 299.253906 L 144.105469 300.351562 L 145.386719 300.351562 L 146.667969 300.535156 L 147.585938 301.816406 L 148.683594 302.546875 L 149.964844 302.367188 L 152.34375 302.367188 L 153.445312 303.28125 L 153.628906 304.5625 L 153.628906 305.84375 L 154.910156 306.761719 L 155.824219 308.042969 L 156.921875 308.773438 L 157.839844 310.054688 L 159.121094 310.972656 L 159.851562 312.070312 L 159.851562 313.351562 L 159.671875 314.632812 L 159.851562 315.917969 L 160.585938 316.832031 L 161.683594 317.746094 L 161.867188 319.03125 L 161.867188 344.117188 L 161.683594 345.398438 L 160.402344 346.132812 L 159.488281 347.414062 L 158.386719 348.144531 L 157.472656 349.429688 L 156.191406 350.34375 L 155.273438 351.625 L 154.175781 352.175781 L 150.515625 352.175781 L 149.414062 353.089844 L 148.5 354.1875 L 147.402344 355.105469 L 146.484375 356.203125 L 145.203125 356.386719 L 143.921875 356.386719 L 142.824219 356.203125 L 141.539062 356.570312 L 140.808594 357.851562 L 139.527344 358.765625 L 138.609375 360.050781 L 137.328125 360.597656 L 136.230469 360.414062 L 128.539062 360.414062 L 127.441406 360.597656 L 126.523438 361.695312 L 125.609375 362.613281 L 109.3125 362.613281 Z M 108.03125 290.28125 "/>
<path style="fill-rule:nonzero;fill:rgb(83.529412%,36.862745%,0%);fill-opacity:1;stroke-width:0.75;stroke-linecap:round;stroke-linejoin:round;stroke:rgb(20%,20%,20%);stroke-opacity:1;stroke-miterlimit:10;" d="M 179.425781 290.433594 L 180.988281 290.171875 L 194.015625 290.171875 L 195.320312 289.914062 L 196.882812 289.914062 L 198.183594 290.171875 L 199.226562 291.738281 L 200.53125 293.039062 L 201.832031 293.300781 L 216.425781 293.300781 L 217.988281 293.039062 L 219.292969 293.039062 L 220.855469 294.082031 L 221.636719 295.386719 L 222.9375 296.425781 L 225.804688 296.425781 L 227.371094 297.46875 L 228.152344 298.773438 L 229.453125 299.554688 L 230.496094 300.855469 L 231.539062 302.421875 L 232.839844 302.679688 L 234.40625 302.679688 L 235.96875 302.941406 L 237.011719 304.246094 L 238.050781 305.546875 L 239.355469 306.328125 L 240.136719 307.890625 L 240.398438 309.195312 L 240.136719 310.757812 L 240.136719 316.492188 L 240.917969 318.054688 L 242.222656 318.574219 L 243.265625 320.140625 L 243.523438 321.703125 L 243.265625 323.003906 L 243.265625 346.195312 L 243.523438 347.761719 L 242.742188 349.324219 L 241.441406 350.105469 L 240.136719 351.40625 L 239.355469 352.710938 L 237.792969 353.492188 L 237.011719 354.796875 L 235.707031 356.097656 L 234.144531 356.359375 L 229.976562 356.359375 L 228.410156 356.621094 L 227.628906 357.921875 L 226.585938 359.226562 L 225.023438 359.484375 L 213.558594 359.484375 L 211.996094 360.527344 L 211.472656 361.832031 L 209.910156 362.613281 L 180.988281 362.613281 Z M 179.425781 290.433594 "/>
<path style="fill-rule:nonzero;fill:rgb(83.529412%,36.862745%,0%);fill-opacity:1;stroke-width:0.75;stroke-linecap:round;stroke-linejoin:round;stroke:rgb(20%,20%,20%);stroke-opacity:1;stroke-miterlimit:10;" d="M 251.648438 293.464844 L 253.320312 293.046875 L 275.464844 293.046875 L 277.136719 292.628906 L 280.0625 292.628906 L 281.316406 293.046875 L 282.984375 293.464844 L 284.238281 294.300781 L 285.910156 295.972656 L 286.746094 297.644531 L 287.164062 298.894531 L 288 300.566406 L 289.253906 301.820312 L 290.925781 302.238281 L 292.179688 302.65625 L 299.699219 302.65625 L 301.371094 302.238281 L 308.890625 302.238281 L 310.144531 302.65625 L 311.816406 303.074219 L 313.070312 303.910156 L 314.320312 305.582031 L 314.738281 307.253906 L 315.15625 308.503906 L 315.15625 317.28125 L 314.738281 318.949219 L 314.738281 324.800781 L 315.15625 326.472656 L 315.574219 327.726562 L 317.246094 329.394531 L 318.917969 330.230469 L 320.171875 330.648438 L 321.84375 331.484375 L 323.097656 332.320312 L 323.933594 333.992188 L 324.351562 335.246094 L 324.351562 336.917969 L 323.515625 338.589844 L 322.261719 339.425781 L 320.589844 340.675781 L 319.335938 341.09375 L 317.664062 341.929688 L 316.410156 342.765625 L 315.15625 344.4375 L 314.738281 345.691406 L 313.90625 347.363281 L 312.234375 349.035156 L 310.980469 349.871094 L 309.308594 350.285156 L 306.382812 350.285156 L 305.128906 349.871094 L 300.535156 349.871094 L 298.863281 350.703125 L 297.609375 351.539062 L 296.773438 353.210938 L 295.9375 354.464844 L 295.519531 356.136719 L 294.265625 357.808594 L 293.015625 358.644531 L 291.34375 359.480469 L 290.089844 359.480469 L 288.417969 359.898438 L 287.164062 359.898438 L 285.492188 359.480469 L 253.320312 359.480469 Z M 251.648438 293.464844 "/>
<path style="fill-rule:nonzero;fill:rgb(83.529412%,36.862745%,0%);fill-opacity:1;stroke-width:0.75;stroke-linecap:round;stroke-linejoin:round;stroke:rgb(20%,20%,20%);stroke-opacity:1;stroke-miterlimit:10;" d="M 328.175781 301.542969 L 329.542969 301.347656 L 394.035156 301.347656 L 395.011719 302.324219 L 396.378906 303.496094 L 397.554688 304.472656 L 398.335938 305.839844 L 399.898438 306.621094 L 400.875 307.992188 L 400.875 325.1875 L 400.484375 326.554688 L 399.117188 327.53125 L 397.945312 328.902344 L 396.769531 330.269531 L 395.402344 330.464844 L 393.839844 330.269531 L 392.472656 330.855469 L 391.691406 332.222656 L 390.324219 333.394531 L 389.148438 334.375 L 388.367188 335.742188 L 386.804688 336.328125 L 381.136719 336.328125 L 380.160156 337.695312 L 378.988281 339.0625 L 377.621094 339.453125 L 376.25 339.257812 L 370.386719 339.257812 L 369.019531 339.453125 L 368.042969 340.824219 L 366.871094 342.191406 L 365.503906 342.386719 L 364.136719 342.191406 L 361.203125 342.191406 L 359.835938 342.582031 L 359.054688 343.949219 L 358.078125 345.121094 L 356.707031 345.316406 L 355.144531 345.121094 L 353.777344 345.707031 L 353.191406 347.074219 L 351.824219 348.25 L 338.925781 348.25 L 337.359375 348.054688 L 335.992188 348.640625 L 335.210938 350.007812 L 333.84375 351.179688 L 329.542969 351.179688 Z M 328.175781 301.542969 "/>
<path style="fill-rule:nonzero;fill:rgb(83.529412%,36.862745%,0%);fill-opacity:1;stroke-width:0.75;stroke-linecap:round;stroke-linejoin:round;stroke:rgb(20%,20%,20%);stroke-opacity:1;stroke-miterlimit:10;" d="M 404.703125 304.0625 L 406.164062 303.820312 L 469.59375 303.820312 L 470.570312 304.792969 L 471.546875 306.257812 L 473.011719 306.988281 L 473.984375 308.453125 L 475.207031 309.671875 L 476.425781 310.40625 L 477.15625 311.625 L 477.402344 313.089844 L 477.15625 314.554688 L 477.15625 324.3125 L 477.402344 325.773438 L 477.402344 327.238281 L 477.15625 328.457031 L 475.695312 329.679688 L 474.230469 330.652344 L 473.496094 332.117188 L 472.277344 332.851562 L 470.8125 334.070312 L 470.082031 335.535156 L 468.617188 336.507812 L 467.398438 337.730469 L 466.667969 338.949219 L 465.203125 339.679688 L 452.515625 339.679688 L 451.054688 339.4375 L 449.589844 339.4375 L 448.371094 339.925781 L 447.636719 341.386719 L 446.417969 342.609375 L 444.953125 342.851562 L 439.34375 342.851562 L 438.125 343.828125 L 437.636719 345.046875 L 436.171875 346.023438 L 434.707031 346.265625 L 433.246094 346.023438 L 432.023438 346.511719 L 431.050781 347.976562 L 430.074219 348.707031 L 406.164062 348.707031 Z M 404.703125 304.0625 "/>
<path style="fill-rule:nonzero;fill:rgb(83.529412%,36.862745%,0%);fill-opacity:1;stroke-width:0.75;stroke-linecap:round;stroke-linejoin:round;stroke:rgb(20%,20%,20%);stroke-opacity:1;stroke-miterlimit:10;" d="M 485.855469 290.140625 L 487.210938 289.914062 L 491.273438 289.914062 L 492.628906 290.589844 L 493.304688 291.71875 L 494.210938 293.074219 L 495.5625 293.300781 L 498.273438 293.300781 L 499.628906 293.074219 L 500.984375 293.074219 L 502.335938 293.75 L 503.242188 295.105469 L 504.144531 296.234375 L 505.5 296.6875 L 506.851562 296.460938 L 508.207031 296.6875 L 509.335938 297.363281 L 510.015625 298.71875 L 511.140625 299.847656 L 515.207031 299.847656 L 516.5625 299.621094 L 517.914062 299.847656 L 519.269531 300.75 L 519.949219 302.105469 L 521.078125 303.007812 L 522.207031 303.234375 L 523.558594 303.007812 L 524.914062 303.234375 L 526.042969 304.589844 L 526.722656 305.941406 L 528.074219 306.394531 L 530.785156 306.394531 L 532.140625 307.070312 L 532.816406 308.425781 L 533.945312 309.554688 L 535.300781 309.78125 L 536.65625 309.554688 L 537.785156 309.78125 L 538.914062 310.683594 L 539.589844 312.039062 L 540.945312 312.941406 L 542.300781 314.070312 L 542.976562 315.425781 L 544.332031 316.328125 L 545.6875 317.457031 L 546.363281 318.8125 L 547.71875 319.714844 L 548.847656 320.617188 L 549.296875 321.746094 L 549.296875 340.488281 L 548.847656 341.839844 L 547.492188 342.746094 L 546.136719 343.875 L 545.460938 345.226562 L 544.105469 346.132812 L 542.75 347.261719 L 542.074219 348.613281 L 540.71875 349.519531 L 538.234375 349.519531 L 536.882812 349.292969 L 535.527344 349.292969 L 534.171875 349.519531 L 533.042969 350.421875 L 532.367188 351.773438 L 531.011719 352.679688 L 521.753906 352.679688 L 520.398438 353.128906 L 519.496094 354.257812 L 518.59375 355.613281 L 517.238281 356.066406 L 514.527344 356.066406 L 513.175781 355.839844 L 511.820312 355.839844 L 510.464844 356.289062 L 509.5625 357.644531 L 508.886719 358.773438 L 507.53125 359.453125 L 506.175781 359.453125 L 504.820312 359.226562 L 498.273438 359.226562 L 497.144531 359.902344 L 496.46875 361.257812 L 495.113281 362.386719 L 493.757812 362.613281 L 487.210938 362.613281 Z M 485.855469 290.140625 "/>
<path style="fill-rule:nonzero;fill:rgb(83.529412%,36.862745%,0%);fill-opacity:1;stroke-width:0.75;stroke-linecap:round;stroke-linejoin:round;stroke:rgb(20%,20%,20%);stroke-opacity:1;stroke-miterlimit:10;" d="M 28.851562 367.054688 L 30.082031 366.746094 L 52.570312 366.746094 L 54.109375 366.4375 L 55.34375 366.746094 L 56.574219 367.363281 L 57.5 368.902344 L 58.421875 370.136719 L 59.65625 370.445312 L 66.433594 370.445312 L 67.664062 370.75 L 68.589844 371.984375 L 69.511719 373.523438 L 70.746094 374.449219 L 71.976562 375.0625 L 72.902344 376.605469 L 73.824219 377.835938 L 75.058594 378.144531 L 76.289062 378.144531 L 77.828125 377.835938 L 79.0625 378.453125 L 79.984375 379.683594 L 80.910156 381.226562 L 82.144531 381.839844 L 83.375 382.765625 L 83.992188 383.996094 L 83.992188 388.003906 L 85.53125 389.234375 L 86.761719 389.851562 L 87.6875 391.082031 L 87.996094 392.621094 L 87.996094 393.855469 L 87.6875 395.085938 L 87.6875 415.109375 L 87.996094 416.34375 L 87.996094 417.574219 L 87.070312 419.113281 L 85.839844 420.039062 L 84.605469 420.65625 L 83.683594 422.195312 L 82.757812 423.429688 L 81.527344 424.042969 L 80.601562 424.96875 L 79.679688 426.507812 L 78.445312 427.433594 L 77.214844 427.742188 L 75.671875 427.433594 L 74.441406 427.433594 L 73.210938 428.355469 L 72.59375 429.589844 L 71.359375 431.128906 L 70.128906 431.4375 L 68.898438 431.4375 L 67.355469 431.128906 L 66.125 431.746094 L 65.199219 432.667969 L 64.582031 434.210938 L 63.351562 435.132812 L 55.34375 435.132812 L 54.417969 435.75 L 53.800781 436.980469 L 52.570312 438.523438 L 51.335938 438.832031 L 50.105469 439.136719 L 48.875 438.832031 L 30.082031 438.832031 Z M 28.851562 367.054688 "/>
<path style="fill-rule:nonzero;fill:rgb(83.529412%,36.862745%,0%);fill-opacity:1;stroke-width:0.75;stroke-linecap:round;stroke-linejoin:round;stroke:rgb(20%,20%,20%);stroke-opacity:1;stroke-miterlimit:10;" d="M 98.597656 370.40625 L 100.1875 370.089844 L 152.25 370.089844 L 153.835938 369.773438 L 155.425781 370.089844 L 157.964844 372.628906 L 159.550781 372.945312 L 161.140625 372.945312 L 162.410156 373.898438 L 163.363281 375.488281 L 164.949219 376.4375 L 165.902344 378.027344 L 167.488281 378.980469 L 168.441406 380.566406 L 168.125 381.835938 L 168.441406 383.421875 L 170.027344 384.375 L 171.296875 385.964844 L 171.296875 410.40625 L 170.980469 411.996094 L 169.394531 412.949219 L 168.125 414.535156 L 168.441406 416.121094 L 168.125 417.710938 L 166.855469 418.660156 L 163.679688 418.660156 L 162.410156 420.25 L 159.871094 422.789062 L 158.917969 424.058594 L 157.328125 425.011719 L 156.378906 426.597656 L 154.789062 427.234375 L 150.027344 427.234375 L 148.757812 427.867188 L 147.804688 429.457031 L 146.21875 430.089844 L 135.425781 430.089844 L 134.15625 431.359375 L 132.886719 432.949219 L 123.679688 432.949219 L 122.726562 434.535156 L 121.773438 435.488281 L 120.1875 435.804688 L 100.1875 435.804688 Z M 98.597656 370.40625 "/>
<path style="fill-rule:nonzero;fill:rgb(83.529412%,36.862745%,0%);fill-opacity:1;stroke-width:0.75;stroke-linecap:round;stroke-linejoin:round;stroke:rgb(20%,20%,20%);stroke-opacity:1;stroke-miterlimit:10;" d="M 180.257812 367.007812 L 181.683594 366.722656 L 213.898438 366.722656 L 215.324219 366.4375 L 216.75 366.722656 L 218.175781 367.863281 L 218.746094 369.289062 L 220.167969 370.144531 L 221.59375 371.285156 L 222.164062 372.710938 L 223.589844 373.566406 L 230.433594 373.566406 L 231.859375 374.707031 L 232.714844 376.132812 L 233.855469 376.988281 L 235.28125 378.128906 L 236.136719 379.554688 L 237.277344 380.410156 L 238.699219 381.550781 L 239.269531 382.972656 L 238.984375 384.398438 L 238.984375 385.539062 L 239.839844 386.964844 L 241.265625 387.535156 L 242.40625 388.960938 L 242.691406 390.386719 L 242.40625 391.8125 L 242.40625 417.1875 L 242.691406 418.613281 L 242.40625 420.035156 L 241.550781 421.460938 L 240.410156 422.03125 L 239.269531 423.171875 L 238.414062 424.597656 L 236.992188 425.453125 L 235.851562 426.59375 L 234.996094 428.019531 L 233.570312 428.875 L 232.429688 430.015625 L 231.574219 431.441406 L 230.148438 432.296875 L 229.007812 433.4375 L 228.152344 434.863281 L 226.726562 435.71875 L 224.160156 435.71875 L 222.734375 436.003906 L 221.878906 437.425781 L 221.023438 438.566406 L 219.597656 439.136719 L 181.683594 439.136719 Z M 180.257812 367.007812 "/>
<path style="fill-rule:nonzero;fill:rgb(83.529412%,36.862745%,0%);fill-opacity:1;stroke-width:0.75;stroke-linecap:round;stroke-linejoin:round;stroke:rgb(20%,20%,20%);stroke-opacity:1;stroke-miterlimit:10;" d="M 257.617188 366.804688 L 258.902344 366.621094 L 260.371094 366.621094 L 261.65625 366.4375 L 262.941406 366.4375 L 264.226562 367.171875 L 264.960938 368.640625 L 266.246094 369.191406 L 267.53125 369.191406 L 268.816406 369.375 L 269.917969 370.476562 L 270.835938 371.761719 L 272.121094 371.945312 L 277.445312 371.945312 L 278.730469 371.761719 L 280.199219 372.496094 L 280.933594 373.78125 L 282.035156 374.515625 L 283.320312 374.699219 L 284.789062 374.515625 L 287.359375 374.515625 L 288.457031 375.433594 L 289.375 376.902344 L 290.660156 377.269531 L 300.023438 377.269531 L 301.308594 377.453125 L 302.226562 378.738281 L 303.328125 379.839844 L 304.613281 380.023438 L 305.898438 380.023438 L 307.183594 379.839844 L 308.652344 379.839844 L 309.9375 380.757812 L 310.488281 382.042969 L 311.773438 382.59375 L 313.242188 382.59375 L 314.527344 382.777344 L 315.445312 383.878906 L 315.628906 385.164062 L 315.445312 386.632812 L 316.363281 387.734375 L 317.648438 388.46875 L 318.199219 389.753906 L 318.199219 411.234375 L 318.382812 412.519531 L 318.199219 413.804688 L 315.628906 416.007812 L 314.710938 417.292969 L 313.425781 417.660156 L 312.140625 417.476562 L 310.671875 418.027344 L 309.9375 419.3125 L 308.652344 420.230469 L 307.550781 421.332031 L 306.632812 422.800781 L 305.347656 422.984375 L 302.777344 422.984375 L 301.308594 422.800781 L 300.023438 423.351562 L 299.289062 424.636719 L 298.003906 425.738281 L 296.902344 426.839844 L 295.800781 428.125 L 294.515625 428.859375 L 293.597656 430.328125 L 292.3125 431.246094 L 291.394531 432.34375 L 290.476562 433.445312 L 289.007812 433.628906 L 287.726562 433.628906 L 286.441406 434.179688 L 285.707031 435.464844 L 284.421875 436.382812 L 283.503906 437.484375 L 282.585938 438.769531 L 281.300781 439.136719 L 280.015625 439.136719 L 278.914062 438.953125 L 258.902344 438.953125 Z M 257.617188 366.804688 "/>
<path style="fill-rule:nonzero;fill:rgb(83.529412%,36.862745%,0%);fill-opacity:1;stroke-width:0.75;stroke-linecap:round;stroke-linejoin:round;stroke:rgb(20%,20%,20%);stroke-opacity:1;stroke-miterlimit:10;" d="M 333.640625 366.859375 L 335.109375 366.648438 L 360.113281 366.648438 L 361.585938 366.4375 L 362.84375 366.4375 L 364.316406 367.28125 L 365.15625 368.75 L 366.417969 369.378906 L 369.148438 369.378906 L 371.25 371.902344 L 372.511719 372.113281 L 373.980469 372.113281 L 375.453125 372.742188 L 376.082031 374.003906 L 377.34375 374.84375 L 378.8125 375.054688 L 380.074219 374.84375 L 382.804688 374.84375 L 384.066406 375.894531 L 384.277344 377.363281 L 384.277344 378.625 L 384.695312 380.097656 L 386.167969 380.515625 L 387.429688 380.304688 L 388.898438 380.726562 L 389.949219 382.199219 L 391 383.246094 L 392.261719 384.296875 L 393.101562 385.558594 L 394.570312 386.398438 L 395.414062 387.871094 L 395.414062 414.34375 L 395.203125 415.605469 L 392.679688 417.707031 L 392.472656 418.96875 L 392.679688 420.4375 L 391.839844 421.910156 L 390.578125 422.539062 L 389.738281 423.800781 L 388.6875 424.851562 L 387.21875 425.0625 L 385.746094 425.0625 L 384.488281 425.691406 L 383.644531 427.160156 L 382.175781 428.003906 L 381.335938 429.261719 L 380.074219 430.523438 L 379.023438 431.363281 L 377.972656 432.835938 L 376.503906 433.675781 L 375.871094 434.9375 L 374.402344 436.195312 L 371.667969 436.195312 L 370.199219 435.988281 L 368.726562 436.195312 L 367.675781 437.039062 L 366.835938 438.507812 L 365.785156 439.136719 L 364.316406 438.929688 L 335.109375 438.929688 Z M 333.640625 366.859375 "/>
<path style="fill-rule:nonzero;fill:rgb(83.529412%,36.862745%,0%);fill-opacity:1;stroke-width:0.75;stroke-linecap:round;stroke-linejoin:round;stroke:rgb(20%,20%,20%);stroke-opacity:1;stroke-miterlimit:10;" d="M 412.320312 366.707031 L 413.65625 366.4375 L 451.609375 366.4375 L 452.945312 366.707031 L 454.28125 367.507812 L 455.082031 368.84375 L 455.886719 370.179688 L 456.953125 370.984375 L 458.289062 371.785156 L 459.628906 372.851562 L 460.160156 374.191406 L 460.160156 376.863281 L 459.894531 378.199219 L 460.429688 379.535156 L 461.765625 380.605469 L 463.101562 381.40625 L 464.4375 382.476562 L 464.972656 383.542969 L 464.972656 386.21875 L 464.707031 387.554688 L 465.238281 388.890625 L 466.308594 390.226562 L 467.644531 390.761719 L 468.980469 391.832031 L 469.785156 393.167969 L 469.785156 416.6875 L 469.25 418.023438 L 467.914062 419.09375 L 466.84375 419.628906 L 465.507812 420.695312 L 464.707031 422.03125 L 463.902344 423.367188 L 462.566406 424.171875 L 461.230469 424.972656 L 460.160156 426.308594 L 459.628906 427.644531 L 458.289062 428.714844 L 456.953125 429.515625 L 455.886719 430.585938 L 455.082031 431.65625 L 454.28125 432.992188 L 451.609375 434.59375 L 450.539062 435.929688 L 450.003906 437.265625 L 448.667969 438.605469 L 447.332031 438.871094 L 443.589844 438.871094 L 442.519531 439.136719 L 441.183594 438.871094 L 413.65625 438.871094 Z M 412.320312 366.707031 "/>
<path style="fill-rule:nonzero;fill:rgb(83.529412%,36.862745%,0%);fill-opacity:1;stroke-width:0.75;stroke-linecap:round;stroke-linejoin:round;stroke:rgb(20%,20%,20%);stroke-opacity:1;stroke-miterlimit:10;" d="M 481.226562 369.796875 L 482.808594 369.402344 L 512.441406 369.402344 L 513.625 369.007812 L 518.367188 369.007812 L 519.550781 369.402344 L 521.132812 369.796875 L 522.714844 370.585938 L 524.292969 372.167969 L 524.6875 373.351562 L 525.480469 374.933594 L 526.269531 376.515625 L 527.058594 377.699219 L 528.640625 378.488281 L 530.21875 378.882812 L 538.914062 378.882812 L 540.492188 379.28125 L 542.074219 380.464844 L 543.257812 382.046875 L 544.050781 383.230469 L 544.839844 384.8125 L 545.628906 386.390625 L 547.210938 387.578125 L 548.394531 388.367188 L 549.976562 388.761719 L 551.554688 389.949219 L 553.136719 391.527344 L 553.53125 392.714844 L 553.925781 394.292969 L 553.925781 412.074219 L 553.136719 413.652344 L 552.742188 414.839844 L 551.160156 416.023438 L 549.582031 417.210938 L 548 417.605469 L 546.816406 418.394531 L 545.234375 419.976562 L 544.445312 421.554688 L 543.652344 423.136719 L 542.863281 424.320312 L 541.679688 425.902344 L 540.097656 426.691406 L 538.519531 427.085938 L 534.171875 427.085938 L 532.589844 426.691406 L 531.40625 426.691406 L 529.824219 427.085938 L 528.246094 427.484375 L 526.664062 428.667969 L 525.875 429.851562 L 525.085938 431.433594 L 524.292969 433.015625 L 523.503906 434.199219 L 522.320312 435.386719 L 520.738281 436.175781 L 519.15625 436.570312 L 482.808594 436.570312 Z M 481.226562 369.796875 "/>
<path style="fill-rule:nonzero;fill:rgb(83.529412%,36.862745%,0%);fill-opacity:1;stroke-width:0.75;stroke-linecap:round;stroke-linejoin:round;stroke:rgb(20%,20%,20%);stroke-opacity:1;stroke-miterlimit:10;" d="M 30.679688 443.191406 L 31.8125 442.964844 L 66.6875 442.964844 L 68.046875 443.191406 L 68.953125 443.871094 L 69.859375 445.230469 L 70.765625 446.136719 L 72.125 447.042969 L 72.804688 448.171875 L 73.9375 449.304688 L 75.070312 449.984375 L 76.203125 451.34375 L 76.878906 452.476562 L 78.238281 453.15625 L 79.371094 454.289062 L 80.050781 455.648438 L 81.183594 456.328125 L 82.542969 457.460938 L 82.996094 458.589844 L 84.355469 459.496094 L 85.488281 460.175781 L 86.167969 461.535156 L 86.167969 483.730469 L 85.714844 485.089844 L 84.582031 485.996094 L 83.222656 486.675781 L 82.769531 487.808594 L 82.769531 490.296875 L 82.542969 491.65625 L 81.410156 492.5625 L 80.050781 493.242188 L 79.371094 494.375 L 78.464844 495.734375 L 77.332031 496.1875 L 75.976562 495.960938 L 74.84375 495.960938 L 73.484375 496.414062 L 72.804688 497.546875 L 71.898438 498.90625 L 70.765625 499.359375 L 68.273438 499.359375 L 66.914062 499.808594 L 66.238281 500.941406 L 65.332031 502.300781 L 64.199219 502.753906 L 62.839844 502.753906 L 61.707031 502.527344 L 60.347656 502.980469 L 59.667969 504.113281 L 58.761719 505.472656 L 57.628906 506.152344 L 56.496094 507.285156 L 55.820312 508.417969 L 54.460938 509.324219 L 50.835938 509.324219 L 49.476562 509.097656 L 48.34375 509.097656 L 46.984375 509.777344 L 46.304688 510.90625 L 45.398438 512.265625 L 44.269531 512.71875 L 42.910156 512.71875 L 42.230469 512.492188 L 34.757812 512.492188 L 33.625 513.398438 L 32.945312 514.53125 L 31.8125 515.664062 Z M 30.679688 443.191406 "/>
<path style="fill-rule:nonzero;fill:rgb(83.529412%,36.862745%,0%);fill-opacity:1;stroke-width:0.75;stroke-linecap:round;stroke-linejoin:round;stroke:rgb(20%,20%,20%);stroke-opacity:1;stroke-miterlimit:10;" d="M 111.109375 443.359375 L 112.292969 443.160156 L 114.457031 443.160156 L 115.445312 442.964844 L 116.625 442.964844 L 117.609375 443.160156 L 118.792969 443.949219 L 119.382812 444.933594 L 120.171875 446.117188 L 121.15625 446.511719 L 122.339844 446.3125 L 123.324219 446.3125 L 124.507812 446.511719 L 125.492188 447.300781 L 125.886719 448.480469 L 126.675781 449.269531 L 127.855469 449.664062 L 130.023438 449.664062 L 131.207031 449.859375 L 132.191406 450.84375 L 132.78125 452.027344 L 133.570312 452.816406 L 134.75 453.40625 L 135.539062 454.390625 L 136.128906 455.574219 L 137.117188 456.164062 L 138.296875 456.363281 L 139.28125 456.164062 L 140.464844 456.164062 L 141.449219 456.753906 L 142.238281 457.9375 L 142.828125 458.921875 L 144.011719 459.515625 L 144.996094 460.300781 L 145.585938 461.484375 L 146.375 462.46875 L 147.558594 463.058594 L 148.347656 463.847656 L 149.132812 465.03125 L 150.117188 466.015625 L 151.105469 466.410156 L 151.890625 467.589844 L 152.484375 468.578125 L 153.664062 469.363281 L 154.648438 469.957031 L 155.4375 471.136719 L 156.03125 472.125 L 157.210938 472.714844 L 158.195312 473.503906 L 158.789062 474.683594 L 158.789062 475.667969 L 158.589844 476.851562 L 158.589844 491.035156 L 158.789062 492.023438 L 158.789062 493.203125 L 158.589844 494.1875 L 157.800781 495.371094 L 156.816406 495.765625 L 155.636719 496.554688 L 155.242188 497.539062 L 155.242188 498.71875 L 155.4375 499.707031 L 155.242188 500.886719 L 154.453125 501.871094 L 153.269531 502.464844 L 152.484375 503.25 L 151.890625 504.433594 L 150.710938 505.417969 L 149.726562 505.8125 L 148.542969 505.617188 L 144.207031 505.617188 L 143.222656 505.8125 L 142.238281 506.996094 L 141.84375 507.980469 L 140.660156 508.964844 L 138.496094 508.964844 L 137.511719 508.769531 L 136.328125 509.359375 L 135.738281 510.34375 L 134.949219 511.527344 L 133.964844 512.117188 L 132.78125 512.316406 L 131.796875 512.316406 L 130.8125 512.117188 L 129.628906 512.707031 L 129.039062 513.695312 L 128.445312 514.875 L 127.460938 515.46875 L 126.28125 515.664062 L 125.292969 515.46875 L 112.292969 515.46875 Z M 111.109375 443.359375 "/>
</g>
</svg>
